G04 #@! TF.GenerationSoftware,KiCad,Pcbnew,(5.1.5)-3*
G04 #@! TF.CreationDate,2023-01-24T14:10:26+01:00*
G04 #@! TF.ProjectId,pump controller schematics,70756d70-2063-46f6-9e74-726f6c6c6572,rev?*
G04 #@! TF.SameCoordinates,Original*
G04 #@! TF.FileFunction,Soldermask,Bot*
G04 #@! TF.FilePolarity,Negative*
%FSLAX46Y46*%
G04 Gerber Fmt 4.6, Leading zero omitted, Abs format (unit mm)*
G04 Created by KiCad (PCBNEW (5.1.5)-3) date 2023-01-24 14:10:26*
%MOMM*%
%LPD*%
G04 APERTURE LIST*
%ADD10C,0.100000*%
G04 APERTURE END LIST*
D10*
G36*
X24368228Y-65381703D02*
G01*
X24523100Y-65445853D01*
X24662481Y-65538985D01*
X24781015Y-65657519D01*
X24874147Y-65796900D01*
X24938297Y-65951772D01*
X24971000Y-66116184D01*
X24971000Y-66283816D01*
X24938297Y-66448228D01*
X24874147Y-66603100D01*
X24781015Y-66742481D01*
X24662481Y-66861015D01*
X24523100Y-66954147D01*
X24368228Y-67018297D01*
X24203816Y-67051000D01*
X24036184Y-67051000D01*
X23871772Y-67018297D01*
X23716900Y-66954147D01*
X23577519Y-66861015D01*
X23458985Y-66742481D01*
X23365853Y-66603100D01*
X23301703Y-66448228D01*
X23269000Y-66283816D01*
X23269000Y-66116184D01*
X23301703Y-65951772D01*
X23365853Y-65796900D01*
X23458985Y-65657519D01*
X23577519Y-65538985D01*
X23716900Y-65445853D01*
X23871772Y-65381703D01*
X24036184Y-65349000D01*
X24203816Y-65349000D01*
X24368228Y-65381703D01*
G37*
G36*
X16748228Y-65381703D02*
G01*
X16903100Y-65445853D01*
X17042481Y-65538985D01*
X17161015Y-65657519D01*
X17254147Y-65796900D01*
X17318297Y-65951772D01*
X17351000Y-66116184D01*
X17351000Y-66283816D01*
X17318297Y-66448228D01*
X17254147Y-66603100D01*
X17161015Y-66742481D01*
X17042481Y-66861015D01*
X16903100Y-66954147D01*
X16748228Y-67018297D01*
X16583816Y-67051000D01*
X16416184Y-67051000D01*
X16251772Y-67018297D01*
X16096900Y-66954147D01*
X15957519Y-66861015D01*
X15838985Y-66742481D01*
X15745853Y-66603100D01*
X15681703Y-66448228D01*
X15649000Y-66283816D01*
X15649000Y-66116184D01*
X15681703Y-65951772D01*
X15745853Y-65796900D01*
X15838985Y-65657519D01*
X15957519Y-65538985D01*
X16096900Y-65445853D01*
X16251772Y-65381703D01*
X16416184Y-65349000D01*
X16583816Y-65349000D01*
X16748228Y-65381703D01*
G37*
G36*
X44081368Y-64475592D02*
G01*
X44295734Y-64518232D01*
X44429353Y-64573579D01*
X44493497Y-64600148D01*
X44505203Y-64604997D01*
X44693720Y-64730960D01*
X44854040Y-64891280D01*
X44980003Y-65079797D01*
X45066768Y-65289266D01*
X45079505Y-65353298D01*
X45109571Y-65504449D01*
X45111000Y-65511636D01*
X45111000Y-65738364D01*
X45066768Y-65960734D01*
X44980003Y-66170203D01*
X44854040Y-66358720D01*
X44693720Y-66519040D01*
X44505203Y-66645003D01*
X44295734Y-66731768D01*
X44184549Y-66753884D01*
X44073365Y-66776000D01*
X43846635Y-66776000D01*
X43735451Y-66753884D01*
X43624266Y-66731768D01*
X43414797Y-66645003D01*
X43226280Y-66519040D01*
X43065960Y-66358720D01*
X42939997Y-66170203D01*
X42853232Y-65960734D01*
X42809000Y-65738364D01*
X42809000Y-65511636D01*
X42810430Y-65504449D01*
X42840495Y-65353298D01*
X42853232Y-65289266D01*
X42939997Y-65079797D01*
X43065960Y-64891280D01*
X43226280Y-64730960D01*
X43414797Y-64604997D01*
X43426504Y-64600148D01*
X43490647Y-64573579D01*
X43624266Y-64518232D01*
X43838632Y-64475592D01*
X43846635Y-64474000D01*
X44073365Y-64474000D01*
X44081368Y-64475592D01*
G37*
G36*
X34951000Y-66776000D02*
G01*
X32649000Y-66776000D01*
X32649000Y-64474000D01*
X34951000Y-64474000D01*
X34951000Y-66776000D01*
G37*
G36*
X12083512Y-64403927D02*
G01*
X12232812Y-64433624D01*
X12396784Y-64501544D01*
X12544354Y-64600147D01*
X12669853Y-64725646D01*
X12768456Y-64873216D01*
X12836376Y-65037188D01*
X12871000Y-65211259D01*
X12871000Y-65388741D01*
X12836376Y-65562812D01*
X12768456Y-65726784D01*
X12669853Y-65874354D01*
X12544354Y-65999853D01*
X12396784Y-66098456D01*
X12232812Y-66166376D01*
X12083512Y-66196073D01*
X12058742Y-66201000D01*
X11881258Y-66201000D01*
X11856488Y-66196073D01*
X11707188Y-66166376D01*
X11543216Y-66098456D01*
X11395646Y-65999853D01*
X11270147Y-65874354D01*
X11171544Y-65726784D01*
X11103624Y-65562812D01*
X11069000Y-65388741D01*
X11069000Y-65211259D01*
X11103624Y-65037188D01*
X11171544Y-64873216D01*
X11270147Y-64725646D01*
X11395646Y-64600147D01*
X11543216Y-64501544D01*
X11707188Y-64433624D01*
X11856488Y-64403927D01*
X11881258Y-64399000D01*
X12058742Y-64399000D01*
X12083512Y-64403927D01*
G37*
G36*
X7791000Y-66201000D02*
G01*
X5989000Y-66201000D01*
X5989000Y-64399000D01*
X7791000Y-64399000D01*
X7791000Y-66201000D01*
G37*
G36*
X9543512Y-64403927D02*
G01*
X9692812Y-64433624D01*
X9856784Y-64501544D01*
X10004354Y-64600147D01*
X10129853Y-64725646D01*
X10228456Y-64873216D01*
X10296376Y-65037188D01*
X10331000Y-65211259D01*
X10331000Y-65388741D01*
X10296376Y-65562812D01*
X10228456Y-65726784D01*
X10129853Y-65874354D01*
X10004354Y-65999853D01*
X9856784Y-66098456D01*
X9692812Y-66166376D01*
X9543512Y-66196073D01*
X9518742Y-66201000D01*
X9341258Y-66201000D01*
X9316488Y-66196073D01*
X9167188Y-66166376D01*
X9003216Y-66098456D01*
X8855646Y-65999853D01*
X8730147Y-65874354D01*
X8631544Y-65726784D01*
X8563624Y-65562812D01*
X8529000Y-65388741D01*
X8529000Y-65211259D01*
X8563624Y-65037188D01*
X8631544Y-64873216D01*
X8730147Y-64725646D01*
X8855646Y-64600147D01*
X9003216Y-64501544D01*
X9167188Y-64433624D01*
X9316488Y-64403927D01*
X9341258Y-64399000D01*
X9518742Y-64399000D01*
X9543512Y-64403927D01*
G37*
G36*
X28742916Y-64307334D02*
G01*
X28851492Y-64340271D01*
X28851495Y-64340272D01*
X28887601Y-64359571D01*
X28951557Y-64393756D01*
X29039264Y-64465736D01*
X29102383Y-64542646D01*
X29119702Y-64559965D01*
X29140077Y-64573579D01*
X29162716Y-64582957D01*
X29186749Y-64587737D01*
X29211253Y-64587737D01*
X29235286Y-64582957D01*
X29257925Y-64573579D01*
X29278299Y-64559966D01*
X29295626Y-64542639D01*
X29309240Y-64522264D01*
X29318618Y-64499625D01*
X29323398Y-64475592D01*
X29324000Y-64463340D01*
X29324000Y-64299000D01*
X30476000Y-64299000D01*
X30476000Y-65901000D01*
X29324000Y-65901000D01*
X29324000Y-65736660D01*
X29321598Y-65712274D01*
X29314485Y-65688825D01*
X29302934Y-65667214D01*
X29287389Y-65648272D01*
X29268447Y-65632727D01*
X29246836Y-65621176D01*
X29223387Y-65614063D01*
X29199001Y-65611661D01*
X29174615Y-65614063D01*
X29151166Y-65621176D01*
X29129555Y-65632727D01*
X29102381Y-65657356D01*
X29039264Y-65734264D01*
X28951556Y-65806244D01*
X28887600Y-65840429D01*
X28851494Y-65859728D01*
X28851491Y-65859729D01*
X28742915Y-65892666D01*
X28630000Y-65903787D01*
X28517084Y-65892666D01*
X28408508Y-65859729D01*
X28408505Y-65859728D01*
X28372399Y-65840429D01*
X28308443Y-65806244D01*
X28220736Y-65734264D01*
X28148756Y-65646556D01*
X28105239Y-65565140D01*
X28091625Y-65544766D01*
X28074298Y-65527439D01*
X28053924Y-65513825D01*
X28031285Y-65504448D01*
X28007251Y-65499668D01*
X27982747Y-65499668D01*
X27958714Y-65504449D01*
X27936075Y-65513826D01*
X27915701Y-65527440D01*
X27898374Y-65544767D01*
X27884762Y-65565140D01*
X27841244Y-65646557D01*
X27769264Y-65734264D01*
X27681556Y-65806244D01*
X27617600Y-65840429D01*
X27581494Y-65859728D01*
X27581491Y-65859729D01*
X27472915Y-65892666D01*
X27360000Y-65903787D01*
X27247084Y-65892666D01*
X27138508Y-65859729D01*
X27138505Y-65859728D01*
X27102399Y-65840429D01*
X27038443Y-65806244D01*
X26950736Y-65734264D01*
X26878756Y-65646556D01*
X26835239Y-65565140D01*
X26825272Y-65546494D01*
X26819492Y-65527440D01*
X26792334Y-65437915D01*
X26784000Y-65353297D01*
X26784000Y-64846702D01*
X26792334Y-64762084D01*
X26825271Y-64653508D01*
X26825272Y-64653505D01*
X26878756Y-64553445D01*
X26878757Y-64553443D01*
X26950737Y-64465736D01*
X27038444Y-64393756D01*
X27102400Y-64359571D01*
X27138506Y-64340272D01*
X27138509Y-64340271D01*
X27247085Y-64307334D01*
X27360000Y-64296213D01*
X27472916Y-64307334D01*
X27581492Y-64340271D01*
X27581495Y-64340272D01*
X27617601Y-64359571D01*
X27681557Y-64393756D01*
X27769264Y-64465736D01*
X27841244Y-64553443D01*
X27884761Y-64634859D01*
X27898375Y-64655234D01*
X27915702Y-64672561D01*
X27936076Y-64686174D01*
X27958715Y-64695552D01*
X27982748Y-64700332D01*
X28007252Y-64700332D01*
X28031285Y-64695552D01*
X28053924Y-64686174D01*
X28074299Y-64672560D01*
X28091626Y-64655233D01*
X28105239Y-64634859D01*
X28148756Y-64553445D01*
X28148757Y-64553443D01*
X28220737Y-64465736D01*
X28308444Y-64393756D01*
X28372400Y-64359571D01*
X28408506Y-64340272D01*
X28408509Y-64340271D01*
X28517085Y-64307334D01*
X28630000Y-64296213D01*
X28742916Y-64307334D01*
G37*
G36*
X21201000Y-63801000D02*
G01*
X19399000Y-63801000D01*
X19399000Y-61999000D01*
X21201000Y-61999000D01*
X21201000Y-63801000D01*
G37*
G36*
X49013512Y-60333927D02*
G01*
X49162812Y-60363624D01*
X49326784Y-60431544D01*
X49474354Y-60530147D01*
X49599853Y-60655646D01*
X49698456Y-60803216D01*
X49766376Y-60967188D01*
X49801000Y-61141259D01*
X49801000Y-61318741D01*
X49766376Y-61492812D01*
X49698456Y-61656784D01*
X49599853Y-61804354D01*
X49474354Y-61929853D01*
X49326784Y-62028456D01*
X49162812Y-62096376D01*
X49013512Y-62126073D01*
X48988742Y-62131000D01*
X48811258Y-62131000D01*
X48786488Y-62126073D01*
X48637188Y-62096376D01*
X48473216Y-62028456D01*
X48325646Y-61929853D01*
X48200147Y-61804354D01*
X48101544Y-61656784D01*
X48033624Y-61492812D01*
X47999000Y-61318741D01*
X47999000Y-61141259D01*
X48033624Y-60967188D01*
X48101544Y-60803216D01*
X48200147Y-60655646D01*
X48325646Y-60530147D01*
X48473216Y-60431544D01*
X48637188Y-60363624D01*
X48786488Y-60333927D01*
X48811258Y-60329000D01*
X48988742Y-60329000D01*
X49013512Y-60333927D01*
G37*
G36*
X6126000Y-61426000D02*
G01*
X4474000Y-61426000D01*
X4474000Y-59774000D01*
X6126000Y-59774000D01*
X6126000Y-61426000D01*
G37*
G36*
X16748228Y-58381703D02*
G01*
X16903100Y-58445853D01*
X17042481Y-58538985D01*
X17161015Y-58657519D01*
X17254147Y-58796900D01*
X17318297Y-58951772D01*
X17351000Y-59116184D01*
X17351000Y-59283816D01*
X17318297Y-59448228D01*
X17254147Y-59603100D01*
X17161015Y-59742481D01*
X17042481Y-59861015D01*
X16903100Y-59954147D01*
X16748228Y-60018297D01*
X16583816Y-60051000D01*
X16416184Y-60051000D01*
X16251772Y-60018297D01*
X16096900Y-59954147D01*
X15957519Y-59861015D01*
X15838985Y-59742481D01*
X15745853Y-59603100D01*
X15681703Y-59448228D01*
X15649000Y-59283816D01*
X15649000Y-59116184D01*
X15681703Y-58951772D01*
X15745853Y-58796900D01*
X15838985Y-58657519D01*
X15957519Y-58538985D01*
X16096900Y-58445853D01*
X16251772Y-58381703D01*
X16416184Y-58349000D01*
X16583816Y-58349000D01*
X16748228Y-58381703D01*
G37*
G36*
X24368228Y-58381703D02*
G01*
X24523100Y-58445853D01*
X24662481Y-58538985D01*
X24781015Y-58657519D01*
X24874147Y-58796900D01*
X24938297Y-58951772D01*
X24971000Y-59116184D01*
X24971000Y-59283816D01*
X24938297Y-59448228D01*
X24874147Y-59603100D01*
X24781015Y-59742481D01*
X24662481Y-59861015D01*
X24523100Y-59954147D01*
X24368228Y-60018297D01*
X24203816Y-60051000D01*
X24036184Y-60051000D01*
X23871772Y-60018297D01*
X23716900Y-59954147D01*
X23577519Y-59861015D01*
X23458985Y-59742481D01*
X23365853Y-59603100D01*
X23301703Y-59448228D01*
X23269000Y-59283816D01*
X23269000Y-59116184D01*
X23301703Y-58951772D01*
X23365853Y-58796900D01*
X23458985Y-58657519D01*
X23577519Y-58538985D01*
X23716900Y-58445853D01*
X23871772Y-58381703D01*
X24036184Y-58349000D01*
X24203816Y-58349000D01*
X24368228Y-58381703D01*
G37*
G36*
X49013512Y-57793927D02*
G01*
X49162812Y-57823624D01*
X49326784Y-57891544D01*
X49474354Y-57990147D01*
X49599853Y-58115646D01*
X49698456Y-58263216D01*
X49766376Y-58427188D01*
X49801000Y-58601259D01*
X49801000Y-58778741D01*
X49766376Y-58952812D01*
X49698456Y-59116784D01*
X49599853Y-59264354D01*
X49474354Y-59389853D01*
X49326784Y-59488456D01*
X49162812Y-59556376D01*
X49013512Y-59586073D01*
X48988742Y-59591000D01*
X48811258Y-59591000D01*
X48786488Y-59586073D01*
X48637188Y-59556376D01*
X48473216Y-59488456D01*
X48325646Y-59389853D01*
X48200147Y-59264354D01*
X48101544Y-59116784D01*
X48033624Y-58952812D01*
X47999000Y-58778741D01*
X47999000Y-58601259D01*
X48033624Y-58427188D01*
X48101544Y-58263216D01*
X48200147Y-58115646D01*
X48325646Y-57990147D01*
X48473216Y-57891544D01*
X48637188Y-57823624D01*
X48786488Y-57793927D01*
X48811258Y-57789000D01*
X48988742Y-57789000D01*
X49013512Y-57793927D01*
G37*
G36*
X44184549Y-56646116D02*
G01*
X44295734Y-56668232D01*
X44505203Y-56754997D01*
X44693720Y-56880960D01*
X44854040Y-57041280D01*
X44980003Y-57229797D01*
X45066135Y-57437737D01*
X45066768Y-57439267D01*
X45111000Y-57661635D01*
X45111000Y-57888365D01*
X45090754Y-57990147D01*
X45066768Y-58110734D01*
X44980003Y-58320203D01*
X44854040Y-58508720D01*
X44693720Y-58669040D01*
X44505203Y-58795003D01*
X44505202Y-58795004D01*
X44505201Y-58795004D01*
X44500616Y-58796903D01*
X44295734Y-58881768D01*
X44232947Y-58894257D01*
X44073365Y-58926000D01*
X43846635Y-58926000D01*
X43687053Y-58894257D01*
X43624266Y-58881768D01*
X43419384Y-58796903D01*
X43414799Y-58795004D01*
X43414798Y-58795004D01*
X43414797Y-58795003D01*
X43226280Y-58669040D01*
X43065960Y-58508720D01*
X42939997Y-58320203D01*
X42853232Y-58110734D01*
X42829246Y-57990147D01*
X42809000Y-57888365D01*
X42809000Y-57661635D01*
X42853232Y-57439267D01*
X42853866Y-57437737D01*
X42939997Y-57229797D01*
X43065960Y-57041280D01*
X43226280Y-56880960D01*
X43414797Y-56754997D01*
X43624266Y-56668232D01*
X43735451Y-56646116D01*
X43846635Y-56624000D01*
X44073365Y-56624000D01*
X44184549Y-56646116D01*
G37*
G36*
X34951000Y-58926000D02*
G01*
X32649000Y-58926000D01*
X32649000Y-56624000D01*
X34951000Y-56624000D01*
X34951000Y-58926000D01*
G37*
G36*
X10540935Y-57305742D02*
G01*
X10691258Y-57368008D01*
X10826545Y-57458404D01*
X10941596Y-57573455D01*
X11031992Y-57708742D01*
X11094258Y-57859065D01*
X11126000Y-58018646D01*
X11126000Y-58181354D01*
X11094258Y-58340935D01*
X11031992Y-58491258D01*
X10941596Y-58626545D01*
X10826545Y-58741596D01*
X10691258Y-58831992D01*
X10540935Y-58894258D01*
X10381354Y-58926000D01*
X10218646Y-58926000D01*
X10059065Y-58894258D01*
X9908742Y-58831992D01*
X9773455Y-58741596D01*
X9658404Y-58626545D01*
X9568008Y-58491258D01*
X9505742Y-58340935D01*
X9474000Y-58181354D01*
X9474000Y-58018646D01*
X9505742Y-57859065D01*
X9568008Y-57708742D01*
X9658404Y-57573455D01*
X9773455Y-57458404D01*
X9908742Y-57368008D01*
X10059065Y-57305742D01*
X10218646Y-57274000D01*
X10381354Y-57274000D01*
X10540935Y-57305742D01*
G37*
G36*
X28742916Y-57157334D02*
G01*
X28851492Y-57190271D01*
X28851495Y-57190272D01*
X28887601Y-57209571D01*
X28951557Y-57243756D01*
X29039264Y-57315736D01*
X29102383Y-57392646D01*
X29119702Y-57409965D01*
X29140077Y-57423579D01*
X29162716Y-57432957D01*
X29186749Y-57437737D01*
X29211253Y-57437737D01*
X29235286Y-57432957D01*
X29257925Y-57423579D01*
X29278299Y-57409966D01*
X29295626Y-57392639D01*
X29309240Y-57372264D01*
X29318618Y-57349625D01*
X29323398Y-57325592D01*
X29324000Y-57313340D01*
X29324000Y-57149000D01*
X30476000Y-57149000D01*
X30476000Y-58751000D01*
X29324000Y-58751000D01*
X29324000Y-58586660D01*
X29321598Y-58562274D01*
X29314485Y-58538825D01*
X29302934Y-58517214D01*
X29287389Y-58498272D01*
X29268447Y-58482727D01*
X29246836Y-58471176D01*
X29223387Y-58464063D01*
X29199001Y-58461661D01*
X29174615Y-58464063D01*
X29151166Y-58471176D01*
X29129555Y-58482727D01*
X29102381Y-58507356D01*
X29039264Y-58584264D01*
X28951556Y-58656244D01*
X28887600Y-58690429D01*
X28851494Y-58709728D01*
X28851491Y-58709729D01*
X28742915Y-58742666D01*
X28630000Y-58753787D01*
X28517084Y-58742666D01*
X28408508Y-58709729D01*
X28408505Y-58709728D01*
X28372399Y-58690429D01*
X28308443Y-58656244D01*
X28220736Y-58584264D01*
X28148756Y-58496556D01*
X28105239Y-58415140D01*
X28091625Y-58394766D01*
X28074298Y-58377439D01*
X28053924Y-58363825D01*
X28031285Y-58354448D01*
X28007251Y-58349668D01*
X27982747Y-58349668D01*
X27958714Y-58354449D01*
X27936075Y-58363826D01*
X27915701Y-58377440D01*
X27898374Y-58394767D01*
X27884762Y-58415140D01*
X27841244Y-58496557D01*
X27769264Y-58584264D01*
X27681556Y-58656244D01*
X27617600Y-58690429D01*
X27581494Y-58709728D01*
X27581491Y-58709729D01*
X27472915Y-58742666D01*
X27360000Y-58753787D01*
X27247084Y-58742666D01*
X27138508Y-58709729D01*
X27138505Y-58709728D01*
X27102399Y-58690429D01*
X27038443Y-58656244D01*
X26950736Y-58584264D01*
X26878756Y-58496556D01*
X26835239Y-58415140D01*
X26825272Y-58396494D01*
X26819492Y-58377440D01*
X26792334Y-58287915D01*
X26784000Y-58203297D01*
X26784000Y-57696702D01*
X26792334Y-57612084D01*
X26825271Y-57503508D01*
X26825272Y-57503505D01*
X26878756Y-57403445D01*
X26878757Y-57403443D01*
X26950737Y-57315736D01*
X27038444Y-57243756D01*
X27102400Y-57209571D01*
X27138506Y-57190272D01*
X27138509Y-57190271D01*
X27247085Y-57157334D01*
X27360000Y-57146213D01*
X27472916Y-57157334D01*
X27581492Y-57190271D01*
X27581495Y-57190272D01*
X27617601Y-57209571D01*
X27681557Y-57243756D01*
X27769264Y-57315736D01*
X27841244Y-57403443D01*
X27884761Y-57484859D01*
X27898375Y-57505234D01*
X27915702Y-57522561D01*
X27936076Y-57536174D01*
X27958715Y-57545552D01*
X27982748Y-57550332D01*
X28007252Y-57550332D01*
X28031285Y-57545552D01*
X28053924Y-57536174D01*
X28074299Y-57522560D01*
X28091626Y-57505233D01*
X28105239Y-57484859D01*
X28148756Y-57403445D01*
X28148757Y-57403443D01*
X28220737Y-57315736D01*
X28308444Y-57243756D01*
X28372400Y-57209571D01*
X28408506Y-57190272D01*
X28408509Y-57190271D01*
X28517085Y-57157334D01*
X28630000Y-57146213D01*
X28742916Y-57157334D01*
G37*
G36*
X49801000Y-57051000D02*
G01*
X47999000Y-57051000D01*
X47999000Y-55249000D01*
X49801000Y-55249000D01*
X49801000Y-57051000D01*
G37*
G36*
X21201000Y-56501000D02*
G01*
X19399000Y-56501000D01*
X19399000Y-54699000D01*
X21201000Y-54699000D01*
X21201000Y-56501000D01*
G37*
G36*
X5540935Y-54805742D02*
G01*
X5691258Y-54868008D01*
X5826545Y-54958404D01*
X5941596Y-55073455D01*
X6031992Y-55208742D01*
X6094258Y-55359065D01*
X6126000Y-55518646D01*
X6126000Y-55681354D01*
X6094258Y-55840935D01*
X6031992Y-55991258D01*
X5941596Y-56126545D01*
X5826545Y-56241596D01*
X5691258Y-56331992D01*
X5540935Y-56394258D01*
X5381354Y-56426000D01*
X5218646Y-56426000D01*
X5059065Y-56394258D01*
X4908742Y-56331992D01*
X4773455Y-56241596D01*
X4658404Y-56126545D01*
X4568008Y-55991258D01*
X4505742Y-55840935D01*
X4474000Y-55681354D01*
X4474000Y-55518646D01*
X4505742Y-55359065D01*
X4568008Y-55208742D01*
X4658404Y-55073455D01*
X4773455Y-54958404D01*
X4908742Y-54868008D01*
X5059065Y-54805742D01*
X5218646Y-54774000D01*
X5381354Y-54774000D01*
X5540935Y-54805742D01*
G37*
G36*
X5548228Y-51001703D02*
G01*
X5703100Y-51065853D01*
X5842481Y-51158985D01*
X5961015Y-51277519D01*
X6054147Y-51416900D01*
X6118297Y-51571772D01*
X6151000Y-51736184D01*
X6151000Y-51903816D01*
X6118297Y-52068228D01*
X6054147Y-52223100D01*
X5961015Y-52362481D01*
X5842481Y-52481015D01*
X5703100Y-52574147D01*
X5548228Y-52638297D01*
X5383816Y-52671000D01*
X5216184Y-52671000D01*
X5051772Y-52638297D01*
X4896900Y-52574147D01*
X4757519Y-52481015D01*
X4638985Y-52362481D01*
X4545853Y-52223100D01*
X4481703Y-52068228D01*
X4449000Y-51903816D01*
X4449000Y-51736184D01*
X4481703Y-51571772D01*
X4545853Y-51416900D01*
X4638985Y-51277519D01*
X4757519Y-51158985D01*
X4896900Y-51065853D01*
X5051772Y-51001703D01*
X5216184Y-50969000D01*
X5383816Y-50969000D01*
X5548228Y-51001703D01*
G37*
G36*
X9348228Y-51001703D02*
G01*
X9503100Y-51065853D01*
X9642481Y-51158985D01*
X9761015Y-51277519D01*
X9854147Y-51416900D01*
X9918297Y-51571772D01*
X9951000Y-51736184D01*
X9951000Y-51903816D01*
X9918297Y-52068228D01*
X9854147Y-52223100D01*
X9761015Y-52362481D01*
X9642481Y-52481015D01*
X9503100Y-52574147D01*
X9348228Y-52638297D01*
X9183816Y-52671000D01*
X9016184Y-52671000D01*
X8851772Y-52638297D01*
X8696900Y-52574147D01*
X8557519Y-52481015D01*
X8438985Y-52362481D01*
X8345853Y-52223100D01*
X8281703Y-52068228D01*
X8249000Y-51903816D01*
X8249000Y-51736184D01*
X8281703Y-51571772D01*
X8345853Y-51416900D01*
X8438985Y-51277519D01*
X8557519Y-51158985D01*
X8696900Y-51065853D01*
X8851772Y-51001703D01*
X9016184Y-50969000D01*
X9183816Y-50969000D01*
X9348228Y-51001703D01*
G37*
G36*
X49013512Y-50208927D02*
G01*
X49162812Y-50238624D01*
X49326784Y-50306544D01*
X49474354Y-50405147D01*
X49599853Y-50530646D01*
X49698456Y-50678216D01*
X49766376Y-50842188D01*
X49801000Y-51016259D01*
X49801000Y-51193741D01*
X49766376Y-51367812D01*
X49698456Y-51531784D01*
X49599853Y-51679354D01*
X49474354Y-51804853D01*
X49326784Y-51903456D01*
X49162812Y-51971376D01*
X49013512Y-52001073D01*
X48988742Y-52006000D01*
X48811258Y-52006000D01*
X48786488Y-52001073D01*
X48637188Y-51971376D01*
X48473216Y-51903456D01*
X48325646Y-51804853D01*
X48200147Y-51679354D01*
X48101544Y-51531784D01*
X48033624Y-51367812D01*
X47999000Y-51193741D01*
X47999000Y-51016259D01*
X48033624Y-50842188D01*
X48101544Y-50678216D01*
X48200147Y-50530646D01*
X48325646Y-50405147D01*
X48473216Y-50306544D01*
X48637188Y-50238624D01*
X48786488Y-50208927D01*
X48811258Y-50204000D01*
X48988742Y-50204000D01*
X49013512Y-50208927D01*
G37*
G36*
X16748228Y-48481703D02*
G01*
X16903100Y-48545853D01*
X17042481Y-48638985D01*
X17161015Y-48757519D01*
X17254147Y-48896900D01*
X17318297Y-49051772D01*
X17351000Y-49216184D01*
X17351000Y-49383816D01*
X17318297Y-49548228D01*
X17254147Y-49703100D01*
X17161015Y-49842481D01*
X17042481Y-49961015D01*
X16903100Y-50054147D01*
X16748228Y-50118297D01*
X16583816Y-50151000D01*
X16416184Y-50151000D01*
X16251772Y-50118297D01*
X16096900Y-50054147D01*
X15957519Y-49961015D01*
X15838985Y-49842481D01*
X15745853Y-49703100D01*
X15681703Y-49548228D01*
X15649000Y-49383816D01*
X15649000Y-49216184D01*
X15681703Y-49051772D01*
X15745853Y-48896900D01*
X15838985Y-48757519D01*
X15957519Y-48638985D01*
X16096900Y-48545853D01*
X16251772Y-48481703D01*
X16416184Y-48449000D01*
X16583816Y-48449000D01*
X16748228Y-48481703D01*
G37*
G36*
X24368228Y-48481703D02*
G01*
X24523100Y-48545853D01*
X24662481Y-48638985D01*
X24781015Y-48757519D01*
X24874147Y-48896900D01*
X24938297Y-49051772D01*
X24971000Y-49216184D01*
X24971000Y-49383816D01*
X24938297Y-49548228D01*
X24874147Y-49703100D01*
X24781015Y-49842481D01*
X24662481Y-49961015D01*
X24523100Y-50054147D01*
X24368228Y-50118297D01*
X24203816Y-50151000D01*
X24036184Y-50151000D01*
X23871772Y-50118297D01*
X23716900Y-50054147D01*
X23577519Y-49961015D01*
X23458985Y-49842481D01*
X23365853Y-49703100D01*
X23301703Y-49548228D01*
X23269000Y-49383816D01*
X23269000Y-49216184D01*
X23301703Y-49051772D01*
X23365853Y-48896900D01*
X23458985Y-48757519D01*
X23577519Y-48638985D01*
X23716900Y-48545853D01*
X23871772Y-48481703D01*
X24036184Y-48449000D01*
X24203816Y-48449000D01*
X24368228Y-48481703D01*
G37*
G36*
X49013512Y-47668927D02*
G01*
X49162812Y-47698624D01*
X49326784Y-47766544D01*
X49474354Y-47865147D01*
X49599853Y-47990646D01*
X49698456Y-48138216D01*
X49766376Y-48302188D01*
X49801000Y-48476259D01*
X49801000Y-48653741D01*
X49766376Y-48827812D01*
X49698456Y-48991784D01*
X49599853Y-49139354D01*
X49474354Y-49264853D01*
X49326784Y-49363456D01*
X49162812Y-49431376D01*
X49013512Y-49461073D01*
X48988742Y-49466000D01*
X48811258Y-49466000D01*
X48786488Y-49461073D01*
X48637188Y-49431376D01*
X48473216Y-49363456D01*
X48325646Y-49264853D01*
X48200147Y-49139354D01*
X48101544Y-48991784D01*
X48033624Y-48827812D01*
X47999000Y-48653741D01*
X47999000Y-48476259D01*
X48033624Y-48302188D01*
X48101544Y-48138216D01*
X48200147Y-47990646D01*
X48325646Y-47865147D01*
X48473216Y-47766544D01*
X48637188Y-47698624D01*
X48786488Y-47668927D01*
X48811258Y-47664000D01*
X48988742Y-47664000D01*
X49013512Y-47668927D01*
G37*
G36*
X34951000Y-49276000D02*
G01*
X32649000Y-49276000D01*
X32649000Y-46974000D01*
X34951000Y-46974000D01*
X34951000Y-49276000D01*
G37*
G36*
X44184549Y-46996116D02*
G01*
X44295734Y-47018232D01*
X44505203Y-47104997D01*
X44693720Y-47230960D01*
X44854040Y-47391280D01*
X44980003Y-47579797D01*
X44980004Y-47579799D01*
X44998138Y-47623579D01*
X45044777Y-47736174D01*
X45066768Y-47789267D01*
X45111000Y-48011635D01*
X45111000Y-48238365D01*
X45088884Y-48349549D01*
X45066768Y-48460734D01*
X45029930Y-48549668D01*
X44986822Y-48653742D01*
X44980003Y-48670203D01*
X44854040Y-48858720D01*
X44693720Y-49019040D01*
X44505203Y-49145003D01*
X44295734Y-49231768D01*
X44184549Y-49253884D01*
X44073365Y-49276000D01*
X43846635Y-49276000D01*
X43735451Y-49253884D01*
X43624266Y-49231768D01*
X43414797Y-49145003D01*
X43226280Y-49019040D01*
X43065960Y-48858720D01*
X42939997Y-48670203D01*
X42933179Y-48653742D01*
X42890070Y-48549668D01*
X42853232Y-48460734D01*
X42831116Y-48349549D01*
X42809000Y-48238365D01*
X42809000Y-48011635D01*
X42853232Y-47789267D01*
X42875224Y-47736174D01*
X42921862Y-47623579D01*
X42939996Y-47579799D01*
X42939997Y-47579797D01*
X43065960Y-47391280D01*
X43226280Y-47230960D01*
X43414797Y-47104997D01*
X43624266Y-47018232D01*
X43735451Y-46996116D01*
X43846635Y-46974000D01*
X44073365Y-46974000D01*
X44184549Y-46996116D01*
G37*
G36*
X28742916Y-47357334D02*
G01*
X28851492Y-47390271D01*
X28851495Y-47390272D01*
X28887601Y-47409571D01*
X28951557Y-47443756D01*
X29039264Y-47515736D01*
X29102383Y-47592646D01*
X29119702Y-47609965D01*
X29140077Y-47623579D01*
X29162716Y-47632957D01*
X29186749Y-47637737D01*
X29211253Y-47637737D01*
X29235286Y-47632957D01*
X29257925Y-47623579D01*
X29278299Y-47609966D01*
X29295626Y-47592639D01*
X29309240Y-47572264D01*
X29318618Y-47549625D01*
X29323398Y-47525592D01*
X29324000Y-47513340D01*
X29324000Y-47349000D01*
X30476000Y-47349000D01*
X30476000Y-48951000D01*
X29324000Y-48951000D01*
X29324000Y-48786660D01*
X29321598Y-48762274D01*
X29314485Y-48738825D01*
X29302934Y-48717214D01*
X29287389Y-48698272D01*
X29268447Y-48682727D01*
X29246836Y-48671176D01*
X29223387Y-48664063D01*
X29199001Y-48661661D01*
X29174615Y-48664063D01*
X29151166Y-48671176D01*
X29129555Y-48682727D01*
X29102381Y-48707356D01*
X29039264Y-48784264D01*
X28951556Y-48856244D01*
X28887600Y-48890429D01*
X28851494Y-48909728D01*
X28851491Y-48909729D01*
X28742915Y-48942666D01*
X28630000Y-48953787D01*
X28517084Y-48942666D01*
X28408508Y-48909729D01*
X28408505Y-48909728D01*
X28372399Y-48890429D01*
X28308443Y-48856244D01*
X28220736Y-48784264D01*
X28148756Y-48696556D01*
X28105239Y-48615140D01*
X28091625Y-48594766D01*
X28074298Y-48577439D01*
X28053924Y-48563825D01*
X28031285Y-48554448D01*
X28007251Y-48549668D01*
X27982747Y-48549668D01*
X27958714Y-48554449D01*
X27936075Y-48563826D01*
X27915701Y-48577440D01*
X27898374Y-48594767D01*
X27884762Y-48615140D01*
X27841244Y-48696557D01*
X27769264Y-48784264D01*
X27681556Y-48856244D01*
X27617600Y-48890429D01*
X27581494Y-48909728D01*
X27581491Y-48909729D01*
X27472915Y-48942666D01*
X27360000Y-48953787D01*
X27247084Y-48942666D01*
X27138508Y-48909729D01*
X27138505Y-48909728D01*
X27102399Y-48890429D01*
X27038443Y-48856244D01*
X26950736Y-48784264D01*
X26878756Y-48696556D01*
X26835239Y-48615140D01*
X26825272Y-48596494D01*
X26819492Y-48577440D01*
X26792334Y-48487915D01*
X26784000Y-48403297D01*
X26784000Y-47896702D01*
X26792334Y-47812084D01*
X26825271Y-47703508D01*
X26825272Y-47703505D01*
X26878756Y-47603445D01*
X26878757Y-47603443D01*
X26950737Y-47515736D01*
X27038444Y-47443756D01*
X27102400Y-47409571D01*
X27138506Y-47390272D01*
X27138509Y-47390271D01*
X27247085Y-47357334D01*
X27360000Y-47346213D01*
X27472916Y-47357334D01*
X27581492Y-47390271D01*
X27581495Y-47390272D01*
X27617601Y-47409571D01*
X27681557Y-47443756D01*
X27769264Y-47515736D01*
X27841244Y-47603443D01*
X27857019Y-47632957D01*
X27884761Y-47684859D01*
X27898375Y-47705234D01*
X27915702Y-47722561D01*
X27936076Y-47736174D01*
X27958715Y-47745552D01*
X27982748Y-47750332D01*
X28007252Y-47750332D01*
X28031285Y-47745552D01*
X28053924Y-47736174D01*
X28074299Y-47722560D01*
X28091626Y-47705233D01*
X28105239Y-47684859D01*
X28148756Y-47603445D01*
X28148757Y-47603443D01*
X28220737Y-47515736D01*
X28308444Y-47443756D01*
X28372400Y-47409571D01*
X28408506Y-47390272D01*
X28408509Y-47390271D01*
X28517085Y-47357334D01*
X28630000Y-47346213D01*
X28742916Y-47357334D01*
G37*
G36*
X49801000Y-46926000D02*
G01*
X47999000Y-46926000D01*
X47999000Y-45124000D01*
X49801000Y-45124000D01*
X49801000Y-46926000D01*
G37*
G36*
X21201000Y-46501000D02*
G01*
X19399000Y-46501000D01*
X19399000Y-44699000D01*
X21201000Y-44699000D01*
X21201000Y-46501000D01*
G37*
G36*
X9951000Y-45051000D02*
G01*
X8249000Y-45051000D01*
X8249000Y-43349000D01*
X9951000Y-43349000D01*
X9951000Y-45051000D01*
G37*
G36*
X6151000Y-45051000D02*
G01*
X4449000Y-45051000D01*
X4449000Y-43349000D01*
X6151000Y-43349000D01*
X6151000Y-45051000D01*
G37*
G36*
X48938512Y-40233927D02*
G01*
X49087812Y-40263624D01*
X49251784Y-40331544D01*
X49399354Y-40430147D01*
X49524853Y-40555646D01*
X49623456Y-40703216D01*
X49691376Y-40867188D01*
X49726000Y-41041259D01*
X49726000Y-41218741D01*
X49691376Y-41392812D01*
X49623456Y-41556784D01*
X49524853Y-41704354D01*
X49399354Y-41829853D01*
X49251784Y-41928456D01*
X49087812Y-41996376D01*
X48938512Y-42026073D01*
X48913742Y-42031000D01*
X48736258Y-42031000D01*
X48711488Y-42026073D01*
X48562188Y-41996376D01*
X48398216Y-41928456D01*
X48250646Y-41829853D01*
X48125147Y-41704354D01*
X48026544Y-41556784D01*
X47958624Y-41392812D01*
X47924000Y-41218741D01*
X47924000Y-41041259D01*
X47958624Y-40867188D01*
X48026544Y-40703216D01*
X48125147Y-40555646D01*
X48250646Y-40430147D01*
X48398216Y-40331544D01*
X48562188Y-40263624D01*
X48711488Y-40233927D01*
X48736258Y-40229000D01*
X48913742Y-40229000D01*
X48938512Y-40233927D01*
G37*
G36*
X28277395Y-39145546D02*
G01*
X28450466Y-39217234D01*
X28450467Y-39217235D01*
X28606227Y-39321310D01*
X28738690Y-39453773D01*
X28740429Y-39456376D01*
X28842766Y-39609534D01*
X28914454Y-39782605D01*
X28951000Y-39966333D01*
X28951000Y-40153667D01*
X28914454Y-40337395D01*
X28842766Y-40510466D01*
X28842765Y-40510467D01*
X28738690Y-40666227D01*
X28606227Y-40798690D01*
X28527818Y-40851081D01*
X28450466Y-40902766D01*
X28277395Y-40974454D01*
X28093667Y-41011000D01*
X27906333Y-41011000D01*
X27722605Y-40974454D01*
X27549534Y-40902766D01*
X27472182Y-40851081D01*
X27393773Y-40798690D01*
X27261310Y-40666227D01*
X27157235Y-40510467D01*
X27157234Y-40510466D01*
X27085546Y-40337395D01*
X27049000Y-40153667D01*
X27049000Y-39966333D01*
X27085546Y-39782605D01*
X27157234Y-39609534D01*
X27259571Y-39456376D01*
X27261310Y-39453773D01*
X27393773Y-39321310D01*
X27549533Y-39217235D01*
X27549534Y-39217234D01*
X27722605Y-39145546D01*
X27906333Y-39109000D01*
X28093667Y-39109000D01*
X28277395Y-39145546D01*
G37*
G36*
X30817395Y-39145546D02*
G01*
X30990466Y-39217234D01*
X30990467Y-39217235D01*
X31146227Y-39321310D01*
X31278690Y-39453773D01*
X31280429Y-39456376D01*
X31382766Y-39609534D01*
X31454454Y-39782605D01*
X31491000Y-39966333D01*
X31491000Y-40153667D01*
X31454454Y-40337395D01*
X31382766Y-40510466D01*
X31382765Y-40510467D01*
X31278690Y-40666227D01*
X31146227Y-40798690D01*
X31067818Y-40851081D01*
X30990466Y-40902766D01*
X30817395Y-40974454D01*
X30633667Y-41011000D01*
X30446333Y-41011000D01*
X30262605Y-40974454D01*
X30089534Y-40902766D01*
X30012182Y-40851081D01*
X29933773Y-40798690D01*
X29801310Y-40666227D01*
X29697235Y-40510467D01*
X29697234Y-40510466D01*
X29625546Y-40337395D01*
X29589000Y-40153667D01*
X29589000Y-39966333D01*
X29625546Y-39782605D01*
X29697234Y-39609534D01*
X29799571Y-39456376D01*
X29801310Y-39453773D01*
X29933773Y-39321310D01*
X30089533Y-39217235D01*
X30089534Y-39217234D01*
X30262605Y-39145546D01*
X30446333Y-39109000D01*
X30633667Y-39109000D01*
X30817395Y-39145546D01*
G37*
G36*
X33357395Y-39145546D02*
G01*
X33530466Y-39217234D01*
X33530467Y-39217235D01*
X33686227Y-39321310D01*
X33818690Y-39453773D01*
X33820429Y-39456376D01*
X33922766Y-39609534D01*
X33994454Y-39782605D01*
X34031000Y-39966333D01*
X34031000Y-40153667D01*
X33994454Y-40337395D01*
X33922766Y-40510466D01*
X33922765Y-40510467D01*
X33818690Y-40666227D01*
X33686227Y-40798690D01*
X33607818Y-40851081D01*
X33530466Y-40902766D01*
X33357395Y-40974454D01*
X33173667Y-41011000D01*
X32986333Y-41011000D01*
X32802605Y-40974454D01*
X32629534Y-40902766D01*
X32552182Y-40851081D01*
X32473773Y-40798690D01*
X32341310Y-40666227D01*
X32237235Y-40510467D01*
X32237234Y-40510466D01*
X32165546Y-40337395D01*
X32129000Y-40153667D01*
X32129000Y-39966333D01*
X32165546Y-39782605D01*
X32237234Y-39609534D01*
X32339571Y-39456376D01*
X32341310Y-39453773D01*
X32473773Y-39321310D01*
X32629533Y-39217235D01*
X32629534Y-39217234D01*
X32802605Y-39145546D01*
X32986333Y-39109000D01*
X33173667Y-39109000D01*
X33357395Y-39145546D01*
G37*
G36*
X35897395Y-39145546D02*
G01*
X36070466Y-39217234D01*
X36070467Y-39217235D01*
X36226227Y-39321310D01*
X36358690Y-39453773D01*
X36360429Y-39456376D01*
X36462766Y-39609534D01*
X36534454Y-39782605D01*
X36571000Y-39966333D01*
X36571000Y-40153667D01*
X36534454Y-40337395D01*
X36462766Y-40510466D01*
X36462765Y-40510467D01*
X36358690Y-40666227D01*
X36226227Y-40798690D01*
X36147818Y-40851081D01*
X36070466Y-40902766D01*
X35897395Y-40974454D01*
X35713667Y-41011000D01*
X35526333Y-41011000D01*
X35342605Y-40974454D01*
X35169534Y-40902766D01*
X35092182Y-40851081D01*
X35013773Y-40798690D01*
X34881310Y-40666227D01*
X34777235Y-40510467D01*
X34777234Y-40510466D01*
X34705546Y-40337395D01*
X34669000Y-40153667D01*
X34669000Y-39966333D01*
X34705546Y-39782605D01*
X34777234Y-39609534D01*
X34879571Y-39456376D01*
X34881310Y-39453773D01*
X35013773Y-39321310D01*
X35169533Y-39217235D01*
X35169534Y-39217234D01*
X35342605Y-39145546D01*
X35526333Y-39109000D01*
X35713667Y-39109000D01*
X35897395Y-39145546D01*
G37*
G36*
X38437395Y-39145546D02*
G01*
X38610466Y-39217234D01*
X38610467Y-39217235D01*
X38766227Y-39321310D01*
X38898690Y-39453773D01*
X38900429Y-39456376D01*
X39002766Y-39609534D01*
X39074454Y-39782605D01*
X39111000Y-39966333D01*
X39111000Y-40153667D01*
X39074454Y-40337395D01*
X39002766Y-40510466D01*
X39002765Y-40510467D01*
X38898690Y-40666227D01*
X38766227Y-40798690D01*
X38687818Y-40851081D01*
X38610466Y-40902766D01*
X38437395Y-40974454D01*
X38253667Y-41011000D01*
X38066333Y-41011000D01*
X37882605Y-40974454D01*
X37709534Y-40902766D01*
X37632182Y-40851081D01*
X37553773Y-40798690D01*
X37421310Y-40666227D01*
X37317235Y-40510467D01*
X37317234Y-40510466D01*
X37245546Y-40337395D01*
X37209000Y-40153667D01*
X37209000Y-39966333D01*
X37245546Y-39782605D01*
X37317234Y-39609534D01*
X37419571Y-39456376D01*
X37421310Y-39453773D01*
X37553773Y-39321310D01*
X37709533Y-39217235D01*
X37709534Y-39217234D01*
X37882605Y-39145546D01*
X38066333Y-39109000D01*
X38253667Y-39109000D01*
X38437395Y-39145546D01*
G37*
G36*
X40977395Y-39145546D02*
G01*
X41150466Y-39217234D01*
X41150467Y-39217235D01*
X41306227Y-39321310D01*
X41438690Y-39453773D01*
X41440429Y-39456376D01*
X41542766Y-39609534D01*
X41614454Y-39782605D01*
X41651000Y-39966333D01*
X41651000Y-40153667D01*
X41614454Y-40337395D01*
X41542766Y-40510466D01*
X41542765Y-40510467D01*
X41438690Y-40666227D01*
X41306227Y-40798690D01*
X41227818Y-40851081D01*
X41150466Y-40902766D01*
X40977395Y-40974454D01*
X40793667Y-41011000D01*
X40606333Y-41011000D01*
X40422605Y-40974454D01*
X40249534Y-40902766D01*
X40172182Y-40851081D01*
X40093773Y-40798690D01*
X39961310Y-40666227D01*
X39857235Y-40510467D01*
X39857234Y-40510466D01*
X39785546Y-40337395D01*
X39749000Y-40153667D01*
X39749000Y-39966333D01*
X39785546Y-39782605D01*
X39857234Y-39609534D01*
X39959571Y-39456376D01*
X39961310Y-39453773D01*
X40093773Y-39321310D01*
X40249533Y-39217235D01*
X40249534Y-39217234D01*
X40422605Y-39145546D01*
X40606333Y-39109000D01*
X40793667Y-39109000D01*
X40977395Y-39145546D01*
G37*
G36*
X43517395Y-39145546D02*
G01*
X43690466Y-39217234D01*
X43690467Y-39217235D01*
X43846227Y-39321310D01*
X43978690Y-39453773D01*
X43980429Y-39456376D01*
X44082766Y-39609534D01*
X44154454Y-39782605D01*
X44191000Y-39966333D01*
X44191000Y-40153667D01*
X44154454Y-40337395D01*
X44082766Y-40510466D01*
X44082765Y-40510467D01*
X43978690Y-40666227D01*
X43846227Y-40798690D01*
X43767818Y-40851081D01*
X43690466Y-40902766D01*
X43517395Y-40974454D01*
X43333667Y-41011000D01*
X43146333Y-41011000D01*
X42962605Y-40974454D01*
X42789534Y-40902766D01*
X42712182Y-40851081D01*
X42633773Y-40798690D01*
X42501310Y-40666227D01*
X42397235Y-40510467D01*
X42397234Y-40510466D01*
X42325546Y-40337395D01*
X42289000Y-40153667D01*
X42289000Y-39966333D01*
X42325546Y-39782605D01*
X42397234Y-39609534D01*
X42499571Y-39456376D01*
X42501310Y-39453773D01*
X42633773Y-39321310D01*
X42789533Y-39217235D01*
X42789534Y-39217234D01*
X42962605Y-39145546D01*
X43146333Y-39109000D01*
X43333667Y-39109000D01*
X43517395Y-39145546D01*
G37*
G36*
X3748228Y-38481703D02*
G01*
X3903100Y-38545853D01*
X4042481Y-38638985D01*
X4161015Y-38757519D01*
X4254147Y-38896900D01*
X4318297Y-39051772D01*
X4351000Y-39216184D01*
X4351000Y-39383816D01*
X4318297Y-39548228D01*
X4254147Y-39703100D01*
X4161015Y-39842481D01*
X4042481Y-39961015D01*
X3903100Y-40054147D01*
X3748228Y-40118297D01*
X3583816Y-40151000D01*
X3416184Y-40151000D01*
X3251772Y-40118297D01*
X3096900Y-40054147D01*
X2957519Y-39961015D01*
X2838985Y-39842481D01*
X2745853Y-39703100D01*
X2681703Y-39548228D01*
X2649000Y-39383816D01*
X2649000Y-39216184D01*
X2681703Y-39051772D01*
X2745853Y-38896900D01*
X2838985Y-38757519D01*
X2957519Y-38638985D01*
X3096900Y-38545853D01*
X3251772Y-38481703D01*
X3416184Y-38449000D01*
X3583816Y-38449000D01*
X3748228Y-38481703D01*
G37*
G36*
X11368228Y-38481703D02*
G01*
X11523100Y-38545853D01*
X11662481Y-38638985D01*
X11781015Y-38757519D01*
X11874147Y-38896900D01*
X11938297Y-39051772D01*
X11971000Y-39216184D01*
X11971000Y-39383816D01*
X11938297Y-39548228D01*
X11874147Y-39703100D01*
X11781015Y-39842481D01*
X11662481Y-39961015D01*
X11523100Y-40054147D01*
X11368228Y-40118297D01*
X11203816Y-40151000D01*
X11036184Y-40151000D01*
X10871772Y-40118297D01*
X10716900Y-40054147D01*
X10577519Y-39961015D01*
X10458985Y-39842481D01*
X10365853Y-39703100D01*
X10301703Y-39548228D01*
X10269000Y-39383816D01*
X10269000Y-39216184D01*
X10301703Y-39051772D01*
X10365853Y-38896900D01*
X10458985Y-38757519D01*
X10577519Y-38638985D01*
X10716900Y-38545853D01*
X10871772Y-38481703D01*
X11036184Y-38449000D01*
X11203816Y-38449000D01*
X11368228Y-38481703D01*
G37*
G36*
X48938512Y-37693927D02*
G01*
X49087812Y-37723624D01*
X49251784Y-37791544D01*
X49399354Y-37890147D01*
X49524853Y-38015646D01*
X49623456Y-38163216D01*
X49691376Y-38327188D01*
X49726000Y-38501259D01*
X49726000Y-38678741D01*
X49691376Y-38852812D01*
X49623456Y-39016784D01*
X49524853Y-39164354D01*
X49399354Y-39289853D01*
X49251784Y-39388456D01*
X49087812Y-39456376D01*
X48938512Y-39486073D01*
X48913742Y-39491000D01*
X48736258Y-39491000D01*
X48711488Y-39486073D01*
X48562188Y-39456376D01*
X48398216Y-39388456D01*
X48250646Y-39289853D01*
X48125147Y-39164354D01*
X48026544Y-39016784D01*
X47958624Y-38852812D01*
X47924000Y-38678741D01*
X47924000Y-38501259D01*
X47958624Y-38327188D01*
X48026544Y-38163216D01*
X48125147Y-38015646D01*
X48250646Y-37890147D01*
X48398216Y-37791544D01*
X48562188Y-37723624D01*
X48711488Y-37693927D01*
X48736258Y-37689000D01*
X48913742Y-37689000D01*
X48938512Y-37693927D01*
G37*
G36*
X38437395Y-36605546D02*
G01*
X38610466Y-36677234D01*
X38610467Y-36677235D01*
X38766227Y-36781310D01*
X38898690Y-36913773D01*
X38898691Y-36913775D01*
X39002766Y-37069534D01*
X39074454Y-37242605D01*
X39111000Y-37426333D01*
X39111000Y-37613667D01*
X39074454Y-37797395D01*
X39002766Y-37970466D01*
X39002765Y-37970467D01*
X38898690Y-38126227D01*
X38766227Y-38258690D01*
X38687818Y-38311081D01*
X38610466Y-38362766D01*
X38437395Y-38434454D01*
X38253667Y-38471000D01*
X38066333Y-38471000D01*
X37882605Y-38434454D01*
X37709534Y-38362766D01*
X37632182Y-38311081D01*
X37553773Y-38258690D01*
X37421310Y-38126227D01*
X37317235Y-37970467D01*
X37317234Y-37970466D01*
X37245546Y-37797395D01*
X37209000Y-37613667D01*
X37209000Y-37426333D01*
X37245546Y-37242605D01*
X37317234Y-37069534D01*
X37421309Y-36913775D01*
X37421310Y-36913773D01*
X37553773Y-36781310D01*
X37709533Y-36677235D01*
X37709534Y-36677234D01*
X37882605Y-36605546D01*
X38066333Y-36569000D01*
X38253667Y-36569000D01*
X38437395Y-36605546D01*
G37*
G36*
X43517395Y-36605546D02*
G01*
X43690466Y-36677234D01*
X43690467Y-36677235D01*
X43846227Y-36781310D01*
X43978690Y-36913773D01*
X43978691Y-36913775D01*
X44082766Y-37069534D01*
X44154454Y-37242605D01*
X44191000Y-37426333D01*
X44191000Y-37613667D01*
X44154454Y-37797395D01*
X44082766Y-37970466D01*
X44082765Y-37970467D01*
X43978690Y-38126227D01*
X43846227Y-38258690D01*
X43767818Y-38311081D01*
X43690466Y-38362766D01*
X43517395Y-38434454D01*
X43333667Y-38471000D01*
X43146333Y-38471000D01*
X42962605Y-38434454D01*
X42789534Y-38362766D01*
X42712182Y-38311081D01*
X42633773Y-38258690D01*
X42501310Y-38126227D01*
X42397235Y-37970467D01*
X42397234Y-37970466D01*
X42325546Y-37797395D01*
X42289000Y-37613667D01*
X42289000Y-37426333D01*
X42325546Y-37242605D01*
X42397234Y-37069534D01*
X42501309Y-36913775D01*
X42501310Y-36913773D01*
X42633773Y-36781310D01*
X42789533Y-36677235D01*
X42789534Y-36677234D01*
X42962605Y-36605546D01*
X43146333Y-36569000D01*
X43333667Y-36569000D01*
X43517395Y-36605546D01*
G37*
G36*
X28277395Y-36605546D02*
G01*
X28450466Y-36677234D01*
X28450467Y-36677235D01*
X28606227Y-36781310D01*
X28738690Y-36913773D01*
X28738691Y-36913775D01*
X28842766Y-37069534D01*
X28914454Y-37242605D01*
X28951000Y-37426333D01*
X28951000Y-37613667D01*
X28914454Y-37797395D01*
X28842766Y-37970466D01*
X28842765Y-37970467D01*
X28738690Y-38126227D01*
X28606227Y-38258690D01*
X28527818Y-38311081D01*
X28450466Y-38362766D01*
X28277395Y-38434454D01*
X28093667Y-38471000D01*
X27906333Y-38471000D01*
X27722605Y-38434454D01*
X27549534Y-38362766D01*
X27472182Y-38311081D01*
X27393773Y-38258690D01*
X27261310Y-38126227D01*
X27157235Y-37970467D01*
X27157234Y-37970466D01*
X27085546Y-37797395D01*
X27049000Y-37613667D01*
X27049000Y-37426333D01*
X27085546Y-37242605D01*
X27157234Y-37069534D01*
X27261309Y-36913775D01*
X27261310Y-36913773D01*
X27393773Y-36781310D01*
X27549533Y-36677235D01*
X27549534Y-36677234D01*
X27722605Y-36605546D01*
X27906333Y-36569000D01*
X28093667Y-36569000D01*
X28277395Y-36605546D01*
G37*
G36*
X30817395Y-36605546D02*
G01*
X30990466Y-36677234D01*
X30990467Y-36677235D01*
X31146227Y-36781310D01*
X31278690Y-36913773D01*
X31278691Y-36913775D01*
X31382766Y-37069534D01*
X31454454Y-37242605D01*
X31491000Y-37426333D01*
X31491000Y-37613667D01*
X31454454Y-37797395D01*
X31382766Y-37970466D01*
X31382765Y-37970467D01*
X31278690Y-38126227D01*
X31146227Y-38258690D01*
X31067818Y-38311081D01*
X30990466Y-38362766D01*
X30817395Y-38434454D01*
X30633667Y-38471000D01*
X30446333Y-38471000D01*
X30262605Y-38434454D01*
X30089534Y-38362766D01*
X30012182Y-38311081D01*
X29933773Y-38258690D01*
X29801310Y-38126227D01*
X29697235Y-37970467D01*
X29697234Y-37970466D01*
X29625546Y-37797395D01*
X29589000Y-37613667D01*
X29589000Y-37426333D01*
X29625546Y-37242605D01*
X29697234Y-37069534D01*
X29801309Y-36913775D01*
X29801310Y-36913773D01*
X29933773Y-36781310D01*
X30089533Y-36677235D01*
X30089534Y-36677234D01*
X30262605Y-36605546D01*
X30446333Y-36569000D01*
X30633667Y-36569000D01*
X30817395Y-36605546D01*
G37*
G36*
X33357395Y-36605546D02*
G01*
X33530466Y-36677234D01*
X33530467Y-36677235D01*
X33686227Y-36781310D01*
X33818690Y-36913773D01*
X33818691Y-36913775D01*
X33922766Y-37069534D01*
X33994454Y-37242605D01*
X34031000Y-37426333D01*
X34031000Y-37613667D01*
X33994454Y-37797395D01*
X33922766Y-37970466D01*
X33922765Y-37970467D01*
X33818690Y-38126227D01*
X33686227Y-38258690D01*
X33607818Y-38311081D01*
X33530466Y-38362766D01*
X33357395Y-38434454D01*
X33173667Y-38471000D01*
X32986333Y-38471000D01*
X32802605Y-38434454D01*
X32629534Y-38362766D01*
X32552182Y-38311081D01*
X32473773Y-38258690D01*
X32341310Y-38126227D01*
X32237235Y-37970467D01*
X32237234Y-37970466D01*
X32165546Y-37797395D01*
X32129000Y-37613667D01*
X32129000Y-37426333D01*
X32165546Y-37242605D01*
X32237234Y-37069534D01*
X32341309Y-36913775D01*
X32341310Y-36913773D01*
X32473773Y-36781310D01*
X32629533Y-36677235D01*
X32629534Y-36677234D01*
X32802605Y-36605546D01*
X32986333Y-36569000D01*
X33173667Y-36569000D01*
X33357395Y-36605546D01*
G37*
G36*
X35897395Y-36605546D02*
G01*
X36070466Y-36677234D01*
X36070467Y-36677235D01*
X36226227Y-36781310D01*
X36358690Y-36913773D01*
X36358691Y-36913775D01*
X36462766Y-37069534D01*
X36534454Y-37242605D01*
X36571000Y-37426333D01*
X36571000Y-37613667D01*
X36534454Y-37797395D01*
X36462766Y-37970466D01*
X36462765Y-37970467D01*
X36358690Y-38126227D01*
X36226227Y-38258690D01*
X36147818Y-38311081D01*
X36070466Y-38362766D01*
X35897395Y-38434454D01*
X35713667Y-38471000D01*
X35526333Y-38471000D01*
X35342605Y-38434454D01*
X35169534Y-38362766D01*
X35092182Y-38311081D01*
X35013773Y-38258690D01*
X34881310Y-38126227D01*
X34777235Y-37970467D01*
X34777234Y-37970466D01*
X34705546Y-37797395D01*
X34669000Y-37613667D01*
X34669000Y-37426333D01*
X34705546Y-37242605D01*
X34777234Y-37069534D01*
X34881309Y-36913775D01*
X34881310Y-36913773D01*
X35013773Y-36781310D01*
X35169533Y-36677235D01*
X35169534Y-36677234D01*
X35342605Y-36605546D01*
X35526333Y-36569000D01*
X35713667Y-36569000D01*
X35897395Y-36605546D01*
G37*
G36*
X40977395Y-36605546D02*
G01*
X41150466Y-36677234D01*
X41150467Y-36677235D01*
X41306227Y-36781310D01*
X41438690Y-36913773D01*
X41438691Y-36913775D01*
X41542766Y-37069534D01*
X41614454Y-37242605D01*
X41651000Y-37426333D01*
X41651000Y-37613667D01*
X41614454Y-37797395D01*
X41542766Y-37970466D01*
X41542765Y-37970467D01*
X41438690Y-38126227D01*
X41306227Y-38258690D01*
X41227818Y-38311081D01*
X41150466Y-38362766D01*
X40977395Y-38434454D01*
X40793667Y-38471000D01*
X40606333Y-38471000D01*
X40422605Y-38434454D01*
X40249534Y-38362766D01*
X40172182Y-38311081D01*
X40093773Y-38258690D01*
X39961310Y-38126227D01*
X39857235Y-37970467D01*
X39857234Y-37970466D01*
X39785546Y-37797395D01*
X39749000Y-37613667D01*
X39749000Y-37426333D01*
X39785546Y-37242605D01*
X39857234Y-37069534D01*
X39961309Y-36913775D01*
X39961310Y-36913773D01*
X40093773Y-36781310D01*
X40249533Y-36677235D01*
X40249534Y-36677234D01*
X40422605Y-36605546D01*
X40606333Y-36569000D01*
X40793667Y-36569000D01*
X40977395Y-36605546D01*
G37*
G36*
X49726000Y-36951000D02*
G01*
X47924000Y-36951000D01*
X47924000Y-35149000D01*
X49726000Y-35149000D01*
X49726000Y-36951000D01*
G37*
G36*
X28277395Y-34065546D02*
G01*
X28450466Y-34137234D01*
X28466921Y-34148229D01*
X28606227Y-34241310D01*
X28738690Y-34373773D01*
X28738691Y-34373775D01*
X28842766Y-34529534D01*
X28914454Y-34702605D01*
X28951000Y-34886333D01*
X28951000Y-35073667D01*
X28914454Y-35257395D01*
X28842766Y-35430466D01*
X28842765Y-35430467D01*
X28738690Y-35586227D01*
X28606227Y-35718690D01*
X28527818Y-35771081D01*
X28450466Y-35822766D01*
X28277395Y-35894454D01*
X28093667Y-35931000D01*
X27906333Y-35931000D01*
X27722605Y-35894454D01*
X27549534Y-35822766D01*
X27472182Y-35771081D01*
X27393773Y-35718690D01*
X27261310Y-35586227D01*
X27157235Y-35430467D01*
X27157234Y-35430466D01*
X27085546Y-35257395D01*
X27049000Y-35073667D01*
X27049000Y-34886333D01*
X27085546Y-34702605D01*
X27157234Y-34529534D01*
X27261309Y-34373775D01*
X27261310Y-34373773D01*
X27393773Y-34241310D01*
X27533079Y-34148229D01*
X27549534Y-34137234D01*
X27722605Y-34065546D01*
X27906333Y-34029000D01*
X28093667Y-34029000D01*
X28277395Y-34065546D01*
G37*
G36*
X40977395Y-34065546D02*
G01*
X41150466Y-34137234D01*
X41166921Y-34148229D01*
X41306227Y-34241310D01*
X41438690Y-34373773D01*
X41438691Y-34373775D01*
X41542766Y-34529534D01*
X41614454Y-34702605D01*
X41651000Y-34886333D01*
X41651000Y-35073667D01*
X41614454Y-35257395D01*
X41542766Y-35430466D01*
X41542765Y-35430467D01*
X41438690Y-35586227D01*
X41306227Y-35718690D01*
X41227818Y-35771081D01*
X41150466Y-35822766D01*
X40977395Y-35894454D01*
X40793667Y-35931000D01*
X40606333Y-35931000D01*
X40422605Y-35894454D01*
X40249534Y-35822766D01*
X40172182Y-35771081D01*
X40093773Y-35718690D01*
X39961310Y-35586227D01*
X39857235Y-35430467D01*
X39857234Y-35430466D01*
X39785546Y-35257395D01*
X39749000Y-35073667D01*
X39749000Y-34886333D01*
X39785546Y-34702605D01*
X39857234Y-34529534D01*
X39961309Y-34373775D01*
X39961310Y-34373773D01*
X40093773Y-34241310D01*
X40233079Y-34148229D01*
X40249534Y-34137234D01*
X40422605Y-34065546D01*
X40606333Y-34029000D01*
X40793667Y-34029000D01*
X40977395Y-34065546D01*
G37*
G36*
X30817395Y-34065546D02*
G01*
X30990466Y-34137234D01*
X31006921Y-34148229D01*
X31146227Y-34241310D01*
X31278690Y-34373773D01*
X31278691Y-34373775D01*
X31382766Y-34529534D01*
X31454454Y-34702605D01*
X31491000Y-34886333D01*
X31491000Y-35073667D01*
X31454454Y-35257395D01*
X31382766Y-35430466D01*
X31382765Y-35430467D01*
X31278690Y-35586227D01*
X31146227Y-35718690D01*
X31067818Y-35771081D01*
X30990466Y-35822766D01*
X30817395Y-35894454D01*
X30633667Y-35931000D01*
X30446333Y-35931000D01*
X30262605Y-35894454D01*
X30089534Y-35822766D01*
X30012182Y-35771081D01*
X29933773Y-35718690D01*
X29801310Y-35586227D01*
X29697235Y-35430467D01*
X29697234Y-35430466D01*
X29625546Y-35257395D01*
X29589000Y-35073667D01*
X29589000Y-34886333D01*
X29625546Y-34702605D01*
X29697234Y-34529534D01*
X29801309Y-34373775D01*
X29801310Y-34373773D01*
X29933773Y-34241310D01*
X30073079Y-34148229D01*
X30089534Y-34137234D01*
X30262605Y-34065546D01*
X30446333Y-34029000D01*
X30633667Y-34029000D01*
X30817395Y-34065546D01*
G37*
G36*
X35897395Y-34065546D02*
G01*
X36070466Y-34137234D01*
X36086921Y-34148229D01*
X36226227Y-34241310D01*
X36358690Y-34373773D01*
X36358691Y-34373775D01*
X36462766Y-34529534D01*
X36534454Y-34702605D01*
X36571000Y-34886333D01*
X36571000Y-35073667D01*
X36534454Y-35257395D01*
X36462766Y-35430466D01*
X36462765Y-35430467D01*
X36358690Y-35586227D01*
X36226227Y-35718690D01*
X36147818Y-35771081D01*
X36070466Y-35822766D01*
X35897395Y-35894454D01*
X35713667Y-35931000D01*
X35526333Y-35931000D01*
X35342605Y-35894454D01*
X35169534Y-35822766D01*
X35092182Y-35771081D01*
X35013773Y-35718690D01*
X34881310Y-35586227D01*
X34777235Y-35430467D01*
X34777234Y-35430466D01*
X34705546Y-35257395D01*
X34669000Y-35073667D01*
X34669000Y-34886333D01*
X34705546Y-34702605D01*
X34777234Y-34529534D01*
X34881309Y-34373775D01*
X34881310Y-34373773D01*
X35013773Y-34241310D01*
X35153079Y-34148229D01*
X35169534Y-34137234D01*
X35342605Y-34065546D01*
X35526333Y-34029000D01*
X35713667Y-34029000D01*
X35897395Y-34065546D01*
G37*
G36*
X43517395Y-34065546D02*
G01*
X43690466Y-34137234D01*
X43706921Y-34148229D01*
X43846227Y-34241310D01*
X43978690Y-34373773D01*
X43978691Y-34373775D01*
X44082766Y-34529534D01*
X44154454Y-34702605D01*
X44191000Y-34886333D01*
X44191000Y-35073667D01*
X44154454Y-35257395D01*
X44082766Y-35430466D01*
X44082765Y-35430467D01*
X43978690Y-35586227D01*
X43846227Y-35718690D01*
X43767818Y-35771081D01*
X43690466Y-35822766D01*
X43517395Y-35894454D01*
X43333667Y-35931000D01*
X43146333Y-35931000D01*
X42962605Y-35894454D01*
X42789534Y-35822766D01*
X42712182Y-35771081D01*
X42633773Y-35718690D01*
X42501310Y-35586227D01*
X42397235Y-35430467D01*
X42397234Y-35430466D01*
X42325546Y-35257395D01*
X42289000Y-35073667D01*
X42289000Y-34886333D01*
X42325546Y-34702605D01*
X42397234Y-34529534D01*
X42501309Y-34373775D01*
X42501310Y-34373773D01*
X42633773Y-34241310D01*
X42773079Y-34148229D01*
X42789534Y-34137234D01*
X42962605Y-34065546D01*
X43146333Y-34029000D01*
X43333667Y-34029000D01*
X43517395Y-34065546D01*
G37*
G36*
X33357395Y-34065546D02*
G01*
X33530466Y-34137234D01*
X33546921Y-34148229D01*
X33686227Y-34241310D01*
X33818690Y-34373773D01*
X33818691Y-34373775D01*
X33922766Y-34529534D01*
X33994454Y-34702605D01*
X34031000Y-34886333D01*
X34031000Y-35073667D01*
X33994454Y-35257395D01*
X33922766Y-35430466D01*
X33922765Y-35430467D01*
X33818690Y-35586227D01*
X33686227Y-35718690D01*
X33607818Y-35771081D01*
X33530466Y-35822766D01*
X33357395Y-35894454D01*
X33173667Y-35931000D01*
X32986333Y-35931000D01*
X32802605Y-35894454D01*
X32629534Y-35822766D01*
X32552182Y-35771081D01*
X32473773Y-35718690D01*
X32341310Y-35586227D01*
X32237235Y-35430467D01*
X32237234Y-35430466D01*
X32165546Y-35257395D01*
X32129000Y-35073667D01*
X32129000Y-34886333D01*
X32165546Y-34702605D01*
X32237234Y-34529534D01*
X32341309Y-34373775D01*
X32341310Y-34373773D01*
X32473773Y-34241310D01*
X32613079Y-34148229D01*
X32629534Y-34137234D01*
X32802605Y-34065546D01*
X32986333Y-34029000D01*
X33173667Y-34029000D01*
X33357395Y-34065546D01*
G37*
G36*
X38437395Y-34065546D02*
G01*
X38610466Y-34137234D01*
X38626921Y-34148229D01*
X38766227Y-34241310D01*
X38898690Y-34373773D01*
X38898691Y-34373775D01*
X39002766Y-34529534D01*
X39074454Y-34702605D01*
X39111000Y-34886333D01*
X39111000Y-35073667D01*
X39074454Y-35257395D01*
X39002766Y-35430466D01*
X39002765Y-35430467D01*
X38898690Y-35586227D01*
X38766227Y-35718690D01*
X38687818Y-35771081D01*
X38610466Y-35822766D01*
X38437395Y-35894454D01*
X38253667Y-35931000D01*
X38066333Y-35931000D01*
X37882605Y-35894454D01*
X37709534Y-35822766D01*
X37632182Y-35771081D01*
X37553773Y-35718690D01*
X37421310Y-35586227D01*
X37317235Y-35430467D01*
X37317234Y-35430466D01*
X37245546Y-35257395D01*
X37209000Y-35073667D01*
X37209000Y-34886333D01*
X37245546Y-34702605D01*
X37317234Y-34529534D01*
X37421309Y-34373775D01*
X37421310Y-34373773D01*
X37553773Y-34241310D01*
X37693079Y-34148229D01*
X37709534Y-34137234D01*
X37882605Y-34065546D01*
X38066333Y-34029000D01*
X38253667Y-34029000D01*
X38437395Y-34065546D01*
G37*
G36*
X8916823Y-33181313D02*
G01*
X9077242Y-33229976D01*
X9176003Y-33282765D01*
X9225078Y-33308996D01*
X9354659Y-33415341D01*
X9461004Y-33544922D01*
X9461005Y-33544924D01*
X9540024Y-33692758D01*
X9588687Y-33853177D01*
X9605117Y-34020000D01*
X9588687Y-34186823D01*
X9540024Y-34347242D01*
X9469114Y-34479906D01*
X9461004Y-34495078D01*
X9354659Y-34624659D01*
X9225078Y-34731004D01*
X9225076Y-34731005D01*
X9077242Y-34810024D01*
X8916823Y-34858687D01*
X8791804Y-34871000D01*
X7908196Y-34871000D01*
X7783177Y-34858687D01*
X7622758Y-34810024D01*
X7474924Y-34731005D01*
X7474922Y-34731004D01*
X7345341Y-34624659D01*
X7238996Y-34495078D01*
X7230886Y-34479906D01*
X7159976Y-34347242D01*
X7111313Y-34186823D01*
X7094883Y-34020000D01*
X7111313Y-33853177D01*
X7159976Y-33692758D01*
X7238995Y-33544924D01*
X7238996Y-33544922D01*
X7345341Y-33415341D01*
X7474922Y-33308996D01*
X7523997Y-33282765D01*
X7622758Y-33229976D01*
X7783177Y-33181313D01*
X7908196Y-33169000D01*
X8791804Y-33169000D01*
X8916823Y-33181313D01*
G37*
G36*
X16536823Y-33181313D02*
G01*
X16697242Y-33229976D01*
X16796003Y-33282765D01*
X16845078Y-33308996D01*
X16974659Y-33415341D01*
X17081004Y-33544922D01*
X17081005Y-33544924D01*
X17160024Y-33692758D01*
X17208687Y-33853177D01*
X17225117Y-34020000D01*
X17208687Y-34186823D01*
X17160024Y-34347242D01*
X17089114Y-34479906D01*
X17081004Y-34495078D01*
X16974659Y-34624659D01*
X16845078Y-34731004D01*
X16845076Y-34731005D01*
X16697242Y-34810024D01*
X16536823Y-34858687D01*
X16411804Y-34871000D01*
X15528196Y-34871000D01*
X15403177Y-34858687D01*
X15242758Y-34810024D01*
X15094924Y-34731005D01*
X15094922Y-34731004D01*
X14965341Y-34624659D01*
X14858996Y-34495078D01*
X14850886Y-34479906D01*
X14779976Y-34347242D01*
X14731313Y-34186823D01*
X14714883Y-34020000D01*
X14731313Y-33853177D01*
X14779976Y-33692758D01*
X14858995Y-33544924D01*
X14858996Y-33544922D01*
X14965341Y-33415341D01*
X15094922Y-33308996D01*
X15143997Y-33282765D01*
X15242758Y-33229976D01*
X15403177Y-33181313D01*
X15528196Y-33169000D01*
X16411804Y-33169000D01*
X16536823Y-33181313D01*
G37*
G36*
X21098228Y-33081703D02*
G01*
X21253100Y-33145853D01*
X21392481Y-33238985D01*
X21511015Y-33357519D01*
X21604147Y-33496900D01*
X21668297Y-33651772D01*
X21701000Y-33816184D01*
X21701000Y-33983816D01*
X21668297Y-34148228D01*
X21604147Y-34303100D01*
X21511015Y-34442481D01*
X21392481Y-34561015D01*
X21253100Y-34654147D01*
X21098228Y-34718297D01*
X20933816Y-34751000D01*
X20766184Y-34751000D01*
X20601772Y-34718297D01*
X20446900Y-34654147D01*
X20307519Y-34561015D01*
X20188985Y-34442481D01*
X20095853Y-34303100D01*
X20031703Y-34148228D01*
X19999000Y-33983816D01*
X19999000Y-33816184D01*
X20031703Y-33651772D01*
X20095853Y-33496900D01*
X20188985Y-33357519D01*
X20307519Y-33238985D01*
X20446900Y-33145853D01*
X20601772Y-33081703D01*
X20766184Y-33049000D01*
X20933816Y-33049000D01*
X21098228Y-33081703D01*
G37*
G36*
X3598228Y-33081703D02*
G01*
X3753100Y-33145853D01*
X3892481Y-33238985D01*
X4011015Y-33357519D01*
X4104147Y-33496900D01*
X4168297Y-33651772D01*
X4201000Y-33816184D01*
X4201000Y-33983816D01*
X4168297Y-34148228D01*
X4104147Y-34303100D01*
X4011015Y-34442481D01*
X3892481Y-34561015D01*
X3753100Y-34654147D01*
X3598228Y-34718297D01*
X3433816Y-34751000D01*
X3266184Y-34751000D01*
X3101772Y-34718297D01*
X2946900Y-34654147D01*
X2807519Y-34561015D01*
X2688985Y-34442481D01*
X2595853Y-34303100D01*
X2531703Y-34148228D01*
X2499000Y-33983816D01*
X2499000Y-33816184D01*
X2531703Y-33651772D01*
X2595853Y-33496900D01*
X2688985Y-33357519D01*
X2807519Y-33238985D01*
X2946900Y-33145853D01*
X3101772Y-33081703D01*
X3266184Y-33049000D01*
X3433816Y-33049000D01*
X3598228Y-33081703D01*
G37*
G36*
X33357395Y-31525546D02*
G01*
X33530466Y-31597234D01*
X33530467Y-31597235D01*
X33686227Y-31701310D01*
X33818690Y-31833773D01*
X33818691Y-31833775D01*
X33922766Y-31989534D01*
X33994454Y-32162605D01*
X34031000Y-32346333D01*
X34031000Y-32533667D01*
X33994454Y-32717395D01*
X33922766Y-32890466D01*
X33922765Y-32890467D01*
X33818690Y-33046227D01*
X33686227Y-33178690D01*
X33609473Y-33229975D01*
X33530466Y-33282766D01*
X33357395Y-33354454D01*
X33173667Y-33391000D01*
X32986333Y-33391000D01*
X32802605Y-33354454D01*
X32629534Y-33282766D01*
X32550527Y-33229975D01*
X32473773Y-33178690D01*
X32341310Y-33046227D01*
X32237235Y-32890467D01*
X32237234Y-32890466D01*
X32165546Y-32717395D01*
X32129000Y-32533667D01*
X32129000Y-32346333D01*
X32165546Y-32162605D01*
X32237234Y-31989534D01*
X32341309Y-31833775D01*
X32341310Y-31833773D01*
X32473773Y-31701310D01*
X32629533Y-31597235D01*
X32629534Y-31597234D01*
X32802605Y-31525546D01*
X32986333Y-31489000D01*
X33173667Y-31489000D01*
X33357395Y-31525546D01*
G37*
G36*
X43517395Y-31525546D02*
G01*
X43690466Y-31597234D01*
X43690467Y-31597235D01*
X43846227Y-31701310D01*
X43978690Y-31833773D01*
X43978691Y-31833775D01*
X44082766Y-31989534D01*
X44154454Y-32162605D01*
X44191000Y-32346333D01*
X44191000Y-32533667D01*
X44154454Y-32717395D01*
X44082766Y-32890466D01*
X44082765Y-32890467D01*
X43978690Y-33046227D01*
X43846227Y-33178690D01*
X43769473Y-33229975D01*
X43690466Y-33282766D01*
X43517395Y-33354454D01*
X43333667Y-33391000D01*
X43146333Y-33391000D01*
X42962605Y-33354454D01*
X42789534Y-33282766D01*
X42710527Y-33229975D01*
X42633773Y-33178690D01*
X42501310Y-33046227D01*
X42397235Y-32890467D01*
X42397234Y-32890466D01*
X42325546Y-32717395D01*
X42289000Y-32533667D01*
X42289000Y-32346333D01*
X42325546Y-32162605D01*
X42397234Y-31989534D01*
X42501309Y-31833775D01*
X42501310Y-31833773D01*
X42633773Y-31701310D01*
X42789533Y-31597235D01*
X42789534Y-31597234D01*
X42962605Y-31525546D01*
X43146333Y-31489000D01*
X43333667Y-31489000D01*
X43517395Y-31525546D01*
G37*
G36*
X40977395Y-31525546D02*
G01*
X41150466Y-31597234D01*
X41150467Y-31597235D01*
X41306227Y-31701310D01*
X41438690Y-31833773D01*
X41438691Y-31833775D01*
X41542766Y-31989534D01*
X41614454Y-32162605D01*
X41651000Y-32346333D01*
X41651000Y-32533667D01*
X41614454Y-32717395D01*
X41542766Y-32890466D01*
X41542765Y-32890467D01*
X41438690Y-33046227D01*
X41306227Y-33178690D01*
X41229473Y-33229975D01*
X41150466Y-33282766D01*
X40977395Y-33354454D01*
X40793667Y-33391000D01*
X40606333Y-33391000D01*
X40422605Y-33354454D01*
X40249534Y-33282766D01*
X40170527Y-33229975D01*
X40093773Y-33178690D01*
X39961310Y-33046227D01*
X39857235Y-32890467D01*
X39857234Y-32890466D01*
X39785546Y-32717395D01*
X39749000Y-32533667D01*
X39749000Y-32346333D01*
X39785546Y-32162605D01*
X39857234Y-31989534D01*
X39961309Y-31833775D01*
X39961310Y-31833773D01*
X40093773Y-31701310D01*
X40249533Y-31597235D01*
X40249534Y-31597234D01*
X40422605Y-31525546D01*
X40606333Y-31489000D01*
X40793667Y-31489000D01*
X40977395Y-31525546D01*
G37*
G36*
X38437395Y-31525546D02*
G01*
X38610466Y-31597234D01*
X38610467Y-31597235D01*
X38766227Y-31701310D01*
X38898690Y-31833773D01*
X38898691Y-31833775D01*
X39002766Y-31989534D01*
X39074454Y-32162605D01*
X39111000Y-32346333D01*
X39111000Y-32533667D01*
X39074454Y-32717395D01*
X39002766Y-32890466D01*
X39002765Y-32890467D01*
X38898690Y-33046227D01*
X38766227Y-33178690D01*
X38689473Y-33229975D01*
X38610466Y-33282766D01*
X38437395Y-33354454D01*
X38253667Y-33391000D01*
X38066333Y-33391000D01*
X37882605Y-33354454D01*
X37709534Y-33282766D01*
X37630527Y-33229975D01*
X37553773Y-33178690D01*
X37421310Y-33046227D01*
X37317235Y-32890467D01*
X37317234Y-32890466D01*
X37245546Y-32717395D01*
X37209000Y-32533667D01*
X37209000Y-32346333D01*
X37245546Y-32162605D01*
X37317234Y-31989534D01*
X37421309Y-31833775D01*
X37421310Y-31833773D01*
X37553773Y-31701310D01*
X37709533Y-31597235D01*
X37709534Y-31597234D01*
X37882605Y-31525546D01*
X38066333Y-31489000D01*
X38253667Y-31489000D01*
X38437395Y-31525546D01*
G37*
G36*
X35897395Y-31525546D02*
G01*
X36070466Y-31597234D01*
X36070467Y-31597235D01*
X36226227Y-31701310D01*
X36358690Y-31833773D01*
X36358691Y-31833775D01*
X36462766Y-31989534D01*
X36534454Y-32162605D01*
X36571000Y-32346333D01*
X36571000Y-32533667D01*
X36534454Y-32717395D01*
X36462766Y-32890466D01*
X36462765Y-32890467D01*
X36358690Y-33046227D01*
X36226227Y-33178690D01*
X36149473Y-33229975D01*
X36070466Y-33282766D01*
X35897395Y-33354454D01*
X35713667Y-33391000D01*
X35526333Y-33391000D01*
X35342605Y-33354454D01*
X35169534Y-33282766D01*
X35090527Y-33229975D01*
X35013773Y-33178690D01*
X34881310Y-33046227D01*
X34777235Y-32890467D01*
X34777234Y-32890466D01*
X34705546Y-32717395D01*
X34669000Y-32533667D01*
X34669000Y-32346333D01*
X34705546Y-32162605D01*
X34777234Y-31989534D01*
X34881309Y-31833775D01*
X34881310Y-31833773D01*
X35013773Y-31701310D01*
X35169533Y-31597235D01*
X35169534Y-31597234D01*
X35342605Y-31525546D01*
X35526333Y-31489000D01*
X35713667Y-31489000D01*
X35897395Y-31525546D01*
G37*
G36*
X30817395Y-31525546D02*
G01*
X30990466Y-31597234D01*
X30990467Y-31597235D01*
X31146227Y-31701310D01*
X31278690Y-31833773D01*
X31278691Y-31833775D01*
X31382766Y-31989534D01*
X31454454Y-32162605D01*
X31491000Y-32346333D01*
X31491000Y-32533667D01*
X31454454Y-32717395D01*
X31382766Y-32890466D01*
X31382765Y-32890467D01*
X31278690Y-33046227D01*
X31146227Y-33178690D01*
X31069473Y-33229975D01*
X30990466Y-33282766D01*
X30817395Y-33354454D01*
X30633667Y-33391000D01*
X30446333Y-33391000D01*
X30262605Y-33354454D01*
X30089534Y-33282766D01*
X30010527Y-33229975D01*
X29933773Y-33178690D01*
X29801310Y-33046227D01*
X29697235Y-32890467D01*
X29697234Y-32890466D01*
X29625546Y-32717395D01*
X29589000Y-32533667D01*
X29589000Y-32346333D01*
X29625546Y-32162605D01*
X29697234Y-31989534D01*
X29801309Y-31833775D01*
X29801310Y-31833773D01*
X29933773Y-31701310D01*
X30089533Y-31597235D01*
X30089534Y-31597234D01*
X30262605Y-31525546D01*
X30446333Y-31489000D01*
X30633667Y-31489000D01*
X30817395Y-31525546D01*
G37*
G36*
X28277395Y-31525546D02*
G01*
X28450466Y-31597234D01*
X28450467Y-31597235D01*
X28606227Y-31701310D01*
X28738690Y-31833773D01*
X28738691Y-31833775D01*
X28842766Y-31989534D01*
X28914454Y-32162605D01*
X28951000Y-32346333D01*
X28951000Y-32533667D01*
X28914454Y-32717395D01*
X28842766Y-32890466D01*
X28842765Y-32890467D01*
X28738690Y-33046227D01*
X28606227Y-33178690D01*
X28529473Y-33229975D01*
X28450466Y-33282766D01*
X28277395Y-33354454D01*
X28093667Y-33391000D01*
X27906333Y-33391000D01*
X27722605Y-33354454D01*
X27549534Y-33282766D01*
X27470527Y-33229975D01*
X27393773Y-33178690D01*
X27261310Y-33046227D01*
X27157235Y-32890467D01*
X27157234Y-32890466D01*
X27085546Y-32717395D01*
X27049000Y-32533667D01*
X27049000Y-32346333D01*
X27085546Y-32162605D01*
X27157234Y-31989534D01*
X27261309Y-31833775D01*
X27261310Y-31833773D01*
X27393773Y-31701310D01*
X27549533Y-31597235D01*
X27549534Y-31597234D01*
X27722605Y-31525546D01*
X27906333Y-31489000D01*
X28093667Y-31489000D01*
X28277395Y-31525546D01*
G37*
G36*
X16536823Y-30641313D02*
G01*
X16697242Y-30689976D01*
X16796003Y-30742765D01*
X16845078Y-30768996D01*
X16974659Y-30875341D01*
X17081004Y-31004922D01*
X17081005Y-31004924D01*
X17160024Y-31152758D01*
X17208687Y-31313177D01*
X17225117Y-31480000D01*
X17208687Y-31646823D01*
X17160024Y-31807242D01*
X17089114Y-31939906D01*
X17081004Y-31955078D01*
X16974659Y-32084659D01*
X16845078Y-32191004D01*
X16845076Y-32191005D01*
X16697242Y-32270024D01*
X16536823Y-32318687D01*
X16411804Y-32331000D01*
X15528196Y-32331000D01*
X15403177Y-32318687D01*
X15242758Y-32270024D01*
X15094924Y-32191005D01*
X15094922Y-32191004D01*
X14965341Y-32084659D01*
X14858996Y-31955078D01*
X14850886Y-31939906D01*
X14779976Y-31807242D01*
X14731313Y-31646823D01*
X14714883Y-31480000D01*
X14731313Y-31313177D01*
X14779976Y-31152758D01*
X14858995Y-31004924D01*
X14858996Y-31004922D01*
X14965341Y-30875341D01*
X15094922Y-30768996D01*
X15143997Y-30742765D01*
X15242758Y-30689976D01*
X15403177Y-30641313D01*
X15528196Y-30629000D01*
X16411804Y-30629000D01*
X16536823Y-30641313D01*
G37*
G36*
X8916823Y-30641313D02*
G01*
X9077242Y-30689976D01*
X9176003Y-30742765D01*
X9225078Y-30768996D01*
X9354659Y-30875341D01*
X9461004Y-31004922D01*
X9461005Y-31004924D01*
X9540024Y-31152758D01*
X9588687Y-31313177D01*
X9605117Y-31480000D01*
X9588687Y-31646823D01*
X9540024Y-31807242D01*
X9469114Y-31939906D01*
X9461004Y-31955078D01*
X9354659Y-32084659D01*
X9225078Y-32191004D01*
X9225076Y-32191005D01*
X9077242Y-32270024D01*
X8916823Y-32318687D01*
X8791804Y-32331000D01*
X7908196Y-32331000D01*
X7783177Y-32318687D01*
X7622758Y-32270024D01*
X7474924Y-32191005D01*
X7474922Y-32191004D01*
X7345341Y-32084659D01*
X7238996Y-31955078D01*
X7230886Y-31939906D01*
X7159976Y-31807242D01*
X7111313Y-31646823D01*
X7094883Y-31480000D01*
X7111313Y-31313177D01*
X7159976Y-31152758D01*
X7238995Y-31004924D01*
X7238996Y-31004922D01*
X7345341Y-30875341D01*
X7474922Y-30768996D01*
X7523997Y-30742765D01*
X7622758Y-30689976D01*
X7783177Y-30641313D01*
X7908196Y-30629000D01*
X8791804Y-30629000D01*
X8916823Y-30641313D01*
G37*
G36*
X28277395Y-28985546D02*
G01*
X28450466Y-29057234D01*
X28450467Y-29057235D01*
X28606227Y-29161310D01*
X28738690Y-29293773D01*
X28738691Y-29293775D01*
X28842766Y-29449534D01*
X28914454Y-29622605D01*
X28951000Y-29806333D01*
X28951000Y-29993667D01*
X28914454Y-30177395D01*
X28842766Y-30350466D01*
X28842765Y-30350467D01*
X28738690Y-30506227D01*
X28606227Y-30638690D01*
X28529473Y-30689975D01*
X28450466Y-30742766D01*
X28277395Y-30814454D01*
X28093667Y-30851000D01*
X27906333Y-30851000D01*
X27722605Y-30814454D01*
X27549534Y-30742766D01*
X27470527Y-30689975D01*
X27393773Y-30638690D01*
X27261310Y-30506227D01*
X27157235Y-30350467D01*
X27157234Y-30350466D01*
X27085546Y-30177395D01*
X27049000Y-29993667D01*
X27049000Y-29806333D01*
X27085546Y-29622605D01*
X27157234Y-29449534D01*
X27261309Y-29293775D01*
X27261310Y-29293773D01*
X27393773Y-29161310D01*
X27549533Y-29057235D01*
X27549534Y-29057234D01*
X27722605Y-28985546D01*
X27906333Y-28949000D01*
X28093667Y-28949000D01*
X28277395Y-28985546D01*
G37*
G36*
X30817395Y-28985546D02*
G01*
X30990466Y-29057234D01*
X30990467Y-29057235D01*
X31146227Y-29161310D01*
X31278690Y-29293773D01*
X31278691Y-29293775D01*
X31382766Y-29449534D01*
X31454454Y-29622605D01*
X31491000Y-29806333D01*
X31491000Y-29993667D01*
X31454454Y-30177395D01*
X31382766Y-30350466D01*
X31382765Y-30350467D01*
X31278690Y-30506227D01*
X31146227Y-30638690D01*
X31069473Y-30689975D01*
X30990466Y-30742766D01*
X30817395Y-30814454D01*
X30633667Y-30851000D01*
X30446333Y-30851000D01*
X30262605Y-30814454D01*
X30089534Y-30742766D01*
X30010527Y-30689975D01*
X29933773Y-30638690D01*
X29801310Y-30506227D01*
X29697235Y-30350467D01*
X29697234Y-30350466D01*
X29625546Y-30177395D01*
X29589000Y-29993667D01*
X29589000Y-29806333D01*
X29625546Y-29622605D01*
X29697234Y-29449534D01*
X29801309Y-29293775D01*
X29801310Y-29293773D01*
X29933773Y-29161310D01*
X30089533Y-29057235D01*
X30089534Y-29057234D01*
X30262605Y-28985546D01*
X30446333Y-28949000D01*
X30633667Y-28949000D01*
X30817395Y-28985546D01*
G37*
G36*
X33357395Y-28985546D02*
G01*
X33530466Y-29057234D01*
X33530467Y-29057235D01*
X33686227Y-29161310D01*
X33818690Y-29293773D01*
X33818691Y-29293775D01*
X33922766Y-29449534D01*
X33994454Y-29622605D01*
X34031000Y-29806333D01*
X34031000Y-29993667D01*
X33994454Y-30177395D01*
X33922766Y-30350466D01*
X33922765Y-30350467D01*
X33818690Y-30506227D01*
X33686227Y-30638690D01*
X33609473Y-30689975D01*
X33530466Y-30742766D01*
X33357395Y-30814454D01*
X33173667Y-30851000D01*
X32986333Y-30851000D01*
X32802605Y-30814454D01*
X32629534Y-30742766D01*
X32550527Y-30689975D01*
X32473773Y-30638690D01*
X32341310Y-30506227D01*
X32237235Y-30350467D01*
X32237234Y-30350466D01*
X32165546Y-30177395D01*
X32129000Y-29993667D01*
X32129000Y-29806333D01*
X32165546Y-29622605D01*
X32237234Y-29449534D01*
X32341309Y-29293775D01*
X32341310Y-29293773D01*
X32473773Y-29161310D01*
X32629533Y-29057235D01*
X32629534Y-29057234D01*
X32802605Y-28985546D01*
X32986333Y-28949000D01*
X33173667Y-28949000D01*
X33357395Y-28985546D01*
G37*
G36*
X38437395Y-28985546D02*
G01*
X38610466Y-29057234D01*
X38610467Y-29057235D01*
X38766227Y-29161310D01*
X38898690Y-29293773D01*
X38898691Y-29293775D01*
X39002766Y-29449534D01*
X39074454Y-29622605D01*
X39111000Y-29806333D01*
X39111000Y-29993667D01*
X39074454Y-30177395D01*
X39002766Y-30350466D01*
X39002765Y-30350467D01*
X38898690Y-30506227D01*
X38766227Y-30638690D01*
X38689473Y-30689975D01*
X38610466Y-30742766D01*
X38437395Y-30814454D01*
X38253667Y-30851000D01*
X38066333Y-30851000D01*
X37882605Y-30814454D01*
X37709534Y-30742766D01*
X37630527Y-30689975D01*
X37553773Y-30638690D01*
X37421310Y-30506227D01*
X37317235Y-30350467D01*
X37317234Y-30350466D01*
X37245546Y-30177395D01*
X37209000Y-29993667D01*
X37209000Y-29806333D01*
X37245546Y-29622605D01*
X37317234Y-29449534D01*
X37421309Y-29293775D01*
X37421310Y-29293773D01*
X37553773Y-29161310D01*
X37709533Y-29057235D01*
X37709534Y-29057234D01*
X37882605Y-28985546D01*
X38066333Y-28949000D01*
X38253667Y-28949000D01*
X38437395Y-28985546D01*
G37*
G36*
X40977395Y-28985546D02*
G01*
X41150466Y-29057234D01*
X41150467Y-29057235D01*
X41306227Y-29161310D01*
X41438690Y-29293773D01*
X41438691Y-29293775D01*
X41542766Y-29449534D01*
X41614454Y-29622605D01*
X41651000Y-29806333D01*
X41651000Y-29993667D01*
X41614454Y-30177395D01*
X41542766Y-30350466D01*
X41542765Y-30350467D01*
X41438690Y-30506227D01*
X41306227Y-30638690D01*
X41229473Y-30689975D01*
X41150466Y-30742766D01*
X40977395Y-30814454D01*
X40793667Y-30851000D01*
X40606333Y-30851000D01*
X40422605Y-30814454D01*
X40249534Y-30742766D01*
X40170527Y-30689975D01*
X40093773Y-30638690D01*
X39961310Y-30506227D01*
X39857235Y-30350467D01*
X39857234Y-30350466D01*
X39785546Y-30177395D01*
X39749000Y-29993667D01*
X39749000Y-29806333D01*
X39785546Y-29622605D01*
X39857234Y-29449534D01*
X39961309Y-29293775D01*
X39961310Y-29293773D01*
X40093773Y-29161310D01*
X40249533Y-29057235D01*
X40249534Y-29057234D01*
X40422605Y-28985546D01*
X40606333Y-28949000D01*
X40793667Y-28949000D01*
X40977395Y-28985546D01*
G37*
G36*
X43517395Y-28985546D02*
G01*
X43690466Y-29057234D01*
X43690467Y-29057235D01*
X43846227Y-29161310D01*
X43978690Y-29293773D01*
X43978691Y-29293775D01*
X44082766Y-29449534D01*
X44154454Y-29622605D01*
X44191000Y-29806333D01*
X44191000Y-29993667D01*
X44154454Y-30177395D01*
X44082766Y-30350466D01*
X44082765Y-30350467D01*
X43978690Y-30506227D01*
X43846227Y-30638690D01*
X43769473Y-30689975D01*
X43690466Y-30742766D01*
X43517395Y-30814454D01*
X43333667Y-30851000D01*
X43146333Y-30851000D01*
X42962605Y-30814454D01*
X42789534Y-30742766D01*
X42710527Y-30689975D01*
X42633773Y-30638690D01*
X42501310Y-30506227D01*
X42397235Y-30350467D01*
X42397234Y-30350466D01*
X42325546Y-30177395D01*
X42289000Y-29993667D01*
X42289000Y-29806333D01*
X42325546Y-29622605D01*
X42397234Y-29449534D01*
X42501309Y-29293775D01*
X42501310Y-29293773D01*
X42633773Y-29161310D01*
X42789533Y-29057235D01*
X42789534Y-29057234D01*
X42962605Y-28985546D01*
X43146333Y-28949000D01*
X43333667Y-28949000D01*
X43517395Y-28985546D01*
G37*
G36*
X35897395Y-28985546D02*
G01*
X36070466Y-29057234D01*
X36070467Y-29057235D01*
X36226227Y-29161310D01*
X36358690Y-29293773D01*
X36358691Y-29293775D01*
X36462766Y-29449534D01*
X36534454Y-29622605D01*
X36571000Y-29806333D01*
X36571000Y-29993667D01*
X36534454Y-30177395D01*
X36462766Y-30350466D01*
X36462765Y-30350467D01*
X36358690Y-30506227D01*
X36226227Y-30638690D01*
X36149473Y-30689975D01*
X36070466Y-30742766D01*
X35897395Y-30814454D01*
X35713667Y-30851000D01*
X35526333Y-30851000D01*
X35342605Y-30814454D01*
X35169534Y-30742766D01*
X35090527Y-30689975D01*
X35013773Y-30638690D01*
X34881310Y-30506227D01*
X34777235Y-30350467D01*
X34777234Y-30350466D01*
X34705546Y-30177395D01*
X34669000Y-29993667D01*
X34669000Y-29806333D01*
X34705546Y-29622605D01*
X34777234Y-29449534D01*
X34881309Y-29293775D01*
X34881310Y-29293773D01*
X35013773Y-29161310D01*
X35169533Y-29057235D01*
X35169534Y-29057234D01*
X35342605Y-28985546D01*
X35526333Y-28949000D01*
X35713667Y-28949000D01*
X35897395Y-28985546D01*
G37*
G36*
X16536823Y-28101313D02*
G01*
X16667380Y-28140917D01*
X16683651Y-28145853D01*
X16697242Y-28149976D01*
X16796003Y-28202765D01*
X16845078Y-28228996D01*
X16974659Y-28335341D01*
X17081004Y-28464922D01*
X17081005Y-28464924D01*
X17160024Y-28612758D01*
X17208687Y-28773177D01*
X17225117Y-28940000D01*
X17208687Y-29106823D01*
X17160024Y-29267242D01*
X17140859Y-29303097D01*
X17081004Y-29415078D01*
X16974659Y-29544659D01*
X16845078Y-29651004D01*
X16845076Y-29651005D01*
X16697242Y-29730024D01*
X16536823Y-29778687D01*
X16411804Y-29791000D01*
X15528196Y-29791000D01*
X15403177Y-29778687D01*
X15242758Y-29730024D01*
X15094924Y-29651005D01*
X15094922Y-29651004D01*
X14965341Y-29544659D01*
X14858996Y-29415078D01*
X14799141Y-29303097D01*
X14779976Y-29267242D01*
X14731313Y-29106823D01*
X14714883Y-28940000D01*
X14731313Y-28773177D01*
X14779976Y-28612758D01*
X14858995Y-28464924D01*
X14858996Y-28464922D01*
X14965341Y-28335341D01*
X15094922Y-28228996D01*
X15143997Y-28202765D01*
X15242758Y-28149976D01*
X15256350Y-28145853D01*
X15272620Y-28140917D01*
X15403177Y-28101313D01*
X15528196Y-28089000D01*
X16411804Y-28089000D01*
X16536823Y-28101313D01*
G37*
G36*
X8916823Y-28101313D02*
G01*
X9047380Y-28140917D01*
X9063651Y-28145853D01*
X9077242Y-28149976D01*
X9176003Y-28202765D01*
X9225078Y-28228996D01*
X9354659Y-28335341D01*
X9461004Y-28464922D01*
X9461005Y-28464924D01*
X9540024Y-28612758D01*
X9588687Y-28773177D01*
X9605117Y-28940000D01*
X9588687Y-29106823D01*
X9540024Y-29267242D01*
X9520859Y-29303097D01*
X9461004Y-29415078D01*
X9354659Y-29544659D01*
X9225078Y-29651004D01*
X9225076Y-29651005D01*
X9077242Y-29730024D01*
X8916823Y-29778687D01*
X8791804Y-29791000D01*
X7908196Y-29791000D01*
X7783177Y-29778687D01*
X7622758Y-29730024D01*
X7474924Y-29651005D01*
X7474922Y-29651004D01*
X7345341Y-29544659D01*
X7238996Y-29415078D01*
X7179141Y-29303097D01*
X7159976Y-29267242D01*
X7111313Y-29106823D01*
X7094883Y-28940000D01*
X7111313Y-28773177D01*
X7159976Y-28612758D01*
X7238995Y-28464924D01*
X7238996Y-28464922D01*
X7345341Y-28335341D01*
X7474922Y-28228996D01*
X7523997Y-28202765D01*
X7622758Y-28149976D01*
X7636350Y-28145853D01*
X7652620Y-28140917D01*
X7783177Y-28101313D01*
X7908196Y-28089000D01*
X8791804Y-28089000D01*
X8916823Y-28101313D01*
G37*
G36*
X21098228Y-28081703D02*
G01*
X21253100Y-28145853D01*
X21392481Y-28238985D01*
X21511015Y-28357519D01*
X21604147Y-28496900D01*
X21668297Y-28651772D01*
X21701000Y-28816184D01*
X21701000Y-28983816D01*
X21668297Y-29148228D01*
X21604147Y-29303100D01*
X21511015Y-29442481D01*
X21392481Y-29561015D01*
X21253100Y-29654147D01*
X21098228Y-29718297D01*
X20933816Y-29751000D01*
X20766184Y-29751000D01*
X20601772Y-29718297D01*
X20446900Y-29654147D01*
X20307519Y-29561015D01*
X20188985Y-29442481D01*
X20095853Y-29303100D01*
X20031703Y-29148228D01*
X19999000Y-28983816D01*
X19999000Y-28816184D01*
X20031703Y-28651772D01*
X20095853Y-28496900D01*
X20188985Y-28357519D01*
X20307519Y-28238985D01*
X20446900Y-28145853D01*
X20601772Y-28081703D01*
X20766184Y-28049000D01*
X20933816Y-28049000D01*
X21098228Y-28081703D01*
G37*
G36*
X3598228Y-28081703D02*
G01*
X3753100Y-28145853D01*
X3892481Y-28238985D01*
X4011015Y-28357519D01*
X4104147Y-28496900D01*
X4168297Y-28651772D01*
X4201000Y-28816184D01*
X4201000Y-28983816D01*
X4168297Y-29148228D01*
X4104147Y-29303100D01*
X4011015Y-29442481D01*
X3892481Y-29561015D01*
X3753100Y-29654147D01*
X3598228Y-29718297D01*
X3433816Y-29751000D01*
X3266184Y-29751000D01*
X3101772Y-29718297D01*
X2946900Y-29654147D01*
X2807519Y-29561015D01*
X2688985Y-29442481D01*
X2595853Y-29303100D01*
X2531703Y-29148228D01*
X2499000Y-28983816D01*
X2499000Y-28816184D01*
X2531703Y-28651772D01*
X2595853Y-28496900D01*
X2688985Y-28357519D01*
X2807519Y-28238985D01*
X2946900Y-28145853D01*
X3101772Y-28081703D01*
X3266184Y-28049000D01*
X3433816Y-28049000D01*
X3598228Y-28081703D01*
G37*
G36*
X30817395Y-26445546D02*
G01*
X30990466Y-26517234D01*
X30990467Y-26517235D01*
X31146227Y-26621310D01*
X31278690Y-26753773D01*
X31278691Y-26753775D01*
X31382766Y-26909534D01*
X31454454Y-27082605D01*
X31491000Y-27266333D01*
X31491000Y-27453667D01*
X31454454Y-27637395D01*
X31382766Y-27810466D01*
X31382765Y-27810467D01*
X31278690Y-27966227D01*
X31146227Y-28098690D01*
X31075644Y-28145852D01*
X30990466Y-28202766D01*
X30817395Y-28274454D01*
X30633667Y-28311000D01*
X30446333Y-28311000D01*
X30262605Y-28274454D01*
X30089534Y-28202766D01*
X30004356Y-28145852D01*
X29933773Y-28098690D01*
X29801310Y-27966227D01*
X29697235Y-27810467D01*
X29697234Y-27810466D01*
X29625546Y-27637395D01*
X29589000Y-27453667D01*
X29589000Y-27266333D01*
X29625546Y-27082605D01*
X29697234Y-26909534D01*
X29801309Y-26753775D01*
X29801310Y-26753773D01*
X29933773Y-26621310D01*
X30089533Y-26517235D01*
X30089534Y-26517234D01*
X30262605Y-26445546D01*
X30446333Y-26409000D01*
X30633667Y-26409000D01*
X30817395Y-26445546D01*
G37*
G36*
X40977395Y-26445546D02*
G01*
X41150466Y-26517234D01*
X41150467Y-26517235D01*
X41306227Y-26621310D01*
X41438690Y-26753773D01*
X41438691Y-26753775D01*
X41542766Y-26909534D01*
X41614454Y-27082605D01*
X41651000Y-27266333D01*
X41651000Y-27453667D01*
X41614454Y-27637395D01*
X41542766Y-27810466D01*
X41542765Y-27810467D01*
X41438690Y-27966227D01*
X41306227Y-28098690D01*
X41235644Y-28145852D01*
X41150466Y-28202766D01*
X40977395Y-28274454D01*
X40793667Y-28311000D01*
X40606333Y-28311000D01*
X40422605Y-28274454D01*
X40249534Y-28202766D01*
X40164356Y-28145852D01*
X40093773Y-28098690D01*
X39961310Y-27966227D01*
X39857235Y-27810467D01*
X39857234Y-27810466D01*
X39785546Y-27637395D01*
X39749000Y-27453667D01*
X39749000Y-27266333D01*
X39785546Y-27082605D01*
X39857234Y-26909534D01*
X39961309Y-26753775D01*
X39961310Y-26753773D01*
X40093773Y-26621310D01*
X40249533Y-26517235D01*
X40249534Y-26517234D01*
X40422605Y-26445546D01*
X40606333Y-26409000D01*
X40793667Y-26409000D01*
X40977395Y-26445546D01*
G37*
G36*
X38437395Y-26445546D02*
G01*
X38610466Y-26517234D01*
X38610467Y-26517235D01*
X38766227Y-26621310D01*
X38898690Y-26753773D01*
X38898691Y-26753775D01*
X39002766Y-26909534D01*
X39074454Y-27082605D01*
X39111000Y-27266333D01*
X39111000Y-27453667D01*
X39074454Y-27637395D01*
X39002766Y-27810466D01*
X39002765Y-27810467D01*
X38898690Y-27966227D01*
X38766227Y-28098690D01*
X38695644Y-28145852D01*
X38610466Y-28202766D01*
X38437395Y-28274454D01*
X38253667Y-28311000D01*
X38066333Y-28311000D01*
X37882605Y-28274454D01*
X37709534Y-28202766D01*
X37624356Y-28145852D01*
X37553773Y-28098690D01*
X37421310Y-27966227D01*
X37317235Y-27810467D01*
X37317234Y-27810466D01*
X37245546Y-27637395D01*
X37209000Y-27453667D01*
X37209000Y-27266333D01*
X37245546Y-27082605D01*
X37317234Y-26909534D01*
X37421309Y-26753775D01*
X37421310Y-26753773D01*
X37553773Y-26621310D01*
X37709533Y-26517235D01*
X37709534Y-26517234D01*
X37882605Y-26445546D01*
X38066333Y-26409000D01*
X38253667Y-26409000D01*
X38437395Y-26445546D01*
G37*
G36*
X35897395Y-26445546D02*
G01*
X36070466Y-26517234D01*
X36070467Y-26517235D01*
X36226227Y-26621310D01*
X36358690Y-26753773D01*
X36358691Y-26753775D01*
X36462766Y-26909534D01*
X36534454Y-27082605D01*
X36571000Y-27266333D01*
X36571000Y-27453667D01*
X36534454Y-27637395D01*
X36462766Y-27810466D01*
X36462765Y-27810467D01*
X36358690Y-27966227D01*
X36226227Y-28098690D01*
X36155644Y-28145852D01*
X36070466Y-28202766D01*
X35897395Y-28274454D01*
X35713667Y-28311000D01*
X35526333Y-28311000D01*
X35342605Y-28274454D01*
X35169534Y-28202766D01*
X35084356Y-28145852D01*
X35013773Y-28098690D01*
X34881310Y-27966227D01*
X34777235Y-27810467D01*
X34777234Y-27810466D01*
X34705546Y-27637395D01*
X34669000Y-27453667D01*
X34669000Y-27266333D01*
X34705546Y-27082605D01*
X34777234Y-26909534D01*
X34881309Y-26753775D01*
X34881310Y-26753773D01*
X35013773Y-26621310D01*
X35169533Y-26517235D01*
X35169534Y-26517234D01*
X35342605Y-26445546D01*
X35526333Y-26409000D01*
X35713667Y-26409000D01*
X35897395Y-26445546D01*
G37*
G36*
X33357395Y-26445546D02*
G01*
X33530466Y-26517234D01*
X33530467Y-26517235D01*
X33686227Y-26621310D01*
X33818690Y-26753773D01*
X33818691Y-26753775D01*
X33922766Y-26909534D01*
X33994454Y-27082605D01*
X34031000Y-27266333D01*
X34031000Y-27453667D01*
X33994454Y-27637395D01*
X33922766Y-27810466D01*
X33922765Y-27810467D01*
X33818690Y-27966227D01*
X33686227Y-28098690D01*
X33615644Y-28145852D01*
X33530466Y-28202766D01*
X33357395Y-28274454D01*
X33173667Y-28311000D01*
X32986333Y-28311000D01*
X32802605Y-28274454D01*
X32629534Y-28202766D01*
X32544356Y-28145852D01*
X32473773Y-28098690D01*
X32341310Y-27966227D01*
X32237235Y-27810467D01*
X32237234Y-27810466D01*
X32165546Y-27637395D01*
X32129000Y-27453667D01*
X32129000Y-27266333D01*
X32165546Y-27082605D01*
X32237234Y-26909534D01*
X32341309Y-26753775D01*
X32341310Y-26753773D01*
X32473773Y-26621310D01*
X32629533Y-26517235D01*
X32629534Y-26517234D01*
X32802605Y-26445546D01*
X32986333Y-26409000D01*
X33173667Y-26409000D01*
X33357395Y-26445546D01*
G37*
G36*
X28277395Y-26445546D02*
G01*
X28450466Y-26517234D01*
X28450467Y-26517235D01*
X28606227Y-26621310D01*
X28738690Y-26753773D01*
X28738691Y-26753775D01*
X28842766Y-26909534D01*
X28914454Y-27082605D01*
X28951000Y-27266333D01*
X28951000Y-27453667D01*
X28914454Y-27637395D01*
X28842766Y-27810466D01*
X28842765Y-27810467D01*
X28738690Y-27966227D01*
X28606227Y-28098690D01*
X28535644Y-28145852D01*
X28450466Y-28202766D01*
X28277395Y-28274454D01*
X28093667Y-28311000D01*
X27906333Y-28311000D01*
X27722605Y-28274454D01*
X27549534Y-28202766D01*
X27464356Y-28145852D01*
X27393773Y-28098690D01*
X27261310Y-27966227D01*
X27157235Y-27810467D01*
X27157234Y-27810466D01*
X27085546Y-27637395D01*
X27049000Y-27453667D01*
X27049000Y-27266333D01*
X27085546Y-27082605D01*
X27157234Y-26909534D01*
X27261309Y-26753775D01*
X27261310Y-26753773D01*
X27393773Y-26621310D01*
X27549533Y-26517235D01*
X27549534Y-26517234D01*
X27722605Y-26445546D01*
X27906333Y-26409000D01*
X28093667Y-26409000D01*
X28277395Y-26445546D01*
G37*
G36*
X43517395Y-26445546D02*
G01*
X43690466Y-26517234D01*
X43690467Y-26517235D01*
X43846227Y-26621310D01*
X43978690Y-26753773D01*
X43978691Y-26753775D01*
X44082766Y-26909534D01*
X44154454Y-27082605D01*
X44191000Y-27266333D01*
X44191000Y-27453667D01*
X44154454Y-27637395D01*
X44082766Y-27810466D01*
X44082765Y-27810467D01*
X43978690Y-27966227D01*
X43846227Y-28098690D01*
X43775644Y-28145852D01*
X43690466Y-28202766D01*
X43517395Y-28274454D01*
X43333667Y-28311000D01*
X43146333Y-28311000D01*
X42962605Y-28274454D01*
X42789534Y-28202766D01*
X42704356Y-28145852D01*
X42633773Y-28098690D01*
X42501310Y-27966227D01*
X42397235Y-27810467D01*
X42397234Y-27810466D01*
X42325546Y-27637395D01*
X42289000Y-27453667D01*
X42289000Y-27266333D01*
X42325546Y-27082605D01*
X42397234Y-26909534D01*
X42501309Y-26753775D01*
X42501310Y-26753773D01*
X42633773Y-26621310D01*
X42789533Y-26517235D01*
X42789534Y-26517234D01*
X42962605Y-26445546D01*
X43146333Y-26409000D01*
X43333667Y-26409000D01*
X43517395Y-26445546D01*
G37*
G36*
X16536823Y-25561313D02*
G01*
X16697242Y-25609976D01*
X16796003Y-25662765D01*
X16845078Y-25688996D01*
X16974659Y-25795341D01*
X17081004Y-25924922D01*
X17081005Y-25924924D01*
X17160024Y-26072758D01*
X17208687Y-26233177D01*
X17225117Y-26400000D01*
X17208687Y-26566823D01*
X17160024Y-26727242D01*
X17089114Y-26859906D01*
X17081004Y-26875078D01*
X16974659Y-27004659D01*
X16845078Y-27111004D01*
X16845076Y-27111005D01*
X16697242Y-27190024D01*
X16536823Y-27238687D01*
X16411804Y-27251000D01*
X15528196Y-27251000D01*
X15403177Y-27238687D01*
X15242758Y-27190024D01*
X15094924Y-27111005D01*
X15094922Y-27111004D01*
X14965341Y-27004659D01*
X14858996Y-26875078D01*
X14850886Y-26859906D01*
X14779976Y-26727242D01*
X14731313Y-26566823D01*
X14714883Y-26400000D01*
X14731313Y-26233177D01*
X14779976Y-26072758D01*
X14858995Y-25924924D01*
X14858996Y-25924922D01*
X14965341Y-25795341D01*
X15094922Y-25688996D01*
X15143997Y-25662765D01*
X15242758Y-25609976D01*
X15403177Y-25561313D01*
X15528196Y-25549000D01*
X16411804Y-25549000D01*
X16536823Y-25561313D01*
G37*
G36*
X9601000Y-27251000D02*
G01*
X7099000Y-27251000D01*
X7099000Y-25549000D01*
X9601000Y-25549000D01*
X9601000Y-27251000D01*
G37*
G36*
X28277395Y-23905546D02*
G01*
X28450466Y-23977234D01*
X28450467Y-23977235D01*
X28606227Y-24081310D01*
X28738690Y-24213773D01*
X28738691Y-24213775D01*
X28842766Y-24369534D01*
X28914454Y-24542605D01*
X28951000Y-24726333D01*
X28951000Y-24913667D01*
X28914454Y-25097395D01*
X28842766Y-25270466D01*
X28842765Y-25270467D01*
X28738690Y-25426227D01*
X28606227Y-25558690D01*
X28529473Y-25609975D01*
X28450466Y-25662766D01*
X28277395Y-25734454D01*
X28093667Y-25771000D01*
X27906333Y-25771000D01*
X27722605Y-25734454D01*
X27549534Y-25662766D01*
X27470527Y-25609975D01*
X27393773Y-25558690D01*
X27261310Y-25426227D01*
X27157235Y-25270467D01*
X27157234Y-25270466D01*
X27085546Y-25097395D01*
X27049000Y-24913667D01*
X27049000Y-24726333D01*
X27085546Y-24542605D01*
X27157234Y-24369534D01*
X27261309Y-24213775D01*
X27261310Y-24213773D01*
X27393773Y-24081310D01*
X27549533Y-23977235D01*
X27549534Y-23977234D01*
X27722605Y-23905546D01*
X27906333Y-23869000D01*
X28093667Y-23869000D01*
X28277395Y-23905546D01*
G37*
G36*
X35897395Y-23905546D02*
G01*
X36070466Y-23977234D01*
X36070467Y-23977235D01*
X36226227Y-24081310D01*
X36358690Y-24213773D01*
X36358691Y-24213775D01*
X36462766Y-24369534D01*
X36534454Y-24542605D01*
X36571000Y-24726333D01*
X36571000Y-24913667D01*
X36534454Y-25097395D01*
X36462766Y-25270466D01*
X36462765Y-25270467D01*
X36358690Y-25426227D01*
X36226227Y-25558690D01*
X36149473Y-25609975D01*
X36070466Y-25662766D01*
X35897395Y-25734454D01*
X35713667Y-25771000D01*
X35526333Y-25771000D01*
X35342605Y-25734454D01*
X35169534Y-25662766D01*
X35090527Y-25609975D01*
X35013773Y-25558690D01*
X34881310Y-25426227D01*
X34777235Y-25270467D01*
X34777234Y-25270466D01*
X34705546Y-25097395D01*
X34669000Y-24913667D01*
X34669000Y-24726333D01*
X34705546Y-24542605D01*
X34777234Y-24369534D01*
X34881309Y-24213775D01*
X34881310Y-24213773D01*
X35013773Y-24081310D01*
X35169533Y-23977235D01*
X35169534Y-23977234D01*
X35342605Y-23905546D01*
X35526333Y-23869000D01*
X35713667Y-23869000D01*
X35897395Y-23905546D01*
G37*
G36*
X33357395Y-23905546D02*
G01*
X33530466Y-23977234D01*
X33530467Y-23977235D01*
X33686227Y-24081310D01*
X33818690Y-24213773D01*
X33818691Y-24213775D01*
X33922766Y-24369534D01*
X33994454Y-24542605D01*
X34031000Y-24726333D01*
X34031000Y-24913667D01*
X33994454Y-25097395D01*
X33922766Y-25270466D01*
X33922765Y-25270467D01*
X33818690Y-25426227D01*
X33686227Y-25558690D01*
X33609473Y-25609975D01*
X33530466Y-25662766D01*
X33357395Y-25734454D01*
X33173667Y-25771000D01*
X32986333Y-25771000D01*
X32802605Y-25734454D01*
X32629534Y-25662766D01*
X32550527Y-25609975D01*
X32473773Y-25558690D01*
X32341310Y-25426227D01*
X32237235Y-25270467D01*
X32237234Y-25270466D01*
X32165546Y-25097395D01*
X32129000Y-24913667D01*
X32129000Y-24726333D01*
X32165546Y-24542605D01*
X32237234Y-24369534D01*
X32341309Y-24213775D01*
X32341310Y-24213773D01*
X32473773Y-24081310D01*
X32629533Y-23977235D01*
X32629534Y-23977234D01*
X32802605Y-23905546D01*
X32986333Y-23869000D01*
X33173667Y-23869000D01*
X33357395Y-23905546D01*
G37*
G36*
X30817395Y-23905546D02*
G01*
X30990466Y-23977234D01*
X30990467Y-23977235D01*
X31146227Y-24081310D01*
X31278690Y-24213773D01*
X31278691Y-24213775D01*
X31382766Y-24369534D01*
X31454454Y-24542605D01*
X31491000Y-24726333D01*
X31491000Y-24913667D01*
X31454454Y-25097395D01*
X31382766Y-25270466D01*
X31382765Y-25270467D01*
X31278690Y-25426227D01*
X31146227Y-25558690D01*
X31069473Y-25609975D01*
X30990466Y-25662766D01*
X30817395Y-25734454D01*
X30633667Y-25771000D01*
X30446333Y-25771000D01*
X30262605Y-25734454D01*
X30089534Y-25662766D01*
X30010527Y-25609975D01*
X29933773Y-25558690D01*
X29801310Y-25426227D01*
X29697235Y-25270467D01*
X29697234Y-25270466D01*
X29625546Y-25097395D01*
X29589000Y-24913667D01*
X29589000Y-24726333D01*
X29625546Y-24542605D01*
X29697234Y-24369534D01*
X29801309Y-24213775D01*
X29801310Y-24213773D01*
X29933773Y-24081310D01*
X30089533Y-23977235D01*
X30089534Y-23977234D01*
X30262605Y-23905546D01*
X30446333Y-23869000D01*
X30633667Y-23869000D01*
X30817395Y-23905546D01*
G37*
G36*
X38437395Y-23905546D02*
G01*
X38610466Y-23977234D01*
X38610467Y-23977235D01*
X38766227Y-24081310D01*
X38898690Y-24213773D01*
X38898691Y-24213775D01*
X39002766Y-24369534D01*
X39074454Y-24542605D01*
X39111000Y-24726333D01*
X39111000Y-24913667D01*
X39074454Y-25097395D01*
X39002766Y-25270466D01*
X39002765Y-25270467D01*
X38898690Y-25426227D01*
X38766227Y-25558690D01*
X38689473Y-25609975D01*
X38610466Y-25662766D01*
X38437395Y-25734454D01*
X38253667Y-25771000D01*
X38066333Y-25771000D01*
X37882605Y-25734454D01*
X37709534Y-25662766D01*
X37630527Y-25609975D01*
X37553773Y-25558690D01*
X37421310Y-25426227D01*
X37317235Y-25270467D01*
X37317234Y-25270466D01*
X37245546Y-25097395D01*
X37209000Y-24913667D01*
X37209000Y-24726333D01*
X37245546Y-24542605D01*
X37317234Y-24369534D01*
X37421309Y-24213775D01*
X37421310Y-24213773D01*
X37553773Y-24081310D01*
X37709533Y-23977235D01*
X37709534Y-23977234D01*
X37882605Y-23905546D01*
X38066333Y-23869000D01*
X38253667Y-23869000D01*
X38437395Y-23905546D01*
G37*
G36*
X40977395Y-23905546D02*
G01*
X41150466Y-23977234D01*
X41150467Y-23977235D01*
X41306227Y-24081310D01*
X41438690Y-24213773D01*
X41438691Y-24213775D01*
X41542766Y-24369534D01*
X41614454Y-24542605D01*
X41651000Y-24726333D01*
X41651000Y-24913667D01*
X41614454Y-25097395D01*
X41542766Y-25270466D01*
X41542765Y-25270467D01*
X41438690Y-25426227D01*
X41306227Y-25558690D01*
X41229473Y-25609975D01*
X41150466Y-25662766D01*
X40977395Y-25734454D01*
X40793667Y-25771000D01*
X40606333Y-25771000D01*
X40422605Y-25734454D01*
X40249534Y-25662766D01*
X40170527Y-25609975D01*
X40093773Y-25558690D01*
X39961310Y-25426227D01*
X39857235Y-25270467D01*
X39857234Y-25270466D01*
X39785546Y-25097395D01*
X39749000Y-24913667D01*
X39749000Y-24726333D01*
X39785546Y-24542605D01*
X39857234Y-24369534D01*
X39961309Y-24213775D01*
X39961310Y-24213773D01*
X40093773Y-24081310D01*
X40249533Y-23977235D01*
X40249534Y-23977234D01*
X40422605Y-23905546D01*
X40606333Y-23869000D01*
X40793667Y-23869000D01*
X40977395Y-23905546D01*
G37*
G36*
X43517395Y-23905546D02*
G01*
X43690466Y-23977234D01*
X43690467Y-23977235D01*
X43846227Y-24081310D01*
X43978690Y-24213773D01*
X43978691Y-24213775D01*
X44082766Y-24369534D01*
X44154454Y-24542605D01*
X44191000Y-24726333D01*
X44191000Y-24913667D01*
X44154454Y-25097395D01*
X44082766Y-25270466D01*
X44082765Y-25270467D01*
X43978690Y-25426227D01*
X43846227Y-25558690D01*
X43769473Y-25609975D01*
X43690466Y-25662766D01*
X43517395Y-25734454D01*
X43333667Y-25771000D01*
X43146333Y-25771000D01*
X42962605Y-25734454D01*
X42789534Y-25662766D01*
X42710527Y-25609975D01*
X42633773Y-25558690D01*
X42501310Y-25426227D01*
X42397235Y-25270467D01*
X42397234Y-25270466D01*
X42325546Y-25097395D01*
X42289000Y-24913667D01*
X42289000Y-24726333D01*
X42325546Y-24542605D01*
X42397234Y-24369534D01*
X42501309Y-24213775D01*
X42501310Y-24213773D01*
X42633773Y-24081310D01*
X42789533Y-23977235D01*
X42789534Y-23977234D01*
X42962605Y-23905546D01*
X43146333Y-23869000D01*
X43333667Y-23869000D01*
X43517395Y-23905546D01*
G37*
G36*
X21098228Y-23001703D02*
G01*
X21253100Y-23065853D01*
X21392481Y-23158985D01*
X21511015Y-23277519D01*
X21604147Y-23416900D01*
X21668297Y-23571772D01*
X21701000Y-23736184D01*
X21701000Y-23903816D01*
X21668297Y-24068228D01*
X21604147Y-24223100D01*
X21511015Y-24362481D01*
X21392481Y-24481015D01*
X21253100Y-24574147D01*
X21098228Y-24638297D01*
X20933816Y-24671000D01*
X20766184Y-24671000D01*
X20601772Y-24638297D01*
X20446900Y-24574147D01*
X20307519Y-24481015D01*
X20188985Y-24362481D01*
X20095853Y-24223100D01*
X20031703Y-24068228D01*
X19999000Y-23903816D01*
X19999000Y-23736184D01*
X20031703Y-23571772D01*
X20095853Y-23416900D01*
X20188985Y-23277519D01*
X20307519Y-23158985D01*
X20446900Y-23065853D01*
X20601772Y-23001703D01*
X20766184Y-22969000D01*
X20933816Y-22969000D01*
X21098228Y-23001703D01*
G37*
G36*
X38437395Y-21365546D02*
G01*
X38610466Y-21437234D01*
X38610467Y-21437235D01*
X38766227Y-21541310D01*
X38898690Y-21673773D01*
X38898691Y-21673775D01*
X39002766Y-21829534D01*
X39074454Y-22002605D01*
X39111000Y-22186333D01*
X39111000Y-22373667D01*
X39074454Y-22557395D01*
X39002766Y-22730466D01*
X39002765Y-22730467D01*
X38898690Y-22886227D01*
X38766227Y-23018690D01*
X38695644Y-23065852D01*
X38610466Y-23122766D01*
X38437395Y-23194454D01*
X38253667Y-23231000D01*
X38066333Y-23231000D01*
X37882605Y-23194454D01*
X37709534Y-23122766D01*
X37624356Y-23065852D01*
X37553773Y-23018690D01*
X37421310Y-22886227D01*
X37317235Y-22730467D01*
X37317234Y-22730466D01*
X37245546Y-22557395D01*
X37209000Y-22373667D01*
X37209000Y-22186333D01*
X37245546Y-22002605D01*
X37317234Y-21829534D01*
X37421309Y-21673775D01*
X37421310Y-21673773D01*
X37553773Y-21541310D01*
X37709533Y-21437235D01*
X37709534Y-21437234D01*
X37882605Y-21365546D01*
X38066333Y-21329000D01*
X38253667Y-21329000D01*
X38437395Y-21365546D01*
G37*
G36*
X43517395Y-21365546D02*
G01*
X43690466Y-21437234D01*
X43690467Y-21437235D01*
X43846227Y-21541310D01*
X43978690Y-21673773D01*
X43978691Y-21673775D01*
X44082766Y-21829534D01*
X44154454Y-22002605D01*
X44191000Y-22186333D01*
X44191000Y-22373667D01*
X44154454Y-22557395D01*
X44082766Y-22730466D01*
X44082765Y-22730467D01*
X43978690Y-22886227D01*
X43846227Y-23018690D01*
X43775644Y-23065852D01*
X43690466Y-23122766D01*
X43517395Y-23194454D01*
X43333667Y-23231000D01*
X43146333Y-23231000D01*
X42962605Y-23194454D01*
X42789534Y-23122766D01*
X42704356Y-23065852D01*
X42633773Y-23018690D01*
X42501310Y-22886227D01*
X42397235Y-22730467D01*
X42397234Y-22730466D01*
X42325546Y-22557395D01*
X42289000Y-22373667D01*
X42289000Y-22186333D01*
X42325546Y-22002605D01*
X42397234Y-21829534D01*
X42501309Y-21673775D01*
X42501310Y-21673773D01*
X42633773Y-21541310D01*
X42789533Y-21437235D01*
X42789534Y-21437234D01*
X42962605Y-21365546D01*
X43146333Y-21329000D01*
X43333667Y-21329000D01*
X43517395Y-21365546D01*
G37*
G36*
X35897395Y-21365546D02*
G01*
X36070466Y-21437234D01*
X36070467Y-21437235D01*
X36226227Y-21541310D01*
X36358690Y-21673773D01*
X36358691Y-21673775D01*
X36462766Y-21829534D01*
X36534454Y-22002605D01*
X36571000Y-22186333D01*
X36571000Y-22373667D01*
X36534454Y-22557395D01*
X36462766Y-22730466D01*
X36462765Y-22730467D01*
X36358690Y-22886227D01*
X36226227Y-23018690D01*
X36155644Y-23065852D01*
X36070466Y-23122766D01*
X35897395Y-23194454D01*
X35713667Y-23231000D01*
X35526333Y-23231000D01*
X35342605Y-23194454D01*
X35169534Y-23122766D01*
X35084356Y-23065852D01*
X35013773Y-23018690D01*
X34881310Y-22886227D01*
X34777235Y-22730467D01*
X34777234Y-22730466D01*
X34705546Y-22557395D01*
X34669000Y-22373667D01*
X34669000Y-22186333D01*
X34705546Y-22002605D01*
X34777234Y-21829534D01*
X34881309Y-21673775D01*
X34881310Y-21673773D01*
X35013773Y-21541310D01*
X35169533Y-21437235D01*
X35169534Y-21437234D01*
X35342605Y-21365546D01*
X35526333Y-21329000D01*
X35713667Y-21329000D01*
X35897395Y-21365546D01*
G37*
G36*
X33357395Y-21365546D02*
G01*
X33530466Y-21437234D01*
X33530467Y-21437235D01*
X33686227Y-21541310D01*
X33818690Y-21673773D01*
X33818691Y-21673775D01*
X33922766Y-21829534D01*
X33994454Y-22002605D01*
X34031000Y-22186333D01*
X34031000Y-22373667D01*
X33994454Y-22557395D01*
X33922766Y-22730466D01*
X33922765Y-22730467D01*
X33818690Y-22886227D01*
X33686227Y-23018690D01*
X33615644Y-23065852D01*
X33530466Y-23122766D01*
X33357395Y-23194454D01*
X33173667Y-23231000D01*
X32986333Y-23231000D01*
X32802605Y-23194454D01*
X32629534Y-23122766D01*
X32544356Y-23065852D01*
X32473773Y-23018690D01*
X32341310Y-22886227D01*
X32237235Y-22730467D01*
X32237234Y-22730466D01*
X32165546Y-22557395D01*
X32129000Y-22373667D01*
X32129000Y-22186333D01*
X32165546Y-22002605D01*
X32237234Y-21829534D01*
X32341309Y-21673775D01*
X32341310Y-21673773D01*
X32473773Y-21541310D01*
X32629533Y-21437235D01*
X32629534Y-21437234D01*
X32802605Y-21365546D01*
X32986333Y-21329000D01*
X33173667Y-21329000D01*
X33357395Y-21365546D01*
G37*
G36*
X30817395Y-21365546D02*
G01*
X30990466Y-21437234D01*
X30990467Y-21437235D01*
X31146227Y-21541310D01*
X31278690Y-21673773D01*
X31278691Y-21673775D01*
X31382766Y-21829534D01*
X31454454Y-22002605D01*
X31491000Y-22186333D01*
X31491000Y-22373667D01*
X31454454Y-22557395D01*
X31382766Y-22730466D01*
X31382765Y-22730467D01*
X31278690Y-22886227D01*
X31146227Y-23018690D01*
X31075644Y-23065852D01*
X30990466Y-23122766D01*
X30817395Y-23194454D01*
X30633667Y-23231000D01*
X30446333Y-23231000D01*
X30262605Y-23194454D01*
X30089534Y-23122766D01*
X30004356Y-23065852D01*
X29933773Y-23018690D01*
X29801310Y-22886227D01*
X29697235Y-22730467D01*
X29697234Y-22730466D01*
X29625546Y-22557395D01*
X29589000Y-22373667D01*
X29589000Y-22186333D01*
X29625546Y-22002605D01*
X29697234Y-21829534D01*
X29801309Y-21673775D01*
X29801310Y-21673773D01*
X29933773Y-21541310D01*
X30089533Y-21437235D01*
X30089534Y-21437234D01*
X30262605Y-21365546D01*
X30446333Y-21329000D01*
X30633667Y-21329000D01*
X30817395Y-21365546D01*
G37*
G36*
X28277395Y-21365546D02*
G01*
X28450466Y-21437234D01*
X28450467Y-21437235D01*
X28606227Y-21541310D01*
X28738690Y-21673773D01*
X28738691Y-21673775D01*
X28842766Y-21829534D01*
X28914454Y-22002605D01*
X28951000Y-22186333D01*
X28951000Y-22373667D01*
X28914454Y-22557395D01*
X28842766Y-22730466D01*
X28842765Y-22730467D01*
X28738690Y-22886227D01*
X28606227Y-23018690D01*
X28535644Y-23065852D01*
X28450466Y-23122766D01*
X28277395Y-23194454D01*
X28093667Y-23231000D01*
X27906333Y-23231000D01*
X27722605Y-23194454D01*
X27549534Y-23122766D01*
X27464356Y-23065852D01*
X27393773Y-23018690D01*
X27261310Y-22886227D01*
X27157235Y-22730467D01*
X27157234Y-22730466D01*
X27085546Y-22557395D01*
X27049000Y-22373667D01*
X27049000Y-22186333D01*
X27085546Y-22002605D01*
X27157234Y-21829534D01*
X27261309Y-21673775D01*
X27261310Y-21673773D01*
X27393773Y-21541310D01*
X27549533Y-21437235D01*
X27549534Y-21437234D01*
X27722605Y-21365546D01*
X27906333Y-21329000D01*
X28093667Y-21329000D01*
X28277395Y-21365546D01*
G37*
G36*
X40977395Y-21365546D02*
G01*
X41150466Y-21437234D01*
X41150467Y-21437235D01*
X41306227Y-21541310D01*
X41438690Y-21673773D01*
X41438691Y-21673775D01*
X41542766Y-21829534D01*
X41614454Y-22002605D01*
X41651000Y-22186333D01*
X41651000Y-22373667D01*
X41614454Y-22557395D01*
X41542766Y-22730466D01*
X41542765Y-22730467D01*
X41438690Y-22886227D01*
X41306227Y-23018690D01*
X41235644Y-23065852D01*
X41150466Y-23122766D01*
X40977395Y-23194454D01*
X40793667Y-23231000D01*
X40606333Y-23231000D01*
X40422605Y-23194454D01*
X40249534Y-23122766D01*
X40164356Y-23065852D01*
X40093773Y-23018690D01*
X39961310Y-22886227D01*
X39857235Y-22730467D01*
X39857234Y-22730466D01*
X39785546Y-22557395D01*
X39749000Y-22373667D01*
X39749000Y-22186333D01*
X39785546Y-22002605D01*
X39857234Y-21829534D01*
X39961309Y-21673775D01*
X39961310Y-21673773D01*
X40093773Y-21541310D01*
X40249533Y-21437235D01*
X40249534Y-21437234D01*
X40422605Y-21365546D01*
X40606333Y-21329000D01*
X40793667Y-21329000D01*
X40977395Y-21365546D01*
G37*
G36*
X35897395Y-18825546D02*
G01*
X36070466Y-18897234D01*
X36070467Y-18897235D01*
X36226227Y-19001310D01*
X36358690Y-19133773D01*
X36358691Y-19133775D01*
X36462766Y-19289534D01*
X36534454Y-19462605D01*
X36571000Y-19646333D01*
X36571000Y-19833667D01*
X36534454Y-20017395D01*
X36462766Y-20190466D01*
X36462765Y-20190467D01*
X36358690Y-20346227D01*
X36226227Y-20478690D01*
X36147818Y-20531081D01*
X36070466Y-20582766D01*
X35897395Y-20654454D01*
X35713667Y-20691000D01*
X35526333Y-20691000D01*
X35342605Y-20654454D01*
X35169534Y-20582766D01*
X35092182Y-20531081D01*
X35013773Y-20478690D01*
X34881310Y-20346227D01*
X34777235Y-20190467D01*
X34777234Y-20190466D01*
X34705546Y-20017395D01*
X34669000Y-19833667D01*
X34669000Y-19646333D01*
X34705546Y-19462605D01*
X34777234Y-19289534D01*
X34881309Y-19133775D01*
X34881310Y-19133773D01*
X35013773Y-19001310D01*
X35169533Y-18897235D01*
X35169534Y-18897234D01*
X35342605Y-18825546D01*
X35526333Y-18789000D01*
X35713667Y-18789000D01*
X35897395Y-18825546D01*
G37*
G36*
X33357395Y-18825546D02*
G01*
X33530466Y-18897234D01*
X33530467Y-18897235D01*
X33686227Y-19001310D01*
X33818690Y-19133773D01*
X33818691Y-19133775D01*
X33922766Y-19289534D01*
X33994454Y-19462605D01*
X34031000Y-19646333D01*
X34031000Y-19833667D01*
X33994454Y-20017395D01*
X33922766Y-20190466D01*
X33922765Y-20190467D01*
X33818690Y-20346227D01*
X33686227Y-20478690D01*
X33607818Y-20531081D01*
X33530466Y-20582766D01*
X33357395Y-20654454D01*
X33173667Y-20691000D01*
X32986333Y-20691000D01*
X32802605Y-20654454D01*
X32629534Y-20582766D01*
X32552182Y-20531081D01*
X32473773Y-20478690D01*
X32341310Y-20346227D01*
X32237235Y-20190467D01*
X32237234Y-20190466D01*
X32165546Y-20017395D01*
X32129000Y-19833667D01*
X32129000Y-19646333D01*
X32165546Y-19462605D01*
X32237234Y-19289534D01*
X32341309Y-19133775D01*
X32341310Y-19133773D01*
X32473773Y-19001310D01*
X32629533Y-18897235D01*
X32629534Y-18897234D01*
X32802605Y-18825546D01*
X32986333Y-18789000D01*
X33173667Y-18789000D01*
X33357395Y-18825546D01*
G37*
G36*
X30817395Y-18825546D02*
G01*
X30990466Y-18897234D01*
X30990467Y-18897235D01*
X31146227Y-19001310D01*
X31278690Y-19133773D01*
X31278691Y-19133775D01*
X31382766Y-19289534D01*
X31454454Y-19462605D01*
X31491000Y-19646333D01*
X31491000Y-19833667D01*
X31454454Y-20017395D01*
X31382766Y-20190466D01*
X31382765Y-20190467D01*
X31278690Y-20346227D01*
X31146227Y-20478690D01*
X31067818Y-20531081D01*
X30990466Y-20582766D01*
X30817395Y-20654454D01*
X30633667Y-20691000D01*
X30446333Y-20691000D01*
X30262605Y-20654454D01*
X30089534Y-20582766D01*
X30012182Y-20531081D01*
X29933773Y-20478690D01*
X29801310Y-20346227D01*
X29697235Y-20190467D01*
X29697234Y-20190466D01*
X29625546Y-20017395D01*
X29589000Y-19833667D01*
X29589000Y-19646333D01*
X29625546Y-19462605D01*
X29697234Y-19289534D01*
X29801309Y-19133775D01*
X29801310Y-19133773D01*
X29933773Y-19001310D01*
X30089533Y-18897235D01*
X30089534Y-18897234D01*
X30262605Y-18825546D01*
X30446333Y-18789000D01*
X30633667Y-18789000D01*
X30817395Y-18825546D01*
G37*
G36*
X28277395Y-18825546D02*
G01*
X28450466Y-18897234D01*
X28450467Y-18897235D01*
X28606227Y-19001310D01*
X28738690Y-19133773D01*
X28738691Y-19133775D01*
X28842766Y-19289534D01*
X28914454Y-19462605D01*
X28951000Y-19646333D01*
X28951000Y-19833667D01*
X28914454Y-20017395D01*
X28842766Y-20190466D01*
X28842765Y-20190467D01*
X28738690Y-20346227D01*
X28606227Y-20478690D01*
X28527818Y-20531081D01*
X28450466Y-20582766D01*
X28277395Y-20654454D01*
X28093667Y-20691000D01*
X27906333Y-20691000D01*
X27722605Y-20654454D01*
X27549534Y-20582766D01*
X27472182Y-20531081D01*
X27393773Y-20478690D01*
X27261310Y-20346227D01*
X27157235Y-20190467D01*
X27157234Y-20190466D01*
X27085546Y-20017395D01*
X27049000Y-19833667D01*
X27049000Y-19646333D01*
X27085546Y-19462605D01*
X27157234Y-19289534D01*
X27261309Y-19133775D01*
X27261310Y-19133773D01*
X27393773Y-19001310D01*
X27549533Y-18897235D01*
X27549534Y-18897234D01*
X27722605Y-18825546D01*
X27906333Y-18789000D01*
X28093667Y-18789000D01*
X28277395Y-18825546D01*
G37*
G36*
X38437395Y-18825546D02*
G01*
X38610466Y-18897234D01*
X38610467Y-18897235D01*
X38766227Y-19001310D01*
X38898690Y-19133773D01*
X38898691Y-19133775D01*
X39002766Y-19289534D01*
X39074454Y-19462605D01*
X39111000Y-19646333D01*
X39111000Y-19833667D01*
X39074454Y-20017395D01*
X39002766Y-20190466D01*
X39002765Y-20190467D01*
X38898690Y-20346227D01*
X38766227Y-20478690D01*
X38687818Y-20531081D01*
X38610466Y-20582766D01*
X38437395Y-20654454D01*
X38253667Y-20691000D01*
X38066333Y-20691000D01*
X37882605Y-20654454D01*
X37709534Y-20582766D01*
X37632182Y-20531081D01*
X37553773Y-20478690D01*
X37421310Y-20346227D01*
X37317235Y-20190467D01*
X37317234Y-20190466D01*
X37245546Y-20017395D01*
X37209000Y-19833667D01*
X37209000Y-19646333D01*
X37245546Y-19462605D01*
X37317234Y-19289534D01*
X37421309Y-19133775D01*
X37421310Y-19133773D01*
X37553773Y-19001310D01*
X37709533Y-18897235D01*
X37709534Y-18897234D01*
X37882605Y-18825546D01*
X38066333Y-18789000D01*
X38253667Y-18789000D01*
X38437395Y-18825546D01*
G37*
G36*
X40977395Y-18825546D02*
G01*
X41150466Y-18897234D01*
X41150467Y-18897235D01*
X41306227Y-19001310D01*
X41438690Y-19133773D01*
X41438691Y-19133775D01*
X41542766Y-19289534D01*
X41614454Y-19462605D01*
X41651000Y-19646333D01*
X41651000Y-19833667D01*
X41614454Y-20017395D01*
X41542766Y-20190466D01*
X41542765Y-20190467D01*
X41438690Y-20346227D01*
X41306227Y-20478690D01*
X41227818Y-20531081D01*
X41150466Y-20582766D01*
X40977395Y-20654454D01*
X40793667Y-20691000D01*
X40606333Y-20691000D01*
X40422605Y-20654454D01*
X40249534Y-20582766D01*
X40172182Y-20531081D01*
X40093773Y-20478690D01*
X39961310Y-20346227D01*
X39857235Y-20190467D01*
X39857234Y-20190466D01*
X39785546Y-20017395D01*
X39749000Y-19833667D01*
X39749000Y-19646333D01*
X39785546Y-19462605D01*
X39857234Y-19289534D01*
X39961309Y-19133775D01*
X39961310Y-19133773D01*
X40093773Y-19001310D01*
X40249533Y-18897235D01*
X40249534Y-18897234D01*
X40422605Y-18825546D01*
X40606333Y-18789000D01*
X40793667Y-18789000D01*
X40977395Y-18825546D01*
G37*
G36*
X43517395Y-18825546D02*
G01*
X43690466Y-18897234D01*
X43690467Y-18897235D01*
X43846227Y-19001310D01*
X43978690Y-19133773D01*
X43978691Y-19133775D01*
X44082766Y-19289534D01*
X44154454Y-19462605D01*
X44191000Y-19646333D01*
X44191000Y-19833667D01*
X44154454Y-20017395D01*
X44082766Y-20190466D01*
X44082765Y-20190467D01*
X43978690Y-20346227D01*
X43846227Y-20478690D01*
X43767818Y-20531081D01*
X43690466Y-20582766D01*
X43517395Y-20654454D01*
X43333667Y-20691000D01*
X43146333Y-20691000D01*
X42962605Y-20654454D01*
X42789534Y-20582766D01*
X42712182Y-20531081D01*
X42633773Y-20478690D01*
X42501310Y-20346227D01*
X42397235Y-20190467D01*
X42397234Y-20190466D01*
X42325546Y-20017395D01*
X42289000Y-19833667D01*
X42289000Y-19646333D01*
X42325546Y-19462605D01*
X42397234Y-19289534D01*
X42501309Y-19133775D01*
X42501310Y-19133773D01*
X42633773Y-19001310D01*
X42789533Y-18897235D01*
X42789534Y-18897234D01*
X42962605Y-18825546D01*
X43146333Y-18789000D01*
X43333667Y-18789000D01*
X43517395Y-18825546D01*
G37*
G36*
X33357395Y-16285546D02*
G01*
X33530466Y-16357234D01*
X33530467Y-16357235D01*
X33686227Y-16461310D01*
X33818690Y-16593773D01*
X33818691Y-16593775D01*
X33922766Y-16749534D01*
X33994454Y-16922605D01*
X34031000Y-17106333D01*
X34031000Y-17293667D01*
X33994454Y-17477395D01*
X33922766Y-17650466D01*
X33922765Y-17650467D01*
X33818690Y-17806227D01*
X33686227Y-17938690D01*
X33607818Y-17991081D01*
X33530466Y-18042766D01*
X33357395Y-18114454D01*
X33173667Y-18151000D01*
X32986333Y-18151000D01*
X32802605Y-18114454D01*
X32629534Y-18042766D01*
X32552182Y-17991081D01*
X32473773Y-17938690D01*
X32341310Y-17806227D01*
X32237235Y-17650467D01*
X32237234Y-17650466D01*
X32165546Y-17477395D01*
X32129000Y-17293667D01*
X32129000Y-17106333D01*
X32165546Y-16922605D01*
X32237234Y-16749534D01*
X32341309Y-16593775D01*
X32341310Y-16593773D01*
X32473773Y-16461310D01*
X32629533Y-16357235D01*
X32629534Y-16357234D01*
X32802605Y-16285546D01*
X32986333Y-16249000D01*
X33173667Y-16249000D01*
X33357395Y-16285546D01*
G37*
G36*
X35897395Y-16285546D02*
G01*
X36070466Y-16357234D01*
X36070467Y-16357235D01*
X36226227Y-16461310D01*
X36358690Y-16593773D01*
X36358691Y-16593775D01*
X36462766Y-16749534D01*
X36534454Y-16922605D01*
X36571000Y-17106333D01*
X36571000Y-17293667D01*
X36534454Y-17477395D01*
X36462766Y-17650466D01*
X36462765Y-17650467D01*
X36358690Y-17806227D01*
X36226227Y-17938690D01*
X36147818Y-17991081D01*
X36070466Y-18042766D01*
X35897395Y-18114454D01*
X35713667Y-18151000D01*
X35526333Y-18151000D01*
X35342605Y-18114454D01*
X35169534Y-18042766D01*
X35092182Y-17991081D01*
X35013773Y-17938690D01*
X34881310Y-17806227D01*
X34777235Y-17650467D01*
X34777234Y-17650466D01*
X34705546Y-17477395D01*
X34669000Y-17293667D01*
X34669000Y-17106333D01*
X34705546Y-16922605D01*
X34777234Y-16749534D01*
X34881309Y-16593775D01*
X34881310Y-16593773D01*
X35013773Y-16461310D01*
X35169533Y-16357235D01*
X35169534Y-16357234D01*
X35342605Y-16285546D01*
X35526333Y-16249000D01*
X35713667Y-16249000D01*
X35897395Y-16285546D01*
G37*
G36*
X38437395Y-16285546D02*
G01*
X38610466Y-16357234D01*
X38610467Y-16357235D01*
X38766227Y-16461310D01*
X38898690Y-16593773D01*
X38898691Y-16593775D01*
X39002766Y-16749534D01*
X39074454Y-16922605D01*
X39111000Y-17106333D01*
X39111000Y-17293667D01*
X39074454Y-17477395D01*
X39002766Y-17650466D01*
X39002765Y-17650467D01*
X38898690Y-17806227D01*
X38766227Y-17938690D01*
X38687818Y-17991081D01*
X38610466Y-18042766D01*
X38437395Y-18114454D01*
X38253667Y-18151000D01*
X38066333Y-18151000D01*
X37882605Y-18114454D01*
X37709534Y-18042766D01*
X37632182Y-17991081D01*
X37553773Y-17938690D01*
X37421310Y-17806227D01*
X37317235Y-17650467D01*
X37317234Y-17650466D01*
X37245546Y-17477395D01*
X37209000Y-17293667D01*
X37209000Y-17106333D01*
X37245546Y-16922605D01*
X37317234Y-16749534D01*
X37421309Y-16593775D01*
X37421310Y-16593773D01*
X37553773Y-16461310D01*
X37709533Y-16357235D01*
X37709534Y-16357234D01*
X37882605Y-16285546D01*
X38066333Y-16249000D01*
X38253667Y-16249000D01*
X38437395Y-16285546D01*
G37*
G36*
X28277395Y-16285546D02*
G01*
X28450466Y-16357234D01*
X28450467Y-16357235D01*
X28606227Y-16461310D01*
X28738690Y-16593773D01*
X28738691Y-16593775D01*
X28842766Y-16749534D01*
X28914454Y-16922605D01*
X28951000Y-17106333D01*
X28951000Y-17293667D01*
X28914454Y-17477395D01*
X28842766Y-17650466D01*
X28842765Y-17650467D01*
X28738690Y-17806227D01*
X28606227Y-17938690D01*
X28527818Y-17991081D01*
X28450466Y-18042766D01*
X28277395Y-18114454D01*
X28093667Y-18151000D01*
X27906333Y-18151000D01*
X27722605Y-18114454D01*
X27549534Y-18042766D01*
X27472182Y-17991081D01*
X27393773Y-17938690D01*
X27261310Y-17806227D01*
X27157235Y-17650467D01*
X27157234Y-17650466D01*
X27085546Y-17477395D01*
X27049000Y-17293667D01*
X27049000Y-17106333D01*
X27085546Y-16922605D01*
X27157234Y-16749534D01*
X27261309Y-16593775D01*
X27261310Y-16593773D01*
X27393773Y-16461310D01*
X27549533Y-16357235D01*
X27549534Y-16357234D01*
X27722605Y-16285546D01*
X27906333Y-16249000D01*
X28093667Y-16249000D01*
X28277395Y-16285546D01*
G37*
G36*
X30817395Y-16285546D02*
G01*
X30990466Y-16357234D01*
X30990467Y-16357235D01*
X31146227Y-16461310D01*
X31278690Y-16593773D01*
X31278691Y-16593775D01*
X31382766Y-16749534D01*
X31454454Y-16922605D01*
X31491000Y-17106333D01*
X31491000Y-17293667D01*
X31454454Y-17477395D01*
X31382766Y-17650466D01*
X31382765Y-17650467D01*
X31278690Y-17806227D01*
X31146227Y-17938690D01*
X31067818Y-17991081D01*
X30990466Y-18042766D01*
X30817395Y-18114454D01*
X30633667Y-18151000D01*
X30446333Y-18151000D01*
X30262605Y-18114454D01*
X30089534Y-18042766D01*
X30012182Y-17991081D01*
X29933773Y-17938690D01*
X29801310Y-17806227D01*
X29697235Y-17650467D01*
X29697234Y-17650466D01*
X29625546Y-17477395D01*
X29589000Y-17293667D01*
X29589000Y-17106333D01*
X29625546Y-16922605D01*
X29697234Y-16749534D01*
X29801309Y-16593775D01*
X29801310Y-16593773D01*
X29933773Y-16461310D01*
X30089533Y-16357235D01*
X30089534Y-16357234D01*
X30262605Y-16285546D01*
X30446333Y-16249000D01*
X30633667Y-16249000D01*
X30817395Y-16285546D01*
G37*
G36*
X40977395Y-16285546D02*
G01*
X41150466Y-16357234D01*
X41150467Y-16357235D01*
X41306227Y-16461310D01*
X41438690Y-16593773D01*
X41438691Y-16593775D01*
X41542766Y-16749534D01*
X41614454Y-16922605D01*
X41651000Y-17106333D01*
X41651000Y-17293667D01*
X41614454Y-17477395D01*
X41542766Y-17650466D01*
X41542765Y-17650467D01*
X41438690Y-17806227D01*
X41306227Y-17938690D01*
X41227818Y-17991081D01*
X41150466Y-18042766D01*
X40977395Y-18114454D01*
X40793667Y-18151000D01*
X40606333Y-18151000D01*
X40422605Y-18114454D01*
X40249534Y-18042766D01*
X40172182Y-17991081D01*
X40093773Y-17938690D01*
X39961310Y-17806227D01*
X39857235Y-17650467D01*
X39857234Y-17650466D01*
X39785546Y-17477395D01*
X39749000Y-17293667D01*
X39749000Y-17106333D01*
X39785546Y-16922605D01*
X39857234Y-16749534D01*
X39961309Y-16593775D01*
X39961310Y-16593773D01*
X40093773Y-16461310D01*
X40249533Y-16357235D01*
X40249534Y-16357234D01*
X40422605Y-16285546D01*
X40606333Y-16249000D01*
X40793667Y-16249000D01*
X40977395Y-16285546D01*
G37*
G36*
X43517395Y-16285546D02*
G01*
X43690466Y-16357234D01*
X43690467Y-16357235D01*
X43846227Y-16461310D01*
X43978690Y-16593773D01*
X43978691Y-16593775D01*
X44082766Y-16749534D01*
X44154454Y-16922605D01*
X44191000Y-17106333D01*
X44191000Y-17293667D01*
X44154454Y-17477395D01*
X44082766Y-17650466D01*
X44082765Y-17650467D01*
X43978690Y-17806227D01*
X43846227Y-17938690D01*
X43767818Y-17991081D01*
X43690466Y-18042766D01*
X43517395Y-18114454D01*
X43333667Y-18151000D01*
X43146333Y-18151000D01*
X42962605Y-18114454D01*
X42789534Y-18042766D01*
X42712182Y-17991081D01*
X42633773Y-17938690D01*
X42501310Y-17806227D01*
X42397235Y-17650467D01*
X42397234Y-17650466D01*
X42325546Y-17477395D01*
X42289000Y-17293667D01*
X42289000Y-17106333D01*
X42325546Y-16922605D01*
X42397234Y-16749534D01*
X42501309Y-16593775D01*
X42501310Y-16593773D01*
X42633773Y-16461310D01*
X42789533Y-16357235D01*
X42789534Y-16357234D01*
X42962605Y-16285546D01*
X43146333Y-16249000D01*
X43333667Y-16249000D01*
X43517395Y-16285546D01*
G37*
G36*
X4948228Y-16281703D02*
G01*
X5103100Y-16345853D01*
X5242481Y-16438985D01*
X5361015Y-16557519D01*
X5454147Y-16696900D01*
X5518297Y-16851772D01*
X5551000Y-17016184D01*
X5551000Y-17183816D01*
X5518297Y-17348228D01*
X5454147Y-17503100D01*
X5361015Y-17642481D01*
X5242481Y-17761015D01*
X5103100Y-17854147D01*
X4948228Y-17918297D01*
X4783816Y-17951000D01*
X4616184Y-17951000D01*
X4451772Y-17918297D01*
X4296900Y-17854147D01*
X4157519Y-17761015D01*
X4038985Y-17642481D01*
X3945853Y-17503100D01*
X3881703Y-17348228D01*
X3849000Y-17183816D01*
X3849000Y-17016184D01*
X3881703Y-16851772D01*
X3945853Y-16696900D01*
X4038985Y-16557519D01*
X4157519Y-16438985D01*
X4296900Y-16345853D01*
X4451772Y-16281703D01*
X4616184Y-16249000D01*
X4783816Y-16249000D01*
X4948228Y-16281703D01*
G37*
G36*
X8051000Y-17951000D02*
G01*
X6349000Y-17951000D01*
X6349000Y-16249000D01*
X8051000Y-16249000D01*
X8051000Y-17951000D01*
G37*
G36*
X21098228Y-15381703D02*
G01*
X21253100Y-15445853D01*
X21392481Y-15538985D01*
X21511015Y-15657519D01*
X21604147Y-15796900D01*
X21668297Y-15951772D01*
X21701000Y-16116184D01*
X21701000Y-16283816D01*
X21668297Y-16448228D01*
X21604147Y-16603100D01*
X21511015Y-16742481D01*
X21392481Y-16861015D01*
X21253100Y-16954147D01*
X21098228Y-17018297D01*
X20933816Y-17051000D01*
X20766184Y-17051000D01*
X20601772Y-17018297D01*
X20446900Y-16954147D01*
X20307519Y-16861015D01*
X20188985Y-16742481D01*
X20095853Y-16603100D01*
X20031703Y-16448228D01*
X19999000Y-16283816D01*
X19999000Y-16116184D01*
X20031703Y-15951772D01*
X20095853Y-15796900D01*
X20188985Y-15657519D01*
X20307519Y-15538985D01*
X20446900Y-15445853D01*
X20601772Y-15381703D01*
X20766184Y-15349000D01*
X20933816Y-15349000D01*
X21098228Y-15381703D01*
G37*
G36*
X38437395Y-13745546D02*
G01*
X38610466Y-13817234D01*
X38610467Y-13817235D01*
X38766227Y-13921310D01*
X38898690Y-14053773D01*
X38898691Y-14053775D01*
X39002766Y-14209534D01*
X39074454Y-14382605D01*
X39111000Y-14566333D01*
X39111000Y-14753667D01*
X39074454Y-14937395D01*
X39002766Y-15110466D01*
X39002765Y-15110467D01*
X38898690Y-15266227D01*
X38766227Y-15398690D01*
X38695644Y-15445852D01*
X38610466Y-15502766D01*
X38437395Y-15574454D01*
X38253667Y-15611000D01*
X38066333Y-15611000D01*
X37882605Y-15574454D01*
X37709534Y-15502766D01*
X37624356Y-15445852D01*
X37553773Y-15398690D01*
X37421310Y-15266227D01*
X37317235Y-15110467D01*
X37317234Y-15110466D01*
X37245546Y-14937395D01*
X37209000Y-14753667D01*
X37209000Y-14566333D01*
X37245546Y-14382605D01*
X37317234Y-14209534D01*
X37421309Y-14053775D01*
X37421310Y-14053773D01*
X37553773Y-13921310D01*
X37709533Y-13817235D01*
X37709534Y-13817234D01*
X37882605Y-13745546D01*
X38066333Y-13709000D01*
X38253667Y-13709000D01*
X38437395Y-13745546D01*
G37*
G36*
X28277395Y-13745546D02*
G01*
X28450466Y-13817234D01*
X28450467Y-13817235D01*
X28606227Y-13921310D01*
X28738690Y-14053773D01*
X28738691Y-14053775D01*
X28842766Y-14209534D01*
X28914454Y-14382605D01*
X28951000Y-14566333D01*
X28951000Y-14753667D01*
X28914454Y-14937395D01*
X28842766Y-15110466D01*
X28842765Y-15110467D01*
X28738690Y-15266227D01*
X28606227Y-15398690D01*
X28535644Y-15445852D01*
X28450466Y-15502766D01*
X28277395Y-15574454D01*
X28093667Y-15611000D01*
X27906333Y-15611000D01*
X27722605Y-15574454D01*
X27549534Y-15502766D01*
X27464356Y-15445852D01*
X27393773Y-15398690D01*
X27261310Y-15266227D01*
X27157235Y-15110467D01*
X27157234Y-15110466D01*
X27085546Y-14937395D01*
X27049000Y-14753667D01*
X27049000Y-14566333D01*
X27085546Y-14382605D01*
X27157234Y-14209534D01*
X27261309Y-14053775D01*
X27261310Y-14053773D01*
X27393773Y-13921310D01*
X27549533Y-13817235D01*
X27549534Y-13817234D01*
X27722605Y-13745546D01*
X27906333Y-13709000D01*
X28093667Y-13709000D01*
X28277395Y-13745546D01*
G37*
G36*
X30817395Y-13745546D02*
G01*
X30990466Y-13817234D01*
X30990467Y-13817235D01*
X31146227Y-13921310D01*
X31278690Y-14053773D01*
X31278691Y-14053775D01*
X31382766Y-14209534D01*
X31454454Y-14382605D01*
X31491000Y-14566333D01*
X31491000Y-14753667D01*
X31454454Y-14937395D01*
X31382766Y-15110466D01*
X31382765Y-15110467D01*
X31278690Y-15266227D01*
X31146227Y-15398690D01*
X31075644Y-15445852D01*
X30990466Y-15502766D01*
X30817395Y-15574454D01*
X30633667Y-15611000D01*
X30446333Y-15611000D01*
X30262605Y-15574454D01*
X30089534Y-15502766D01*
X30004356Y-15445852D01*
X29933773Y-15398690D01*
X29801310Y-15266227D01*
X29697235Y-15110467D01*
X29697234Y-15110466D01*
X29625546Y-14937395D01*
X29589000Y-14753667D01*
X29589000Y-14566333D01*
X29625546Y-14382605D01*
X29697234Y-14209534D01*
X29801309Y-14053775D01*
X29801310Y-14053773D01*
X29933773Y-13921310D01*
X30089533Y-13817235D01*
X30089534Y-13817234D01*
X30262605Y-13745546D01*
X30446333Y-13709000D01*
X30633667Y-13709000D01*
X30817395Y-13745546D01*
G37*
G36*
X33357395Y-13745546D02*
G01*
X33530466Y-13817234D01*
X33530467Y-13817235D01*
X33686227Y-13921310D01*
X33818690Y-14053773D01*
X33818691Y-14053775D01*
X33922766Y-14209534D01*
X33994454Y-14382605D01*
X34031000Y-14566333D01*
X34031000Y-14753667D01*
X33994454Y-14937395D01*
X33922766Y-15110466D01*
X33922765Y-15110467D01*
X33818690Y-15266227D01*
X33686227Y-15398690D01*
X33615644Y-15445852D01*
X33530466Y-15502766D01*
X33357395Y-15574454D01*
X33173667Y-15611000D01*
X32986333Y-15611000D01*
X32802605Y-15574454D01*
X32629534Y-15502766D01*
X32544356Y-15445852D01*
X32473773Y-15398690D01*
X32341310Y-15266227D01*
X32237235Y-15110467D01*
X32237234Y-15110466D01*
X32165546Y-14937395D01*
X32129000Y-14753667D01*
X32129000Y-14566333D01*
X32165546Y-14382605D01*
X32237234Y-14209534D01*
X32341309Y-14053775D01*
X32341310Y-14053773D01*
X32473773Y-13921310D01*
X32629533Y-13817235D01*
X32629534Y-13817234D01*
X32802605Y-13745546D01*
X32986333Y-13709000D01*
X33173667Y-13709000D01*
X33357395Y-13745546D01*
G37*
G36*
X35897395Y-13745546D02*
G01*
X36070466Y-13817234D01*
X36070467Y-13817235D01*
X36226227Y-13921310D01*
X36358690Y-14053773D01*
X36358691Y-14053775D01*
X36462766Y-14209534D01*
X36534454Y-14382605D01*
X36571000Y-14566333D01*
X36571000Y-14753667D01*
X36534454Y-14937395D01*
X36462766Y-15110466D01*
X36462765Y-15110467D01*
X36358690Y-15266227D01*
X36226227Y-15398690D01*
X36155644Y-15445852D01*
X36070466Y-15502766D01*
X35897395Y-15574454D01*
X35713667Y-15611000D01*
X35526333Y-15611000D01*
X35342605Y-15574454D01*
X35169534Y-15502766D01*
X35084356Y-15445852D01*
X35013773Y-15398690D01*
X34881310Y-15266227D01*
X34777235Y-15110467D01*
X34777234Y-15110466D01*
X34705546Y-14937395D01*
X34669000Y-14753667D01*
X34669000Y-14566333D01*
X34705546Y-14382605D01*
X34777234Y-14209534D01*
X34881309Y-14053775D01*
X34881310Y-14053773D01*
X35013773Y-13921310D01*
X35169533Y-13817235D01*
X35169534Y-13817234D01*
X35342605Y-13745546D01*
X35526333Y-13709000D01*
X35713667Y-13709000D01*
X35897395Y-13745546D01*
G37*
G36*
X40977395Y-13745546D02*
G01*
X41150466Y-13817234D01*
X41150467Y-13817235D01*
X41306227Y-13921310D01*
X41438690Y-14053773D01*
X41438691Y-14053775D01*
X41542766Y-14209534D01*
X41614454Y-14382605D01*
X41651000Y-14566333D01*
X41651000Y-14753667D01*
X41614454Y-14937395D01*
X41542766Y-15110466D01*
X41542765Y-15110467D01*
X41438690Y-15266227D01*
X41306227Y-15398690D01*
X41235644Y-15445852D01*
X41150466Y-15502766D01*
X40977395Y-15574454D01*
X40793667Y-15611000D01*
X40606333Y-15611000D01*
X40422605Y-15574454D01*
X40249534Y-15502766D01*
X40164356Y-15445852D01*
X40093773Y-15398690D01*
X39961310Y-15266227D01*
X39857235Y-15110467D01*
X39857234Y-15110466D01*
X39785546Y-14937395D01*
X39749000Y-14753667D01*
X39749000Y-14566333D01*
X39785546Y-14382605D01*
X39857234Y-14209534D01*
X39961309Y-14053775D01*
X39961310Y-14053773D01*
X40093773Y-13921310D01*
X40249533Y-13817235D01*
X40249534Y-13817234D01*
X40422605Y-13745546D01*
X40606333Y-13709000D01*
X40793667Y-13709000D01*
X40977395Y-13745546D01*
G37*
G36*
X43517395Y-13745546D02*
G01*
X43690466Y-13817234D01*
X43690467Y-13817235D01*
X43846227Y-13921310D01*
X43978690Y-14053773D01*
X43978691Y-14053775D01*
X44082766Y-14209534D01*
X44154454Y-14382605D01*
X44191000Y-14566333D01*
X44191000Y-14753667D01*
X44154454Y-14937395D01*
X44082766Y-15110466D01*
X44082765Y-15110467D01*
X43978690Y-15266227D01*
X43846227Y-15398690D01*
X43775644Y-15445852D01*
X43690466Y-15502766D01*
X43517395Y-15574454D01*
X43333667Y-15611000D01*
X43146333Y-15611000D01*
X42962605Y-15574454D01*
X42789534Y-15502766D01*
X42704356Y-15445852D01*
X42633773Y-15398690D01*
X42501310Y-15266227D01*
X42397235Y-15110467D01*
X42397234Y-15110466D01*
X42325546Y-14937395D01*
X42289000Y-14753667D01*
X42289000Y-14566333D01*
X42325546Y-14382605D01*
X42397234Y-14209534D01*
X42501309Y-14053775D01*
X42501310Y-14053773D01*
X42633773Y-13921310D01*
X42789533Y-13817235D01*
X42789534Y-13817234D01*
X42962605Y-13745546D01*
X43146333Y-13709000D01*
X43333667Y-13709000D01*
X43517395Y-13745546D01*
G37*
G36*
X28277395Y-11205546D02*
G01*
X28450466Y-11277234D01*
X28450467Y-11277235D01*
X28606227Y-11381310D01*
X28738690Y-11513773D01*
X28738691Y-11513775D01*
X28842766Y-11669534D01*
X28914454Y-11842605D01*
X28951000Y-12026333D01*
X28951000Y-12213667D01*
X28914454Y-12397395D01*
X28842766Y-12570466D01*
X28842765Y-12570467D01*
X28738690Y-12726227D01*
X28606227Y-12858690D01*
X28527818Y-12911081D01*
X28450466Y-12962766D01*
X28277395Y-13034454D01*
X28093667Y-13071000D01*
X27906333Y-13071000D01*
X27722605Y-13034454D01*
X27549534Y-12962766D01*
X27472182Y-12911081D01*
X27393773Y-12858690D01*
X27261310Y-12726227D01*
X27157235Y-12570467D01*
X27157234Y-12570466D01*
X27085546Y-12397395D01*
X27049000Y-12213667D01*
X27049000Y-12026333D01*
X27085546Y-11842605D01*
X27157234Y-11669534D01*
X27261309Y-11513775D01*
X27261310Y-11513773D01*
X27393773Y-11381310D01*
X27549533Y-11277235D01*
X27549534Y-11277234D01*
X27722605Y-11205546D01*
X27906333Y-11169000D01*
X28093667Y-11169000D01*
X28277395Y-11205546D01*
G37*
G36*
X40977395Y-11205546D02*
G01*
X41150466Y-11277234D01*
X41150467Y-11277235D01*
X41306227Y-11381310D01*
X41438690Y-11513773D01*
X41438691Y-11513775D01*
X41542766Y-11669534D01*
X41614454Y-11842605D01*
X41651000Y-12026333D01*
X41651000Y-12213667D01*
X41614454Y-12397395D01*
X41542766Y-12570466D01*
X41542765Y-12570467D01*
X41438690Y-12726227D01*
X41306227Y-12858690D01*
X41227818Y-12911081D01*
X41150466Y-12962766D01*
X40977395Y-13034454D01*
X40793667Y-13071000D01*
X40606333Y-13071000D01*
X40422605Y-13034454D01*
X40249534Y-12962766D01*
X40172182Y-12911081D01*
X40093773Y-12858690D01*
X39961310Y-12726227D01*
X39857235Y-12570467D01*
X39857234Y-12570466D01*
X39785546Y-12397395D01*
X39749000Y-12213667D01*
X39749000Y-12026333D01*
X39785546Y-11842605D01*
X39857234Y-11669534D01*
X39961309Y-11513775D01*
X39961310Y-11513773D01*
X40093773Y-11381310D01*
X40249533Y-11277235D01*
X40249534Y-11277234D01*
X40422605Y-11205546D01*
X40606333Y-11169000D01*
X40793667Y-11169000D01*
X40977395Y-11205546D01*
G37*
G36*
X38437395Y-11205546D02*
G01*
X38610466Y-11277234D01*
X38610467Y-11277235D01*
X38766227Y-11381310D01*
X38898690Y-11513773D01*
X38898691Y-11513775D01*
X39002766Y-11669534D01*
X39074454Y-11842605D01*
X39111000Y-12026333D01*
X39111000Y-12213667D01*
X39074454Y-12397395D01*
X39002766Y-12570466D01*
X39002765Y-12570467D01*
X38898690Y-12726227D01*
X38766227Y-12858690D01*
X38687818Y-12911081D01*
X38610466Y-12962766D01*
X38437395Y-13034454D01*
X38253667Y-13071000D01*
X38066333Y-13071000D01*
X37882605Y-13034454D01*
X37709534Y-12962766D01*
X37632182Y-12911081D01*
X37553773Y-12858690D01*
X37421310Y-12726227D01*
X37317235Y-12570467D01*
X37317234Y-12570466D01*
X37245546Y-12397395D01*
X37209000Y-12213667D01*
X37209000Y-12026333D01*
X37245546Y-11842605D01*
X37317234Y-11669534D01*
X37421309Y-11513775D01*
X37421310Y-11513773D01*
X37553773Y-11381310D01*
X37709533Y-11277235D01*
X37709534Y-11277234D01*
X37882605Y-11205546D01*
X38066333Y-11169000D01*
X38253667Y-11169000D01*
X38437395Y-11205546D01*
G37*
G36*
X35897395Y-11205546D02*
G01*
X36070466Y-11277234D01*
X36070467Y-11277235D01*
X36226227Y-11381310D01*
X36358690Y-11513773D01*
X36358691Y-11513775D01*
X36462766Y-11669534D01*
X36534454Y-11842605D01*
X36571000Y-12026333D01*
X36571000Y-12213667D01*
X36534454Y-12397395D01*
X36462766Y-12570466D01*
X36462765Y-12570467D01*
X36358690Y-12726227D01*
X36226227Y-12858690D01*
X36147818Y-12911081D01*
X36070466Y-12962766D01*
X35897395Y-13034454D01*
X35713667Y-13071000D01*
X35526333Y-13071000D01*
X35342605Y-13034454D01*
X35169534Y-12962766D01*
X35092182Y-12911081D01*
X35013773Y-12858690D01*
X34881310Y-12726227D01*
X34777235Y-12570467D01*
X34777234Y-12570466D01*
X34705546Y-12397395D01*
X34669000Y-12213667D01*
X34669000Y-12026333D01*
X34705546Y-11842605D01*
X34777234Y-11669534D01*
X34881309Y-11513775D01*
X34881310Y-11513773D01*
X35013773Y-11381310D01*
X35169533Y-11277235D01*
X35169534Y-11277234D01*
X35342605Y-11205546D01*
X35526333Y-11169000D01*
X35713667Y-11169000D01*
X35897395Y-11205546D01*
G37*
G36*
X33357395Y-11205546D02*
G01*
X33530466Y-11277234D01*
X33530467Y-11277235D01*
X33686227Y-11381310D01*
X33818690Y-11513773D01*
X33818691Y-11513775D01*
X33922766Y-11669534D01*
X33994454Y-11842605D01*
X34031000Y-12026333D01*
X34031000Y-12213667D01*
X33994454Y-12397395D01*
X33922766Y-12570466D01*
X33922765Y-12570467D01*
X33818690Y-12726227D01*
X33686227Y-12858690D01*
X33607818Y-12911081D01*
X33530466Y-12962766D01*
X33357395Y-13034454D01*
X33173667Y-13071000D01*
X32986333Y-13071000D01*
X32802605Y-13034454D01*
X32629534Y-12962766D01*
X32552182Y-12911081D01*
X32473773Y-12858690D01*
X32341310Y-12726227D01*
X32237235Y-12570467D01*
X32237234Y-12570466D01*
X32165546Y-12397395D01*
X32129000Y-12213667D01*
X32129000Y-12026333D01*
X32165546Y-11842605D01*
X32237234Y-11669534D01*
X32341309Y-11513775D01*
X32341310Y-11513773D01*
X32473773Y-11381310D01*
X32629533Y-11277235D01*
X32629534Y-11277234D01*
X32802605Y-11205546D01*
X32986333Y-11169000D01*
X33173667Y-11169000D01*
X33357395Y-11205546D01*
G37*
G36*
X30817395Y-11205546D02*
G01*
X30990466Y-11277234D01*
X30990467Y-11277235D01*
X31146227Y-11381310D01*
X31278690Y-11513773D01*
X31278691Y-11513775D01*
X31382766Y-11669534D01*
X31454454Y-11842605D01*
X31491000Y-12026333D01*
X31491000Y-12213667D01*
X31454454Y-12397395D01*
X31382766Y-12570466D01*
X31382765Y-12570467D01*
X31278690Y-12726227D01*
X31146227Y-12858690D01*
X31067818Y-12911081D01*
X30990466Y-12962766D01*
X30817395Y-13034454D01*
X30633667Y-13071000D01*
X30446333Y-13071000D01*
X30262605Y-13034454D01*
X30089534Y-12962766D01*
X30012182Y-12911081D01*
X29933773Y-12858690D01*
X29801310Y-12726227D01*
X29697235Y-12570467D01*
X29697234Y-12570466D01*
X29625546Y-12397395D01*
X29589000Y-12213667D01*
X29589000Y-12026333D01*
X29625546Y-11842605D01*
X29697234Y-11669534D01*
X29801309Y-11513775D01*
X29801310Y-11513773D01*
X29933773Y-11381310D01*
X30089533Y-11277235D01*
X30089534Y-11277234D01*
X30262605Y-11205546D01*
X30446333Y-11169000D01*
X30633667Y-11169000D01*
X30817395Y-11205546D01*
G37*
G36*
X43517395Y-11205546D02*
G01*
X43690466Y-11277234D01*
X43690467Y-11277235D01*
X43846227Y-11381310D01*
X43978690Y-11513773D01*
X43978691Y-11513775D01*
X44082766Y-11669534D01*
X44154454Y-11842605D01*
X44191000Y-12026333D01*
X44191000Y-12213667D01*
X44154454Y-12397395D01*
X44082766Y-12570466D01*
X44082765Y-12570467D01*
X43978690Y-12726227D01*
X43846227Y-12858690D01*
X43767818Y-12911081D01*
X43690466Y-12962766D01*
X43517395Y-13034454D01*
X43333667Y-13071000D01*
X43146333Y-13071000D01*
X42962605Y-13034454D01*
X42789534Y-12962766D01*
X42712182Y-12911081D01*
X42633773Y-12858690D01*
X42501310Y-12726227D01*
X42397235Y-12570467D01*
X42397234Y-12570466D01*
X42325546Y-12397395D01*
X42289000Y-12213667D01*
X42289000Y-12026333D01*
X42325546Y-11842605D01*
X42397234Y-11669534D01*
X42501309Y-11513775D01*
X42501310Y-11513773D01*
X42633773Y-11381310D01*
X42789533Y-11277235D01*
X42789534Y-11277234D01*
X42962605Y-11205546D01*
X43146333Y-11169000D01*
X43333667Y-11169000D01*
X43517395Y-11205546D01*
G37*
G36*
X12448903Y-8493213D02*
G01*
X12671177Y-8537426D01*
X13089932Y-8710880D01*
X13466802Y-8962696D01*
X13787304Y-9283198D01*
X14039120Y-9660068D01*
X14212574Y-10078823D01*
X14233938Y-10186227D01*
X14280989Y-10422766D01*
X14301000Y-10523371D01*
X14301000Y-10976629D01*
X14212574Y-11421177D01*
X14039120Y-11839932D01*
X13787304Y-12216802D01*
X13466802Y-12537304D01*
X13089932Y-12789120D01*
X12671177Y-12962574D01*
X12448903Y-13006787D01*
X12226630Y-13051000D01*
X11773370Y-13051000D01*
X11551097Y-13006787D01*
X11328823Y-12962574D01*
X10910068Y-12789120D01*
X10533198Y-12537304D01*
X10212696Y-12216802D01*
X9960880Y-11839932D01*
X9787426Y-11421177D01*
X9699000Y-10976629D01*
X9699000Y-10523371D01*
X9719012Y-10422766D01*
X9766062Y-10186227D01*
X9787426Y-10078823D01*
X9960880Y-9660068D01*
X10212696Y-9283198D01*
X10533198Y-8962696D01*
X10910068Y-8710880D01*
X11328823Y-8537426D01*
X11551097Y-8493213D01*
X11773370Y-8449000D01*
X12226630Y-8449000D01*
X12448903Y-8493213D01*
G37*
G36*
X23017395Y-9585546D02*
G01*
X23190466Y-9657234D01*
X23267818Y-9708919D01*
X23346227Y-9761310D01*
X23478690Y-9893773D01*
X23478691Y-9893775D01*
X23582766Y-10049534D01*
X23654454Y-10222605D01*
X23691000Y-10406333D01*
X23691000Y-10593667D01*
X23654454Y-10777395D01*
X23582766Y-10950466D01*
X23582765Y-10950467D01*
X23478690Y-11106227D01*
X23346227Y-11238690D01*
X23288540Y-11277235D01*
X23190466Y-11342766D01*
X23017395Y-11414454D01*
X22833667Y-11451000D01*
X22646333Y-11451000D01*
X22462605Y-11414454D01*
X22289534Y-11342766D01*
X22191460Y-11277235D01*
X22133773Y-11238690D01*
X22001310Y-11106227D01*
X21897235Y-10950467D01*
X21897234Y-10950466D01*
X21825546Y-10777395D01*
X21789000Y-10593667D01*
X21789000Y-10406333D01*
X21825546Y-10222605D01*
X21897234Y-10049534D01*
X22001309Y-9893775D01*
X22001310Y-9893773D01*
X22133773Y-9761310D01*
X22212182Y-9708919D01*
X22289534Y-9657234D01*
X22462605Y-9585546D01*
X22646333Y-9549000D01*
X22833667Y-9549000D01*
X23017395Y-9585546D01*
G37*
G36*
X21151000Y-11451000D02*
G01*
X19249000Y-11451000D01*
X19249000Y-9549000D01*
X21151000Y-9549000D01*
X21151000Y-11451000D01*
G37*
G36*
X30817395Y-8665546D02*
G01*
X30990466Y-8737234D01*
X30990467Y-8737235D01*
X31146227Y-8841310D01*
X31278690Y-8973773D01*
X31278691Y-8973775D01*
X31382766Y-9129534D01*
X31454454Y-9302605D01*
X31491000Y-9486333D01*
X31491000Y-9673667D01*
X31454454Y-9857395D01*
X31382766Y-10030466D01*
X31350455Y-10078823D01*
X31278690Y-10186227D01*
X31146227Y-10318690D01*
X31067818Y-10371081D01*
X30990466Y-10422766D01*
X30817395Y-10494454D01*
X30633667Y-10531000D01*
X30446333Y-10531000D01*
X30262605Y-10494454D01*
X30089534Y-10422766D01*
X30012182Y-10371081D01*
X29933773Y-10318690D01*
X29801310Y-10186227D01*
X29729545Y-10078823D01*
X29697234Y-10030466D01*
X29625546Y-9857395D01*
X29589000Y-9673667D01*
X29589000Y-9486333D01*
X29625546Y-9302605D01*
X29697234Y-9129534D01*
X29801309Y-8973775D01*
X29801310Y-8973773D01*
X29933773Y-8841310D01*
X30089533Y-8737235D01*
X30089534Y-8737234D01*
X30262605Y-8665546D01*
X30446333Y-8629000D01*
X30633667Y-8629000D01*
X30817395Y-8665546D01*
G37*
G36*
X43517395Y-8665546D02*
G01*
X43690466Y-8737234D01*
X43690467Y-8737235D01*
X43846227Y-8841310D01*
X43978690Y-8973773D01*
X43978691Y-8973775D01*
X44082766Y-9129534D01*
X44154454Y-9302605D01*
X44191000Y-9486333D01*
X44191000Y-9673667D01*
X44154454Y-9857395D01*
X44082766Y-10030466D01*
X44050455Y-10078823D01*
X43978690Y-10186227D01*
X43846227Y-10318690D01*
X43767818Y-10371081D01*
X43690466Y-10422766D01*
X43517395Y-10494454D01*
X43333667Y-10531000D01*
X43146333Y-10531000D01*
X42962605Y-10494454D01*
X42789534Y-10422766D01*
X42712182Y-10371081D01*
X42633773Y-10318690D01*
X42501310Y-10186227D01*
X42429545Y-10078823D01*
X42397234Y-10030466D01*
X42325546Y-9857395D01*
X42289000Y-9673667D01*
X42289000Y-9486333D01*
X42325546Y-9302605D01*
X42397234Y-9129534D01*
X42501309Y-8973775D01*
X42501310Y-8973773D01*
X42633773Y-8841310D01*
X42789533Y-8737235D01*
X42789534Y-8737234D01*
X42962605Y-8665546D01*
X43146333Y-8629000D01*
X43333667Y-8629000D01*
X43517395Y-8665546D01*
G37*
G36*
X38437395Y-8665546D02*
G01*
X38610466Y-8737234D01*
X38610467Y-8737235D01*
X38766227Y-8841310D01*
X38898690Y-8973773D01*
X38898691Y-8973775D01*
X39002766Y-9129534D01*
X39074454Y-9302605D01*
X39111000Y-9486333D01*
X39111000Y-9673667D01*
X39074454Y-9857395D01*
X39002766Y-10030466D01*
X38970455Y-10078823D01*
X38898690Y-10186227D01*
X38766227Y-10318690D01*
X38687818Y-10371081D01*
X38610466Y-10422766D01*
X38437395Y-10494454D01*
X38253667Y-10531000D01*
X38066333Y-10531000D01*
X37882605Y-10494454D01*
X37709534Y-10422766D01*
X37632182Y-10371081D01*
X37553773Y-10318690D01*
X37421310Y-10186227D01*
X37349545Y-10078823D01*
X37317234Y-10030466D01*
X37245546Y-9857395D01*
X37209000Y-9673667D01*
X37209000Y-9486333D01*
X37245546Y-9302605D01*
X37317234Y-9129534D01*
X37421309Y-8973775D01*
X37421310Y-8973773D01*
X37553773Y-8841310D01*
X37709533Y-8737235D01*
X37709534Y-8737234D01*
X37882605Y-8665546D01*
X38066333Y-8629000D01*
X38253667Y-8629000D01*
X38437395Y-8665546D01*
G37*
G36*
X35897395Y-8665546D02*
G01*
X36070466Y-8737234D01*
X36070467Y-8737235D01*
X36226227Y-8841310D01*
X36358690Y-8973773D01*
X36358691Y-8973775D01*
X36462766Y-9129534D01*
X36534454Y-9302605D01*
X36571000Y-9486333D01*
X36571000Y-9673667D01*
X36534454Y-9857395D01*
X36462766Y-10030466D01*
X36430455Y-10078823D01*
X36358690Y-10186227D01*
X36226227Y-10318690D01*
X36147818Y-10371081D01*
X36070466Y-10422766D01*
X35897395Y-10494454D01*
X35713667Y-10531000D01*
X35526333Y-10531000D01*
X35342605Y-10494454D01*
X35169534Y-10422766D01*
X35092182Y-10371081D01*
X35013773Y-10318690D01*
X34881310Y-10186227D01*
X34809545Y-10078823D01*
X34777234Y-10030466D01*
X34705546Y-9857395D01*
X34669000Y-9673667D01*
X34669000Y-9486333D01*
X34705546Y-9302605D01*
X34777234Y-9129534D01*
X34881309Y-8973775D01*
X34881310Y-8973773D01*
X35013773Y-8841310D01*
X35169533Y-8737235D01*
X35169534Y-8737234D01*
X35342605Y-8665546D01*
X35526333Y-8629000D01*
X35713667Y-8629000D01*
X35897395Y-8665546D01*
G37*
G36*
X28277395Y-8665546D02*
G01*
X28450466Y-8737234D01*
X28450467Y-8737235D01*
X28606227Y-8841310D01*
X28738690Y-8973773D01*
X28738691Y-8973775D01*
X28842766Y-9129534D01*
X28914454Y-9302605D01*
X28951000Y-9486333D01*
X28951000Y-9673667D01*
X28914454Y-9857395D01*
X28842766Y-10030466D01*
X28810455Y-10078823D01*
X28738690Y-10186227D01*
X28606227Y-10318690D01*
X28527818Y-10371081D01*
X28450466Y-10422766D01*
X28277395Y-10494454D01*
X28093667Y-10531000D01*
X27906333Y-10531000D01*
X27722605Y-10494454D01*
X27549534Y-10422766D01*
X27472182Y-10371081D01*
X27393773Y-10318690D01*
X27261310Y-10186227D01*
X27189545Y-10078823D01*
X27157234Y-10030466D01*
X27085546Y-9857395D01*
X27049000Y-9673667D01*
X27049000Y-9486333D01*
X27085546Y-9302605D01*
X27157234Y-9129534D01*
X27261309Y-8973775D01*
X27261310Y-8973773D01*
X27393773Y-8841310D01*
X27549533Y-8737235D01*
X27549534Y-8737234D01*
X27722605Y-8665546D01*
X27906333Y-8629000D01*
X28093667Y-8629000D01*
X28277395Y-8665546D01*
G37*
G36*
X40977395Y-8665546D02*
G01*
X41150466Y-8737234D01*
X41150467Y-8737235D01*
X41306227Y-8841310D01*
X41438690Y-8973773D01*
X41438691Y-8973775D01*
X41542766Y-9129534D01*
X41614454Y-9302605D01*
X41651000Y-9486333D01*
X41651000Y-9673667D01*
X41614454Y-9857395D01*
X41542766Y-10030466D01*
X41510455Y-10078823D01*
X41438690Y-10186227D01*
X41306227Y-10318690D01*
X41227818Y-10371081D01*
X41150466Y-10422766D01*
X40977395Y-10494454D01*
X40793667Y-10531000D01*
X40606333Y-10531000D01*
X40422605Y-10494454D01*
X40249534Y-10422766D01*
X40172182Y-10371081D01*
X40093773Y-10318690D01*
X39961310Y-10186227D01*
X39889545Y-10078823D01*
X39857234Y-10030466D01*
X39785546Y-9857395D01*
X39749000Y-9673667D01*
X39749000Y-9486333D01*
X39785546Y-9302605D01*
X39857234Y-9129534D01*
X39961309Y-8973775D01*
X39961310Y-8973773D01*
X40093773Y-8841310D01*
X40249533Y-8737235D01*
X40249534Y-8737234D01*
X40422605Y-8665546D01*
X40606333Y-8629000D01*
X40793667Y-8629000D01*
X40977395Y-8665546D01*
G37*
G36*
X33357395Y-8665546D02*
G01*
X33530466Y-8737234D01*
X33530467Y-8737235D01*
X33686227Y-8841310D01*
X33818690Y-8973773D01*
X33818691Y-8973775D01*
X33922766Y-9129534D01*
X33994454Y-9302605D01*
X34031000Y-9486333D01*
X34031000Y-9673667D01*
X33994454Y-9857395D01*
X33922766Y-10030466D01*
X33890455Y-10078823D01*
X33818690Y-10186227D01*
X33686227Y-10318690D01*
X33607818Y-10371081D01*
X33530466Y-10422766D01*
X33357395Y-10494454D01*
X33173667Y-10531000D01*
X32986333Y-10531000D01*
X32802605Y-10494454D01*
X32629534Y-10422766D01*
X32552182Y-10371081D01*
X32473773Y-10318690D01*
X32341310Y-10186227D01*
X32269545Y-10078823D01*
X32237234Y-10030466D01*
X32165546Y-9857395D01*
X32129000Y-9673667D01*
X32129000Y-9486333D01*
X32165546Y-9302605D01*
X32237234Y-9129534D01*
X32341309Y-8973775D01*
X32341310Y-8973773D01*
X32473773Y-8841310D01*
X32629533Y-8737235D01*
X32629534Y-8737234D01*
X32802605Y-8665546D01*
X32986333Y-8629000D01*
X33173667Y-8629000D01*
X33357395Y-8665546D01*
G37*
G36*
X7748903Y-5493213D02*
G01*
X7971177Y-5537426D01*
X8389932Y-5710880D01*
X8766802Y-5962696D01*
X9087304Y-6283198D01*
X9339120Y-6660068D01*
X9464422Y-6962574D01*
X9512574Y-7078824D01*
X9601000Y-7523370D01*
X9601000Y-7976630D01*
X9556787Y-8198903D01*
X9512574Y-8421177D01*
X9339120Y-8839932D01*
X9087304Y-9216802D01*
X8766802Y-9537304D01*
X8389932Y-9789120D01*
X7971177Y-9962574D01*
X7748903Y-10006787D01*
X7526630Y-10051000D01*
X7073370Y-10051000D01*
X6851097Y-10006787D01*
X6628823Y-9962574D01*
X6210068Y-9789120D01*
X5833198Y-9537304D01*
X5512696Y-9216802D01*
X5260880Y-8839932D01*
X5087426Y-8421177D01*
X5043213Y-8198903D01*
X4999000Y-7976630D01*
X4999000Y-7523370D01*
X5087426Y-7078824D01*
X5135578Y-6962574D01*
X5260880Y-6660068D01*
X5512696Y-6283198D01*
X5833198Y-5962696D01*
X6210068Y-5710880D01*
X6628823Y-5537426D01*
X6851097Y-5493213D01*
X7073370Y-5449000D01*
X7526630Y-5449000D01*
X7748903Y-5493213D01*
G37*
G36*
X40977395Y-6125546D02*
G01*
X41150466Y-6197234D01*
X41227818Y-6248919D01*
X41306227Y-6301310D01*
X41438690Y-6433773D01*
X41438691Y-6433775D01*
X41542766Y-6589534D01*
X41614454Y-6762605D01*
X41651000Y-6946333D01*
X41651000Y-7133667D01*
X41614454Y-7317395D01*
X41542766Y-7490466D01*
X41491081Y-7567818D01*
X41438690Y-7646227D01*
X41306227Y-7778690D01*
X41227818Y-7831081D01*
X41150466Y-7882766D01*
X40977395Y-7954454D01*
X40793667Y-7991000D01*
X40606333Y-7991000D01*
X40422605Y-7954454D01*
X40249534Y-7882766D01*
X40172182Y-7831081D01*
X40093773Y-7778690D01*
X39961310Y-7646227D01*
X39908919Y-7567818D01*
X39857234Y-7490466D01*
X39785546Y-7317395D01*
X39749000Y-7133667D01*
X39749000Y-6946333D01*
X39785546Y-6762605D01*
X39857234Y-6589534D01*
X39961309Y-6433775D01*
X39961310Y-6433773D01*
X40093773Y-6301310D01*
X40172182Y-6248919D01*
X40249534Y-6197234D01*
X40422605Y-6125546D01*
X40606333Y-6089000D01*
X40793667Y-6089000D01*
X40977395Y-6125546D01*
G37*
G36*
X43517395Y-6125546D02*
G01*
X43690466Y-6197234D01*
X43767818Y-6248919D01*
X43846227Y-6301310D01*
X43978690Y-6433773D01*
X43978691Y-6433775D01*
X44082766Y-6589534D01*
X44154454Y-6762605D01*
X44191000Y-6946333D01*
X44191000Y-7133667D01*
X44154454Y-7317395D01*
X44082766Y-7490466D01*
X44031081Y-7567818D01*
X43978690Y-7646227D01*
X43846227Y-7778690D01*
X43767818Y-7831081D01*
X43690466Y-7882766D01*
X43517395Y-7954454D01*
X43333667Y-7991000D01*
X43146333Y-7991000D01*
X42962605Y-7954454D01*
X42789534Y-7882766D01*
X42712182Y-7831081D01*
X42633773Y-7778690D01*
X42501310Y-7646227D01*
X42448919Y-7567818D01*
X42397234Y-7490466D01*
X42325546Y-7317395D01*
X42289000Y-7133667D01*
X42289000Y-6946333D01*
X42325546Y-6762605D01*
X42397234Y-6589534D01*
X42501309Y-6433775D01*
X42501310Y-6433773D01*
X42633773Y-6301310D01*
X42712182Y-6248919D01*
X42789534Y-6197234D01*
X42962605Y-6125546D01*
X43146333Y-6089000D01*
X43333667Y-6089000D01*
X43517395Y-6125546D01*
G37*
G36*
X38437395Y-6125546D02*
G01*
X38610466Y-6197234D01*
X38687818Y-6248919D01*
X38766227Y-6301310D01*
X38898690Y-6433773D01*
X38898691Y-6433775D01*
X39002766Y-6589534D01*
X39074454Y-6762605D01*
X39111000Y-6946333D01*
X39111000Y-7133667D01*
X39074454Y-7317395D01*
X39002766Y-7490466D01*
X38951081Y-7567818D01*
X38898690Y-7646227D01*
X38766227Y-7778690D01*
X38687818Y-7831081D01*
X38610466Y-7882766D01*
X38437395Y-7954454D01*
X38253667Y-7991000D01*
X38066333Y-7991000D01*
X37882605Y-7954454D01*
X37709534Y-7882766D01*
X37632182Y-7831081D01*
X37553773Y-7778690D01*
X37421310Y-7646227D01*
X37368919Y-7567818D01*
X37317234Y-7490466D01*
X37245546Y-7317395D01*
X37209000Y-7133667D01*
X37209000Y-6946333D01*
X37245546Y-6762605D01*
X37317234Y-6589534D01*
X37421309Y-6433775D01*
X37421310Y-6433773D01*
X37553773Y-6301310D01*
X37632182Y-6248919D01*
X37709534Y-6197234D01*
X37882605Y-6125546D01*
X38066333Y-6089000D01*
X38253667Y-6089000D01*
X38437395Y-6125546D01*
G37*
G36*
X33357395Y-6125546D02*
G01*
X33530466Y-6197234D01*
X33607818Y-6248919D01*
X33686227Y-6301310D01*
X33818690Y-6433773D01*
X33818691Y-6433775D01*
X33922766Y-6589534D01*
X33994454Y-6762605D01*
X34031000Y-6946333D01*
X34031000Y-7133667D01*
X33994454Y-7317395D01*
X33922766Y-7490466D01*
X33871081Y-7567818D01*
X33818690Y-7646227D01*
X33686227Y-7778690D01*
X33607818Y-7831081D01*
X33530466Y-7882766D01*
X33357395Y-7954454D01*
X33173667Y-7991000D01*
X32986333Y-7991000D01*
X32802605Y-7954454D01*
X32629534Y-7882766D01*
X32552182Y-7831081D01*
X32473773Y-7778690D01*
X32341310Y-7646227D01*
X32288919Y-7567818D01*
X32237234Y-7490466D01*
X32165546Y-7317395D01*
X32129000Y-7133667D01*
X32129000Y-6946333D01*
X32165546Y-6762605D01*
X32237234Y-6589534D01*
X32341309Y-6433775D01*
X32341310Y-6433773D01*
X32473773Y-6301310D01*
X32552182Y-6248919D01*
X32629534Y-6197234D01*
X32802605Y-6125546D01*
X32986333Y-6089000D01*
X33173667Y-6089000D01*
X33357395Y-6125546D01*
G37*
G36*
X30817395Y-6125546D02*
G01*
X30990466Y-6197234D01*
X31067818Y-6248919D01*
X31146227Y-6301310D01*
X31278690Y-6433773D01*
X31278691Y-6433775D01*
X31382766Y-6589534D01*
X31454454Y-6762605D01*
X31491000Y-6946333D01*
X31491000Y-7133667D01*
X31454454Y-7317395D01*
X31382766Y-7490466D01*
X31331081Y-7567818D01*
X31278690Y-7646227D01*
X31146227Y-7778690D01*
X31067818Y-7831081D01*
X30990466Y-7882766D01*
X30817395Y-7954454D01*
X30633667Y-7991000D01*
X30446333Y-7991000D01*
X30262605Y-7954454D01*
X30089534Y-7882766D01*
X30012182Y-7831081D01*
X29933773Y-7778690D01*
X29801310Y-7646227D01*
X29748919Y-7567818D01*
X29697234Y-7490466D01*
X29625546Y-7317395D01*
X29589000Y-7133667D01*
X29589000Y-6946333D01*
X29625546Y-6762605D01*
X29697234Y-6589534D01*
X29801309Y-6433775D01*
X29801310Y-6433773D01*
X29933773Y-6301310D01*
X30012182Y-6248919D01*
X30089534Y-6197234D01*
X30262605Y-6125546D01*
X30446333Y-6089000D01*
X30633667Y-6089000D01*
X30817395Y-6125546D01*
G37*
G36*
X35897395Y-6125546D02*
G01*
X36070466Y-6197234D01*
X36147818Y-6248919D01*
X36226227Y-6301310D01*
X36358690Y-6433773D01*
X36358691Y-6433775D01*
X36462766Y-6589534D01*
X36534454Y-6762605D01*
X36571000Y-6946333D01*
X36571000Y-7133667D01*
X36534454Y-7317395D01*
X36462766Y-7490466D01*
X36411081Y-7567818D01*
X36358690Y-7646227D01*
X36226227Y-7778690D01*
X36147818Y-7831081D01*
X36070466Y-7882766D01*
X35897395Y-7954454D01*
X35713667Y-7991000D01*
X35526333Y-7991000D01*
X35342605Y-7954454D01*
X35169534Y-7882766D01*
X35092182Y-7831081D01*
X35013773Y-7778690D01*
X34881310Y-7646227D01*
X34828919Y-7567818D01*
X34777234Y-7490466D01*
X34705546Y-7317395D01*
X34669000Y-7133667D01*
X34669000Y-6946333D01*
X34705546Y-6762605D01*
X34777234Y-6589534D01*
X34881309Y-6433775D01*
X34881310Y-6433773D01*
X35013773Y-6301310D01*
X35092182Y-6248919D01*
X35169534Y-6197234D01*
X35342605Y-6125546D01*
X35526333Y-6089000D01*
X35713667Y-6089000D01*
X35897395Y-6125546D01*
G37*
G36*
X28277395Y-6125546D02*
G01*
X28450466Y-6197234D01*
X28527818Y-6248919D01*
X28606227Y-6301310D01*
X28738690Y-6433773D01*
X28738691Y-6433775D01*
X28842766Y-6589534D01*
X28914454Y-6762605D01*
X28951000Y-6946333D01*
X28951000Y-7133667D01*
X28914454Y-7317395D01*
X28842766Y-7490466D01*
X28791081Y-7567818D01*
X28738690Y-7646227D01*
X28606227Y-7778690D01*
X28527818Y-7831081D01*
X28450466Y-7882766D01*
X28277395Y-7954454D01*
X28093667Y-7991000D01*
X27906333Y-7991000D01*
X27722605Y-7954454D01*
X27549534Y-7882766D01*
X27472182Y-7831081D01*
X27393773Y-7778690D01*
X27261310Y-7646227D01*
X27208919Y-7567818D01*
X27157234Y-7490466D01*
X27085546Y-7317395D01*
X27049000Y-7133667D01*
X27049000Y-6946333D01*
X27085546Y-6762605D01*
X27157234Y-6589534D01*
X27261309Y-6433775D01*
X27261310Y-6433773D01*
X27393773Y-6301310D01*
X27472182Y-6248919D01*
X27549534Y-6197234D01*
X27722605Y-6125546D01*
X27906333Y-6089000D01*
X28093667Y-6089000D01*
X28277395Y-6125546D01*
G37*
G36*
X12448903Y-2493213D02*
G01*
X12671177Y-2537426D01*
X13089932Y-2710880D01*
X13466802Y-2962696D01*
X13787304Y-3283198D01*
X14039120Y-3660068D01*
X14212574Y-4078823D01*
X14301000Y-4523371D01*
X14301000Y-4976629D01*
X14212574Y-5421177D01*
X14039120Y-5839932D01*
X13787304Y-6216802D01*
X13466802Y-6537304D01*
X13089932Y-6789120D01*
X12671177Y-6962574D01*
X12448903Y-7006787D01*
X12226630Y-7051000D01*
X11773370Y-7051000D01*
X11551097Y-7006787D01*
X11328823Y-6962574D01*
X10910068Y-6789120D01*
X10533198Y-6537304D01*
X10212696Y-6216802D01*
X9960880Y-5839932D01*
X9787426Y-5421177D01*
X9699000Y-4976629D01*
X9699000Y-4523371D01*
X9787426Y-4078823D01*
X9960880Y-3660068D01*
X10212696Y-3283198D01*
X10533198Y-2962696D01*
X10910068Y-2710880D01*
X11328823Y-2537426D01*
X11551097Y-2493213D01*
X11773370Y-2449000D01*
X12226630Y-2449000D01*
X12448903Y-2493213D01*
G37*
G36*
X23151000Y-5651000D02*
G01*
X21349000Y-5651000D01*
X21349000Y-3849000D01*
X23151000Y-3849000D01*
X23151000Y-5651000D01*
G37*
G36*
X19823512Y-3853927D02*
G01*
X19972812Y-3883624D01*
X20136784Y-3951544D01*
X20284354Y-4050147D01*
X20409853Y-4175646D01*
X20508456Y-4323216D01*
X20576376Y-4487188D01*
X20611000Y-4661259D01*
X20611000Y-4838741D01*
X20576376Y-5012812D01*
X20508456Y-5176784D01*
X20409853Y-5324354D01*
X20284354Y-5449853D01*
X20136784Y-5548456D01*
X19972812Y-5616376D01*
X19823512Y-5646073D01*
X19798742Y-5651000D01*
X19621258Y-5651000D01*
X19596488Y-5646073D01*
X19447188Y-5616376D01*
X19283216Y-5548456D01*
X19135646Y-5449853D01*
X19010147Y-5324354D01*
X18911544Y-5176784D01*
X18843624Y-5012812D01*
X18809000Y-4838741D01*
X18809000Y-4661259D01*
X18843624Y-4487188D01*
X18911544Y-4323216D01*
X19010147Y-4175646D01*
X19135646Y-4050147D01*
X19283216Y-3951544D01*
X19447188Y-3883624D01*
X19596488Y-3853927D01*
X19621258Y-3849000D01*
X19798742Y-3849000D01*
X19823512Y-3853927D01*
G37*
G36*
X30817395Y-3585546D02*
G01*
X30990466Y-3657234D01*
X30990467Y-3657235D01*
X31146227Y-3761310D01*
X31278690Y-3893773D01*
X31278691Y-3893775D01*
X31382766Y-4049534D01*
X31454454Y-4222605D01*
X31491000Y-4406333D01*
X31491000Y-4593667D01*
X31454454Y-4777395D01*
X31382766Y-4950466D01*
X31382765Y-4950467D01*
X31278690Y-5106227D01*
X31146227Y-5238690D01*
X31067818Y-5291081D01*
X30990466Y-5342766D01*
X30817395Y-5414454D01*
X30633667Y-5451000D01*
X30446333Y-5451000D01*
X30262605Y-5414454D01*
X30089534Y-5342766D01*
X30012182Y-5291081D01*
X29933773Y-5238690D01*
X29801310Y-5106227D01*
X29697235Y-4950467D01*
X29697234Y-4950466D01*
X29625546Y-4777395D01*
X29589000Y-4593667D01*
X29589000Y-4406333D01*
X29625546Y-4222605D01*
X29697234Y-4049534D01*
X29801309Y-3893775D01*
X29801310Y-3893773D01*
X29933773Y-3761310D01*
X30089533Y-3657235D01*
X30089534Y-3657234D01*
X30262605Y-3585546D01*
X30446333Y-3549000D01*
X30633667Y-3549000D01*
X30817395Y-3585546D01*
G37*
G36*
X33357395Y-3585546D02*
G01*
X33530466Y-3657234D01*
X33530467Y-3657235D01*
X33686227Y-3761310D01*
X33818690Y-3893773D01*
X33818691Y-3893775D01*
X33922766Y-4049534D01*
X33994454Y-4222605D01*
X34031000Y-4406333D01*
X34031000Y-4593667D01*
X33994454Y-4777395D01*
X33922766Y-4950466D01*
X33922765Y-4950467D01*
X33818690Y-5106227D01*
X33686227Y-5238690D01*
X33607818Y-5291081D01*
X33530466Y-5342766D01*
X33357395Y-5414454D01*
X33173667Y-5451000D01*
X32986333Y-5451000D01*
X32802605Y-5414454D01*
X32629534Y-5342766D01*
X32552182Y-5291081D01*
X32473773Y-5238690D01*
X32341310Y-5106227D01*
X32237235Y-4950467D01*
X32237234Y-4950466D01*
X32165546Y-4777395D01*
X32129000Y-4593667D01*
X32129000Y-4406333D01*
X32165546Y-4222605D01*
X32237234Y-4049534D01*
X32341309Y-3893775D01*
X32341310Y-3893773D01*
X32473773Y-3761310D01*
X32629533Y-3657235D01*
X32629534Y-3657234D01*
X32802605Y-3585546D01*
X32986333Y-3549000D01*
X33173667Y-3549000D01*
X33357395Y-3585546D01*
G37*
G36*
X28277395Y-3585546D02*
G01*
X28450466Y-3657234D01*
X28450467Y-3657235D01*
X28606227Y-3761310D01*
X28738690Y-3893773D01*
X28738691Y-3893775D01*
X28842766Y-4049534D01*
X28914454Y-4222605D01*
X28951000Y-4406333D01*
X28951000Y-4593667D01*
X28914454Y-4777395D01*
X28842766Y-4950466D01*
X28842765Y-4950467D01*
X28738690Y-5106227D01*
X28606227Y-5238690D01*
X28527818Y-5291081D01*
X28450466Y-5342766D01*
X28277395Y-5414454D01*
X28093667Y-5451000D01*
X27906333Y-5451000D01*
X27722605Y-5414454D01*
X27549534Y-5342766D01*
X27472182Y-5291081D01*
X27393773Y-5238690D01*
X27261310Y-5106227D01*
X27157235Y-4950467D01*
X27157234Y-4950466D01*
X27085546Y-4777395D01*
X27049000Y-4593667D01*
X27049000Y-4406333D01*
X27085546Y-4222605D01*
X27157234Y-4049534D01*
X27261309Y-3893775D01*
X27261310Y-3893773D01*
X27393773Y-3761310D01*
X27549533Y-3657235D01*
X27549534Y-3657234D01*
X27722605Y-3585546D01*
X27906333Y-3549000D01*
X28093667Y-3549000D01*
X28277395Y-3585546D01*
G37*
G36*
X43517395Y-3585546D02*
G01*
X43690466Y-3657234D01*
X43690467Y-3657235D01*
X43846227Y-3761310D01*
X43978690Y-3893773D01*
X43978691Y-3893775D01*
X44082766Y-4049534D01*
X44154454Y-4222605D01*
X44191000Y-4406333D01*
X44191000Y-4593667D01*
X44154454Y-4777395D01*
X44082766Y-4950466D01*
X44082765Y-4950467D01*
X43978690Y-5106227D01*
X43846227Y-5238690D01*
X43767818Y-5291081D01*
X43690466Y-5342766D01*
X43517395Y-5414454D01*
X43333667Y-5451000D01*
X43146333Y-5451000D01*
X42962605Y-5414454D01*
X42789534Y-5342766D01*
X42712182Y-5291081D01*
X42633773Y-5238690D01*
X42501310Y-5106227D01*
X42397235Y-4950467D01*
X42397234Y-4950466D01*
X42325546Y-4777395D01*
X42289000Y-4593667D01*
X42289000Y-4406333D01*
X42325546Y-4222605D01*
X42397234Y-4049534D01*
X42501309Y-3893775D01*
X42501310Y-3893773D01*
X42633773Y-3761310D01*
X42789533Y-3657235D01*
X42789534Y-3657234D01*
X42962605Y-3585546D01*
X43146333Y-3549000D01*
X43333667Y-3549000D01*
X43517395Y-3585546D01*
G37*
G36*
X40977395Y-3585546D02*
G01*
X41150466Y-3657234D01*
X41150467Y-3657235D01*
X41306227Y-3761310D01*
X41438690Y-3893773D01*
X41438691Y-3893775D01*
X41542766Y-4049534D01*
X41614454Y-4222605D01*
X41651000Y-4406333D01*
X41651000Y-4593667D01*
X41614454Y-4777395D01*
X41542766Y-4950466D01*
X41542765Y-4950467D01*
X41438690Y-5106227D01*
X41306227Y-5238690D01*
X41227818Y-5291081D01*
X41150466Y-5342766D01*
X40977395Y-5414454D01*
X40793667Y-5451000D01*
X40606333Y-5451000D01*
X40422605Y-5414454D01*
X40249534Y-5342766D01*
X40172182Y-5291081D01*
X40093773Y-5238690D01*
X39961310Y-5106227D01*
X39857235Y-4950467D01*
X39857234Y-4950466D01*
X39785546Y-4777395D01*
X39749000Y-4593667D01*
X39749000Y-4406333D01*
X39785546Y-4222605D01*
X39857234Y-4049534D01*
X39961309Y-3893775D01*
X39961310Y-3893773D01*
X40093773Y-3761310D01*
X40249533Y-3657235D01*
X40249534Y-3657234D01*
X40422605Y-3585546D01*
X40606333Y-3549000D01*
X40793667Y-3549000D01*
X40977395Y-3585546D01*
G37*
G36*
X35897395Y-3585546D02*
G01*
X36070466Y-3657234D01*
X36070467Y-3657235D01*
X36226227Y-3761310D01*
X36358690Y-3893773D01*
X36358691Y-3893775D01*
X36462766Y-4049534D01*
X36534454Y-4222605D01*
X36571000Y-4406333D01*
X36571000Y-4593667D01*
X36534454Y-4777395D01*
X36462766Y-4950466D01*
X36462765Y-4950467D01*
X36358690Y-5106227D01*
X36226227Y-5238690D01*
X36147818Y-5291081D01*
X36070466Y-5342766D01*
X35897395Y-5414454D01*
X35713667Y-5451000D01*
X35526333Y-5451000D01*
X35342605Y-5414454D01*
X35169534Y-5342766D01*
X35092182Y-5291081D01*
X35013773Y-5238690D01*
X34881310Y-5106227D01*
X34777235Y-4950467D01*
X34777234Y-4950466D01*
X34705546Y-4777395D01*
X34669000Y-4593667D01*
X34669000Y-4406333D01*
X34705546Y-4222605D01*
X34777234Y-4049534D01*
X34881309Y-3893775D01*
X34881310Y-3893773D01*
X35013773Y-3761310D01*
X35169533Y-3657235D01*
X35169534Y-3657234D01*
X35342605Y-3585546D01*
X35526333Y-3549000D01*
X35713667Y-3549000D01*
X35897395Y-3585546D01*
G37*
G36*
X38437395Y-3585546D02*
G01*
X38610466Y-3657234D01*
X38610467Y-3657235D01*
X38766227Y-3761310D01*
X38898690Y-3893773D01*
X38898691Y-3893775D01*
X39002766Y-4049534D01*
X39074454Y-4222605D01*
X39111000Y-4406333D01*
X39111000Y-4593667D01*
X39074454Y-4777395D01*
X39002766Y-4950466D01*
X39002765Y-4950467D01*
X38898690Y-5106227D01*
X38766227Y-5238690D01*
X38687818Y-5291081D01*
X38610466Y-5342766D01*
X38437395Y-5414454D01*
X38253667Y-5451000D01*
X38066333Y-5451000D01*
X37882605Y-5414454D01*
X37709534Y-5342766D01*
X37632182Y-5291081D01*
X37553773Y-5238690D01*
X37421310Y-5106227D01*
X37317235Y-4950467D01*
X37317234Y-4950466D01*
X37245546Y-4777395D01*
X37209000Y-4593667D01*
X37209000Y-4406333D01*
X37245546Y-4222605D01*
X37317234Y-4049534D01*
X37421309Y-3893775D01*
X37421310Y-3893773D01*
X37553773Y-3761310D01*
X37709533Y-3657235D01*
X37709534Y-3657234D01*
X37882605Y-3585546D01*
X38066333Y-3549000D01*
X38253667Y-3549000D01*
X38437395Y-3585546D01*
G37*
M02*
