G04 #@! TF.GenerationSoftware,KiCad,Pcbnew,(5.1.5)-3*
G04 #@! TF.CreationDate,2023-01-24T14:10:26+01:00*
G04 #@! TF.ProjectId,pump controller schematics,70756d70-2063-46f6-9e74-726f6c6c6572,rev?*
G04 #@! TF.SameCoordinates,Original*
G04 #@! TF.FileFunction,Copper,L2,Bot*
G04 #@! TF.FilePolarity,Positive*
%FSLAX46Y46*%
G04 Gerber Fmt 4.6, Leading zero omitted, Abs format (unit mm)*
G04 Created by KiCad (PCBNEW (5.1.5)-3) date 2023-01-24 14:10:26*
%MOMM*%
%LPD*%
G04 APERTURE LIST*
%ADD10C,1.600000*%
%ADD11R,1.600000X1.600000*%
%ADD12C,1.550000*%
%ADD13R,1.550000X1.550000*%
%ADD14O,1.050000X1.500000*%
%ADD15R,1.050000X1.500000*%
%ADD16R,1.700000X1.700000*%
%ADD17O,1.600000X1.600000*%
%ADD18O,1.700000X1.700000*%
%ADD19O,2.200000X2.200000*%
%ADD20R,2.200000X2.200000*%
%ADD21C,1.800000*%
%ADD22C,4.500000*%
%ADD23R,2.400000X1.600000*%
%ADD24O,2.400000X1.600000*%
%ADD25R,1.800000X1.800000*%
%ADD26C,0.500000*%
%ADD27C,0.254000*%
G04 APERTURE END LIST*
D10*
X4700000Y-17100000D03*
D11*
X7200000Y-17100000D03*
D12*
X10300000Y-58100000D03*
D13*
X5300000Y-60600000D03*
D12*
X5300000Y-55600000D03*
D14*
X28630000Y-48150000D03*
X27360000Y-48150000D03*
D15*
X29900000Y-48150000D03*
D16*
X20300000Y-45600000D03*
X20300000Y-62900000D03*
X20300000Y-55600000D03*
D17*
X24120000Y-66200000D03*
D10*
X16500000Y-66200000D03*
D17*
X24120000Y-59200000D03*
D10*
X16500000Y-59200000D03*
D14*
X28630000Y-65100000D03*
X27360000Y-65100000D03*
D15*
X29900000Y-65100000D03*
D14*
X28630000Y-57950000D03*
X27360000Y-57950000D03*
D15*
X29900000Y-57950000D03*
D18*
X48900000Y-61230000D03*
X48900000Y-58690000D03*
D16*
X48900000Y-56150000D03*
D18*
X48900000Y-51105000D03*
X48900000Y-48565000D03*
D16*
X48900000Y-46025000D03*
D19*
X43960000Y-65625000D03*
D20*
X33800000Y-65625000D03*
D19*
X43960000Y-57775000D03*
D20*
X33800000Y-57775000D03*
D21*
X43240000Y-40060000D03*
X40700000Y-40060000D03*
X38160000Y-40060000D03*
X35620000Y-40060000D03*
X33080000Y-40060000D03*
X30540000Y-40060000D03*
X28000000Y-40060000D03*
X43240000Y-37520000D03*
X40700000Y-37520000D03*
X38160000Y-37520000D03*
X35620000Y-37520000D03*
X33080000Y-37520000D03*
X30540000Y-37520000D03*
X28000000Y-37520000D03*
X43240000Y-34980000D03*
X40700000Y-34980000D03*
X38160000Y-34980000D03*
X35620000Y-34980000D03*
X33080000Y-34980000D03*
X30540000Y-34980000D03*
X28000000Y-34980000D03*
X43240000Y-32440000D03*
X40700000Y-32440000D03*
X38160000Y-32440000D03*
X35620000Y-32440000D03*
X33080000Y-32440000D03*
X30540000Y-32440000D03*
X28000000Y-32440000D03*
X43240000Y-29900000D03*
X40700000Y-29900000D03*
X38160000Y-29900000D03*
X35620000Y-29900000D03*
X33080000Y-29900000D03*
X30540000Y-29900000D03*
X28000000Y-29900000D03*
X43240000Y-27360000D03*
X40700000Y-27360000D03*
X38160000Y-27360000D03*
X35620000Y-27360000D03*
X33080000Y-27360000D03*
X30540000Y-27360000D03*
X28000000Y-27360000D03*
X43240000Y-24820000D03*
X40700000Y-24820000D03*
X38160000Y-24820000D03*
X35620000Y-24820000D03*
X33080000Y-24820000D03*
X30540000Y-24820000D03*
X28000000Y-24820000D03*
X43240000Y-22280000D03*
X40700000Y-22280000D03*
X38160000Y-22280000D03*
X35620000Y-22280000D03*
X33080000Y-22280000D03*
X30540000Y-22280000D03*
X28000000Y-22280000D03*
X43240000Y-19740000D03*
X40700000Y-19740000D03*
X38160000Y-19740000D03*
X35620000Y-19740000D03*
X33080000Y-19740000D03*
X30540000Y-19740000D03*
X28000000Y-19740000D03*
X43240000Y-17200000D03*
X40700000Y-17200000D03*
X38160000Y-17200000D03*
X35620000Y-17200000D03*
X33080000Y-17200000D03*
X30540000Y-17200000D03*
X28000000Y-17200000D03*
X43240000Y-14660000D03*
X40700000Y-14660000D03*
X38160000Y-14660000D03*
X35620000Y-14660000D03*
X33080000Y-14660000D03*
X30540000Y-14660000D03*
X28000000Y-14660000D03*
X43240000Y-12120000D03*
X40700000Y-12120000D03*
X38160000Y-12120000D03*
X35620000Y-12120000D03*
X33080000Y-12120000D03*
X30540000Y-12120000D03*
X28000000Y-12120000D03*
X43240000Y-9580000D03*
X40700000Y-9580000D03*
X38160000Y-9580000D03*
X35620000Y-9580000D03*
X33080000Y-9580000D03*
X30540000Y-9580000D03*
X28000000Y-9580000D03*
X43240000Y-7040000D03*
X40700000Y-7040000D03*
X38160000Y-7040000D03*
X35620000Y-7040000D03*
X33080000Y-7040000D03*
X30540000Y-7040000D03*
X28000000Y-7040000D03*
X43240000Y-4500000D03*
X40700000Y-4500000D03*
X38160000Y-4500000D03*
X35620000Y-4500000D03*
X33080000Y-4500000D03*
X30540000Y-4500000D03*
X28000000Y-4500000D03*
D10*
X3500000Y-39300000D03*
D17*
X11120000Y-39300000D03*
D22*
X12000000Y-10750000D03*
X12000000Y-4750000D03*
X7300000Y-7750000D03*
D16*
X22250000Y-4750000D03*
D18*
X19710000Y-4750000D03*
D10*
X20850000Y-33900000D03*
X20850000Y-28900000D03*
X3350000Y-33900000D03*
X3350000Y-28900000D03*
D23*
X8350000Y-26400000D03*
D24*
X15970000Y-34020000D03*
X8350000Y-28940000D03*
X15970000Y-31480000D03*
X8350000Y-31480000D03*
X15970000Y-28940000D03*
X8350000Y-34020000D03*
X15970000Y-26400000D03*
D16*
X6890000Y-65300000D03*
D18*
X9430000Y-65300000D03*
X11970000Y-65300000D03*
D17*
X20850000Y-23820000D03*
D10*
X20850000Y-16200000D03*
X16500000Y-49300000D03*
D17*
X24120000Y-49300000D03*
D16*
X48825000Y-36050000D03*
D18*
X48825000Y-38590000D03*
X48825000Y-41130000D03*
D25*
X20200000Y-10500000D03*
D21*
X22740000Y-10500000D03*
D20*
X33800000Y-48125000D03*
D19*
X43960000Y-48125000D03*
D17*
X5300000Y-51820000D03*
D11*
X5300000Y-44200000D03*
D17*
X9100000Y-51820000D03*
D11*
X9100000Y-44200000D03*
D26*
X9430000Y-64097919D02*
X12500000Y-61027919D01*
X9430000Y-65300000D02*
X9430000Y-64097919D01*
X12500000Y-61027919D02*
X12500000Y-42500000D01*
X12500000Y-42500000D02*
X18900000Y-36100000D01*
X18900000Y-36100000D02*
X18900000Y-32300000D01*
X18080000Y-31480000D02*
X15970000Y-31480000D01*
X18900000Y-32300000D02*
X18080000Y-31480000D01*
X14270000Y-28940000D02*
X11600000Y-31610000D01*
X15970000Y-28940000D02*
X14270000Y-28940000D01*
X11600000Y-31610000D02*
X11600000Y-34600000D01*
X6900000Y-39300000D02*
X3500000Y-39300000D01*
X11600000Y-34600000D02*
X6900000Y-39300000D01*
X3500000Y-43700000D02*
X4000000Y-44200000D01*
X3500000Y-39300000D02*
X3500000Y-43700000D01*
X4000000Y-44200000D02*
X5300000Y-44200000D01*
X6890000Y-63950000D02*
X8100000Y-62740000D01*
X6890000Y-65300000D02*
X6890000Y-63950000D01*
X8100000Y-62740000D02*
X8100000Y-55400000D01*
X8100000Y-55400000D02*
X7100000Y-54400000D01*
X7100000Y-54400000D02*
X7100000Y-48500000D01*
X9100000Y-46500000D02*
X9100000Y-44200000D01*
X7100000Y-48500000D02*
X9100000Y-46500000D01*
D27*
G36*
X49453893Y-707670D02*
G01*
X49890498Y-839489D01*
X50293185Y-1053600D01*
X50646612Y-1341848D01*
X50937327Y-1693261D01*
X51154242Y-2094439D01*
X51289106Y-2530113D01*
X51340000Y-3014344D01*
X51340001Y-68967711D01*
X51292330Y-69453894D01*
X51160512Y-69890497D01*
X50946399Y-70293186D01*
X50658150Y-70646613D01*
X50306739Y-70937327D01*
X49905564Y-71154240D01*
X49469886Y-71289106D01*
X48985664Y-71340000D01*
X3032279Y-71340000D01*
X2546106Y-71292330D01*
X2109503Y-71160512D01*
X1706814Y-70946399D01*
X1353387Y-70658150D01*
X1062673Y-70306739D01*
X845760Y-69905564D01*
X710894Y-69469886D01*
X660000Y-68985664D01*
X660000Y-68776521D01*
X730979Y-68776521D01*
X730979Y-69223479D01*
X818176Y-69661849D01*
X989220Y-70074785D01*
X1237536Y-70446417D01*
X1553583Y-70762464D01*
X1925215Y-71010780D01*
X2338151Y-71181824D01*
X2776521Y-71269021D01*
X3223479Y-71269021D01*
X3661849Y-71181824D01*
X4074785Y-71010780D01*
X4446417Y-70762464D01*
X4762464Y-70446417D01*
X5010780Y-70074785D01*
X5181824Y-69661849D01*
X5269021Y-69223479D01*
X5269021Y-68776521D01*
X46730979Y-68776521D01*
X46730979Y-69223479D01*
X46818176Y-69661849D01*
X46989220Y-70074785D01*
X47237536Y-70446417D01*
X47553583Y-70762464D01*
X47925215Y-71010780D01*
X48338151Y-71181824D01*
X48776521Y-71269021D01*
X49223479Y-71269021D01*
X49661849Y-71181824D01*
X50074785Y-71010780D01*
X50446417Y-70762464D01*
X50762464Y-70446417D01*
X51010780Y-70074785D01*
X51181824Y-69661849D01*
X51269021Y-69223479D01*
X51269021Y-68776521D01*
X51181824Y-68338151D01*
X51010780Y-67925215D01*
X50762464Y-67553583D01*
X50446417Y-67237536D01*
X50074785Y-66989220D01*
X49661849Y-66818176D01*
X49223479Y-66730979D01*
X48776521Y-66730979D01*
X48338151Y-66818176D01*
X47925215Y-66989220D01*
X47553583Y-67237536D01*
X47237536Y-67553583D01*
X46989220Y-67925215D01*
X46818176Y-68338151D01*
X46730979Y-68776521D01*
X5269021Y-68776521D01*
X5181824Y-68338151D01*
X5010780Y-67925215D01*
X4762464Y-67553583D01*
X4446417Y-67237536D01*
X4074785Y-66989220D01*
X3661849Y-66818176D01*
X3223479Y-66730979D01*
X2776521Y-66730979D01*
X2338151Y-66818176D01*
X1925215Y-66989220D01*
X1553583Y-67237536D01*
X1237536Y-67553583D01*
X989220Y-67925215D01*
X818176Y-68338151D01*
X730979Y-68776521D01*
X660000Y-68776521D01*
X660000Y-59825000D01*
X3886928Y-59825000D01*
X3886928Y-61375000D01*
X3899188Y-61499482D01*
X3935498Y-61619180D01*
X3994463Y-61729494D01*
X4073815Y-61826185D01*
X4170506Y-61905537D01*
X4280820Y-61964502D01*
X4400518Y-62000812D01*
X4525000Y-62013072D01*
X6075000Y-62013072D01*
X6199482Y-62000812D01*
X6319180Y-61964502D01*
X6429494Y-61905537D01*
X6526185Y-61826185D01*
X6605537Y-61729494D01*
X6664502Y-61619180D01*
X6700812Y-61499482D01*
X6713072Y-61375000D01*
X6713072Y-59825000D01*
X6700812Y-59700518D01*
X6664502Y-59580820D01*
X6605537Y-59470506D01*
X6526185Y-59373815D01*
X6429494Y-59294463D01*
X6319180Y-59235498D01*
X6199482Y-59199188D01*
X6075000Y-59186928D01*
X4525000Y-59186928D01*
X4400518Y-59199188D01*
X4280820Y-59235498D01*
X4170506Y-59294463D01*
X4073815Y-59373815D01*
X3994463Y-59470506D01*
X3935498Y-59580820D01*
X3899188Y-59700518D01*
X3886928Y-59825000D01*
X660000Y-59825000D01*
X660000Y-39158665D01*
X2065000Y-39158665D01*
X2065000Y-39441335D01*
X2120147Y-39718574D01*
X2228320Y-39979727D01*
X2385363Y-40214759D01*
X2585241Y-40414637D01*
X2615000Y-40434521D01*
X2615001Y-43656521D01*
X2610719Y-43700000D01*
X2627805Y-43873490D01*
X2678412Y-44040313D01*
X2760590Y-44194059D01*
X2843468Y-44295046D01*
X2843471Y-44295049D01*
X2871184Y-44328817D01*
X2904952Y-44356530D01*
X3343466Y-44795044D01*
X3371183Y-44828817D01*
X3505941Y-44939411D01*
X3659687Y-45021589D01*
X3826510Y-45072195D01*
X3869455Y-45076425D01*
X3874188Y-45124482D01*
X3910498Y-45244180D01*
X3969463Y-45354494D01*
X4048815Y-45451185D01*
X4145506Y-45530537D01*
X4255820Y-45589502D01*
X4375518Y-45625812D01*
X4500000Y-45638072D01*
X6100000Y-45638072D01*
X6224482Y-45625812D01*
X6344180Y-45589502D01*
X6454494Y-45530537D01*
X6551185Y-45451185D01*
X6630537Y-45354494D01*
X6689502Y-45244180D01*
X6725812Y-45124482D01*
X6738072Y-45000000D01*
X6738072Y-43400000D01*
X6725812Y-43275518D01*
X6689502Y-43155820D01*
X6630537Y-43045506D01*
X6551185Y-42948815D01*
X6454494Y-42869463D01*
X6344180Y-42810498D01*
X6224482Y-42774188D01*
X6100000Y-42761928D01*
X4500000Y-42761928D01*
X4385000Y-42773254D01*
X4385000Y-40434521D01*
X4414759Y-40414637D01*
X4614637Y-40214759D01*
X4634521Y-40185000D01*
X6856531Y-40185000D01*
X6900000Y-40189281D01*
X6943469Y-40185000D01*
X6943477Y-40185000D01*
X7073490Y-40172195D01*
X7240313Y-40121589D01*
X7394059Y-40039411D01*
X7528817Y-39928817D01*
X7556534Y-39895044D01*
X8292913Y-39158665D01*
X9685000Y-39158665D01*
X9685000Y-39441335D01*
X9740147Y-39718574D01*
X9848320Y-39979727D01*
X10005363Y-40214759D01*
X10205241Y-40414637D01*
X10440273Y-40571680D01*
X10701426Y-40679853D01*
X10978665Y-40735000D01*
X11261335Y-40735000D01*
X11538574Y-40679853D01*
X11799727Y-40571680D01*
X12034759Y-40414637D01*
X12234637Y-40214759D01*
X12391680Y-39979727D01*
X12499853Y-39718574D01*
X12555000Y-39441335D01*
X12555000Y-39158665D01*
X12499853Y-38881426D01*
X12391680Y-38620273D01*
X12234637Y-38385241D01*
X12034759Y-38185363D01*
X11799727Y-38028320D01*
X11538574Y-37920147D01*
X11261335Y-37865000D01*
X10978665Y-37865000D01*
X10701426Y-37920147D01*
X10440273Y-38028320D01*
X10205241Y-38185363D01*
X10005363Y-38385241D01*
X9848320Y-38620273D01*
X9740147Y-38881426D01*
X9685000Y-39158665D01*
X8292913Y-39158665D01*
X12195049Y-35256530D01*
X12228817Y-35228817D01*
X12339411Y-35094059D01*
X12421589Y-34940313D01*
X12472195Y-34773490D01*
X12485000Y-34643477D01*
X12485000Y-34643469D01*
X12489281Y-34600000D01*
X12485000Y-34556531D01*
X12485000Y-31976578D01*
X14528566Y-29933013D01*
X14550392Y-29959608D01*
X14768899Y-30138932D01*
X14901858Y-30210000D01*
X14768899Y-30281068D01*
X14550392Y-30460392D01*
X14371068Y-30678899D01*
X14237818Y-30928192D01*
X14155764Y-31198691D01*
X14128057Y-31480000D01*
X14155764Y-31761309D01*
X14237818Y-32031808D01*
X14371068Y-32281101D01*
X14550392Y-32499608D01*
X14768899Y-32678932D01*
X14901858Y-32750000D01*
X14768899Y-32821068D01*
X14550392Y-33000392D01*
X14371068Y-33218899D01*
X14237818Y-33468192D01*
X14155764Y-33738691D01*
X14128057Y-34020000D01*
X14155764Y-34301309D01*
X14237818Y-34571808D01*
X14371068Y-34821101D01*
X14550392Y-35039608D01*
X14768899Y-35218932D01*
X15018192Y-35352182D01*
X15288691Y-35434236D01*
X15499508Y-35455000D01*
X16440492Y-35455000D01*
X16651309Y-35434236D01*
X16921808Y-35352182D01*
X17171101Y-35218932D01*
X17389608Y-35039608D01*
X17568932Y-34821101D01*
X17702182Y-34571808D01*
X17784236Y-34301309D01*
X17811943Y-34020000D01*
X17784236Y-33738691D01*
X17702182Y-33468192D01*
X17568932Y-33218899D01*
X17389608Y-33000392D01*
X17171101Y-32821068D01*
X17038142Y-32750000D01*
X17171101Y-32678932D01*
X17389608Y-32499608D01*
X17500078Y-32365000D01*
X17713422Y-32365000D01*
X18015001Y-32666580D01*
X18015000Y-35733421D01*
X11904952Y-41843470D01*
X11871184Y-41871183D01*
X11843471Y-41904951D01*
X11843468Y-41904954D01*
X11760590Y-42005941D01*
X11678412Y-42159687D01*
X11627805Y-42326510D01*
X11610719Y-42500000D01*
X11615001Y-42543479D01*
X11615000Y-57590185D01*
X11549525Y-57432115D01*
X11395218Y-57201178D01*
X11198822Y-57004782D01*
X10967885Y-56850475D01*
X10711282Y-56744186D01*
X10438873Y-56690000D01*
X10161127Y-56690000D01*
X9888718Y-56744186D01*
X9632115Y-56850475D01*
X9401178Y-57004782D01*
X9204782Y-57201178D01*
X9050475Y-57432115D01*
X8985000Y-57590185D01*
X8985000Y-55443469D01*
X8989281Y-55400000D01*
X8985000Y-55356531D01*
X8985000Y-55356523D01*
X8972195Y-55226510D01*
X8956727Y-55175518D01*
X8921589Y-55059686D01*
X8839411Y-54905941D01*
X8756532Y-54804953D01*
X8756530Y-54804951D01*
X8728817Y-54771183D01*
X8695049Y-54743470D01*
X7985000Y-54033422D01*
X7985000Y-52734216D01*
X7985363Y-52734759D01*
X8185241Y-52934637D01*
X8420273Y-53091680D01*
X8681426Y-53199853D01*
X8958665Y-53255000D01*
X9241335Y-53255000D01*
X9518574Y-53199853D01*
X9779727Y-53091680D01*
X10014759Y-52934637D01*
X10214637Y-52734759D01*
X10371680Y-52499727D01*
X10479853Y-52238574D01*
X10535000Y-51961335D01*
X10535000Y-51678665D01*
X10479853Y-51401426D01*
X10371680Y-51140273D01*
X10214637Y-50905241D01*
X10014759Y-50705363D01*
X9779727Y-50548320D01*
X9518574Y-50440147D01*
X9241335Y-50385000D01*
X8958665Y-50385000D01*
X8681426Y-50440147D01*
X8420273Y-50548320D01*
X8185241Y-50705363D01*
X7985363Y-50905241D01*
X7985000Y-50905784D01*
X7985000Y-48866578D01*
X9695050Y-47156529D01*
X9728817Y-47128817D01*
X9768881Y-47080000D01*
X9839410Y-46994060D01*
X9839411Y-46994059D01*
X9921589Y-46840313D01*
X9972195Y-46673490D01*
X9985000Y-46543477D01*
X9985000Y-46543467D01*
X9989281Y-46500001D01*
X9985000Y-46456535D01*
X9985000Y-45629701D01*
X10024482Y-45625812D01*
X10144180Y-45589502D01*
X10254494Y-45530537D01*
X10351185Y-45451185D01*
X10430537Y-45354494D01*
X10489502Y-45244180D01*
X10525812Y-45124482D01*
X10538072Y-45000000D01*
X10538072Y-43400000D01*
X10525812Y-43275518D01*
X10489502Y-43155820D01*
X10430537Y-43045506D01*
X10351185Y-42948815D01*
X10254494Y-42869463D01*
X10144180Y-42810498D01*
X10024482Y-42774188D01*
X9900000Y-42761928D01*
X8300000Y-42761928D01*
X8175518Y-42774188D01*
X8055820Y-42810498D01*
X7945506Y-42869463D01*
X7848815Y-42948815D01*
X7769463Y-43045506D01*
X7710498Y-43155820D01*
X7674188Y-43275518D01*
X7661928Y-43400000D01*
X7661928Y-45000000D01*
X7674188Y-45124482D01*
X7710498Y-45244180D01*
X7769463Y-45354494D01*
X7848815Y-45451185D01*
X7945506Y-45530537D01*
X8055820Y-45589502D01*
X8175518Y-45625812D01*
X8215000Y-45629701D01*
X8215000Y-46133421D01*
X6504951Y-47843471D01*
X6471184Y-47871183D01*
X6443471Y-47904951D01*
X6443468Y-47904954D01*
X6360590Y-48005941D01*
X6278412Y-48159687D01*
X6227805Y-48326510D01*
X6210719Y-48500000D01*
X6215001Y-48543479D01*
X6215001Y-50705605D01*
X6214759Y-50705363D01*
X5979727Y-50548320D01*
X5718574Y-50440147D01*
X5441335Y-50385000D01*
X5158665Y-50385000D01*
X4881426Y-50440147D01*
X4620273Y-50548320D01*
X4385241Y-50705363D01*
X4185363Y-50905241D01*
X4028320Y-51140273D01*
X3920147Y-51401426D01*
X3865000Y-51678665D01*
X3865000Y-51961335D01*
X3920147Y-52238574D01*
X4028320Y-52499727D01*
X4185363Y-52734759D01*
X4385241Y-52934637D01*
X4620273Y-53091680D01*
X4881426Y-53199853D01*
X5158665Y-53255000D01*
X5441335Y-53255000D01*
X5718574Y-53199853D01*
X5979727Y-53091680D01*
X6214759Y-52934637D01*
X6215000Y-52934396D01*
X6215000Y-54356531D01*
X6210719Y-54400000D01*
X6215000Y-54443469D01*
X6215000Y-54443476D01*
X6223465Y-54529425D01*
X6198822Y-54504782D01*
X5967885Y-54350475D01*
X5711282Y-54244186D01*
X5438873Y-54190000D01*
X5161127Y-54190000D01*
X4888718Y-54244186D01*
X4632115Y-54350475D01*
X4401178Y-54504782D01*
X4204782Y-54701178D01*
X4050475Y-54932115D01*
X3944186Y-55188718D01*
X3890000Y-55461127D01*
X3890000Y-55738873D01*
X3944186Y-56011282D01*
X4050475Y-56267885D01*
X4204782Y-56498822D01*
X4401178Y-56695218D01*
X4632115Y-56849525D01*
X4888718Y-56955814D01*
X5161127Y-57010000D01*
X5438873Y-57010000D01*
X5711282Y-56955814D01*
X5967885Y-56849525D01*
X6198822Y-56695218D01*
X6395218Y-56498822D01*
X6549525Y-56267885D01*
X6655814Y-56011282D01*
X6710000Y-55738873D01*
X6710000Y-55461127D01*
X6660451Y-55212029D01*
X7215001Y-55766580D01*
X7215000Y-62373421D01*
X6294951Y-63293471D01*
X6261184Y-63321183D01*
X6233471Y-63354951D01*
X6233468Y-63354954D01*
X6150590Y-63455941D01*
X6068412Y-63609687D01*
X6017805Y-63776510D01*
X6014065Y-63814482D01*
X5915518Y-63824188D01*
X5795820Y-63860498D01*
X5685506Y-63919463D01*
X5588815Y-63998815D01*
X5509463Y-64095506D01*
X5450498Y-64205820D01*
X5414188Y-64325518D01*
X5401928Y-64450000D01*
X5401928Y-66150000D01*
X5414188Y-66274482D01*
X5450498Y-66394180D01*
X5509463Y-66504494D01*
X5588815Y-66601185D01*
X5685506Y-66680537D01*
X5795820Y-66739502D01*
X5915518Y-66775812D01*
X6040000Y-66788072D01*
X7740000Y-66788072D01*
X7864482Y-66775812D01*
X7984180Y-66739502D01*
X8094494Y-66680537D01*
X8191185Y-66601185D01*
X8270537Y-66504494D01*
X8329502Y-66394180D01*
X8351513Y-66321620D01*
X8483368Y-66453475D01*
X8726589Y-66615990D01*
X8996842Y-66727932D01*
X9283740Y-66785000D01*
X9576260Y-66785000D01*
X9863158Y-66727932D01*
X10133411Y-66615990D01*
X10376632Y-66453475D01*
X10583475Y-66246632D01*
X10700000Y-66072240D01*
X10816525Y-66246632D01*
X11023368Y-66453475D01*
X11266589Y-66615990D01*
X11536842Y-66727932D01*
X11823740Y-66785000D01*
X12116260Y-66785000D01*
X12403158Y-66727932D01*
X12673411Y-66615990D01*
X12916632Y-66453475D01*
X13123475Y-66246632D01*
X13249070Y-66058665D01*
X15065000Y-66058665D01*
X15065000Y-66341335D01*
X15120147Y-66618574D01*
X15228320Y-66879727D01*
X15385363Y-67114759D01*
X15585241Y-67314637D01*
X15820273Y-67471680D01*
X16081426Y-67579853D01*
X16358665Y-67635000D01*
X16641335Y-67635000D01*
X16918574Y-67579853D01*
X17179727Y-67471680D01*
X17414759Y-67314637D01*
X17614637Y-67114759D01*
X17771680Y-66879727D01*
X17879853Y-66618574D01*
X17893684Y-66549039D01*
X22728096Y-66549039D01*
X22768754Y-66683087D01*
X22888963Y-66937420D01*
X23056481Y-67163414D01*
X23264869Y-67352385D01*
X23506119Y-67497070D01*
X23770960Y-67591909D01*
X23993000Y-67470624D01*
X23993000Y-66327000D01*
X24247000Y-66327000D01*
X24247000Y-67470624D01*
X24469040Y-67591909D01*
X24733881Y-67497070D01*
X24975131Y-67352385D01*
X25183519Y-67163414D01*
X25351037Y-66937420D01*
X25471246Y-66683087D01*
X25511904Y-66549039D01*
X25389915Y-66327000D01*
X24247000Y-66327000D01*
X23993000Y-66327000D01*
X22850085Y-66327000D01*
X22728096Y-66549039D01*
X17893684Y-66549039D01*
X17935000Y-66341335D01*
X17935000Y-66058665D01*
X17893685Y-65850961D01*
X22728096Y-65850961D01*
X22850085Y-66073000D01*
X23993000Y-66073000D01*
X23993000Y-64929376D01*
X24247000Y-64929376D01*
X24247000Y-66073000D01*
X25389915Y-66073000D01*
X25511904Y-65850961D01*
X25471246Y-65716913D01*
X25351037Y-65462580D01*
X25312438Y-65410507D01*
X26193669Y-65410507D01*
X26232761Y-65636404D01*
X26315172Y-65850334D01*
X26437736Y-66044076D01*
X26595742Y-66210184D01*
X26783118Y-66342275D01*
X26992663Y-66435272D01*
X27054190Y-66443964D01*
X27233000Y-66318163D01*
X27233000Y-65227000D01*
X26353402Y-65227000D01*
X26193669Y-65410507D01*
X25312438Y-65410507D01*
X25183519Y-65236586D01*
X24975131Y-65047615D01*
X24733881Y-64902930D01*
X24469040Y-64808091D01*
X24247000Y-64929376D01*
X23993000Y-64929376D01*
X23770960Y-64808091D01*
X23506119Y-64902930D01*
X23264869Y-65047615D01*
X23056481Y-65236586D01*
X22888963Y-65462580D01*
X22768754Y-65716913D01*
X22728096Y-65850961D01*
X17893685Y-65850961D01*
X17879853Y-65781426D01*
X17771680Y-65520273D01*
X17614637Y-65285241D01*
X17414759Y-65085363D01*
X17179727Y-64928320D01*
X16918574Y-64820147D01*
X16764468Y-64789493D01*
X26193669Y-64789493D01*
X26353402Y-64973000D01*
X27233000Y-64973000D01*
X27233000Y-64818021D01*
X27470000Y-64818021D01*
X27470000Y-65381978D01*
X27486785Y-65552399D01*
X27487000Y-65553108D01*
X27487000Y-66318163D01*
X27665810Y-66443964D01*
X27727337Y-66435272D01*
X27936882Y-66342275D01*
X27995331Y-66301071D01*
X28183940Y-66401885D01*
X28402600Y-66468215D01*
X28630000Y-66490612D01*
X28857399Y-66468215D01*
X29066098Y-66404907D01*
X29130820Y-66439502D01*
X29250518Y-66475812D01*
X29375000Y-66488072D01*
X30425000Y-66488072D01*
X30549482Y-66475812D01*
X30669180Y-66439502D01*
X30779494Y-66380537D01*
X30876185Y-66301185D01*
X30955537Y-66204494D01*
X31014502Y-66094180D01*
X31050812Y-65974482D01*
X31063072Y-65850000D01*
X31063072Y-64525000D01*
X32061928Y-64525000D01*
X32061928Y-66725000D01*
X32074188Y-66849482D01*
X32110498Y-66969180D01*
X32169463Y-67079494D01*
X32248815Y-67176185D01*
X32345506Y-67255537D01*
X32455820Y-67314502D01*
X32575518Y-67350812D01*
X32700000Y-67363072D01*
X34900000Y-67363072D01*
X35024482Y-67350812D01*
X35144180Y-67314502D01*
X35254494Y-67255537D01*
X35351185Y-67176185D01*
X35430537Y-67079494D01*
X35489502Y-66969180D01*
X35525812Y-66849482D01*
X35538072Y-66725000D01*
X35538072Y-65454117D01*
X42225000Y-65454117D01*
X42225000Y-65795883D01*
X42291675Y-66131081D01*
X42422463Y-66446831D01*
X42612337Y-66730998D01*
X42854002Y-66972663D01*
X43138169Y-67162537D01*
X43453919Y-67293325D01*
X43789117Y-67360000D01*
X44130883Y-67360000D01*
X44466081Y-67293325D01*
X44781831Y-67162537D01*
X45065998Y-66972663D01*
X45307663Y-66730998D01*
X45497537Y-66446831D01*
X45628325Y-66131081D01*
X45695000Y-65795883D01*
X45695000Y-65454117D01*
X45628325Y-65118919D01*
X45497537Y-64803169D01*
X45307663Y-64519002D01*
X45065998Y-64277337D01*
X44781831Y-64087463D01*
X44466081Y-63956675D01*
X44130883Y-63890000D01*
X43789117Y-63890000D01*
X43453919Y-63956675D01*
X43138169Y-64087463D01*
X42854002Y-64277337D01*
X42612337Y-64519002D01*
X42422463Y-64803169D01*
X42291675Y-65118919D01*
X42225000Y-65454117D01*
X35538072Y-65454117D01*
X35538072Y-64525000D01*
X35525812Y-64400518D01*
X35489502Y-64280820D01*
X35430537Y-64170506D01*
X35351185Y-64073815D01*
X35254494Y-63994463D01*
X35144180Y-63935498D01*
X35024482Y-63899188D01*
X34900000Y-63886928D01*
X32700000Y-63886928D01*
X32575518Y-63899188D01*
X32455820Y-63935498D01*
X32345506Y-63994463D01*
X32248815Y-64073815D01*
X32169463Y-64170506D01*
X32110498Y-64280820D01*
X32074188Y-64400518D01*
X32061928Y-64525000D01*
X31063072Y-64525000D01*
X31063072Y-64350000D01*
X31050812Y-64225518D01*
X31014502Y-64105820D01*
X30955537Y-63995506D01*
X30876185Y-63898815D01*
X30779494Y-63819463D01*
X30669180Y-63760498D01*
X30549482Y-63724188D01*
X30425000Y-63711928D01*
X29375000Y-63711928D01*
X29250518Y-63724188D01*
X29130820Y-63760498D01*
X29066098Y-63795093D01*
X28857400Y-63731785D01*
X28630000Y-63709388D01*
X28402601Y-63731785D01*
X28183941Y-63798115D01*
X27995331Y-63898929D01*
X27936882Y-63857725D01*
X27727337Y-63764728D01*
X27665810Y-63756036D01*
X27487000Y-63881837D01*
X27487000Y-64646891D01*
X27486785Y-64647600D01*
X27470000Y-64818021D01*
X27233000Y-64818021D01*
X27233000Y-63881837D01*
X27054190Y-63756036D01*
X26992663Y-63764728D01*
X26783118Y-63857725D01*
X26595742Y-63989816D01*
X26437736Y-64155924D01*
X26315172Y-64349666D01*
X26232761Y-64563596D01*
X26193669Y-64789493D01*
X16764468Y-64789493D01*
X16641335Y-64765000D01*
X16358665Y-64765000D01*
X16081426Y-64820147D01*
X15820273Y-64928320D01*
X15585241Y-65085363D01*
X15385363Y-65285241D01*
X15228320Y-65520273D01*
X15120147Y-65781426D01*
X15065000Y-66058665D01*
X13249070Y-66058665D01*
X13285990Y-66003411D01*
X13397932Y-65733158D01*
X13455000Y-65446260D01*
X13455000Y-65153740D01*
X13397932Y-64866842D01*
X13285990Y-64596589D01*
X13123475Y-64353368D01*
X12916632Y-64146525D01*
X12673411Y-63984010D01*
X12403158Y-63872068D01*
X12116260Y-63815000D01*
X11823740Y-63815000D01*
X11536842Y-63872068D01*
X11266589Y-63984010D01*
X11023368Y-64146525D01*
X10816525Y-64353368D01*
X10700000Y-64527760D01*
X10583475Y-64353368D01*
X10504802Y-64274695D01*
X12729497Y-62050000D01*
X18811928Y-62050000D01*
X18811928Y-63750000D01*
X18824188Y-63874482D01*
X18860498Y-63994180D01*
X18919463Y-64104494D01*
X18998815Y-64201185D01*
X19095506Y-64280537D01*
X19205820Y-64339502D01*
X19325518Y-64375812D01*
X19450000Y-64388072D01*
X21150000Y-64388072D01*
X21274482Y-64375812D01*
X21394180Y-64339502D01*
X21504494Y-64280537D01*
X21601185Y-64201185D01*
X21680537Y-64104494D01*
X21739502Y-63994180D01*
X21775812Y-63874482D01*
X21788072Y-63750000D01*
X21788072Y-62050000D01*
X21775812Y-61925518D01*
X21739502Y-61805820D01*
X21680537Y-61695506D01*
X21601185Y-61598815D01*
X21504494Y-61519463D01*
X21394180Y-61460498D01*
X21274482Y-61424188D01*
X21150000Y-61411928D01*
X19450000Y-61411928D01*
X19325518Y-61424188D01*
X19205820Y-61460498D01*
X19095506Y-61519463D01*
X18998815Y-61598815D01*
X18919463Y-61695506D01*
X18860498Y-61805820D01*
X18824188Y-61925518D01*
X18811928Y-62050000D01*
X12729497Y-62050000D01*
X13095050Y-61684448D01*
X13128817Y-61656736D01*
X13239411Y-61521978D01*
X13251435Y-61499482D01*
X13321589Y-61368233D01*
X13372195Y-61201409D01*
X13383784Y-61083740D01*
X13385000Y-61071396D01*
X13385000Y-61071388D01*
X13389281Y-61027919D01*
X13385000Y-60984450D01*
X13385000Y-59058665D01*
X15065000Y-59058665D01*
X15065000Y-59341335D01*
X15120147Y-59618574D01*
X15228320Y-59879727D01*
X15385363Y-60114759D01*
X15585241Y-60314637D01*
X15820273Y-60471680D01*
X16081426Y-60579853D01*
X16358665Y-60635000D01*
X16641335Y-60635000D01*
X16918574Y-60579853D01*
X17179727Y-60471680D01*
X17414759Y-60314637D01*
X17614637Y-60114759D01*
X17771680Y-59879727D01*
X17879853Y-59618574D01*
X17893684Y-59549039D01*
X22728096Y-59549039D01*
X22768754Y-59683087D01*
X22888963Y-59937420D01*
X23056481Y-60163414D01*
X23264869Y-60352385D01*
X23506119Y-60497070D01*
X23770960Y-60591909D01*
X23993000Y-60470624D01*
X23993000Y-59327000D01*
X24247000Y-59327000D01*
X24247000Y-60470624D01*
X24469040Y-60591909D01*
X24733881Y-60497070D01*
X24975131Y-60352385D01*
X25183519Y-60163414D01*
X25351037Y-59937420D01*
X25471246Y-59683087D01*
X25511904Y-59549039D01*
X25389915Y-59327000D01*
X24247000Y-59327000D01*
X23993000Y-59327000D01*
X22850085Y-59327000D01*
X22728096Y-59549039D01*
X17893684Y-59549039D01*
X17935000Y-59341335D01*
X17935000Y-59058665D01*
X17893685Y-58850961D01*
X22728096Y-58850961D01*
X22850085Y-59073000D01*
X23993000Y-59073000D01*
X23993000Y-57929376D01*
X24247000Y-57929376D01*
X24247000Y-59073000D01*
X25389915Y-59073000D01*
X25511904Y-58850961D01*
X25471246Y-58716913D01*
X25351037Y-58462580D01*
X25201251Y-58260507D01*
X26193669Y-58260507D01*
X26232761Y-58486404D01*
X26315172Y-58700334D01*
X26437736Y-58894076D01*
X26595742Y-59060184D01*
X26783118Y-59192275D01*
X26992663Y-59285272D01*
X27054190Y-59293964D01*
X27233000Y-59168163D01*
X27233000Y-58077000D01*
X26353402Y-58077000D01*
X26193669Y-58260507D01*
X25201251Y-58260507D01*
X25183519Y-58236586D01*
X24975131Y-58047615D01*
X24733881Y-57902930D01*
X24469040Y-57808091D01*
X24247000Y-57929376D01*
X23993000Y-57929376D01*
X23770960Y-57808091D01*
X23506119Y-57902930D01*
X23264869Y-58047615D01*
X23056481Y-58236586D01*
X22888963Y-58462580D01*
X22768754Y-58716913D01*
X22728096Y-58850961D01*
X17893685Y-58850961D01*
X17879853Y-58781426D01*
X17771680Y-58520273D01*
X17614637Y-58285241D01*
X17414759Y-58085363D01*
X17179727Y-57928320D01*
X16918574Y-57820147D01*
X16641335Y-57765000D01*
X16358665Y-57765000D01*
X16081426Y-57820147D01*
X15820273Y-57928320D01*
X15585241Y-58085363D01*
X15385363Y-58285241D01*
X15228320Y-58520273D01*
X15120147Y-58781426D01*
X15065000Y-59058665D01*
X13385000Y-59058665D01*
X13385000Y-57639493D01*
X26193669Y-57639493D01*
X26353402Y-57823000D01*
X27233000Y-57823000D01*
X27233000Y-57668021D01*
X27470000Y-57668021D01*
X27470000Y-58231978D01*
X27486785Y-58402399D01*
X27487000Y-58403108D01*
X27487000Y-59168163D01*
X27665810Y-59293964D01*
X27727337Y-59285272D01*
X27936882Y-59192275D01*
X27995331Y-59151071D01*
X28183940Y-59251885D01*
X28402600Y-59318215D01*
X28630000Y-59340612D01*
X28857399Y-59318215D01*
X29066098Y-59254907D01*
X29130820Y-59289502D01*
X29250518Y-59325812D01*
X29375000Y-59338072D01*
X30425000Y-59338072D01*
X30549482Y-59325812D01*
X30669180Y-59289502D01*
X30779494Y-59230537D01*
X30876185Y-59151185D01*
X30955537Y-59054494D01*
X31014502Y-58944180D01*
X31050812Y-58824482D01*
X31063072Y-58700000D01*
X31063072Y-57200000D01*
X31050812Y-57075518D01*
X31014502Y-56955820D01*
X30955537Y-56845506D01*
X30876185Y-56748815D01*
X30786241Y-56675000D01*
X32061928Y-56675000D01*
X32061928Y-58875000D01*
X32074188Y-58999482D01*
X32110498Y-59119180D01*
X32169463Y-59229494D01*
X32248815Y-59326185D01*
X32345506Y-59405537D01*
X32455820Y-59464502D01*
X32575518Y-59500812D01*
X32700000Y-59513072D01*
X34900000Y-59513072D01*
X35024482Y-59500812D01*
X35144180Y-59464502D01*
X35254494Y-59405537D01*
X35351185Y-59326185D01*
X35430537Y-59229494D01*
X35489502Y-59119180D01*
X35525812Y-58999482D01*
X35538072Y-58875000D01*
X35538072Y-57604117D01*
X42225000Y-57604117D01*
X42225000Y-57945883D01*
X42291675Y-58281081D01*
X42422463Y-58596831D01*
X42612337Y-58880998D01*
X42854002Y-59122663D01*
X43138169Y-59312537D01*
X43453919Y-59443325D01*
X43789117Y-59510000D01*
X44130883Y-59510000D01*
X44466081Y-59443325D01*
X44781831Y-59312537D01*
X45065998Y-59122663D01*
X45307663Y-58880998D01*
X45497537Y-58596831D01*
X45628325Y-58281081D01*
X45695000Y-57945883D01*
X45695000Y-57604117D01*
X45628325Y-57268919D01*
X45497537Y-56953169D01*
X45307663Y-56669002D01*
X45065998Y-56427337D01*
X44781831Y-56237463D01*
X44466081Y-56106675D01*
X44130883Y-56040000D01*
X43789117Y-56040000D01*
X43453919Y-56106675D01*
X43138169Y-56237463D01*
X42854002Y-56427337D01*
X42612337Y-56669002D01*
X42422463Y-56953169D01*
X42291675Y-57268919D01*
X42225000Y-57604117D01*
X35538072Y-57604117D01*
X35538072Y-56675000D01*
X35525812Y-56550518D01*
X35489502Y-56430820D01*
X35430537Y-56320506D01*
X35351185Y-56223815D01*
X35254494Y-56144463D01*
X35144180Y-56085498D01*
X35024482Y-56049188D01*
X34900000Y-56036928D01*
X32700000Y-56036928D01*
X32575518Y-56049188D01*
X32455820Y-56085498D01*
X32345506Y-56144463D01*
X32248815Y-56223815D01*
X32169463Y-56320506D01*
X32110498Y-56430820D01*
X32074188Y-56550518D01*
X32061928Y-56675000D01*
X30786241Y-56675000D01*
X30779494Y-56669463D01*
X30669180Y-56610498D01*
X30549482Y-56574188D01*
X30425000Y-56561928D01*
X29375000Y-56561928D01*
X29250518Y-56574188D01*
X29130820Y-56610498D01*
X29066098Y-56645093D01*
X28857400Y-56581785D01*
X28630000Y-56559388D01*
X28402601Y-56581785D01*
X28183941Y-56648115D01*
X27995331Y-56748929D01*
X27936882Y-56707725D01*
X27727337Y-56614728D01*
X27665810Y-56606036D01*
X27487000Y-56731837D01*
X27487000Y-57496891D01*
X27486785Y-57497600D01*
X27470000Y-57668021D01*
X27233000Y-57668021D01*
X27233000Y-56731837D01*
X27054190Y-56606036D01*
X26992663Y-56614728D01*
X26783118Y-56707725D01*
X26595742Y-56839816D01*
X26437736Y-57005924D01*
X26315172Y-57199666D01*
X26232761Y-57413596D01*
X26193669Y-57639493D01*
X13385000Y-57639493D01*
X13385000Y-54750000D01*
X18811928Y-54750000D01*
X18811928Y-56450000D01*
X18824188Y-56574482D01*
X18860498Y-56694180D01*
X18919463Y-56804494D01*
X18998815Y-56901185D01*
X19095506Y-56980537D01*
X19205820Y-57039502D01*
X19325518Y-57075812D01*
X19450000Y-57088072D01*
X21150000Y-57088072D01*
X21274482Y-57075812D01*
X21394180Y-57039502D01*
X21504494Y-56980537D01*
X21601185Y-56901185D01*
X21680537Y-56804494D01*
X21739502Y-56694180D01*
X21775812Y-56574482D01*
X21788072Y-56450000D01*
X21788072Y-55300000D01*
X47411928Y-55300000D01*
X47411928Y-57000000D01*
X47424188Y-57124482D01*
X47460498Y-57244180D01*
X47519463Y-57354494D01*
X47598815Y-57451185D01*
X47695506Y-57530537D01*
X47805820Y-57589502D01*
X47878380Y-57611513D01*
X47746525Y-57743368D01*
X47584010Y-57986589D01*
X47472068Y-58256842D01*
X47415000Y-58543740D01*
X47415000Y-58836260D01*
X47472068Y-59123158D01*
X47584010Y-59393411D01*
X47746525Y-59636632D01*
X47953368Y-59843475D01*
X48127760Y-59960000D01*
X47953368Y-60076525D01*
X47746525Y-60283368D01*
X47584010Y-60526589D01*
X47472068Y-60796842D01*
X47415000Y-61083740D01*
X47415000Y-61376260D01*
X47472068Y-61663158D01*
X47584010Y-61933411D01*
X47746525Y-62176632D01*
X47953368Y-62383475D01*
X48196589Y-62545990D01*
X48466842Y-62657932D01*
X48753740Y-62715000D01*
X49046260Y-62715000D01*
X49333158Y-62657932D01*
X49603411Y-62545990D01*
X49846632Y-62383475D01*
X50053475Y-62176632D01*
X50215990Y-61933411D01*
X50327932Y-61663158D01*
X50385000Y-61376260D01*
X50385000Y-61083740D01*
X50327932Y-60796842D01*
X50215990Y-60526589D01*
X50053475Y-60283368D01*
X49846632Y-60076525D01*
X49672240Y-59960000D01*
X49846632Y-59843475D01*
X50053475Y-59636632D01*
X50215990Y-59393411D01*
X50327932Y-59123158D01*
X50385000Y-58836260D01*
X50385000Y-58543740D01*
X50327932Y-58256842D01*
X50215990Y-57986589D01*
X50053475Y-57743368D01*
X49921620Y-57611513D01*
X49994180Y-57589502D01*
X50104494Y-57530537D01*
X50201185Y-57451185D01*
X50280537Y-57354494D01*
X50339502Y-57244180D01*
X50375812Y-57124482D01*
X50388072Y-57000000D01*
X50388072Y-55300000D01*
X50375812Y-55175518D01*
X50339502Y-55055820D01*
X50280537Y-54945506D01*
X50201185Y-54848815D01*
X50104494Y-54769463D01*
X49994180Y-54710498D01*
X49874482Y-54674188D01*
X49750000Y-54661928D01*
X48050000Y-54661928D01*
X47925518Y-54674188D01*
X47805820Y-54710498D01*
X47695506Y-54769463D01*
X47598815Y-54848815D01*
X47519463Y-54945506D01*
X47460498Y-55055820D01*
X47424188Y-55175518D01*
X47411928Y-55300000D01*
X21788072Y-55300000D01*
X21788072Y-54750000D01*
X21775812Y-54625518D01*
X21739502Y-54505820D01*
X21680537Y-54395506D01*
X21601185Y-54298815D01*
X21504494Y-54219463D01*
X21394180Y-54160498D01*
X21274482Y-54124188D01*
X21150000Y-54111928D01*
X19450000Y-54111928D01*
X19325518Y-54124188D01*
X19205820Y-54160498D01*
X19095506Y-54219463D01*
X18998815Y-54298815D01*
X18919463Y-54395506D01*
X18860498Y-54505820D01*
X18824188Y-54625518D01*
X18811928Y-54750000D01*
X13385000Y-54750000D01*
X13385000Y-49158665D01*
X15065000Y-49158665D01*
X15065000Y-49441335D01*
X15120147Y-49718574D01*
X15228320Y-49979727D01*
X15385363Y-50214759D01*
X15585241Y-50414637D01*
X15820273Y-50571680D01*
X16081426Y-50679853D01*
X16358665Y-50735000D01*
X16641335Y-50735000D01*
X16918574Y-50679853D01*
X17179727Y-50571680D01*
X17414759Y-50414637D01*
X17614637Y-50214759D01*
X17771680Y-49979727D01*
X17879853Y-49718574D01*
X17893684Y-49649039D01*
X22728096Y-49649039D01*
X22768754Y-49783087D01*
X22888963Y-50037420D01*
X23056481Y-50263414D01*
X23264869Y-50452385D01*
X23506119Y-50597070D01*
X23770960Y-50691909D01*
X23993000Y-50570624D01*
X23993000Y-49427000D01*
X24247000Y-49427000D01*
X24247000Y-50570624D01*
X24469040Y-50691909D01*
X24733881Y-50597070D01*
X24975131Y-50452385D01*
X25183519Y-50263414D01*
X25351037Y-50037420D01*
X25471246Y-49783087D01*
X25511904Y-49649039D01*
X25389915Y-49427000D01*
X24247000Y-49427000D01*
X23993000Y-49427000D01*
X22850085Y-49427000D01*
X22728096Y-49649039D01*
X17893684Y-49649039D01*
X17935000Y-49441335D01*
X17935000Y-49158665D01*
X17893685Y-48950961D01*
X22728096Y-48950961D01*
X22850085Y-49173000D01*
X23993000Y-49173000D01*
X23993000Y-48029376D01*
X24247000Y-48029376D01*
X24247000Y-49173000D01*
X25389915Y-49173000D01*
X25511904Y-48950961D01*
X25471246Y-48816913D01*
X25351037Y-48562580D01*
X25275376Y-48460507D01*
X26193669Y-48460507D01*
X26232761Y-48686404D01*
X26315172Y-48900334D01*
X26437736Y-49094076D01*
X26595742Y-49260184D01*
X26783118Y-49392275D01*
X26992663Y-49485272D01*
X27054190Y-49493964D01*
X27233000Y-49368163D01*
X27233000Y-48277000D01*
X26353402Y-48277000D01*
X26193669Y-48460507D01*
X25275376Y-48460507D01*
X25183519Y-48336586D01*
X24975131Y-48147615D01*
X24733881Y-48002930D01*
X24469040Y-47908091D01*
X24247000Y-48029376D01*
X23993000Y-48029376D01*
X23770960Y-47908091D01*
X23506119Y-48002930D01*
X23264869Y-48147615D01*
X23056481Y-48336586D01*
X22888963Y-48562580D01*
X22768754Y-48816913D01*
X22728096Y-48950961D01*
X17893685Y-48950961D01*
X17879853Y-48881426D01*
X17771680Y-48620273D01*
X17614637Y-48385241D01*
X17414759Y-48185363D01*
X17179727Y-48028320D01*
X16918574Y-47920147D01*
X16641335Y-47865000D01*
X16358665Y-47865000D01*
X16081426Y-47920147D01*
X15820273Y-48028320D01*
X15585241Y-48185363D01*
X15385363Y-48385241D01*
X15228320Y-48620273D01*
X15120147Y-48881426D01*
X15065000Y-49158665D01*
X13385000Y-49158665D01*
X13385000Y-47839493D01*
X26193669Y-47839493D01*
X26353402Y-48023000D01*
X27233000Y-48023000D01*
X27233000Y-47868021D01*
X27470000Y-47868021D01*
X27470000Y-48431978D01*
X27486785Y-48602399D01*
X27487000Y-48603108D01*
X27487000Y-49368163D01*
X27665810Y-49493964D01*
X27727337Y-49485272D01*
X27936882Y-49392275D01*
X27995331Y-49351071D01*
X28183940Y-49451885D01*
X28402600Y-49518215D01*
X28630000Y-49540612D01*
X28857399Y-49518215D01*
X29066098Y-49454907D01*
X29130820Y-49489502D01*
X29250518Y-49525812D01*
X29375000Y-49538072D01*
X30425000Y-49538072D01*
X30549482Y-49525812D01*
X30669180Y-49489502D01*
X30779494Y-49430537D01*
X30876185Y-49351185D01*
X30955537Y-49254494D01*
X31014502Y-49144180D01*
X31050812Y-49024482D01*
X31063072Y-48900000D01*
X31063072Y-47400000D01*
X31050812Y-47275518D01*
X31014502Y-47155820D01*
X30955537Y-47045506D01*
X30938709Y-47025000D01*
X32061928Y-47025000D01*
X32061928Y-49225000D01*
X32074188Y-49349482D01*
X32110498Y-49469180D01*
X32169463Y-49579494D01*
X32248815Y-49676185D01*
X32345506Y-49755537D01*
X32455820Y-49814502D01*
X32575518Y-49850812D01*
X32700000Y-49863072D01*
X34900000Y-49863072D01*
X35024482Y-49850812D01*
X35144180Y-49814502D01*
X35254494Y-49755537D01*
X35351185Y-49676185D01*
X35430537Y-49579494D01*
X35489502Y-49469180D01*
X35525812Y-49349482D01*
X35538072Y-49225000D01*
X35538072Y-47954117D01*
X42225000Y-47954117D01*
X42225000Y-48295883D01*
X42291675Y-48631081D01*
X42422463Y-48946831D01*
X42612337Y-49230998D01*
X42854002Y-49472663D01*
X43138169Y-49662537D01*
X43453919Y-49793325D01*
X43789117Y-49860000D01*
X44130883Y-49860000D01*
X44466081Y-49793325D01*
X44781831Y-49662537D01*
X45065998Y-49472663D01*
X45307663Y-49230998D01*
X45497537Y-48946831D01*
X45628325Y-48631081D01*
X45695000Y-48295883D01*
X45695000Y-47954117D01*
X45628325Y-47618919D01*
X45497537Y-47303169D01*
X45307663Y-47019002D01*
X45065998Y-46777337D01*
X44781831Y-46587463D01*
X44466081Y-46456675D01*
X44130883Y-46390000D01*
X43789117Y-46390000D01*
X43453919Y-46456675D01*
X43138169Y-46587463D01*
X42854002Y-46777337D01*
X42612337Y-47019002D01*
X42422463Y-47303169D01*
X42291675Y-47618919D01*
X42225000Y-47954117D01*
X35538072Y-47954117D01*
X35538072Y-47025000D01*
X35525812Y-46900518D01*
X35489502Y-46780820D01*
X35430537Y-46670506D01*
X35351185Y-46573815D01*
X35254494Y-46494463D01*
X35144180Y-46435498D01*
X35024482Y-46399188D01*
X34900000Y-46386928D01*
X32700000Y-46386928D01*
X32575518Y-46399188D01*
X32455820Y-46435498D01*
X32345506Y-46494463D01*
X32248815Y-46573815D01*
X32169463Y-46670506D01*
X32110498Y-46780820D01*
X32074188Y-46900518D01*
X32061928Y-47025000D01*
X30938709Y-47025000D01*
X30876185Y-46948815D01*
X30779494Y-46869463D01*
X30669180Y-46810498D01*
X30549482Y-46774188D01*
X30425000Y-46761928D01*
X29375000Y-46761928D01*
X29250518Y-46774188D01*
X29130820Y-46810498D01*
X29066098Y-46845093D01*
X28857400Y-46781785D01*
X28630000Y-46759388D01*
X28402601Y-46781785D01*
X28183941Y-46848115D01*
X27995331Y-46948929D01*
X27936882Y-46907725D01*
X27727337Y-46814728D01*
X27665810Y-46806036D01*
X27487000Y-46931837D01*
X27487000Y-47696891D01*
X27486785Y-47697600D01*
X27470000Y-47868021D01*
X27233000Y-47868021D01*
X27233000Y-46931837D01*
X27054190Y-46806036D01*
X26992663Y-46814728D01*
X26783118Y-46907725D01*
X26595742Y-47039816D01*
X26437736Y-47205924D01*
X26315172Y-47399666D01*
X26232761Y-47613596D01*
X26193669Y-47839493D01*
X13385000Y-47839493D01*
X13385000Y-44750000D01*
X18811928Y-44750000D01*
X18811928Y-46450000D01*
X18824188Y-46574482D01*
X18860498Y-46694180D01*
X18919463Y-46804494D01*
X18998815Y-46901185D01*
X19095506Y-46980537D01*
X19205820Y-47039502D01*
X19325518Y-47075812D01*
X19450000Y-47088072D01*
X21150000Y-47088072D01*
X21274482Y-47075812D01*
X21394180Y-47039502D01*
X21504494Y-46980537D01*
X21601185Y-46901185D01*
X21680537Y-46804494D01*
X21739502Y-46694180D01*
X21775812Y-46574482D01*
X21788072Y-46450000D01*
X21788072Y-45175000D01*
X47411928Y-45175000D01*
X47411928Y-46875000D01*
X47424188Y-46999482D01*
X47460498Y-47119180D01*
X47519463Y-47229494D01*
X47598815Y-47326185D01*
X47695506Y-47405537D01*
X47805820Y-47464502D01*
X47878380Y-47486513D01*
X47746525Y-47618368D01*
X47584010Y-47861589D01*
X47472068Y-48131842D01*
X47415000Y-48418740D01*
X47415000Y-48711260D01*
X47472068Y-48998158D01*
X47584010Y-49268411D01*
X47746525Y-49511632D01*
X47953368Y-49718475D01*
X48127760Y-49835000D01*
X47953368Y-49951525D01*
X47746525Y-50158368D01*
X47584010Y-50401589D01*
X47472068Y-50671842D01*
X47415000Y-50958740D01*
X47415000Y-51251260D01*
X47472068Y-51538158D01*
X47584010Y-51808411D01*
X47746525Y-52051632D01*
X47953368Y-52258475D01*
X48196589Y-52420990D01*
X48466842Y-52532932D01*
X48753740Y-52590000D01*
X49046260Y-52590000D01*
X49333158Y-52532932D01*
X49603411Y-52420990D01*
X49846632Y-52258475D01*
X50053475Y-52051632D01*
X50215990Y-51808411D01*
X50327932Y-51538158D01*
X50385000Y-51251260D01*
X50385000Y-50958740D01*
X50327932Y-50671842D01*
X50215990Y-50401589D01*
X50053475Y-50158368D01*
X49846632Y-49951525D01*
X49672240Y-49835000D01*
X49846632Y-49718475D01*
X50053475Y-49511632D01*
X50215990Y-49268411D01*
X50327932Y-48998158D01*
X50385000Y-48711260D01*
X50385000Y-48418740D01*
X50327932Y-48131842D01*
X50215990Y-47861589D01*
X50053475Y-47618368D01*
X49921620Y-47486513D01*
X49994180Y-47464502D01*
X50104494Y-47405537D01*
X50201185Y-47326185D01*
X50280537Y-47229494D01*
X50339502Y-47119180D01*
X50375812Y-46999482D01*
X50388072Y-46875000D01*
X50388072Y-45175000D01*
X50375812Y-45050518D01*
X50339502Y-44930820D01*
X50280537Y-44820506D01*
X50201185Y-44723815D01*
X50104494Y-44644463D01*
X49994180Y-44585498D01*
X49874482Y-44549188D01*
X49750000Y-44536928D01*
X48050000Y-44536928D01*
X47925518Y-44549188D01*
X47805820Y-44585498D01*
X47695506Y-44644463D01*
X47598815Y-44723815D01*
X47519463Y-44820506D01*
X47460498Y-44930820D01*
X47424188Y-45050518D01*
X47411928Y-45175000D01*
X21788072Y-45175000D01*
X21788072Y-44750000D01*
X21775812Y-44625518D01*
X21739502Y-44505820D01*
X21680537Y-44395506D01*
X21601185Y-44298815D01*
X21504494Y-44219463D01*
X21394180Y-44160498D01*
X21274482Y-44124188D01*
X21150000Y-44111928D01*
X19450000Y-44111928D01*
X19325518Y-44124188D01*
X19205820Y-44160498D01*
X19095506Y-44219463D01*
X18998815Y-44298815D01*
X18919463Y-44395506D01*
X18860498Y-44505820D01*
X18824188Y-44625518D01*
X18811928Y-44750000D01*
X13385000Y-44750000D01*
X13385000Y-42866578D01*
X19495051Y-36756528D01*
X19528817Y-36728817D01*
X19639411Y-36594059D01*
X19721589Y-36440313D01*
X19772195Y-36273490D01*
X19785000Y-36143477D01*
X19785000Y-36143469D01*
X19789281Y-36100000D01*
X19785000Y-36056531D01*
X19785000Y-34864396D01*
X19935241Y-35014637D01*
X20170273Y-35171680D01*
X20431426Y-35279853D01*
X20708665Y-35335000D01*
X20991335Y-35335000D01*
X21268574Y-35279853D01*
X21529727Y-35171680D01*
X21764759Y-35014637D01*
X21964637Y-34814759D01*
X22121680Y-34579727D01*
X22229853Y-34318574D01*
X22285000Y-34041335D01*
X22285000Y-33758665D01*
X22229853Y-33481426D01*
X22121680Y-33220273D01*
X21964637Y-32985241D01*
X21764759Y-32785363D01*
X21529727Y-32628320D01*
X21268574Y-32520147D01*
X20991335Y-32465000D01*
X20708665Y-32465000D01*
X20431426Y-32520147D01*
X20170273Y-32628320D01*
X19935241Y-32785363D01*
X19785000Y-32935604D01*
X19785000Y-32343465D01*
X19789281Y-32299999D01*
X19785000Y-32256533D01*
X19785000Y-32256523D01*
X19772195Y-32126510D01*
X19721589Y-31959687D01*
X19639411Y-31805941D01*
X19528817Y-31671183D01*
X19495049Y-31643470D01*
X18736534Y-30884956D01*
X18708817Y-30851183D01*
X18574059Y-30740589D01*
X18420313Y-30658411D01*
X18253490Y-30607805D01*
X18123477Y-30595000D01*
X18123469Y-30595000D01*
X18080000Y-30590719D01*
X18036531Y-30595000D01*
X17500078Y-30595000D01*
X17389608Y-30460392D01*
X17171101Y-30281068D01*
X17038142Y-30210000D01*
X17171101Y-30138932D01*
X17389608Y-29959608D01*
X17444516Y-29892702D01*
X20036903Y-29892702D01*
X20108486Y-30136671D01*
X20363996Y-30257571D01*
X20638184Y-30326300D01*
X20920512Y-30340217D01*
X21200130Y-30298787D01*
X21466292Y-30203603D01*
X21591514Y-30136671D01*
X21663097Y-29892702D01*
X20850000Y-29079605D01*
X20036903Y-29892702D01*
X17444516Y-29892702D01*
X17568932Y-29741101D01*
X17702182Y-29491808D01*
X17784236Y-29221309D01*
X17808937Y-28970512D01*
X19409783Y-28970512D01*
X19451213Y-29250130D01*
X19546397Y-29516292D01*
X19613329Y-29641514D01*
X19857298Y-29713097D01*
X20670395Y-28900000D01*
X21029605Y-28900000D01*
X21842702Y-29713097D01*
X22086671Y-29641514D01*
X22207571Y-29386004D01*
X22276300Y-29111816D01*
X22290217Y-28829488D01*
X22248787Y-28549870D01*
X22153603Y-28283708D01*
X22086671Y-28158486D01*
X21842702Y-28086903D01*
X21029605Y-28900000D01*
X20670395Y-28900000D01*
X19857298Y-28086903D01*
X19613329Y-28158486D01*
X19492429Y-28413996D01*
X19423700Y-28688184D01*
X19409783Y-28970512D01*
X17808937Y-28970512D01*
X17811943Y-28940000D01*
X17784236Y-28658691D01*
X17702182Y-28388192D01*
X17568932Y-28138899D01*
X17389608Y-27920392D01*
X17373653Y-27907298D01*
X20036903Y-27907298D01*
X20850000Y-28720395D01*
X21663097Y-27907298D01*
X21591514Y-27663329D01*
X21336004Y-27542429D01*
X21061816Y-27473700D01*
X20779488Y-27459783D01*
X20499870Y-27501213D01*
X20233708Y-27596397D01*
X20108486Y-27663329D01*
X20036903Y-27907298D01*
X17373653Y-27907298D01*
X17171101Y-27741068D01*
X17038142Y-27670000D01*
X17171101Y-27598932D01*
X17389608Y-27419608D01*
X17568932Y-27201101D01*
X17702182Y-26951808D01*
X17784236Y-26681309D01*
X17811943Y-26400000D01*
X17784236Y-26118691D01*
X17702182Y-25848192D01*
X17568932Y-25598899D01*
X17389608Y-25380392D01*
X17171101Y-25201068D01*
X16921808Y-25067818D01*
X16651309Y-24985764D01*
X16440492Y-24965000D01*
X15499508Y-24965000D01*
X15288691Y-24985764D01*
X15018192Y-25067818D01*
X14768899Y-25201068D01*
X14550392Y-25380392D01*
X14371068Y-25598899D01*
X14237818Y-25848192D01*
X14155764Y-26118691D01*
X14128057Y-26400000D01*
X14155764Y-26681309D01*
X14237818Y-26951808D01*
X14371068Y-27201101D01*
X14550392Y-27419608D01*
X14768899Y-27598932D01*
X14901858Y-27670000D01*
X14768899Y-27741068D01*
X14550392Y-27920392D01*
X14439922Y-28055000D01*
X14313465Y-28055000D01*
X14269999Y-28050719D01*
X14226533Y-28055000D01*
X14226523Y-28055000D01*
X14096510Y-28067805D01*
X13929687Y-28118411D01*
X13775941Y-28200589D01*
X13775939Y-28200590D01*
X13775940Y-28200590D01*
X13674953Y-28283468D01*
X13674951Y-28283470D01*
X13641183Y-28311183D01*
X13613470Y-28344951D01*
X11004956Y-30953466D01*
X10971183Y-30981183D01*
X10860589Y-31115942D01*
X10778411Y-31269688D01*
X10727805Y-31436511D01*
X10715000Y-31566524D01*
X10715000Y-31566531D01*
X10710719Y-31610000D01*
X10715000Y-31653469D01*
X10715001Y-34233420D01*
X6533422Y-38415000D01*
X4634521Y-38415000D01*
X4614637Y-38385241D01*
X4414759Y-38185363D01*
X4179727Y-38028320D01*
X3918574Y-37920147D01*
X3641335Y-37865000D01*
X3358665Y-37865000D01*
X3081426Y-37920147D01*
X2820273Y-38028320D01*
X2585241Y-38185363D01*
X2385363Y-38385241D01*
X2228320Y-38620273D01*
X2120147Y-38881426D01*
X2065000Y-39158665D01*
X660000Y-39158665D01*
X660000Y-34892702D01*
X2536903Y-34892702D01*
X2608486Y-35136671D01*
X2863996Y-35257571D01*
X3138184Y-35326300D01*
X3420512Y-35340217D01*
X3700130Y-35298787D01*
X3966292Y-35203603D01*
X4091514Y-35136671D01*
X4163097Y-34892702D01*
X3350000Y-34079605D01*
X2536903Y-34892702D01*
X660000Y-34892702D01*
X660000Y-33970512D01*
X1909783Y-33970512D01*
X1951213Y-34250130D01*
X2046397Y-34516292D01*
X2113329Y-34641514D01*
X2357298Y-34713097D01*
X3170395Y-33900000D01*
X3529605Y-33900000D01*
X4342702Y-34713097D01*
X4586671Y-34641514D01*
X4707571Y-34386004D01*
X4776300Y-34111816D01*
X4790217Y-33829488D01*
X4748787Y-33549870D01*
X4653603Y-33283708D01*
X4586671Y-33158486D01*
X4342702Y-33086903D01*
X3529605Y-33900000D01*
X3170395Y-33900000D01*
X2357298Y-33086903D01*
X2113329Y-33158486D01*
X1992429Y-33413996D01*
X1923700Y-33688184D01*
X1909783Y-33970512D01*
X660000Y-33970512D01*
X660000Y-32907298D01*
X2536903Y-32907298D01*
X3350000Y-33720395D01*
X4163097Y-32907298D01*
X4091514Y-32663329D01*
X3836004Y-32542429D01*
X3561816Y-32473700D01*
X3279488Y-32459783D01*
X2999870Y-32501213D01*
X2733708Y-32596397D01*
X2608486Y-32663329D01*
X2536903Y-32907298D01*
X660000Y-32907298D01*
X660000Y-28758665D01*
X1915000Y-28758665D01*
X1915000Y-29041335D01*
X1970147Y-29318574D01*
X2078320Y-29579727D01*
X2235363Y-29814759D01*
X2435241Y-30014637D01*
X2670273Y-30171680D01*
X2931426Y-30279853D01*
X3208665Y-30335000D01*
X3491335Y-30335000D01*
X3768574Y-30279853D01*
X4029727Y-30171680D01*
X4264759Y-30014637D01*
X4464637Y-29814759D01*
X4621680Y-29579727D01*
X4729853Y-29318574D01*
X4785000Y-29041335D01*
X4785000Y-28940000D01*
X6508057Y-28940000D01*
X6535764Y-29221309D01*
X6617818Y-29491808D01*
X6751068Y-29741101D01*
X6930392Y-29959608D01*
X7148899Y-30138932D01*
X7281858Y-30210000D01*
X7148899Y-30281068D01*
X6930392Y-30460392D01*
X6751068Y-30678899D01*
X6617818Y-30928192D01*
X6535764Y-31198691D01*
X6508057Y-31480000D01*
X6535764Y-31761309D01*
X6617818Y-32031808D01*
X6751068Y-32281101D01*
X6930392Y-32499608D01*
X7148899Y-32678932D01*
X7281858Y-32750000D01*
X7148899Y-32821068D01*
X6930392Y-33000392D01*
X6751068Y-33218899D01*
X6617818Y-33468192D01*
X6535764Y-33738691D01*
X6508057Y-34020000D01*
X6535764Y-34301309D01*
X6617818Y-34571808D01*
X6751068Y-34821101D01*
X6930392Y-35039608D01*
X7148899Y-35218932D01*
X7398192Y-35352182D01*
X7668691Y-35434236D01*
X7879508Y-35455000D01*
X8820492Y-35455000D01*
X9031309Y-35434236D01*
X9301808Y-35352182D01*
X9551101Y-35218932D01*
X9769608Y-35039608D01*
X9948932Y-34821101D01*
X10082182Y-34571808D01*
X10164236Y-34301309D01*
X10191943Y-34020000D01*
X10164236Y-33738691D01*
X10082182Y-33468192D01*
X9948932Y-33218899D01*
X9769608Y-33000392D01*
X9551101Y-32821068D01*
X9418142Y-32750000D01*
X9551101Y-32678932D01*
X9769608Y-32499608D01*
X9948932Y-32281101D01*
X10082182Y-32031808D01*
X10164236Y-31761309D01*
X10191943Y-31480000D01*
X10164236Y-31198691D01*
X10082182Y-30928192D01*
X9948932Y-30678899D01*
X9769608Y-30460392D01*
X9551101Y-30281068D01*
X9418142Y-30210000D01*
X9551101Y-30138932D01*
X9769608Y-29959608D01*
X9948932Y-29741101D01*
X10082182Y-29491808D01*
X10164236Y-29221309D01*
X10191943Y-28940000D01*
X10164236Y-28658691D01*
X10082182Y-28388192D01*
X9948932Y-28138899D01*
X9769608Y-27920392D01*
X9656518Y-27827581D01*
X9674482Y-27825812D01*
X9794180Y-27789502D01*
X9904494Y-27730537D01*
X10001185Y-27651185D01*
X10080537Y-27554494D01*
X10139502Y-27444180D01*
X10175812Y-27324482D01*
X10188072Y-27200000D01*
X10185000Y-26685750D01*
X10026250Y-26527000D01*
X8477000Y-26527000D01*
X8477000Y-26547000D01*
X8223000Y-26547000D01*
X8223000Y-26527000D01*
X6673750Y-26527000D01*
X6515000Y-26685750D01*
X6511928Y-27200000D01*
X6524188Y-27324482D01*
X6560498Y-27444180D01*
X6619463Y-27554494D01*
X6698815Y-27651185D01*
X6795506Y-27730537D01*
X6905820Y-27789502D01*
X7025518Y-27825812D01*
X7043482Y-27827581D01*
X6930392Y-27920392D01*
X6751068Y-28138899D01*
X6617818Y-28388192D01*
X6535764Y-28658691D01*
X6508057Y-28940000D01*
X4785000Y-28940000D01*
X4785000Y-28758665D01*
X4729853Y-28481426D01*
X4621680Y-28220273D01*
X4464637Y-27985241D01*
X4264759Y-27785363D01*
X4029727Y-27628320D01*
X3768574Y-27520147D01*
X3491335Y-27465000D01*
X3208665Y-27465000D01*
X2931426Y-27520147D01*
X2670273Y-27628320D01*
X2435241Y-27785363D01*
X2235363Y-27985241D01*
X2078320Y-28220273D01*
X1970147Y-28481426D01*
X1915000Y-28758665D01*
X660000Y-28758665D01*
X660000Y-25600000D01*
X6511928Y-25600000D01*
X6515000Y-26114250D01*
X6673750Y-26273000D01*
X8223000Y-26273000D01*
X8223000Y-25123750D01*
X8477000Y-25123750D01*
X8477000Y-26273000D01*
X10026250Y-26273000D01*
X10185000Y-26114250D01*
X10188072Y-25600000D01*
X10175812Y-25475518D01*
X10139502Y-25355820D01*
X10080537Y-25245506D01*
X10001185Y-25148815D01*
X9904494Y-25069463D01*
X9794180Y-25010498D01*
X9674482Y-24974188D01*
X9550000Y-24961928D01*
X8635750Y-24965000D01*
X8477000Y-25123750D01*
X8223000Y-25123750D01*
X8064250Y-24965000D01*
X7150000Y-24961928D01*
X7025518Y-24974188D01*
X6905820Y-25010498D01*
X6795506Y-25069463D01*
X6698815Y-25148815D01*
X6619463Y-25245506D01*
X6560498Y-25355820D01*
X6524188Y-25475518D01*
X6511928Y-25600000D01*
X660000Y-25600000D01*
X660000Y-23678665D01*
X19415000Y-23678665D01*
X19415000Y-23961335D01*
X19470147Y-24238574D01*
X19578320Y-24499727D01*
X19735363Y-24734759D01*
X19935241Y-24934637D01*
X20170273Y-25091680D01*
X20431426Y-25199853D01*
X20708665Y-25255000D01*
X20991335Y-25255000D01*
X21268574Y-25199853D01*
X21529727Y-25091680D01*
X21764759Y-24934637D01*
X21964637Y-24734759D01*
X22121680Y-24499727D01*
X22229853Y-24238574D01*
X22285000Y-23961335D01*
X22285000Y-23678665D01*
X22229853Y-23401426D01*
X22121680Y-23140273D01*
X21964637Y-22905241D01*
X21764759Y-22705363D01*
X21529727Y-22548320D01*
X21268574Y-22440147D01*
X20991335Y-22385000D01*
X20708665Y-22385000D01*
X20431426Y-22440147D01*
X20170273Y-22548320D01*
X19935241Y-22705363D01*
X19735363Y-22905241D01*
X19578320Y-23140273D01*
X19470147Y-23401426D01*
X19415000Y-23678665D01*
X660000Y-23678665D01*
X660000Y-18092702D01*
X3886903Y-18092702D01*
X3958486Y-18336671D01*
X4213996Y-18457571D01*
X4488184Y-18526300D01*
X4770512Y-18540217D01*
X5050130Y-18498787D01*
X5316292Y-18403603D01*
X5441514Y-18336671D01*
X5513097Y-18092702D01*
X4700000Y-17279605D01*
X3886903Y-18092702D01*
X660000Y-18092702D01*
X660000Y-17170512D01*
X3259783Y-17170512D01*
X3301213Y-17450130D01*
X3396397Y-17716292D01*
X3463329Y-17841514D01*
X3707298Y-17913097D01*
X4520395Y-17100000D01*
X4879605Y-17100000D01*
X5692702Y-17913097D01*
X5761928Y-17892785D01*
X5761928Y-17900000D01*
X5774188Y-18024482D01*
X5810498Y-18144180D01*
X5869463Y-18254494D01*
X5948815Y-18351185D01*
X6045506Y-18430537D01*
X6155820Y-18489502D01*
X6275518Y-18525812D01*
X6400000Y-18538072D01*
X8000000Y-18538072D01*
X8124482Y-18525812D01*
X8244180Y-18489502D01*
X8354494Y-18430537D01*
X8451185Y-18351185D01*
X8530537Y-18254494D01*
X8589502Y-18144180D01*
X8625812Y-18024482D01*
X8638072Y-17900000D01*
X8638072Y-16300000D01*
X8625812Y-16175518D01*
X8590366Y-16058665D01*
X19415000Y-16058665D01*
X19415000Y-16341335D01*
X19470147Y-16618574D01*
X19578320Y-16879727D01*
X19735363Y-17114759D01*
X19935241Y-17314637D01*
X20170273Y-17471680D01*
X20431426Y-17579853D01*
X20708665Y-17635000D01*
X20991335Y-17635000D01*
X21268574Y-17579853D01*
X21529727Y-17471680D01*
X21764759Y-17314637D01*
X21964637Y-17114759D01*
X22121680Y-16879727D01*
X22229853Y-16618574D01*
X22285000Y-16341335D01*
X22285000Y-16058665D01*
X22229853Y-15781426D01*
X22121680Y-15520273D01*
X21964637Y-15285241D01*
X21764759Y-15085363D01*
X21529727Y-14928320D01*
X21268574Y-14820147D01*
X20991335Y-14765000D01*
X20708665Y-14765000D01*
X20431426Y-14820147D01*
X20170273Y-14928320D01*
X19935241Y-15085363D01*
X19735363Y-15285241D01*
X19578320Y-15520273D01*
X19470147Y-15781426D01*
X19415000Y-16058665D01*
X8590366Y-16058665D01*
X8589502Y-16055820D01*
X8530537Y-15945506D01*
X8451185Y-15848815D01*
X8354494Y-15769463D01*
X8244180Y-15710498D01*
X8124482Y-15674188D01*
X8000000Y-15661928D01*
X6400000Y-15661928D01*
X6275518Y-15674188D01*
X6155820Y-15710498D01*
X6045506Y-15769463D01*
X5948815Y-15848815D01*
X5869463Y-15945506D01*
X5810498Y-16055820D01*
X5774188Y-16175518D01*
X5761928Y-16300000D01*
X5761928Y-16307215D01*
X5692702Y-16286903D01*
X4879605Y-17100000D01*
X4520395Y-17100000D01*
X3707298Y-16286903D01*
X3463329Y-16358486D01*
X3342429Y-16613996D01*
X3273700Y-16888184D01*
X3259783Y-17170512D01*
X660000Y-17170512D01*
X660000Y-16107298D01*
X3886903Y-16107298D01*
X4700000Y-16920395D01*
X5513097Y-16107298D01*
X5441514Y-15863329D01*
X5186004Y-15742429D01*
X4911816Y-15673700D01*
X4629488Y-15659783D01*
X4349870Y-15701213D01*
X4083708Y-15796397D01*
X3958486Y-15863329D01*
X3886903Y-16107298D01*
X660000Y-16107298D01*
X660000Y-12775340D01*
X10154265Y-12775340D01*
X10400416Y-13167704D01*
X10902822Y-13433312D01*
X11447393Y-13595801D01*
X12013199Y-13648928D01*
X12578498Y-13590652D01*
X13121566Y-13423210D01*
X13599584Y-13167704D01*
X13845735Y-12775340D01*
X12000000Y-10929605D01*
X10154265Y-12775340D01*
X660000Y-12775340D01*
X660000Y-7465852D01*
X4415000Y-7465852D01*
X4415000Y-8034148D01*
X4525869Y-8591523D01*
X4743346Y-9116560D01*
X5059074Y-9589080D01*
X5460920Y-9990926D01*
X5933440Y-10306654D01*
X6458477Y-10524131D01*
X7015852Y-10635000D01*
X7584148Y-10635000D01*
X8141523Y-10524131D01*
X8666560Y-10306654D01*
X9139080Y-9990926D01*
X9248433Y-9881573D01*
X9154199Y-10197393D01*
X9101072Y-10763199D01*
X9159348Y-11328498D01*
X9326790Y-11871566D01*
X9582296Y-12349584D01*
X9974660Y-12595735D01*
X11820395Y-10750000D01*
X12179605Y-10750000D01*
X14025340Y-12595735D01*
X14417704Y-12349584D01*
X14683312Y-11847178D01*
X14845801Y-11302607D01*
X14898928Y-10736801D01*
X14840652Y-10171502D01*
X14673210Y-9628434D01*
X14658012Y-9600000D01*
X18661928Y-9600000D01*
X18661928Y-11400000D01*
X18674188Y-11524482D01*
X18710498Y-11644180D01*
X18769463Y-11754494D01*
X18848815Y-11851185D01*
X18945506Y-11930537D01*
X19055820Y-11989502D01*
X19175518Y-12025812D01*
X19300000Y-12038072D01*
X21100000Y-12038072D01*
X21224482Y-12025812D01*
X21344180Y-11989502D01*
X21454494Y-11930537D01*
X21551185Y-11851185D01*
X21630537Y-11754494D01*
X21689502Y-11644180D01*
X21695056Y-11625873D01*
X21761495Y-11692312D01*
X22012905Y-11860299D01*
X22292257Y-11976011D01*
X22588816Y-12035000D01*
X22891184Y-12035000D01*
X23187743Y-11976011D01*
X23467095Y-11860299D01*
X23718505Y-11692312D01*
X23932312Y-11478505D01*
X24100299Y-11227095D01*
X24216011Y-10947743D01*
X24275000Y-10651184D01*
X24275000Y-10348816D01*
X24216011Y-10052257D01*
X24100299Y-9772905D01*
X23932312Y-9521495D01*
X23718505Y-9307688D01*
X23467095Y-9139701D01*
X23187743Y-9023989D01*
X22891184Y-8965000D01*
X22588816Y-8965000D01*
X22292257Y-9023989D01*
X22012905Y-9139701D01*
X21761495Y-9307688D01*
X21695056Y-9374127D01*
X21689502Y-9355820D01*
X21630537Y-9245506D01*
X21551185Y-9148815D01*
X21454494Y-9069463D01*
X21344180Y-9010498D01*
X21224482Y-8974188D01*
X21100000Y-8961928D01*
X19300000Y-8961928D01*
X19175518Y-8974188D01*
X19055820Y-9010498D01*
X18945506Y-9069463D01*
X18848815Y-9148815D01*
X18769463Y-9245506D01*
X18710498Y-9355820D01*
X18674188Y-9475518D01*
X18661928Y-9600000D01*
X14658012Y-9600000D01*
X14417704Y-9150416D01*
X14025340Y-8904265D01*
X12179605Y-10750000D01*
X11820395Y-10750000D01*
X11806253Y-10735858D01*
X11985858Y-10556253D01*
X12000000Y-10570395D01*
X13845735Y-8724660D01*
X13599584Y-8332296D01*
X13097178Y-8066688D01*
X12552607Y-7904199D01*
X11986801Y-7851072D01*
X11421502Y-7909348D01*
X10878434Y-8076790D01*
X10400416Y-8332296D01*
X10154266Y-8724658D01*
X10058608Y-8629000D01*
X10074131Y-8591523D01*
X10185000Y-8034148D01*
X10185000Y-7465852D01*
X10074131Y-6908477D01*
X10071062Y-6901068D01*
X10160920Y-6990926D01*
X10633440Y-7306654D01*
X11158477Y-7524131D01*
X11715852Y-7635000D01*
X12284148Y-7635000D01*
X12841523Y-7524131D01*
X13366560Y-7306654D01*
X13839080Y-6990926D01*
X14240926Y-6589080D01*
X14556654Y-6116560D01*
X14774131Y-5591523D01*
X14885000Y-5034148D01*
X14885000Y-4603740D01*
X18225000Y-4603740D01*
X18225000Y-4896260D01*
X18282068Y-5183158D01*
X18394010Y-5453411D01*
X18556525Y-5696632D01*
X18763368Y-5903475D01*
X19006589Y-6065990D01*
X19276842Y-6177932D01*
X19563740Y-6235000D01*
X19856260Y-6235000D01*
X20143158Y-6177932D01*
X20413411Y-6065990D01*
X20656632Y-5903475D01*
X20788487Y-5771620D01*
X20810498Y-5844180D01*
X20869463Y-5954494D01*
X20948815Y-6051185D01*
X21045506Y-6130537D01*
X21155820Y-6189502D01*
X21275518Y-6225812D01*
X21400000Y-6238072D01*
X23100000Y-6238072D01*
X23224482Y-6225812D01*
X23344180Y-6189502D01*
X23454494Y-6130537D01*
X23551185Y-6051185D01*
X23630537Y-5954494D01*
X23689502Y-5844180D01*
X23725812Y-5724482D01*
X23738072Y-5600000D01*
X23738072Y-4348816D01*
X26465000Y-4348816D01*
X26465000Y-4651184D01*
X26523989Y-4947743D01*
X26639701Y-5227095D01*
X26807688Y-5478505D01*
X27021495Y-5692312D01*
X27137763Y-5770000D01*
X27021495Y-5847688D01*
X26807688Y-6061495D01*
X26639701Y-6312905D01*
X26523989Y-6592257D01*
X26465000Y-6888816D01*
X26465000Y-7191184D01*
X26523989Y-7487743D01*
X26639701Y-7767095D01*
X26807688Y-8018505D01*
X27021495Y-8232312D01*
X27137763Y-8310000D01*
X27021495Y-8387688D01*
X26807688Y-8601495D01*
X26639701Y-8852905D01*
X26523989Y-9132257D01*
X26465000Y-9428816D01*
X26465000Y-9731184D01*
X26523989Y-10027743D01*
X26639701Y-10307095D01*
X26807688Y-10558505D01*
X27021495Y-10772312D01*
X27137763Y-10850000D01*
X27021495Y-10927688D01*
X26807688Y-11141495D01*
X26639701Y-11392905D01*
X26523989Y-11672257D01*
X26465000Y-11968816D01*
X26465000Y-12271184D01*
X26523989Y-12567743D01*
X26639701Y-12847095D01*
X26807688Y-13098505D01*
X27021495Y-13312312D01*
X27137763Y-13390000D01*
X27021495Y-13467688D01*
X26807688Y-13681495D01*
X26639701Y-13932905D01*
X26523989Y-14212257D01*
X26465000Y-14508816D01*
X26465000Y-14811184D01*
X26523989Y-15107743D01*
X26639701Y-15387095D01*
X26807688Y-15638505D01*
X27021495Y-15852312D01*
X27137763Y-15930000D01*
X27021495Y-16007688D01*
X26807688Y-16221495D01*
X26639701Y-16472905D01*
X26523989Y-16752257D01*
X26465000Y-17048816D01*
X26465000Y-17351184D01*
X26523989Y-17647743D01*
X26639701Y-17927095D01*
X26807688Y-18178505D01*
X27021495Y-18392312D01*
X27137763Y-18470000D01*
X27021495Y-18547688D01*
X26807688Y-18761495D01*
X26639701Y-19012905D01*
X26523989Y-19292257D01*
X26465000Y-19588816D01*
X26465000Y-19891184D01*
X26523989Y-20187743D01*
X26639701Y-20467095D01*
X26807688Y-20718505D01*
X27021495Y-20932312D01*
X27137763Y-21010000D01*
X27021495Y-21087688D01*
X26807688Y-21301495D01*
X26639701Y-21552905D01*
X26523989Y-21832257D01*
X26465000Y-22128816D01*
X26465000Y-22431184D01*
X26523989Y-22727743D01*
X26639701Y-23007095D01*
X26807688Y-23258505D01*
X27021495Y-23472312D01*
X27137763Y-23550000D01*
X27021495Y-23627688D01*
X26807688Y-23841495D01*
X26639701Y-24092905D01*
X26523989Y-24372257D01*
X26465000Y-24668816D01*
X26465000Y-24971184D01*
X26523989Y-25267743D01*
X26639701Y-25547095D01*
X26807688Y-25798505D01*
X27021495Y-26012312D01*
X27137763Y-26090000D01*
X27021495Y-26167688D01*
X26807688Y-26381495D01*
X26639701Y-26632905D01*
X26523989Y-26912257D01*
X26465000Y-27208816D01*
X26465000Y-27511184D01*
X26523989Y-27807743D01*
X26639701Y-28087095D01*
X26807688Y-28338505D01*
X27021495Y-28552312D01*
X27137763Y-28630000D01*
X27021495Y-28707688D01*
X26807688Y-28921495D01*
X26639701Y-29172905D01*
X26523989Y-29452257D01*
X26465000Y-29748816D01*
X26465000Y-30051184D01*
X26523989Y-30347743D01*
X26639701Y-30627095D01*
X26807688Y-30878505D01*
X27021495Y-31092312D01*
X27137763Y-31170000D01*
X27021495Y-31247688D01*
X26807688Y-31461495D01*
X26639701Y-31712905D01*
X26523989Y-31992257D01*
X26465000Y-32288816D01*
X26465000Y-32591184D01*
X26523989Y-32887743D01*
X26639701Y-33167095D01*
X26807688Y-33418505D01*
X27021495Y-33632312D01*
X27137763Y-33710000D01*
X27021495Y-33787688D01*
X26807688Y-34001495D01*
X26639701Y-34252905D01*
X26523989Y-34532257D01*
X26465000Y-34828816D01*
X26465000Y-35131184D01*
X26523989Y-35427743D01*
X26639701Y-35707095D01*
X26807688Y-35958505D01*
X27021495Y-36172312D01*
X27137763Y-36250000D01*
X27021495Y-36327688D01*
X26807688Y-36541495D01*
X26639701Y-36792905D01*
X26523989Y-37072257D01*
X26465000Y-37368816D01*
X26465000Y-37671184D01*
X26523989Y-37967743D01*
X26639701Y-38247095D01*
X26807688Y-38498505D01*
X27021495Y-38712312D01*
X27137763Y-38790000D01*
X27021495Y-38867688D01*
X26807688Y-39081495D01*
X26639701Y-39332905D01*
X26523989Y-39612257D01*
X26465000Y-39908816D01*
X26465000Y-40211184D01*
X26523989Y-40507743D01*
X26639701Y-40787095D01*
X26807688Y-41038505D01*
X27021495Y-41252312D01*
X27272905Y-41420299D01*
X27552257Y-41536011D01*
X27848816Y-41595000D01*
X28151184Y-41595000D01*
X28447743Y-41536011D01*
X28727095Y-41420299D01*
X28978505Y-41252312D01*
X29192312Y-41038505D01*
X29270000Y-40922237D01*
X29347688Y-41038505D01*
X29561495Y-41252312D01*
X29812905Y-41420299D01*
X30092257Y-41536011D01*
X30388816Y-41595000D01*
X30691184Y-41595000D01*
X30987743Y-41536011D01*
X31267095Y-41420299D01*
X31518505Y-41252312D01*
X31732312Y-41038505D01*
X31810000Y-40922237D01*
X31887688Y-41038505D01*
X32101495Y-41252312D01*
X32352905Y-41420299D01*
X32632257Y-41536011D01*
X32928816Y-41595000D01*
X33231184Y-41595000D01*
X33527743Y-41536011D01*
X33807095Y-41420299D01*
X34058505Y-41252312D01*
X34272312Y-41038505D01*
X34350000Y-40922237D01*
X34427688Y-41038505D01*
X34641495Y-41252312D01*
X34892905Y-41420299D01*
X35172257Y-41536011D01*
X35468816Y-41595000D01*
X35771184Y-41595000D01*
X36067743Y-41536011D01*
X36347095Y-41420299D01*
X36598505Y-41252312D01*
X36812312Y-41038505D01*
X36890000Y-40922237D01*
X36967688Y-41038505D01*
X37181495Y-41252312D01*
X37432905Y-41420299D01*
X37712257Y-41536011D01*
X38008816Y-41595000D01*
X38311184Y-41595000D01*
X38607743Y-41536011D01*
X38887095Y-41420299D01*
X39138505Y-41252312D01*
X39352312Y-41038505D01*
X39430000Y-40922237D01*
X39507688Y-41038505D01*
X39721495Y-41252312D01*
X39972905Y-41420299D01*
X40252257Y-41536011D01*
X40548816Y-41595000D01*
X40851184Y-41595000D01*
X41147743Y-41536011D01*
X41427095Y-41420299D01*
X41678505Y-41252312D01*
X41892312Y-41038505D01*
X41970000Y-40922237D01*
X42047688Y-41038505D01*
X42261495Y-41252312D01*
X42512905Y-41420299D01*
X42792257Y-41536011D01*
X43088816Y-41595000D01*
X43391184Y-41595000D01*
X43687743Y-41536011D01*
X43967095Y-41420299D01*
X44218505Y-41252312D01*
X44432312Y-41038505D01*
X44600299Y-40787095D01*
X44716011Y-40507743D01*
X44775000Y-40211184D01*
X44775000Y-39908816D01*
X44716011Y-39612257D01*
X44600299Y-39332905D01*
X44432312Y-39081495D01*
X44218505Y-38867688D01*
X44102237Y-38790000D01*
X44218505Y-38712312D01*
X44432312Y-38498505D01*
X44600299Y-38247095D01*
X44716011Y-37967743D01*
X44775000Y-37671184D01*
X44775000Y-37368816D01*
X44716011Y-37072257D01*
X44600299Y-36792905D01*
X44432312Y-36541495D01*
X44218505Y-36327688D01*
X44102237Y-36250000D01*
X44218505Y-36172312D01*
X44432312Y-35958505D01*
X44600299Y-35707095D01*
X44716011Y-35427743D01*
X44761311Y-35200000D01*
X47336928Y-35200000D01*
X47336928Y-36900000D01*
X47349188Y-37024482D01*
X47385498Y-37144180D01*
X47444463Y-37254494D01*
X47523815Y-37351185D01*
X47620506Y-37430537D01*
X47730820Y-37489502D01*
X47803380Y-37511513D01*
X47671525Y-37643368D01*
X47509010Y-37886589D01*
X47397068Y-38156842D01*
X47340000Y-38443740D01*
X47340000Y-38736260D01*
X47397068Y-39023158D01*
X47509010Y-39293411D01*
X47671525Y-39536632D01*
X47878368Y-39743475D01*
X48052760Y-39860000D01*
X47878368Y-39976525D01*
X47671525Y-40183368D01*
X47509010Y-40426589D01*
X47397068Y-40696842D01*
X47340000Y-40983740D01*
X47340000Y-41276260D01*
X47397068Y-41563158D01*
X47509010Y-41833411D01*
X47671525Y-42076632D01*
X47878368Y-42283475D01*
X48121589Y-42445990D01*
X48391842Y-42557932D01*
X48678740Y-42615000D01*
X48971260Y-42615000D01*
X49258158Y-42557932D01*
X49528411Y-42445990D01*
X49771632Y-42283475D01*
X49978475Y-42076632D01*
X50140990Y-41833411D01*
X50252932Y-41563158D01*
X50310000Y-41276260D01*
X50310000Y-40983740D01*
X50252932Y-40696842D01*
X50140990Y-40426589D01*
X49978475Y-40183368D01*
X49771632Y-39976525D01*
X49597240Y-39860000D01*
X49771632Y-39743475D01*
X49978475Y-39536632D01*
X50140990Y-39293411D01*
X50252932Y-39023158D01*
X50310000Y-38736260D01*
X50310000Y-38443740D01*
X50252932Y-38156842D01*
X50140990Y-37886589D01*
X49978475Y-37643368D01*
X49846620Y-37511513D01*
X49919180Y-37489502D01*
X50029494Y-37430537D01*
X50126185Y-37351185D01*
X50205537Y-37254494D01*
X50264502Y-37144180D01*
X50300812Y-37024482D01*
X50313072Y-36900000D01*
X50313072Y-35200000D01*
X50300812Y-35075518D01*
X50264502Y-34955820D01*
X50205537Y-34845506D01*
X50126185Y-34748815D01*
X50029494Y-34669463D01*
X49919180Y-34610498D01*
X49799482Y-34574188D01*
X49675000Y-34561928D01*
X47975000Y-34561928D01*
X47850518Y-34574188D01*
X47730820Y-34610498D01*
X47620506Y-34669463D01*
X47523815Y-34748815D01*
X47444463Y-34845506D01*
X47385498Y-34955820D01*
X47349188Y-35075518D01*
X47336928Y-35200000D01*
X44761311Y-35200000D01*
X44775000Y-35131184D01*
X44775000Y-34828816D01*
X44716011Y-34532257D01*
X44600299Y-34252905D01*
X44432312Y-34001495D01*
X44218505Y-33787688D01*
X44102237Y-33710000D01*
X44218505Y-33632312D01*
X44432312Y-33418505D01*
X44600299Y-33167095D01*
X44716011Y-32887743D01*
X44775000Y-32591184D01*
X44775000Y-32288816D01*
X44716011Y-31992257D01*
X44600299Y-31712905D01*
X44432312Y-31461495D01*
X44218505Y-31247688D01*
X44102237Y-31170000D01*
X44218505Y-31092312D01*
X44432312Y-30878505D01*
X44600299Y-30627095D01*
X44716011Y-30347743D01*
X44775000Y-30051184D01*
X44775000Y-29748816D01*
X44716011Y-29452257D01*
X44600299Y-29172905D01*
X44432312Y-28921495D01*
X44218505Y-28707688D01*
X44102237Y-28630000D01*
X44218505Y-28552312D01*
X44432312Y-28338505D01*
X44600299Y-28087095D01*
X44716011Y-27807743D01*
X44775000Y-27511184D01*
X44775000Y-27208816D01*
X44716011Y-26912257D01*
X44600299Y-26632905D01*
X44432312Y-26381495D01*
X44218505Y-26167688D01*
X44102237Y-26090000D01*
X44218505Y-26012312D01*
X44432312Y-25798505D01*
X44600299Y-25547095D01*
X44716011Y-25267743D01*
X44775000Y-24971184D01*
X44775000Y-24668816D01*
X44716011Y-24372257D01*
X44600299Y-24092905D01*
X44432312Y-23841495D01*
X44218505Y-23627688D01*
X44102237Y-23550000D01*
X44218505Y-23472312D01*
X44432312Y-23258505D01*
X44600299Y-23007095D01*
X44716011Y-22727743D01*
X44775000Y-22431184D01*
X44775000Y-22128816D01*
X44716011Y-21832257D01*
X44600299Y-21552905D01*
X44432312Y-21301495D01*
X44218505Y-21087688D01*
X44102237Y-21010000D01*
X44218505Y-20932312D01*
X44432312Y-20718505D01*
X44600299Y-20467095D01*
X44716011Y-20187743D01*
X44775000Y-19891184D01*
X44775000Y-19588816D01*
X44716011Y-19292257D01*
X44600299Y-19012905D01*
X44432312Y-18761495D01*
X44218505Y-18547688D01*
X44102237Y-18470000D01*
X44218505Y-18392312D01*
X44432312Y-18178505D01*
X44600299Y-17927095D01*
X44716011Y-17647743D01*
X44775000Y-17351184D01*
X44775000Y-17048816D01*
X44716011Y-16752257D01*
X44600299Y-16472905D01*
X44432312Y-16221495D01*
X44218505Y-16007688D01*
X44102237Y-15930000D01*
X44218505Y-15852312D01*
X44432312Y-15638505D01*
X44600299Y-15387095D01*
X44716011Y-15107743D01*
X44775000Y-14811184D01*
X44775000Y-14508816D01*
X44716011Y-14212257D01*
X44600299Y-13932905D01*
X44432312Y-13681495D01*
X44218505Y-13467688D01*
X44102237Y-13390000D01*
X44218505Y-13312312D01*
X44432312Y-13098505D01*
X44600299Y-12847095D01*
X44716011Y-12567743D01*
X44775000Y-12271184D01*
X44775000Y-11968816D01*
X44716011Y-11672257D01*
X44600299Y-11392905D01*
X44432312Y-11141495D01*
X44218505Y-10927688D01*
X44102237Y-10850000D01*
X44218505Y-10772312D01*
X44432312Y-10558505D01*
X44600299Y-10307095D01*
X44716011Y-10027743D01*
X44775000Y-9731184D01*
X44775000Y-9428816D01*
X44716011Y-9132257D01*
X44600299Y-8852905D01*
X44432312Y-8601495D01*
X44218505Y-8387688D01*
X44102237Y-8310000D01*
X44218505Y-8232312D01*
X44432312Y-8018505D01*
X44600299Y-7767095D01*
X44716011Y-7487743D01*
X44775000Y-7191184D01*
X44775000Y-6888816D01*
X44716011Y-6592257D01*
X44600299Y-6312905D01*
X44432312Y-6061495D01*
X44218505Y-5847688D01*
X44102237Y-5770000D01*
X44218505Y-5692312D01*
X44432312Y-5478505D01*
X44600299Y-5227095D01*
X44716011Y-4947743D01*
X44775000Y-4651184D01*
X44775000Y-4348816D01*
X44716011Y-4052257D01*
X44600299Y-3772905D01*
X44432312Y-3521495D01*
X44218505Y-3307688D01*
X43967095Y-3139701D01*
X43687743Y-3023989D01*
X43391184Y-2965000D01*
X43088816Y-2965000D01*
X42792257Y-3023989D01*
X42512905Y-3139701D01*
X42261495Y-3307688D01*
X42047688Y-3521495D01*
X41970000Y-3637763D01*
X41892312Y-3521495D01*
X41678505Y-3307688D01*
X41427095Y-3139701D01*
X41147743Y-3023989D01*
X40851184Y-2965000D01*
X40548816Y-2965000D01*
X40252257Y-3023989D01*
X39972905Y-3139701D01*
X39721495Y-3307688D01*
X39507688Y-3521495D01*
X39430000Y-3637763D01*
X39352312Y-3521495D01*
X39138505Y-3307688D01*
X38887095Y-3139701D01*
X38607743Y-3023989D01*
X38311184Y-2965000D01*
X38008816Y-2965000D01*
X37712257Y-3023989D01*
X37432905Y-3139701D01*
X37181495Y-3307688D01*
X36967688Y-3521495D01*
X36890000Y-3637763D01*
X36812312Y-3521495D01*
X36598505Y-3307688D01*
X36347095Y-3139701D01*
X36067743Y-3023989D01*
X35771184Y-2965000D01*
X35468816Y-2965000D01*
X35172257Y-3023989D01*
X34892905Y-3139701D01*
X34641495Y-3307688D01*
X34427688Y-3521495D01*
X34350000Y-3637763D01*
X34272312Y-3521495D01*
X34058505Y-3307688D01*
X33807095Y-3139701D01*
X33527743Y-3023989D01*
X33231184Y-2965000D01*
X32928816Y-2965000D01*
X32632257Y-3023989D01*
X32352905Y-3139701D01*
X32101495Y-3307688D01*
X31887688Y-3521495D01*
X31810000Y-3637763D01*
X31732312Y-3521495D01*
X31518505Y-3307688D01*
X31267095Y-3139701D01*
X30987743Y-3023989D01*
X30691184Y-2965000D01*
X30388816Y-2965000D01*
X30092257Y-3023989D01*
X29812905Y-3139701D01*
X29561495Y-3307688D01*
X29347688Y-3521495D01*
X29270000Y-3637763D01*
X29192312Y-3521495D01*
X28978505Y-3307688D01*
X28727095Y-3139701D01*
X28447743Y-3023989D01*
X28151184Y-2965000D01*
X27848816Y-2965000D01*
X27552257Y-3023989D01*
X27272905Y-3139701D01*
X27021495Y-3307688D01*
X26807688Y-3521495D01*
X26639701Y-3772905D01*
X26523989Y-4052257D01*
X26465000Y-4348816D01*
X23738072Y-4348816D01*
X23738072Y-3900000D01*
X23725812Y-3775518D01*
X23689502Y-3655820D01*
X23630537Y-3545506D01*
X23551185Y-3448815D01*
X23454494Y-3369463D01*
X23344180Y-3310498D01*
X23224482Y-3274188D01*
X23100000Y-3261928D01*
X21400000Y-3261928D01*
X21275518Y-3274188D01*
X21155820Y-3310498D01*
X21045506Y-3369463D01*
X20948815Y-3448815D01*
X20869463Y-3545506D01*
X20810498Y-3655820D01*
X20788487Y-3728380D01*
X20656632Y-3596525D01*
X20413411Y-3434010D01*
X20143158Y-3322068D01*
X19856260Y-3265000D01*
X19563740Y-3265000D01*
X19276842Y-3322068D01*
X19006589Y-3434010D01*
X18763368Y-3596525D01*
X18556525Y-3803368D01*
X18394010Y-4046589D01*
X18282068Y-4316842D01*
X18225000Y-4603740D01*
X14885000Y-4603740D01*
X14885000Y-4465852D01*
X14774131Y-3908477D01*
X14556654Y-3383440D01*
X14240926Y-2910920D01*
X14106527Y-2776521D01*
X46730979Y-2776521D01*
X46730979Y-3223479D01*
X46818176Y-3661849D01*
X46989220Y-4074785D01*
X47237536Y-4446417D01*
X47553583Y-4762464D01*
X47925215Y-5010780D01*
X48338151Y-5181824D01*
X48776521Y-5269021D01*
X49223479Y-5269021D01*
X49661849Y-5181824D01*
X50074785Y-5010780D01*
X50446417Y-4762464D01*
X50762464Y-4446417D01*
X51010780Y-4074785D01*
X51181824Y-3661849D01*
X51269021Y-3223479D01*
X51269021Y-2776521D01*
X51181824Y-2338151D01*
X51010780Y-1925215D01*
X50762464Y-1553583D01*
X50446417Y-1237536D01*
X50074785Y-989220D01*
X49661849Y-818176D01*
X49223479Y-730979D01*
X48776521Y-730979D01*
X48338151Y-818176D01*
X47925215Y-989220D01*
X47553583Y-1237536D01*
X47237536Y-1553583D01*
X46989220Y-1925215D01*
X46818176Y-2338151D01*
X46730979Y-2776521D01*
X14106527Y-2776521D01*
X13839080Y-2509074D01*
X13366560Y-2193346D01*
X12841523Y-1975869D01*
X12284148Y-1865000D01*
X11715852Y-1865000D01*
X11158477Y-1975869D01*
X10633440Y-2193346D01*
X10160920Y-2509074D01*
X9759074Y-2910920D01*
X9443346Y-3383440D01*
X9225869Y-3908477D01*
X9115000Y-4465852D01*
X9115000Y-5034148D01*
X9225869Y-5591523D01*
X9228938Y-5598932D01*
X9139080Y-5509074D01*
X8666560Y-5193346D01*
X8141523Y-4975869D01*
X7584148Y-4865000D01*
X7015852Y-4865000D01*
X6458477Y-4975869D01*
X5933440Y-5193346D01*
X5460920Y-5509074D01*
X5059074Y-5910920D01*
X4743346Y-6383440D01*
X4525869Y-6908477D01*
X4415000Y-7465852D01*
X660000Y-7465852D01*
X660000Y-3032279D01*
X685077Y-2776521D01*
X730979Y-2776521D01*
X730979Y-3223479D01*
X818176Y-3661849D01*
X989220Y-4074785D01*
X1237536Y-4446417D01*
X1553583Y-4762464D01*
X1925215Y-5010780D01*
X2338151Y-5181824D01*
X2776521Y-5269021D01*
X3223479Y-5269021D01*
X3661849Y-5181824D01*
X4074785Y-5010780D01*
X4446417Y-4762464D01*
X4762464Y-4446417D01*
X5010780Y-4074785D01*
X5181824Y-3661849D01*
X5269021Y-3223479D01*
X5269021Y-2776521D01*
X5181824Y-2338151D01*
X5010780Y-1925215D01*
X4762464Y-1553583D01*
X4446417Y-1237536D01*
X4074785Y-989220D01*
X3661849Y-818176D01*
X3223479Y-730979D01*
X2776521Y-730979D01*
X2338151Y-818176D01*
X1925215Y-989220D01*
X1553583Y-1237536D01*
X1237536Y-1553583D01*
X989220Y-1925215D01*
X818176Y-2338151D01*
X730979Y-2776521D01*
X685077Y-2776521D01*
X707670Y-2546107D01*
X839489Y-2109502D01*
X1053600Y-1706815D01*
X1341848Y-1353388D01*
X1693261Y-1062673D01*
X2094439Y-845758D01*
X2530113Y-710894D01*
X3014344Y-660000D01*
X48967721Y-660000D01*
X49453893Y-707670D01*
G37*
X49453893Y-707670D02*
X49890498Y-839489D01*
X50293185Y-1053600D01*
X50646612Y-1341848D01*
X50937327Y-1693261D01*
X51154242Y-2094439D01*
X51289106Y-2530113D01*
X51340000Y-3014344D01*
X51340001Y-68967711D01*
X51292330Y-69453894D01*
X51160512Y-69890497D01*
X50946399Y-70293186D01*
X50658150Y-70646613D01*
X50306739Y-70937327D01*
X49905564Y-71154240D01*
X49469886Y-71289106D01*
X48985664Y-71340000D01*
X3032279Y-71340000D01*
X2546106Y-71292330D01*
X2109503Y-71160512D01*
X1706814Y-70946399D01*
X1353387Y-70658150D01*
X1062673Y-70306739D01*
X845760Y-69905564D01*
X710894Y-69469886D01*
X660000Y-68985664D01*
X660000Y-68776521D01*
X730979Y-68776521D01*
X730979Y-69223479D01*
X818176Y-69661849D01*
X989220Y-70074785D01*
X1237536Y-70446417D01*
X1553583Y-70762464D01*
X1925215Y-71010780D01*
X2338151Y-71181824D01*
X2776521Y-71269021D01*
X3223479Y-71269021D01*
X3661849Y-71181824D01*
X4074785Y-71010780D01*
X4446417Y-70762464D01*
X4762464Y-70446417D01*
X5010780Y-70074785D01*
X5181824Y-69661849D01*
X5269021Y-69223479D01*
X5269021Y-68776521D01*
X46730979Y-68776521D01*
X46730979Y-69223479D01*
X46818176Y-69661849D01*
X46989220Y-70074785D01*
X47237536Y-70446417D01*
X47553583Y-70762464D01*
X47925215Y-71010780D01*
X48338151Y-71181824D01*
X48776521Y-71269021D01*
X49223479Y-71269021D01*
X49661849Y-71181824D01*
X50074785Y-71010780D01*
X50446417Y-70762464D01*
X50762464Y-70446417D01*
X51010780Y-70074785D01*
X51181824Y-69661849D01*
X51269021Y-69223479D01*
X51269021Y-68776521D01*
X51181824Y-68338151D01*
X51010780Y-67925215D01*
X50762464Y-67553583D01*
X50446417Y-67237536D01*
X50074785Y-66989220D01*
X49661849Y-66818176D01*
X49223479Y-66730979D01*
X48776521Y-66730979D01*
X48338151Y-66818176D01*
X47925215Y-66989220D01*
X47553583Y-67237536D01*
X47237536Y-67553583D01*
X46989220Y-67925215D01*
X46818176Y-68338151D01*
X46730979Y-68776521D01*
X5269021Y-68776521D01*
X5181824Y-68338151D01*
X5010780Y-67925215D01*
X4762464Y-67553583D01*
X4446417Y-67237536D01*
X4074785Y-66989220D01*
X3661849Y-66818176D01*
X3223479Y-66730979D01*
X2776521Y-66730979D01*
X2338151Y-66818176D01*
X1925215Y-66989220D01*
X1553583Y-67237536D01*
X1237536Y-67553583D01*
X989220Y-67925215D01*
X818176Y-68338151D01*
X730979Y-68776521D01*
X660000Y-68776521D01*
X660000Y-59825000D01*
X3886928Y-59825000D01*
X3886928Y-61375000D01*
X3899188Y-61499482D01*
X3935498Y-61619180D01*
X3994463Y-61729494D01*
X4073815Y-61826185D01*
X4170506Y-61905537D01*
X4280820Y-61964502D01*
X4400518Y-62000812D01*
X4525000Y-62013072D01*
X6075000Y-62013072D01*
X6199482Y-62000812D01*
X6319180Y-61964502D01*
X6429494Y-61905537D01*
X6526185Y-61826185D01*
X6605537Y-61729494D01*
X6664502Y-61619180D01*
X6700812Y-61499482D01*
X6713072Y-61375000D01*
X6713072Y-59825000D01*
X6700812Y-59700518D01*
X6664502Y-59580820D01*
X6605537Y-59470506D01*
X6526185Y-59373815D01*
X6429494Y-59294463D01*
X6319180Y-59235498D01*
X6199482Y-59199188D01*
X6075000Y-59186928D01*
X4525000Y-59186928D01*
X4400518Y-59199188D01*
X4280820Y-59235498D01*
X4170506Y-59294463D01*
X4073815Y-59373815D01*
X3994463Y-59470506D01*
X3935498Y-59580820D01*
X3899188Y-59700518D01*
X3886928Y-59825000D01*
X660000Y-59825000D01*
X660000Y-39158665D01*
X2065000Y-39158665D01*
X2065000Y-39441335D01*
X2120147Y-39718574D01*
X2228320Y-39979727D01*
X2385363Y-40214759D01*
X2585241Y-40414637D01*
X2615000Y-40434521D01*
X2615001Y-43656521D01*
X2610719Y-43700000D01*
X2627805Y-43873490D01*
X2678412Y-44040313D01*
X2760590Y-44194059D01*
X2843468Y-44295046D01*
X2843471Y-44295049D01*
X2871184Y-44328817D01*
X2904952Y-44356530D01*
X3343466Y-44795044D01*
X3371183Y-44828817D01*
X3505941Y-44939411D01*
X3659687Y-45021589D01*
X3826510Y-45072195D01*
X3869455Y-45076425D01*
X3874188Y-45124482D01*
X3910498Y-45244180D01*
X3969463Y-45354494D01*
X4048815Y-45451185D01*
X4145506Y-45530537D01*
X4255820Y-45589502D01*
X4375518Y-45625812D01*
X4500000Y-45638072D01*
X6100000Y-45638072D01*
X6224482Y-45625812D01*
X6344180Y-45589502D01*
X6454494Y-45530537D01*
X6551185Y-45451185D01*
X6630537Y-45354494D01*
X6689502Y-45244180D01*
X6725812Y-45124482D01*
X6738072Y-45000000D01*
X6738072Y-43400000D01*
X6725812Y-43275518D01*
X6689502Y-43155820D01*
X6630537Y-43045506D01*
X6551185Y-42948815D01*
X6454494Y-42869463D01*
X6344180Y-42810498D01*
X6224482Y-42774188D01*
X6100000Y-42761928D01*
X4500000Y-42761928D01*
X4385000Y-42773254D01*
X4385000Y-40434521D01*
X4414759Y-40414637D01*
X4614637Y-40214759D01*
X4634521Y-40185000D01*
X6856531Y-40185000D01*
X6900000Y-40189281D01*
X6943469Y-40185000D01*
X6943477Y-40185000D01*
X7073490Y-40172195D01*
X7240313Y-40121589D01*
X7394059Y-40039411D01*
X7528817Y-39928817D01*
X7556534Y-39895044D01*
X8292913Y-39158665D01*
X9685000Y-39158665D01*
X9685000Y-39441335D01*
X9740147Y-39718574D01*
X9848320Y-39979727D01*
X10005363Y-40214759D01*
X10205241Y-40414637D01*
X10440273Y-40571680D01*
X10701426Y-40679853D01*
X10978665Y-40735000D01*
X11261335Y-40735000D01*
X11538574Y-40679853D01*
X11799727Y-40571680D01*
X12034759Y-40414637D01*
X12234637Y-40214759D01*
X12391680Y-39979727D01*
X12499853Y-39718574D01*
X12555000Y-39441335D01*
X12555000Y-39158665D01*
X12499853Y-38881426D01*
X12391680Y-38620273D01*
X12234637Y-38385241D01*
X12034759Y-38185363D01*
X11799727Y-38028320D01*
X11538574Y-37920147D01*
X11261335Y-37865000D01*
X10978665Y-37865000D01*
X10701426Y-37920147D01*
X10440273Y-38028320D01*
X10205241Y-38185363D01*
X10005363Y-38385241D01*
X9848320Y-38620273D01*
X9740147Y-38881426D01*
X9685000Y-39158665D01*
X8292913Y-39158665D01*
X12195049Y-35256530D01*
X12228817Y-35228817D01*
X12339411Y-35094059D01*
X12421589Y-34940313D01*
X12472195Y-34773490D01*
X12485000Y-34643477D01*
X12485000Y-34643469D01*
X12489281Y-34600000D01*
X12485000Y-34556531D01*
X12485000Y-31976578D01*
X14528566Y-29933013D01*
X14550392Y-29959608D01*
X14768899Y-30138932D01*
X14901858Y-30210000D01*
X14768899Y-30281068D01*
X14550392Y-30460392D01*
X14371068Y-30678899D01*
X14237818Y-30928192D01*
X14155764Y-31198691D01*
X14128057Y-31480000D01*
X14155764Y-31761309D01*
X14237818Y-32031808D01*
X14371068Y-32281101D01*
X14550392Y-32499608D01*
X14768899Y-32678932D01*
X14901858Y-32750000D01*
X14768899Y-32821068D01*
X14550392Y-33000392D01*
X14371068Y-33218899D01*
X14237818Y-33468192D01*
X14155764Y-33738691D01*
X14128057Y-34020000D01*
X14155764Y-34301309D01*
X14237818Y-34571808D01*
X14371068Y-34821101D01*
X14550392Y-35039608D01*
X14768899Y-35218932D01*
X15018192Y-35352182D01*
X15288691Y-35434236D01*
X15499508Y-35455000D01*
X16440492Y-35455000D01*
X16651309Y-35434236D01*
X16921808Y-35352182D01*
X17171101Y-35218932D01*
X17389608Y-35039608D01*
X17568932Y-34821101D01*
X17702182Y-34571808D01*
X17784236Y-34301309D01*
X17811943Y-34020000D01*
X17784236Y-33738691D01*
X17702182Y-33468192D01*
X17568932Y-33218899D01*
X17389608Y-33000392D01*
X17171101Y-32821068D01*
X17038142Y-32750000D01*
X17171101Y-32678932D01*
X17389608Y-32499608D01*
X17500078Y-32365000D01*
X17713422Y-32365000D01*
X18015001Y-32666580D01*
X18015000Y-35733421D01*
X11904952Y-41843470D01*
X11871184Y-41871183D01*
X11843471Y-41904951D01*
X11843468Y-41904954D01*
X11760590Y-42005941D01*
X11678412Y-42159687D01*
X11627805Y-42326510D01*
X11610719Y-42500000D01*
X11615001Y-42543479D01*
X11615000Y-57590185D01*
X11549525Y-57432115D01*
X11395218Y-57201178D01*
X11198822Y-57004782D01*
X10967885Y-56850475D01*
X10711282Y-56744186D01*
X10438873Y-56690000D01*
X10161127Y-56690000D01*
X9888718Y-56744186D01*
X9632115Y-56850475D01*
X9401178Y-57004782D01*
X9204782Y-57201178D01*
X9050475Y-57432115D01*
X8985000Y-57590185D01*
X8985000Y-55443469D01*
X8989281Y-55400000D01*
X8985000Y-55356531D01*
X8985000Y-55356523D01*
X8972195Y-55226510D01*
X8956727Y-55175518D01*
X8921589Y-55059686D01*
X8839411Y-54905941D01*
X8756532Y-54804953D01*
X8756530Y-54804951D01*
X8728817Y-54771183D01*
X8695049Y-54743470D01*
X7985000Y-54033422D01*
X7985000Y-52734216D01*
X7985363Y-52734759D01*
X8185241Y-52934637D01*
X8420273Y-53091680D01*
X8681426Y-53199853D01*
X8958665Y-53255000D01*
X9241335Y-53255000D01*
X9518574Y-53199853D01*
X9779727Y-53091680D01*
X10014759Y-52934637D01*
X10214637Y-52734759D01*
X10371680Y-52499727D01*
X10479853Y-52238574D01*
X10535000Y-51961335D01*
X10535000Y-51678665D01*
X10479853Y-51401426D01*
X10371680Y-51140273D01*
X10214637Y-50905241D01*
X10014759Y-50705363D01*
X9779727Y-50548320D01*
X9518574Y-50440147D01*
X9241335Y-50385000D01*
X8958665Y-50385000D01*
X8681426Y-50440147D01*
X8420273Y-50548320D01*
X8185241Y-50705363D01*
X7985363Y-50905241D01*
X7985000Y-50905784D01*
X7985000Y-48866578D01*
X9695050Y-47156529D01*
X9728817Y-47128817D01*
X9768881Y-47080000D01*
X9839410Y-46994060D01*
X9839411Y-46994059D01*
X9921589Y-46840313D01*
X9972195Y-46673490D01*
X9985000Y-46543477D01*
X9985000Y-46543467D01*
X9989281Y-46500001D01*
X9985000Y-46456535D01*
X9985000Y-45629701D01*
X10024482Y-45625812D01*
X10144180Y-45589502D01*
X10254494Y-45530537D01*
X10351185Y-45451185D01*
X10430537Y-45354494D01*
X10489502Y-45244180D01*
X10525812Y-45124482D01*
X10538072Y-45000000D01*
X10538072Y-43400000D01*
X10525812Y-43275518D01*
X10489502Y-43155820D01*
X10430537Y-43045506D01*
X10351185Y-42948815D01*
X10254494Y-42869463D01*
X10144180Y-42810498D01*
X10024482Y-42774188D01*
X9900000Y-42761928D01*
X8300000Y-42761928D01*
X8175518Y-42774188D01*
X8055820Y-42810498D01*
X7945506Y-42869463D01*
X7848815Y-42948815D01*
X7769463Y-43045506D01*
X7710498Y-43155820D01*
X7674188Y-43275518D01*
X7661928Y-43400000D01*
X7661928Y-45000000D01*
X7674188Y-45124482D01*
X7710498Y-45244180D01*
X7769463Y-45354494D01*
X7848815Y-45451185D01*
X7945506Y-45530537D01*
X8055820Y-45589502D01*
X8175518Y-45625812D01*
X8215000Y-45629701D01*
X8215000Y-46133421D01*
X6504951Y-47843471D01*
X6471184Y-47871183D01*
X6443471Y-47904951D01*
X6443468Y-47904954D01*
X6360590Y-48005941D01*
X6278412Y-48159687D01*
X6227805Y-48326510D01*
X6210719Y-48500000D01*
X6215001Y-48543479D01*
X6215001Y-50705605D01*
X6214759Y-50705363D01*
X5979727Y-50548320D01*
X5718574Y-50440147D01*
X5441335Y-50385000D01*
X5158665Y-50385000D01*
X4881426Y-50440147D01*
X4620273Y-50548320D01*
X4385241Y-50705363D01*
X4185363Y-50905241D01*
X4028320Y-51140273D01*
X3920147Y-51401426D01*
X3865000Y-51678665D01*
X3865000Y-51961335D01*
X3920147Y-52238574D01*
X4028320Y-52499727D01*
X4185363Y-52734759D01*
X4385241Y-52934637D01*
X4620273Y-53091680D01*
X4881426Y-53199853D01*
X5158665Y-53255000D01*
X5441335Y-53255000D01*
X5718574Y-53199853D01*
X5979727Y-53091680D01*
X6214759Y-52934637D01*
X6215000Y-52934396D01*
X6215000Y-54356531D01*
X6210719Y-54400000D01*
X6215000Y-54443469D01*
X6215000Y-54443476D01*
X6223465Y-54529425D01*
X6198822Y-54504782D01*
X5967885Y-54350475D01*
X5711282Y-54244186D01*
X5438873Y-54190000D01*
X5161127Y-54190000D01*
X4888718Y-54244186D01*
X4632115Y-54350475D01*
X4401178Y-54504782D01*
X4204782Y-54701178D01*
X4050475Y-54932115D01*
X3944186Y-55188718D01*
X3890000Y-55461127D01*
X3890000Y-55738873D01*
X3944186Y-56011282D01*
X4050475Y-56267885D01*
X4204782Y-56498822D01*
X4401178Y-56695218D01*
X4632115Y-56849525D01*
X4888718Y-56955814D01*
X5161127Y-57010000D01*
X5438873Y-57010000D01*
X5711282Y-56955814D01*
X5967885Y-56849525D01*
X6198822Y-56695218D01*
X6395218Y-56498822D01*
X6549525Y-56267885D01*
X6655814Y-56011282D01*
X6710000Y-55738873D01*
X6710000Y-55461127D01*
X6660451Y-55212029D01*
X7215001Y-55766580D01*
X7215000Y-62373421D01*
X6294951Y-63293471D01*
X6261184Y-63321183D01*
X6233471Y-63354951D01*
X6233468Y-63354954D01*
X6150590Y-63455941D01*
X6068412Y-63609687D01*
X6017805Y-63776510D01*
X6014065Y-63814482D01*
X5915518Y-63824188D01*
X5795820Y-63860498D01*
X5685506Y-63919463D01*
X5588815Y-63998815D01*
X5509463Y-64095506D01*
X5450498Y-64205820D01*
X5414188Y-64325518D01*
X5401928Y-64450000D01*
X5401928Y-66150000D01*
X5414188Y-66274482D01*
X5450498Y-66394180D01*
X5509463Y-66504494D01*
X5588815Y-66601185D01*
X5685506Y-66680537D01*
X5795820Y-66739502D01*
X5915518Y-66775812D01*
X6040000Y-66788072D01*
X7740000Y-66788072D01*
X7864482Y-66775812D01*
X7984180Y-66739502D01*
X8094494Y-66680537D01*
X8191185Y-66601185D01*
X8270537Y-66504494D01*
X8329502Y-66394180D01*
X8351513Y-66321620D01*
X8483368Y-66453475D01*
X8726589Y-66615990D01*
X8996842Y-66727932D01*
X9283740Y-66785000D01*
X9576260Y-66785000D01*
X9863158Y-66727932D01*
X10133411Y-66615990D01*
X10376632Y-66453475D01*
X10583475Y-66246632D01*
X10700000Y-66072240D01*
X10816525Y-66246632D01*
X11023368Y-66453475D01*
X11266589Y-66615990D01*
X11536842Y-66727932D01*
X11823740Y-66785000D01*
X12116260Y-66785000D01*
X12403158Y-66727932D01*
X12673411Y-66615990D01*
X12916632Y-66453475D01*
X13123475Y-66246632D01*
X13249070Y-66058665D01*
X15065000Y-66058665D01*
X15065000Y-66341335D01*
X15120147Y-66618574D01*
X15228320Y-66879727D01*
X15385363Y-67114759D01*
X15585241Y-67314637D01*
X15820273Y-67471680D01*
X16081426Y-67579853D01*
X16358665Y-67635000D01*
X16641335Y-67635000D01*
X16918574Y-67579853D01*
X17179727Y-67471680D01*
X17414759Y-67314637D01*
X17614637Y-67114759D01*
X17771680Y-66879727D01*
X17879853Y-66618574D01*
X17893684Y-66549039D01*
X22728096Y-66549039D01*
X22768754Y-66683087D01*
X22888963Y-66937420D01*
X23056481Y-67163414D01*
X23264869Y-67352385D01*
X23506119Y-67497070D01*
X23770960Y-67591909D01*
X23993000Y-67470624D01*
X23993000Y-66327000D01*
X24247000Y-66327000D01*
X24247000Y-67470624D01*
X24469040Y-67591909D01*
X24733881Y-67497070D01*
X24975131Y-67352385D01*
X25183519Y-67163414D01*
X25351037Y-66937420D01*
X25471246Y-66683087D01*
X25511904Y-66549039D01*
X25389915Y-66327000D01*
X24247000Y-66327000D01*
X23993000Y-66327000D01*
X22850085Y-66327000D01*
X22728096Y-66549039D01*
X17893684Y-66549039D01*
X17935000Y-66341335D01*
X17935000Y-66058665D01*
X17893685Y-65850961D01*
X22728096Y-65850961D01*
X22850085Y-66073000D01*
X23993000Y-66073000D01*
X23993000Y-64929376D01*
X24247000Y-64929376D01*
X24247000Y-66073000D01*
X25389915Y-66073000D01*
X25511904Y-65850961D01*
X25471246Y-65716913D01*
X25351037Y-65462580D01*
X25312438Y-65410507D01*
X26193669Y-65410507D01*
X26232761Y-65636404D01*
X26315172Y-65850334D01*
X26437736Y-66044076D01*
X26595742Y-66210184D01*
X26783118Y-66342275D01*
X26992663Y-66435272D01*
X27054190Y-66443964D01*
X27233000Y-66318163D01*
X27233000Y-65227000D01*
X26353402Y-65227000D01*
X26193669Y-65410507D01*
X25312438Y-65410507D01*
X25183519Y-65236586D01*
X24975131Y-65047615D01*
X24733881Y-64902930D01*
X24469040Y-64808091D01*
X24247000Y-64929376D01*
X23993000Y-64929376D01*
X23770960Y-64808091D01*
X23506119Y-64902930D01*
X23264869Y-65047615D01*
X23056481Y-65236586D01*
X22888963Y-65462580D01*
X22768754Y-65716913D01*
X22728096Y-65850961D01*
X17893685Y-65850961D01*
X17879853Y-65781426D01*
X17771680Y-65520273D01*
X17614637Y-65285241D01*
X17414759Y-65085363D01*
X17179727Y-64928320D01*
X16918574Y-64820147D01*
X16764468Y-64789493D01*
X26193669Y-64789493D01*
X26353402Y-64973000D01*
X27233000Y-64973000D01*
X27233000Y-64818021D01*
X27470000Y-64818021D01*
X27470000Y-65381978D01*
X27486785Y-65552399D01*
X27487000Y-65553108D01*
X27487000Y-66318163D01*
X27665810Y-66443964D01*
X27727337Y-66435272D01*
X27936882Y-66342275D01*
X27995331Y-66301071D01*
X28183940Y-66401885D01*
X28402600Y-66468215D01*
X28630000Y-66490612D01*
X28857399Y-66468215D01*
X29066098Y-66404907D01*
X29130820Y-66439502D01*
X29250518Y-66475812D01*
X29375000Y-66488072D01*
X30425000Y-66488072D01*
X30549482Y-66475812D01*
X30669180Y-66439502D01*
X30779494Y-66380537D01*
X30876185Y-66301185D01*
X30955537Y-66204494D01*
X31014502Y-66094180D01*
X31050812Y-65974482D01*
X31063072Y-65850000D01*
X31063072Y-64525000D01*
X32061928Y-64525000D01*
X32061928Y-66725000D01*
X32074188Y-66849482D01*
X32110498Y-66969180D01*
X32169463Y-67079494D01*
X32248815Y-67176185D01*
X32345506Y-67255537D01*
X32455820Y-67314502D01*
X32575518Y-67350812D01*
X32700000Y-67363072D01*
X34900000Y-67363072D01*
X35024482Y-67350812D01*
X35144180Y-67314502D01*
X35254494Y-67255537D01*
X35351185Y-67176185D01*
X35430537Y-67079494D01*
X35489502Y-66969180D01*
X35525812Y-66849482D01*
X35538072Y-66725000D01*
X35538072Y-65454117D01*
X42225000Y-65454117D01*
X42225000Y-65795883D01*
X42291675Y-66131081D01*
X42422463Y-66446831D01*
X42612337Y-66730998D01*
X42854002Y-66972663D01*
X43138169Y-67162537D01*
X43453919Y-67293325D01*
X43789117Y-67360000D01*
X44130883Y-67360000D01*
X44466081Y-67293325D01*
X44781831Y-67162537D01*
X45065998Y-66972663D01*
X45307663Y-66730998D01*
X45497537Y-66446831D01*
X45628325Y-66131081D01*
X45695000Y-65795883D01*
X45695000Y-65454117D01*
X45628325Y-65118919D01*
X45497537Y-64803169D01*
X45307663Y-64519002D01*
X45065998Y-64277337D01*
X44781831Y-64087463D01*
X44466081Y-63956675D01*
X44130883Y-63890000D01*
X43789117Y-63890000D01*
X43453919Y-63956675D01*
X43138169Y-64087463D01*
X42854002Y-64277337D01*
X42612337Y-64519002D01*
X42422463Y-64803169D01*
X42291675Y-65118919D01*
X42225000Y-65454117D01*
X35538072Y-65454117D01*
X35538072Y-64525000D01*
X35525812Y-64400518D01*
X35489502Y-64280820D01*
X35430537Y-64170506D01*
X35351185Y-64073815D01*
X35254494Y-63994463D01*
X35144180Y-63935498D01*
X35024482Y-63899188D01*
X34900000Y-63886928D01*
X32700000Y-63886928D01*
X32575518Y-63899188D01*
X32455820Y-63935498D01*
X32345506Y-63994463D01*
X32248815Y-64073815D01*
X32169463Y-64170506D01*
X32110498Y-64280820D01*
X32074188Y-64400518D01*
X32061928Y-64525000D01*
X31063072Y-64525000D01*
X31063072Y-64350000D01*
X31050812Y-64225518D01*
X31014502Y-64105820D01*
X30955537Y-63995506D01*
X30876185Y-63898815D01*
X30779494Y-63819463D01*
X30669180Y-63760498D01*
X30549482Y-63724188D01*
X30425000Y-63711928D01*
X29375000Y-63711928D01*
X29250518Y-63724188D01*
X29130820Y-63760498D01*
X29066098Y-63795093D01*
X28857400Y-63731785D01*
X28630000Y-63709388D01*
X28402601Y-63731785D01*
X28183941Y-63798115D01*
X27995331Y-63898929D01*
X27936882Y-63857725D01*
X27727337Y-63764728D01*
X27665810Y-63756036D01*
X27487000Y-63881837D01*
X27487000Y-64646891D01*
X27486785Y-64647600D01*
X27470000Y-64818021D01*
X27233000Y-64818021D01*
X27233000Y-63881837D01*
X27054190Y-63756036D01*
X26992663Y-63764728D01*
X26783118Y-63857725D01*
X26595742Y-63989816D01*
X26437736Y-64155924D01*
X26315172Y-64349666D01*
X26232761Y-64563596D01*
X26193669Y-64789493D01*
X16764468Y-64789493D01*
X16641335Y-64765000D01*
X16358665Y-64765000D01*
X16081426Y-64820147D01*
X15820273Y-64928320D01*
X15585241Y-65085363D01*
X15385363Y-65285241D01*
X15228320Y-65520273D01*
X15120147Y-65781426D01*
X15065000Y-66058665D01*
X13249070Y-66058665D01*
X13285990Y-66003411D01*
X13397932Y-65733158D01*
X13455000Y-65446260D01*
X13455000Y-65153740D01*
X13397932Y-64866842D01*
X13285990Y-64596589D01*
X13123475Y-64353368D01*
X12916632Y-64146525D01*
X12673411Y-63984010D01*
X12403158Y-63872068D01*
X12116260Y-63815000D01*
X11823740Y-63815000D01*
X11536842Y-63872068D01*
X11266589Y-63984010D01*
X11023368Y-64146525D01*
X10816525Y-64353368D01*
X10700000Y-64527760D01*
X10583475Y-64353368D01*
X10504802Y-64274695D01*
X12729497Y-62050000D01*
X18811928Y-62050000D01*
X18811928Y-63750000D01*
X18824188Y-63874482D01*
X18860498Y-63994180D01*
X18919463Y-64104494D01*
X18998815Y-64201185D01*
X19095506Y-64280537D01*
X19205820Y-64339502D01*
X19325518Y-64375812D01*
X19450000Y-64388072D01*
X21150000Y-64388072D01*
X21274482Y-64375812D01*
X21394180Y-64339502D01*
X21504494Y-64280537D01*
X21601185Y-64201185D01*
X21680537Y-64104494D01*
X21739502Y-63994180D01*
X21775812Y-63874482D01*
X21788072Y-63750000D01*
X21788072Y-62050000D01*
X21775812Y-61925518D01*
X21739502Y-61805820D01*
X21680537Y-61695506D01*
X21601185Y-61598815D01*
X21504494Y-61519463D01*
X21394180Y-61460498D01*
X21274482Y-61424188D01*
X21150000Y-61411928D01*
X19450000Y-61411928D01*
X19325518Y-61424188D01*
X19205820Y-61460498D01*
X19095506Y-61519463D01*
X18998815Y-61598815D01*
X18919463Y-61695506D01*
X18860498Y-61805820D01*
X18824188Y-61925518D01*
X18811928Y-62050000D01*
X12729497Y-62050000D01*
X13095050Y-61684448D01*
X13128817Y-61656736D01*
X13239411Y-61521978D01*
X13251435Y-61499482D01*
X13321589Y-61368233D01*
X13372195Y-61201409D01*
X13383784Y-61083740D01*
X13385000Y-61071396D01*
X13385000Y-61071388D01*
X13389281Y-61027919D01*
X13385000Y-60984450D01*
X13385000Y-59058665D01*
X15065000Y-59058665D01*
X15065000Y-59341335D01*
X15120147Y-59618574D01*
X15228320Y-59879727D01*
X15385363Y-60114759D01*
X15585241Y-60314637D01*
X15820273Y-60471680D01*
X16081426Y-60579853D01*
X16358665Y-60635000D01*
X16641335Y-60635000D01*
X16918574Y-60579853D01*
X17179727Y-60471680D01*
X17414759Y-60314637D01*
X17614637Y-60114759D01*
X17771680Y-59879727D01*
X17879853Y-59618574D01*
X17893684Y-59549039D01*
X22728096Y-59549039D01*
X22768754Y-59683087D01*
X22888963Y-59937420D01*
X23056481Y-60163414D01*
X23264869Y-60352385D01*
X23506119Y-60497070D01*
X23770960Y-60591909D01*
X23993000Y-60470624D01*
X23993000Y-59327000D01*
X24247000Y-59327000D01*
X24247000Y-60470624D01*
X24469040Y-60591909D01*
X24733881Y-60497070D01*
X24975131Y-60352385D01*
X25183519Y-60163414D01*
X25351037Y-59937420D01*
X25471246Y-59683087D01*
X25511904Y-59549039D01*
X25389915Y-59327000D01*
X24247000Y-59327000D01*
X23993000Y-59327000D01*
X22850085Y-59327000D01*
X22728096Y-59549039D01*
X17893684Y-59549039D01*
X17935000Y-59341335D01*
X17935000Y-59058665D01*
X17893685Y-58850961D01*
X22728096Y-58850961D01*
X22850085Y-59073000D01*
X23993000Y-59073000D01*
X23993000Y-57929376D01*
X24247000Y-57929376D01*
X24247000Y-59073000D01*
X25389915Y-59073000D01*
X25511904Y-58850961D01*
X25471246Y-58716913D01*
X25351037Y-58462580D01*
X25201251Y-58260507D01*
X26193669Y-58260507D01*
X26232761Y-58486404D01*
X26315172Y-58700334D01*
X26437736Y-58894076D01*
X26595742Y-59060184D01*
X26783118Y-59192275D01*
X26992663Y-59285272D01*
X27054190Y-59293964D01*
X27233000Y-59168163D01*
X27233000Y-58077000D01*
X26353402Y-58077000D01*
X26193669Y-58260507D01*
X25201251Y-58260507D01*
X25183519Y-58236586D01*
X24975131Y-58047615D01*
X24733881Y-57902930D01*
X24469040Y-57808091D01*
X24247000Y-57929376D01*
X23993000Y-57929376D01*
X23770960Y-57808091D01*
X23506119Y-57902930D01*
X23264869Y-58047615D01*
X23056481Y-58236586D01*
X22888963Y-58462580D01*
X22768754Y-58716913D01*
X22728096Y-58850961D01*
X17893685Y-58850961D01*
X17879853Y-58781426D01*
X17771680Y-58520273D01*
X17614637Y-58285241D01*
X17414759Y-58085363D01*
X17179727Y-57928320D01*
X16918574Y-57820147D01*
X16641335Y-57765000D01*
X16358665Y-57765000D01*
X16081426Y-57820147D01*
X15820273Y-57928320D01*
X15585241Y-58085363D01*
X15385363Y-58285241D01*
X15228320Y-58520273D01*
X15120147Y-58781426D01*
X15065000Y-59058665D01*
X13385000Y-59058665D01*
X13385000Y-57639493D01*
X26193669Y-57639493D01*
X26353402Y-57823000D01*
X27233000Y-57823000D01*
X27233000Y-57668021D01*
X27470000Y-57668021D01*
X27470000Y-58231978D01*
X27486785Y-58402399D01*
X27487000Y-58403108D01*
X27487000Y-59168163D01*
X27665810Y-59293964D01*
X27727337Y-59285272D01*
X27936882Y-59192275D01*
X27995331Y-59151071D01*
X28183940Y-59251885D01*
X28402600Y-59318215D01*
X28630000Y-59340612D01*
X28857399Y-59318215D01*
X29066098Y-59254907D01*
X29130820Y-59289502D01*
X29250518Y-59325812D01*
X29375000Y-59338072D01*
X30425000Y-59338072D01*
X30549482Y-59325812D01*
X30669180Y-59289502D01*
X30779494Y-59230537D01*
X30876185Y-59151185D01*
X30955537Y-59054494D01*
X31014502Y-58944180D01*
X31050812Y-58824482D01*
X31063072Y-58700000D01*
X31063072Y-57200000D01*
X31050812Y-57075518D01*
X31014502Y-56955820D01*
X30955537Y-56845506D01*
X30876185Y-56748815D01*
X30786241Y-56675000D01*
X32061928Y-56675000D01*
X32061928Y-58875000D01*
X32074188Y-58999482D01*
X32110498Y-59119180D01*
X32169463Y-59229494D01*
X32248815Y-59326185D01*
X32345506Y-59405537D01*
X32455820Y-59464502D01*
X32575518Y-59500812D01*
X32700000Y-59513072D01*
X34900000Y-59513072D01*
X35024482Y-59500812D01*
X35144180Y-59464502D01*
X35254494Y-59405537D01*
X35351185Y-59326185D01*
X35430537Y-59229494D01*
X35489502Y-59119180D01*
X35525812Y-58999482D01*
X35538072Y-58875000D01*
X35538072Y-57604117D01*
X42225000Y-57604117D01*
X42225000Y-57945883D01*
X42291675Y-58281081D01*
X42422463Y-58596831D01*
X42612337Y-58880998D01*
X42854002Y-59122663D01*
X43138169Y-59312537D01*
X43453919Y-59443325D01*
X43789117Y-59510000D01*
X44130883Y-59510000D01*
X44466081Y-59443325D01*
X44781831Y-59312537D01*
X45065998Y-59122663D01*
X45307663Y-58880998D01*
X45497537Y-58596831D01*
X45628325Y-58281081D01*
X45695000Y-57945883D01*
X45695000Y-57604117D01*
X45628325Y-57268919D01*
X45497537Y-56953169D01*
X45307663Y-56669002D01*
X45065998Y-56427337D01*
X44781831Y-56237463D01*
X44466081Y-56106675D01*
X44130883Y-56040000D01*
X43789117Y-56040000D01*
X43453919Y-56106675D01*
X43138169Y-56237463D01*
X42854002Y-56427337D01*
X42612337Y-56669002D01*
X42422463Y-56953169D01*
X42291675Y-57268919D01*
X42225000Y-57604117D01*
X35538072Y-57604117D01*
X35538072Y-56675000D01*
X35525812Y-56550518D01*
X35489502Y-56430820D01*
X35430537Y-56320506D01*
X35351185Y-56223815D01*
X35254494Y-56144463D01*
X35144180Y-56085498D01*
X35024482Y-56049188D01*
X34900000Y-56036928D01*
X32700000Y-56036928D01*
X32575518Y-56049188D01*
X32455820Y-56085498D01*
X32345506Y-56144463D01*
X32248815Y-56223815D01*
X32169463Y-56320506D01*
X32110498Y-56430820D01*
X32074188Y-56550518D01*
X32061928Y-56675000D01*
X30786241Y-56675000D01*
X30779494Y-56669463D01*
X30669180Y-56610498D01*
X30549482Y-56574188D01*
X30425000Y-56561928D01*
X29375000Y-56561928D01*
X29250518Y-56574188D01*
X29130820Y-56610498D01*
X29066098Y-56645093D01*
X28857400Y-56581785D01*
X28630000Y-56559388D01*
X28402601Y-56581785D01*
X28183941Y-56648115D01*
X27995331Y-56748929D01*
X27936882Y-56707725D01*
X27727337Y-56614728D01*
X27665810Y-56606036D01*
X27487000Y-56731837D01*
X27487000Y-57496891D01*
X27486785Y-57497600D01*
X27470000Y-57668021D01*
X27233000Y-57668021D01*
X27233000Y-56731837D01*
X27054190Y-56606036D01*
X26992663Y-56614728D01*
X26783118Y-56707725D01*
X26595742Y-56839816D01*
X26437736Y-57005924D01*
X26315172Y-57199666D01*
X26232761Y-57413596D01*
X26193669Y-57639493D01*
X13385000Y-57639493D01*
X13385000Y-54750000D01*
X18811928Y-54750000D01*
X18811928Y-56450000D01*
X18824188Y-56574482D01*
X18860498Y-56694180D01*
X18919463Y-56804494D01*
X18998815Y-56901185D01*
X19095506Y-56980537D01*
X19205820Y-57039502D01*
X19325518Y-57075812D01*
X19450000Y-57088072D01*
X21150000Y-57088072D01*
X21274482Y-57075812D01*
X21394180Y-57039502D01*
X21504494Y-56980537D01*
X21601185Y-56901185D01*
X21680537Y-56804494D01*
X21739502Y-56694180D01*
X21775812Y-56574482D01*
X21788072Y-56450000D01*
X21788072Y-55300000D01*
X47411928Y-55300000D01*
X47411928Y-57000000D01*
X47424188Y-57124482D01*
X47460498Y-57244180D01*
X47519463Y-57354494D01*
X47598815Y-57451185D01*
X47695506Y-57530537D01*
X47805820Y-57589502D01*
X47878380Y-57611513D01*
X47746525Y-57743368D01*
X47584010Y-57986589D01*
X47472068Y-58256842D01*
X47415000Y-58543740D01*
X47415000Y-58836260D01*
X47472068Y-59123158D01*
X47584010Y-59393411D01*
X47746525Y-59636632D01*
X47953368Y-59843475D01*
X48127760Y-59960000D01*
X47953368Y-60076525D01*
X47746525Y-60283368D01*
X47584010Y-60526589D01*
X47472068Y-60796842D01*
X47415000Y-61083740D01*
X47415000Y-61376260D01*
X47472068Y-61663158D01*
X47584010Y-61933411D01*
X47746525Y-62176632D01*
X47953368Y-62383475D01*
X48196589Y-62545990D01*
X48466842Y-62657932D01*
X48753740Y-62715000D01*
X49046260Y-62715000D01*
X49333158Y-62657932D01*
X49603411Y-62545990D01*
X49846632Y-62383475D01*
X50053475Y-62176632D01*
X50215990Y-61933411D01*
X50327932Y-61663158D01*
X50385000Y-61376260D01*
X50385000Y-61083740D01*
X50327932Y-60796842D01*
X50215990Y-60526589D01*
X50053475Y-60283368D01*
X49846632Y-60076525D01*
X49672240Y-59960000D01*
X49846632Y-59843475D01*
X50053475Y-59636632D01*
X50215990Y-59393411D01*
X50327932Y-59123158D01*
X50385000Y-58836260D01*
X50385000Y-58543740D01*
X50327932Y-58256842D01*
X50215990Y-57986589D01*
X50053475Y-57743368D01*
X49921620Y-57611513D01*
X49994180Y-57589502D01*
X50104494Y-57530537D01*
X50201185Y-57451185D01*
X50280537Y-57354494D01*
X50339502Y-57244180D01*
X50375812Y-57124482D01*
X50388072Y-57000000D01*
X50388072Y-55300000D01*
X50375812Y-55175518D01*
X50339502Y-55055820D01*
X50280537Y-54945506D01*
X50201185Y-54848815D01*
X50104494Y-54769463D01*
X49994180Y-54710498D01*
X49874482Y-54674188D01*
X49750000Y-54661928D01*
X48050000Y-54661928D01*
X47925518Y-54674188D01*
X47805820Y-54710498D01*
X47695506Y-54769463D01*
X47598815Y-54848815D01*
X47519463Y-54945506D01*
X47460498Y-55055820D01*
X47424188Y-55175518D01*
X47411928Y-55300000D01*
X21788072Y-55300000D01*
X21788072Y-54750000D01*
X21775812Y-54625518D01*
X21739502Y-54505820D01*
X21680537Y-54395506D01*
X21601185Y-54298815D01*
X21504494Y-54219463D01*
X21394180Y-54160498D01*
X21274482Y-54124188D01*
X21150000Y-54111928D01*
X19450000Y-54111928D01*
X19325518Y-54124188D01*
X19205820Y-54160498D01*
X19095506Y-54219463D01*
X18998815Y-54298815D01*
X18919463Y-54395506D01*
X18860498Y-54505820D01*
X18824188Y-54625518D01*
X18811928Y-54750000D01*
X13385000Y-54750000D01*
X13385000Y-49158665D01*
X15065000Y-49158665D01*
X15065000Y-49441335D01*
X15120147Y-49718574D01*
X15228320Y-49979727D01*
X15385363Y-50214759D01*
X15585241Y-50414637D01*
X15820273Y-50571680D01*
X16081426Y-50679853D01*
X16358665Y-50735000D01*
X16641335Y-50735000D01*
X16918574Y-50679853D01*
X17179727Y-50571680D01*
X17414759Y-50414637D01*
X17614637Y-50214759D01*
X17771680Y-49979727D01*
X17879853Y-49718574D01*
X17893684Y-49649039D01*
X22728096Y-49649039D01*
X22768754Y-49783087D01*
X22888963Y-50037420D01*
X23056481Y-50263414D01*
X23264869Y-50452385D01*
X23506119Y-50597070D01*
X23770960Y-50691909D01*
X23993000Y-50570624D01*
X23993000Y-49427000D01*
X24247000Y-49427000D01*
X24247000Y-50570624D01*
X24469040Y-50691909D01*
X24733881Y-50597070D01*
X24975131Y-50452385D01*
X25183519Y-50263414D01*
X25351037Y-50037420D01*
X25471246Y-49783087D01*
X25511904Y-49649039D01*
X25389915Y-49427000D01*
X24247000Y-49427000D01*
X23993000Y-49427000D01*
X22850085Y-49427000D01*
X22728096Y-49649039D01*
X17893684Y-49649039D01*
X17935000Y-49441335D01*
X17935000Y-49158665D01*
X17893685Y-48950961D01*
X22728096Y-48950961D01*
X22850085Y-49173000D01*
X23993000Y-49173000D01*
X23993000Y-48029376D01*
X24247000Y-48029376D01*
X24247000Y-49173000D01*
X25389915Y-49173000D01*
X25511904Y-48950961D01*
X25471246Y-48816913D01*
X25351037Y-48562580D01*
X25275376Y-48460507D01*
X26193669Y-48460507D01*
X26232761Y-48686404D01*
X26315172Y-48900334D01*
X26437736Y-49094076D01*
X26595742Y-49260184D01*
X26783118Y-49392275D01*
X26992663Y-49485272D01*
X27054190Y-49493964D01*
X27233000Y-49368163D01*
X27233000Y-48277000D01*
X26353402Y-48277000D01*
X26193669Y-48460507D01*
X25275376Y-48460507D01*
X25183519Y-48336586D01*
X24975131Y-48147615D01*
X24733881Y-48002930D01*
X24469040Y-47908091D01*
X24247000Y-48029376D01*
X23993000Y-48029376D01*
X23770960Y-47908091D01*
X23506119Y-48002930D01*
X23264869Y-48147615D01*
X23056481Y-48336586D01*
X22888963Y-48562580D01*
X22768754Y-48816913D01*
X22728096Y-48950961D01*
X17893685Y-48950961D01*
X17879853Y-48881426D01*
X17771680Y-48620273D01*
X17614637Y-48385241D01*
X17414759Y-48185363D01*
X17179727Y-48028320D01*
X16918574Y-47920147D01*
X16641335Y-47865000D01*
X16358665Y-47865000D01*
X16081426Y-47920147D01*
X15820273Y-48028320D01*
X15585241Y-48185363D01*
X15385363Y-48385241D01*
X15228320Y-48620273D01*
X15120147Y-48881426D01*
X15065000Y-49158665D01*
X13385000Y-49158665D01*
X13385000Y-47839493D01*
X26193669Y-47839493D01*
X26353402Y-48023000D01*
X27233000Y-48023000D01*
X27233000Y-47868021D01*
X27470000Y-47868021D01*
X27470000Y-48431978D01*
X27486785Y-48602399D01*
X27487000Y-48603108D01*
X27487000Y-49368163D01*
X27665810Y-49493964D01*
X27727337Y-49485272D01*
X27936882Y-49392275D01*
X27995331Y-49351071D01*
X28183940Y-49451885D01*
X28402600Y-49518215D01*
X28630000Y-49540612D01*
X28857399Y-49518215D01*
X29066098Y-49454907D01*
X29130820Y-49489502D01*
X29250518Y-49525812D01*
X29375000Y-49538072D01*
X30425000Y-49538072D01*
X30549482Y-49525812D01*
X30669180Y-49489502D01*
X30779494Y-49430537D01*
X30876185Y-49351185D01*
X30955537Y-49254494D01*
X31014502Y-49144180D01*
X31050812Y-49024482D01*
X31063072Y-48900000D01*
X31063072Y-47400000D01*
X31050812Y-47275518D01*
X31014502Y-47155820D01*
X30955537Y-47045506D01*
X30938709Y-47025000D01*
X32061928Y-47025000D01*
X32061928Y-49225000D01*
X32074188Y-49349482D01*
X32110498Y-49469180D01*
X32169463Y-49579494D01*
X32248815Y-49676185D01*
X32345506Y-49755537D01*
X32455820Y-49814502D01*
X32575518Y-49850812D01*
X32700000Y-49863072D01*
X34900000Y-49863072D01*
X35024482Y-49850812D01*
X35144180Y-49814502D01*
X35254494Y-49755537D01*
X35351185Y-49676185D01*
X35430537Y-49579494D01*
X35489502Y-49469180D01*
X35525812Y-49349482D01*
X35538072Y-49225000D01*
X35538072Y-47954117D01*
X42225000Y-47954117D01*
X42225000Y-48295883D01*
X42291675Y-48631081D01*
X42422463Y-48946831D01*
X42612337Y-49230998D01*
X42854002Y-49472663D01*
X43138169Y-49662537D01*
X43453919Y-49793325D01*
X43789117Y-49860000D01*
X44130883Y-49860000D01*
X44466081Y-49793325D01*
X44781831Y-49662537D01*
X45065998Y-49472663D01*
X45307663Y-49230998D01*
X45497537Y-48946831D01*
X45628325Y-48631081D01*
X45695000Y-48295883D01*
X45695000Y-47954117D01*
X45628325Y-47618919D01*
X45497537Y-47303169D01*
X45307663Y-47019002D01*
X45065998Y-46777337D01*
X44781831Y-46587463D01*
X44466081Y-46456675D01*
X44130883Y-46390000D01*
X43789117Y-46390000D01*
X43453919Y-46456675D01*
X43138169Y-46587463D01*
X42854002Y-46777337D01*
X42612337Y-47019002D01*
X42422463Y-47303169D01*
X42291675Y-47618919D01*
X42225000Y-47954117D01*
X35538072Y-47954117D01*
X35538072Y-47025000D01*
X35525812Y-46900518D01*
X35489502Y-46780820D01*
X35430537Y-46670506D01*
X35351185Y-46573815D01*
X35254494Y-46494463D01*
X35144180Y-46435498D01*
X35024482Y-46399188D01*
X34900000Y-46386928D01*
X32700000Y-46386928D01*
X32575518Y-46399188D01*
X32455820Y-46435498D01*
X32345506Y-46494463D01*
X32248815Y-46573815D01*
X32169463Y-46670506D01*
X32110498Y-46780820D01*
X32074188Y-46900518D01*
X32061928Y-47025000D01*
X30938709Y-47025000D01*
X30876185Y-46948815D01*
X30779494Y-46869463D01*
X30669180Y-46810498D01*
X30549482Y-46774188D01*
X30425000Y-46761928D01*
X29375000Y-46761928D01*
X29250518Y-46774188D01*
X29130820Y-46810498D01*
X29066098Y-46845093D01*
X28857400Y-46781785D01*
X28630000Y-46759388D01*
X28402601Y-46781785D01*
X28183941Y-46848115D01*
X27995331Y-46948929D01*
X27936882Y-46907725D01*
X27727337Y-46814728D01*
X27665810Y-46806036D01*
X27487000Y-46931837D01*
X27487000Y-47696891D01*
X27486785Y-47697600D01*
X27470000Y-47868021D01*
X27233000Y-47868021D01*
X27233000Y-46931837D01*
X27054190Y-46806036D01*
X26992663Y-46814728D01*
X26783118Y-46907725D01*
X26595742Y-47039816D01*
X26437736Y-47205924D01*
X26315172Y-47399666D01*
X26232761Y-47613596D01*
X26193669Y-47839493D01*
X13385000Y-47839493D01*
X13385000Y-44750000D01*
X18811928Y-44750000D01*
X18811928Y-46450000D01*
X18824188Y-46574482D01*
X18860498Y-46694180D01*
X18919463Y-46804494D01*
X18998815Y-46901185D01*
X19095506Y-46980537D01*
X19205820Y-47039502D01*
X19325518Y-47075812D01*
X19450000Y-47088072D01*
X21150000Y-47088072D01*
X21274482Y-47075812D01*
X21394180Y-47039502D01*
X21504494Y-46980537D01*
X21601185Y-46901185D01*
X21680537Y-46804494D01*
X21739502Y-46694180D01*
X21775812Y-46574482D01*
X21788072Y-46450000D01*
X21788072Y-45175000D01*
X47411928Y-45175000D01*
X47411928Y-46875000D01*
X47424188Y-46999482D01*
X47460498Y-47119180D01*
X47519463Y-47229494D01*
X47598815Y-47326185D01*
X47695506Y-47405537D01*
X47805820Y-47464502D01*
X47878380Y-47486513D01*
X47746525Y-47618368D01*
X47584010Y-47861589D01*
X47472068Y-48131842D01*
X47415000Y-48418740D01*
X47415000Y-48711260D01*
X47472068Y-48998158D01*
X47584010Y-49268411D01*
X47746525Y-49511632D01*
X47953368Y-49718475D01*
X48127760Y-49835000D01*
X47953368Y-49951525D01*
X47746525Y-50158368D01*
X47584010Y-50401589D01*
X47472068Y-50671842D01*
X47415000Y-50958740D01*
X47415000Y-51251260D01*
X47472068Y-51538158D01*
X47584010Y-51808411D01*
X47746525Y-52051632D01*
X47953368Y-52258475D01*
X48196589Y-52420990D01*
X48466842Y-52532932D01*
X48753740Y-52590000D01*
X49046260Y-52590000D01*
X49333158Y-52532932D01*
X49603411Y-52420990D01*
X49846632Y-52258475D01*
X50053475Y-52051632D01*
X50215990Y-51808411D01*
X50327932Y-51538158D01*
X50385000Y-51251260D01*
X50385000Y-50958740D01*
X50327932Y-50671842D01*
X50215990Y-50401589D01*
X50053475Y-50158368D01*
X49846632Y-49951525D01*
X49672240Y-49835000D01*
X49846632Y-49718475D01*
X50053475Y-49511632D01*
X50215990Y-49268411D01*
X50327932Y-48998158D01*
X50385000Y-48711260D01*
X50385000Y-48418740D01*
X50327932Y-48131842D01*
X50215990Y-47861589D01*
X50053475Y-47618368D01*
X49921620Y-47486513D01*
X49994180Y-47464502D01*
X50104494Y-47405537D01*
X50201185Y-47326185D01*
X50280537Y-47229494D01*
X50339502Y-47119180D01*
X50375812Y-46999482D01*
X50388072Y-46875000D01*
X50388072Y-45175000D01*
X50375812Y-45050518D01*
X50339502Y-44930820D01*
X50280537Y-44820506D01*
X50201185Y-44723815D01*
X50104494Y-44644463D01*
X49994180Y-44585498D01*
X49874482Y-44549188D01*
X49750000Y-44536928D01*
X48050000Y-44536928D01*
X47925518Y-44549188D01*
X47805820Y-44585498D01*
X47695506Y-44644463D01*
X47598815Y-44723815D01*
X47519463Y-44820506D01*
X47460498Y-44930820D01*
X47424188Y-45050518D01*
X47411928Y-45175000D01*
X21788072Y-45175000D01*
X21788072Y-44750000D01*
X21775812Y-44625518D01*
X21739502Y-44505820D01*
X21680537Y-44395506D01*
X21601185Y-44298815D01*
X21504494Y-44219463D01*
X21394180Y-44160498D01*
X21274482Y-44124188D01*
X21150000Y-44111928D01*
X19450000Y-44111928D01*
X19325518Y-44124188D01*
X19205820Y-44160498D01*
X19095506Y-44219463D01*
X18998815Y-44298815D01*
X18919463Y-44395506D01*
X18860498Y-44505820D01*
X18824188Y-44625518D01*
X18811928Y-44750000D01*
X13385000Y-44750000D01*
X13385000Y-42866578D01*
X19495051Y-36756528D01*
X19528817Y-36728817D01*
X19639411Y-36594059D01*
X19721589Y-36440313D01*
X19772195Y-36273490D01*
X19785000Y-36143477D01*
X19785000Y-36143469D01*
X19789281Y-36100000D01*
X19785000Y-36056531D01*
X19785000Y-34864396D01*
X19935241Y-35014637D01*
X20170273Y-35171680D01*
X20431426Y-35279853D01*
X20708665Y-35335000D01*
X20991335Y-35335000D01*
X21268574Y-35279853D01*
X21529727Y-35171680D01*
X21764759Y-35014637D01*
X21964637Y-34814759D01*
X22121680Y-34579727D01*
X22229853Y-34318574D01*
X22285000Y-34041335D01*
X22285000Y-33758665D01*
X22229853Y-33481426D01*
X22121680Y-33220273D01*
X21964637Y-32985241D01*
X21764759Y-32785363D01*
X21529727Y-32628320D01*
X21268574Y-32520147D01*
X20991335Y-32465000D01*
X20708665Y-32465000D01*
X20431426Y-32520147D01*
X20170273Y-32628320D01*
X19935241Y-32785363D01*
X19785000Y-32935604D01*
X19785000Y-32343465D01*
X19789281Y-32299999D01*
X19785000Y-32256533D01*
X19785000Y-32256523D01*
X19772195Y-32126510D01*
X19721589Y-31959687D01*
X19639411Y-31805941D01*
X19528817Y-31671183D01*
X19495049Y-31643470D01*
X18736534Y-30884956D01*
X18708817Y-30851183D01*
X18574059Y-30740589D01*
X18420313Y-30658411D01*
X18253490Y-30607805D01*
X18123477Y-30595000D01*
X18123469Y-30595000D01*
X18080000Y-30590719D01*
X18036531Y-30595000D01*
X17500078Y-30595000D01*
X17389608Y-30460392D01*
X17171101Y-30281068D01*
X17038142Y-30210000D01*
X17171101Y-30138932D01*
X17389608Y-29959608D01*
X17444516Y-29892702D01*
X20036903Y-29892702D01*
X20108486Y-30136671D01*
X20363996Y-30257571D01*
X20638184Y-30326300D01*
X20920512Y-30340217D01*
X21200130Y-30298787D01*
X21466292Y-30203603D01*
X21591514Y-30136671D01*
X21663097Y-29892702D01*
X20850000Y-29079605D01*
X20036903Y-29892702D01*
X17444516Y-29892702D01*
X17568932Y-29741101D01*
X17702182Y-29491808D01*
X17784236Y-29221309D01*
X17808937Y-28970512D01*
X19409783Y-28970512D01*
X19451213Y-29250130D01*
X19546397Y-29516292D01*
X19613329Y-29641514D01*
X19857298Y-29713097D01*
X20670395Y-28900000D01*
X21029605Y-28900000D01*
X21842702Y-29713097D01*
X22086671Y-29641514D01*
X22207571Y-29386004D01*
X22276300Y-29111816D01*
X22290217Y-28829488D01*
X22248787Y-28549870D01*
X22153603Y-28283708D01*
X22086671Y-28158486D01*
X21842702Y-28086903D01*
X21029605Y-28900000D01*
X20670395Y-28900000D01*
X19857298Y-28086903D01*
X19613329Y-28158486D01*
X19492429Y-28413996D01*
X19423700Y-28688184D01*
X19409783Y-28970512D01*
X17808937Y-28970512D01*
X17811943Y-28940000D01*
X17784236Y-28658691D01*
X17702182Y-28388192D01*
X17568932Y-28138899D01*
X17389608Y-27920392D01*
X17373653Y-27907298D01*
X20036903Y-27907298D01*
X20850000Y-28720395D01*
X21663097Y-27907298D01*
X21591514Y-27663329D01*
X21336004Y-27542429D01*
X21061816Y-27473700D01*
X20779488Y-27459783D01*
X20499870Y-27501213D01*
X20233708Y-27596397D01*
X20108486Y-27663329D01*
X20036903Y-27907298D01*
X17373653Y-27907298D01*
X17171101Y-27741068D01*
X17038142Y-27670000D01*
X17171101Y-27598932D01*
X17389608Y-27419608D01*
X17568932Y-27201101D01*
X17702182Y-26951808D01*
X17784236Y-26681309D01*
X17811943Y-26400000D01*
X17784236Y-26118691D01*
X17702182Y-25848192D01*
X17568932Y-25598899D01*
X17389608Y-25380392D01*
X17171101Y-25201068D01*
X16921808Y-25067818D01*
X16651309Y-24985764D01*
X16440492Y-24965000D01*
X15499508Y-24965000D01*
X15288691Y-24985764D01*
X15018192Y-25067818D01*
X14768899Y-25201068D01*
X14550392Y-25380392D01*
X14371068Y-25598899D01*
X14237818Y-25848192D01*
X14155764Y-26118691D01*
X14128057Y-26400000D01*
X14155764Y-26681309D01*
X14237818Y-26951808D01*
X14371068Y-27201101D01*
X14550392Y-27419608D01*
X14768899Y-27598932D01*
X14901858Y-27670000D01*
X14768899Y-27741068D01*
X14550392Y-27920392D01*
X14439922Y-28055000D01*
X14313465Y-28055000D01*
X14269999Y-28050719D01*
X14226533Y-28055000D01*
X14226523Y-28055000D01*
X14096510Y-28067805D01*
X13929687Y-28118411D01*
X13775941Y-28200589D01*
X13775939Y-28200590D01*
X13775940Y-28200590D01*
X13674953Y-28283468D01*
X13674951Y-28283470D01*
X13641183Y-28311183D01*
X13613470Y-28344951D01*
X11004956Y-30953466D01*
X10971183Y-30981183D01*
X10860589Y-31115942D01*
X10778411Y-31269688D01*
X10727805Y-31436511D01*
X10715000Y-31566524D01*
X10715000Y-31566531D01*
X10710719Y-31610000D01*
X10715000Y-31653469D01*
X10715001Y-34233420D01*
X6533422Y-38415000D01*
X4634521Y-38415000D01*
X4614637Y-38385241D01*
X4414759Y-38185363D01*
X4179727Y-38028320D01*
X3918574Y-37920147D01*
X3641335Y-37865000D01*
X3358665Y-37865000D01*
X3081426Y-37920147D01*
X2820273Y-38028320D01*
X2585241Y-38185363D01*
X2385363Y-38385241D01*
X2228320Y-38620273D01*
X2120147Y-38881426D01*
X2065000Y-39158665D01*
X660000Y-39158665D01*
X660000Y-34892702D01*
X2536903Y-34892702D01*
X2608486Y-35136671D01*
X2863996Y-35257571D01*
X3138184Y-35326300D01*
X3420512Y-35340217D01*
X3700130Y-35298787D01*
X3966292Y-35203603D01*
X4091514Y-35136671D01*
X4163097Y-34892702D01*
X3350000Y-34079605D01*
X2536903Y-34892702D01*
X660000Y-34892702D01*
X660000Y-33970512D01*
X1909783Y-33970512D01*
X1951213Y-34250130D01*
X2046397Y-34516292D01*
X2113329Y-34641514D01*
X2357298Y-34713097D01*
X3170395Y-33900000D01*
X3529605Y-33900000D01*
X4342702Y-34713097D01*
X4586671Y-34641514D01*
X4707571Y-34386004D01*
X4776300Y-34111816D01*
X4790217Y-33829488D01*
X4748787Y-33549870D01*
X4653603Y-33283708D01*
X4586671Y-33158486D01*
X4342702Y-33086903D01*
X3529605Y-33900000D01*
X3170395Y-33900000D01*
X2357298Y-33086903D01*
X2113329Y-33158486D01*
X1992429Y-33413996D01*
X1923700Y-33688184D01*
X1909783Y-33970512D01*
X660000Y-33970512D01*
X660000Y-32907298D01*
X2536903Y-32907298D01*
X3350000Y-33720395D01*
X4163097Y-32907298D01*
X4091514Y-32663329D01*
X3836004Y-32542429D01*
X3561816Y-32473700D01*
X3279488Y-32459783D01*
X2999870Y-32501213D01*
X2733708Y-32596397D01*
X2608486Y-32663329D01*
X2536903Y-32907298D01*
X660000Y-32907298D01*
X660000Y-28758665D01*
X1915000Y-28758665D01*
X1915000Y-29041335D01*
X1970147Y-29318574D01*
X2078320Y-29579727D01*
X2235363Y-29814759D01*
X2435241Y-30014637D01*
X2670273Y-30171680D01*
X2931426Y-30279853D01*
X3208665Y-30335000D01*
X3491335Y-30335000D01*
X3768574Y-30279853D01*
X4029727Y-30171680D01*
X4264759Y-30014637D01*
X4464637Y-29814759D01*
X4621680Y-29579727D01*
X4729853Y-29318574D01*
X4785000Y-29041335D01*
X4785000Y-28940000D01*
X6508057Y-28940000D01*
X6535764Y-29221309D01*
X6617818Y-29491808D01*
X6751068Y-29741101D01*
X6930392Y-29959608D01*
X7148899Y-30138932D01*
X7281858Y-30210000D01*
X7148899Y-30281068D01*
X6930392Y-30460392D01*
X6751068Y-30678899D01*
X6617818Y-30928192D01*
X6535764Y-31198691D01*
X6508057Y-31480000D01*
X6535764Y-31761309D01*
X6617818Y-32031808D01*
X6751068Y-32281101D01*
X6930392Y-32499608D01*
X7148899Y-32678932D01*
X7281858Y-32750000D01*
X7148899Y-32821068D01*
X6930392Y-33000392D01*
X6751068Y-33218899D01*
X6617818Y-33468192D01*
X6535764Y-33738691D01*
X6508057Y-34020000D01*
X6535764Y-34301309D01*
X6617818Y-34571808D01*
X6751068Y-34821101D01*
X6930392Y-35039608D01*
X7148899Y-35218932D01*
X7398192Y-35352182D01*
X7668691Y-35434236D01*
X7879508Y-35455000D01*
X8820492Y-35455000D01*
X9031309Y-35434236D01*
X9301808Y-35352182D01*
X9551101Y-35218932D01*
X9769608Y-35039608D01*
X9948932Y-34821101D01*
X10082182Y-34571808D01*
X10164236Y-34301309D01*
X10191943Y-34020000D01*
X10164236Y-33738691D01*
X10082182Y-33468192D01*
X9948932Y-33218899D01*
X9769608Y-33000392D01*
X9551101Y-32821068D01*
X9418142Y-32750000D01*
X9551101Y-32678932D01*
X9769608Y-32499608D01*
X9948932Y-32281101D01*
X10082182Y-32031808D01*
X10164236Y-31761309D01*
X10191943Y-31480000D01*
X10164236Y-31198691D01*
X10082182Y-30928192D01*
X9948932Y-30678899D01*
X9769608Y-30460392D01*
X9551101Y-30281068D01*
X9418142Y-30210000D01*
X9551101Y-30138932D01*
X9769608Y-29959608D01*
X9948932Y-29741101D01*
X10082182Y-29491808D01*
X10164236Y-29221309D01*
X10191943Y-28940000D01*
X10164236Y-28658691D01*
X10082182Y-28388192D01*
X9948932Y-28138899D01*
X9769608Y-27920392D01*
X9656518Y-27827581D01*
X9674482Y-27825812D01*
X9794180Y-27789502D01*
X9904494Y-27730537D01*
X10001185Y-27651185D01*
X10080537Y-27554494D01*
X10139502Y-27444180D01*
X10175812Y-27324482D01*
X10188072Y-27200000D01*
X10185000Y-26685750D01*
X10026250Y-26527000D01*
X8477000Y-26527000D01*
X8477000Y-26547000D01*
X8223000Y-26547000D01*
X8223000Y-26527000D01*
X6673750Y-26527000D01*
X6515000Y-26685750D01*
X6511928Y-27200000D01*
X6524188Y-27324482D01*
X6560498Y-27444180D01*
X6619463Y-27554494D01*
X6698815Y-27651185D01*
X6795506Y-27730537D01*
X6905820Y-27789502D01*
X7025518Y-27825812D01*
X7043482Y-27827581D01*
X6930392Y-27920392D01*
X6751068Y-28138899D01*
X6617818Y-28388192D01*
X6535764Y-28658691D01*
X6508057Y-28940000D01*
X4785000Y-28940000D01*
X4785000Y-28758665D01*
X4729853Y-28481426D01*
X4621680Y-28220273D01*
X4464637Y-27985241D01*
X4264759Y-27785363D01*
X4029727Y-27628320D01*
X3768574Y-27520147D01*
X3491335Y-27465000D01*
X3208665Y-27465000D01*
X2931426Y-27520147D01*
X2670273Y-27628320D01*
X2435241Y-27785363D01*
X2235363Y-27985241D01*
X2078320Y-28220273D01*
X1970147Y-28481426D01*
X1915000Y-28758665D01*
X660000Y-28758665D01*
X660000Y-25600000D01*
X6511928Y-25600000D01*
X6515000Y-26114250D01*
X6673750Y-26273000D01*
X8223000Y-26273000D01*
X8223000Y-25123750D01*
X8477000Y-25123750D01*
X8477000Y-26273000D01*
X10026250Y-26273000D01*
X10185000Y-26114250D01*
X10188072Y-25600000D01*
X10175812Y-25475518D01*
X10139502Y-25355820D01*
X10080537Y-25245506D01*
X10001185Y-25148815D01*
X9904494Y-25069463D01*
X9794180Y-25010498D01*
X9674482Y-24974188D01*
X9550000Y-24961928D01*
X8635750Y-24965000D01*
X8477000Y-25123750D01*
X8223000Y-25123750D01*
X8064250Y-24965000D01*
X7150000Y-24961928D01*
X7025518Y-24974188D01*
X6905820Y-25010498D01*
X6795506Y-25069463D01*
X6698815Y-25148815D01*
X6619463Y-25245506D01*
X6560498Y-25355820D01*
X6524188Y-25475518D01*
X6511928Y-25600000D01*
X660000Y-25600000D01*
X660000Y-23678665D01*
X19415000Y-23678665D01*
X19415000Y-23961335D01*
X19470147Y-24238574D01*
X19578320Y-24499727D01*
X19735363Y-24734759D01*
X19935241Y-24934637D01*
X20170273Y-25091680D01*
X20431426Y-25199853D01*
X20708665Y-25255000D01*
X20991335Y-25255000D01*
X21268574Y-25199853D01*
X21529727Y-25091680D01*
X21764759Y-24934637D01*
X21964637Y-24734759D01*
X22121680Y-24499727D01*
X22229853Y-24238574D01*
X22285000Y-23961335D01*
X22285000Y-23678665D01*
X22229853Y-23401426D01*
X22121680Y-23140273D01*
X21964637Y-22905241D01*
X21764759Y-22705363D01*
X21529727Y-22548320D01*
X21268574Y-22440147D01*
X20991335Y-22385000D01*
X20708665Y-22385000D01*
X20431426Y-22440147D01*
X20170273Y-22548320D01*
X19935241Y-22705363D01*
X19735363Y-22905241D01*
X19578320Y-23140273D01*
X19470147Y-23401426D01*
X19415000Y-23678665D01*
X660000Y-23678665D01*
X660000Y-18092702D01*
X3886903Y-18092702D01*
X3958486Y-18336671D01*
X4213996Y-18457571D01*
X4488184Y-18526300D01*
X4770512Y-18540217D01*
X5050130Y-18498787D01*
X5316292Y-18403603D01*
X5441514Y-18336671D01*
X5513097Y-18092702D01*
X4700000Y-17279605D01*
X3886903Y-18092702D01*
X660000Y-18092702D01*
X660000Y-17170512D01*
X3259783Y-17170512D01*
X3301213Y-17450130D01*
X3396397Y-17716292D01*
X3463329Y-17841514D01*
X3707298Y-17913097D01*
X4520395Y-17100000D01*
X4879605Y-17100000D01*
X5692702Y-17913097D01*
X5761928Y-17892785D01*
X5761928Y-17900000D01*
X5774188Y-18024482D01*
X5810498Y-18144180D01*
X5869463Y-18254494D01*
X5948815Y-18351185D01*
X6045506Y-18430537D01*
X6155820Y-18489502D01*
X6275518Y-18525812D01*
X6400000Y-18538072D01*
X8000000Y-18538072D01*
X8124482Y-18525812D01*
X8244180Y-18489502D01*
X8354494Y-18430537D01*
X8451185Y-18351185D01*
X8530537Y-18254494D01*
X8589502Y-18144180D01*
X8625812Y-18024482D01*
X8638072Y-17900000D01*
X8638072Y-16300000D01*
X8625812Y-16175518D01*
X8590366Y-16058665D01*
X19415000Y-16058665D01*
X19415000Y-16341335D01*
X19470147Y-16618574D01*
X19578320Y-16879727D01*
X19735363Y-17114759D01*
X19935241Y-17314637D01*
X20170273Y-17471680D01*
X20431426Y-17579853D01*
X20708665Y-17635000D01*
X20991335Y-17635000D01*
X21268574Y-17579853D01*
X21529727Y-17471680D01*
X21764759Y-17314637D01*
X21964637Y-17114759D01*
X22121680Y-16879727D01*
X22229853Y-16618574D01*
X22285000Y-16341335D01*
X22285000Y-16058665D01*
X22229853Y-15781426D01*
X22121680Y-15520273D01*
X21964637Y-15285241D01*
X21764759Y-15085363D01*
X21529727Y-14928320D01*
X21268574Y-14820147D01*
X20991335Y-14765000D01*
X20708665Y-14765000D01*
X20431426Y-14820147D01*
X20170273Y-14928320D01*
X19935241Y-15085363D01*
X19735363Y-15285241D01*
X19578320Y-15520273D01*
X19470147Y-15781426D01*
X19415000Y-16058665D01*
X8590366Y-16058665D01*
X8589502Y-16055820D01*
X8530537Y-15945506D01*
X8451185Y-15848815D01*
X8354494Y-15769463D01*
X8244180Y-15710498D01*
X8124482Y-15674188D01*
X8000000Y-15661928D01*
X6400000Y-15661928D01*
X6275518Y-15674188D01*
X6155820Y-15710498D01*
X6045506Y-15769463D01*
X5948815Y-15848815D01*
X5869463Y-15945506D01*
X5810498Y-16055820D01*
X5774188Y-16175518D01*
X5761928Y-16300000D01*
X5761928Y-16307215D01*
X5692702Y-16286903D01*
X4879605Y-17100000D01*
X4520395Y-17100000D01*
X3707298Y-16286903D01*
X3463329Y-16358486D01*
X3342429Y-16613996D01*
X3273700Y-16888184D01*
X3259783Y-17170512D01*
X660000Y-17170512D01*
X660000Y-16107298D01*
X3886903Y-16107298D01*
X4700000Y-16920395D01*
X5513097Y-16107298D01*
X5441514Y-15863329D01*
X5186004Y-15742429D01*
X4911816Y-15673700D01*
X4629488Y-15659783D01*
X4349870Y-15701213D01*
X4083708Y-15796397D01*
X3958486Y-15863329D01*
X3886903Y-16107298D01*
X660000Y-16107298D01*
X660000Y-12775340D01*
X10154265Y-12775340D01*
X10400416Y-13167704D01*
X10902822Y-13433312D01*
X11447393Y-13595801D01*
X12013199Y-13648928D01*
X12578498Y-13590652D01*
X13121566Y-13423210D01*
X13599584Y-13167704D01*
X13845735Y-12775340D01*
X12000000Y-10929605D01*
X10154265Y-12775340D01*
X660000Y-12775340D01*
X660000Y-7465852D01*
X4415000Y-7465852D01*
X4415000Y-8034148D01*
X4525869Y-8591523D01*
X4743346Y-9116560D01*
X5059074Y-9589080D01*
X5460920Y-9990926D01*
X5933440Y-10306654D01*
X6458477Y-10524131D01*
X7015852Y-10635000D01*
X7584148Y-10635000D01*
X8141523Y-10524131D01*
X8666560Y-10306654D01*
X9139080Y-9990926D01*
X9248433Y-9881573D01*
X9154199Y-10197393D01*
X9101072Y-10763199D01*
X9159348Y-11328498D01*
X9326790Y-11871566D01*
X9582296Y-12349584D01*
X9974660Y-12595735D01*
X11820395Y-10750000D01*
X12179605Y-10750000D01*
X14025340Y-12595735D01*
X14417704Y-12349584D01*
X14683312Y-11847178D01*
X14845801Y-11302607D01*
X14898928Y-10736801D01*
X14840652Y-10171502D01*
X14673210Y-9628434D01*
X14658012Y-9600000D01*
X18661928Y-9600000D01*
X18661928Y-11400000D01*
X18674188Y-11524482D01*
X18710498Y-11644180D01*
X18769463Y-11754494D01*
X18848815Y-11851185D01*
X18945506Y-11930537D01*
X19055820Y-11989502D01*
X19175518Y-12025812D01*
X19300000Y-12038072D01*
X21100000Y-12038072D01*
X21224482Y-12025812D01*
X21344180Y-11989502D01*
X21454494Y-11930537D01*
X21551185Y-11851185D01*
X21630537Y-11754494D01*
X21689502Y-11644180D01*
X21695056Y-11625873D01*
X21761495Y-11692312D01*
X22012905Y-11860299D01*
X22292257Y-11976011D01*
X22588816Y-12035000D01*
X22891184Y-12035000D01*
X23187743Y-11976011D01*
X23467095Y-11860299D01*
X23718505Y-11692312D01*
X23932312Y-11478505D01*
X24100299Y-11227095D01*
X24216011Y-10947743D01*
X24275000Y-10651184D01*
X24275000Y-10348816D01*
X24216011Y-10052257D01*
X24100299Y-9772905D01*
X23932312Y-9521495D01*
X23718505Y-9307688D01*
X23467095Y-9139701D01*
X23187743Y-9023989D01*
X22891184Y-8965000D01*
X22588816Y-8965000D01*
X22292257Y-9023989D01*
X22012905Y-9139701D01*
X21761495Y-9307688D01*
X21695056Y-9374127D01*
X21689502Y-9355820D01*
X21630537Y-9245506D01*
X21551185Y-9148815D01*
X21454494Y-9069463D01*
X21344180Y-9010498D01*
X21224482Y-8974188D01*
X21100000Y-8961928D01*
X19300000Y-8961928D01*
X19175518Y-8974188D01*
X19055820Y-9010498D01*
X18945506Y-9069463D01*
X18848815Y-9148815D01*
X18769463Y-9245506D01*
X18710498Y-9355820D01*
X18674188Y-9475518D01*
X18661928Y-9600000D01*
X14658012Y-9600000D01*
X14417704Y-9150416D01*
X14025340Y-8904265D01*
X12179605Y-10750000D01*
X11820395Y-10750000D01*
X11806253Y-10735858D01*
X11985858Y-10556253D01*
X12000000Y-10570395D01*
X13845735Y-8724660D01*
X13599584Y-8332296D01*
X13097178Y-8066688D01*
X12552607Y-7904199D01*
X11986801Y-7851072D01*
X11421502Y-7909348D01*
X10878434Y-8076790D01*
X10400416Y-8332296D01*
X10154266Y-8724658D01*
X10058608Y-8629000D01*
X10074131Y-8591523D01*
X10185000Y-8034148D01*
X10185000Y-7465852D01*
X10074131Y-6908477D01*
X10071062Y-6901068D01*
X10160920Y-6990926D01*
X10633440Y-7306654D01*
X11158477Y-7524131D01*
X11715852Y-7635000D01*
X12284148Y-7635000D01*
X12841523Y-7524131D01*
X13366560Y-7306654D01*
X13839080Y-6990926D01*
X14240926Y-6589080D01*
X14556654Y-6116560D01*
X14774131Y-5591523D01*
X14885000Y-5034148D01*
X14885000Y-4603740D01*
X18225000Y-4603740D01*
X18225000Y-4896260D01*
X18282068Y-5183158D01*
X18394010Y-5453411D01*
X18556525Y-5696632D01*
X18763368Y-5903475D01*
X19006589Y-6065990D01*
X19276842Y-6177932D01*
X19563740Y-6235000D01*
X19856260Y-6235000D01*
X20143158Y-6177932D01*
X20413411Y-6065990D01*
X20656632Y-5903475D01*
X20788487Y-5771620D01*
X20810498Y-5844180D01*
X20869463Y-5954494D01*
X20948815Y-6051185D01*
X21045506Y-6130537D01*
X21155820Y-6189502D01*
X21275518Y-6225812D01*
X21400000Y-6238072D01*
X23100000Y-6238072D01*
X23224482Y-6225812D01*
X23344180Y-6189502D01*
X23454494Y-6130537D01*
X23551185Y-6051185D01*
X23630537Y-5954494D01*
X23689502Y-5844180D01*
X23725812Y-5724482D01*
X23738072Y-5600000D01*
X23738072Y-4348816D01*
X26465000Y-4348816D01*
X26465000Y-4651184D01*
X26523989Y-4947743D01*
X26639701Y-5227095D01*
X26807688Y-5478505D01*
X27021495Y-5692312D01*
X27137763Y-5770000D01*
X27021495Y-5847688D01*
X26807688Y-6061495D01*
X26639701Y-6312905D01*
X26523989Y-6592257D01*
X26465000Y-6888816D01*
X26465000Y-7191184D01*
X26523989Y-7487743D01*
X26639701Y-7767095D01*
X26807688Y-8018505D01*
X27021495Y-8232312D01*
X27137763Y-8310000D01*
X27021495Y-8387688D01*
X26807688Y-8601495D01*
X26639701Y-8852905D01*
X26523989Y-9132257D01*
X26465000Y-9428816D01*
X26465000Y-9731184D01*
X26523989Y-10027743D01*
X26639701Y-10307095D01*
X26807688Y-10558505D01*
X27021495Y-10772312D01*
X27137763Y-10850000D01*
X27021495Y-10927688D01*
X26807688Y-11141495D01*
X26639701Y-11392905D01*
X26523989Y-11672257D01*
X26465000Y-11968816D01*
X26465000Y-12271184D01*
X26523989Y-12567743D01*
X26639701Y-12847095D01*
X26807688Y-13098505D01*
X27021495Y-13312312D01*
X27137763Y-13390000D01*
X27021495Y-13467688D01*
X26807688Y-13681495D01*
X26639701Y-13932905D01*
X26523989Y-14212257D01*
X26465000Y-14508816D01*
X26465000Y-14811184D01*
X26523989Y-15107743D01*
X26639701Y-15387095D01*
X26807688Y-15638505D01*
X27021495Y-15852312D01*
X27137763Y-15930000D01*
X27021495Y-16007688D01*
X26807688Y-16221495D01*
X26639701Y-16472905D01*
X26523989Y-16752257D01*
X26465000Y-17048816D01*
X26465000Y-17351184D01*
X26523989Y-17647743D01*
X26639701Y-17927095D01*
X26807688Y-18178505D01*
X27021495Y-18392312D01*
X27137763Y-18470000D01*
X27021495Y-18547688D01*
X26807688Y-18761495D01*
X26639701Y-19012905D01*
X26523989Y-19292257D01*
X26465000Y-19588816D01*
X26465000Y-19891184D01*
X26523989Y-20187743D01*
X26639701Y-20467095D01*
X26807688Y-20718505D01*
X27021495Y-20932312D01*
X27137763Y-21010000D01*
X27021495Y-21087688D01*
X26807688Y-21301495D01*
X26639701Y-21552905D01*
X26523989Y-21832257D01*
X26465000Y-22128816D01*
X26465000Y-22431184D01*
X26523989Y-22727743D01*
X26639701Y-23007095D01*
X26807688Y-23258505D01*
X27021495Y-23472312D01*
X27137763Y-23550000D01*
X27021495Y-23627688D01*
X26807688Y-23841495D01*
X26639701Y-24092905D01*
X26523989Y-24372257D01*
X26465000Y-24668816D01*
X26465000Y-24971184D01*
X26523989Y-25267743D01*
X26639701Y-25547095D01*
X26807688Y-25798505D01*
X27021495Y-26012312D01*
X27137763Y-26090000D01*
X27021495Y-26167688D01*
X26807688Y-26381495D01*
X26639701Y-26632905D01*
X26523989Y-26912257D01*
X26465000Y-27208816D01*
X26465000Y-27511184D01*
X26523989Y-27807743D01*
X26639701Y-28087095D01*
X26807688Y-28338505D01*
X27021495Y-28552312D01*
X27137763Y-28630000D01*
X27021495Y-28707688D01*
X26807688Y-28921495D01*
X26639701Y-29172905D01*
X26523989Y-29452257D01*
X26465000Y-29748816D01*
X26465000Y-30051184D01*
X26523989Y-30347743D01*
X26639701Y-30627095D01*
X26807688Y-30878505D01*
X27021495Y-31092312D01*
X27137763Y-31170000D01*
X27021495Y-31247688D01*
X26807688Y-31461495D01*
X26639701Y-31712905D01*
X26523989Y-31992257D01*
X26465000Y-32288816D01*
X26465000Y-32591184D01*
X26523989Y-32887743D01*
X26639701Y-33167095D01*
X26807688Y-33418505D01*
X27021495Y-33632312D01*
X27137763Y-33710000D01*
X27021495Y-33787688D01*
X26807688Y-34001495D01*
X26639701Y-34252905D01*
X26523989Y-34532257D01*
X26465000Y-34828816D01*
X26465000Y-35131184D01*
X26523989Y-35427743D01*
X26639701Y-35707095D01*
X26807688Y-35958505D01*
X27021495Y-36172312D01*
X27137763Y-36250000D01*
X27021495Y-36327688D01*
X26807688Y-36541495D01*
X26639701Y-36792905D01*
X26523989Y-37072257D01*
X26465000Y-37368816D01*
X26465000Y-37671184D01*
X26523989Y-37967743D01*
X26639701Y-38247095D01*
X26807688Y-38498505D01*
X27021495Y-38712312D01*
X27137763Y-38790000D01*
X27021495Y-38867688D01*
X26807688Y-39081495D01*
X26639701Y-39332905D01*
X26523989Y-39612257D01*
X26465000Y-39908816D01*
X26465000Y-40211184D01*
X26523989Y-40507743D01*
X26639701Y-40787095D01*
X26807688Y-41038505D01*
X27021495Y-41252312D01*
X27272905Y-41420299D01*
X27552257Y-41536011D01*
X27848816Y-41595000D01*
X28151184Y-41595000D01*
X28447743Y-41536011D01*
X28727095Y-41420299D01*
X28978505Y-41252312D01*
X29192312Y-41038505D01*
X29270000Y-40922237D01*
X29347688Y-41038505D01*
X29561495Y-41252312D01*
X29812905Y-41420299D01*
X30092257Y-41536011D01*
X30388816Y-41595000D01*
X30691184Y-41595000D01*
X30987743Y-41536011D01*
X31267095Y-41420299D01*
X31518505Y-41252312D01*
X31732312Y-41038505D01*
X31810000Y-40922237D01*
X31887688Y-41038505D01*
X32101495Y-41252312D01*
X32352905Y-41420299D01*
X32632257Y-41536011D01*
X32928816Y-41595000D01*
X33231184Y-41595000D01*
X33527743Y-41536011D01*
X33807095Y-41420299D01*
X34058505Y-41252312D01*
X34272312Y-41038505D01*
X34350000Y-40922237D01*
X34427688Y-41038505D01*
X34641495Y-41252312D01*
X34892905Y-41420299D01*
X35172257Y-41536011D01*
X35468816Y-41595000D01*
X35771184Y-41595000D01*
X36067743Y-41536011D01*
X36347095Y-41420299D01*
X36598505Y-41252312D01*
X36812312Y-41038505D01*
X36890000Y-40922237D01*
X36967688Y-41038505D01*
X37181495Y-41252312D01*
X37432905Y-41420299D01*
X37712257Y-41536011D01*
X38008816Y-41595000D01*
X38311184Y-41595000D01*
X38607743Y-41536011D01*
X38887095Y-41420299D01*
X39138505Y-41252312D01*
X39352312Y-41038505D01*
X39430000Y-40922237D01*
X39507688Y-41038505D01*
X39721495Y-41252312D01*
X39972905Y-41420299D01*
X40252257Y-41536011D01*
X40548816Y-41595000D01*
X40851184Y-41595000D01*
X41147743Y-41536011D01*
X41427095Y-41420299D01*
X41678505Y-41252312D01*
X41892312Y-41038505D01*
X41970000Y-40922237D01*
X42047688Y-41038505D01*
X42261495Y-41252312D01*
X42512905Y-41420299D01*
X42792257Y-41536011D01*
X43088816Y-41595000D01*
X43391184Y-41595000D01*
X43687743Y-41536011D01*
X43967095Y-41420299D01*
X44218505Y-41252312D01*
X44432312Y-41038505D01*
X44600299Y-40787095D01*
X44716011Y-40507743D01*
X44775000Y-40211184D01*
X44775000Y-39908816D01*
X44716011Y-39612257D01*
X44600299Y-39332905D01*
X44432312Y-39081495D01*
X44218505Y-38867688D01*
X44102237Y-38790000D01*
X44218505Y-38712312D01*
X44432312Y-38498505D01*
X44600299Y-38247095D01*
X44716011Y-37967743D01*
X44775000Y-37671184D01*
X44775000Y-37368816D01*
X44716011Y-37072257D01*
X44600299Y-36792905D01*
X44432312Y-36541495D01*
X44218505Y-36327688D01*
X44102237Y-36250000D01*
X44218505Y-36172312D01*
X44432312Y-35958505D01*
X44600299Y-35707095D01*
X44716011Y-35427743D01*
X44761311Y-35200000D01*
X47336928Y-35200000D01*
X47336928Y-36900000D01*
X47349188Y-37024482D01*
X47385498Y-37144180D01*
X47444463Y-37254494D01*
X47523815Y-37351185D01*
X47620506Y-37430537D01*
X47730820Y-37489502D01*
X47803380Y-37511513D01*
X47671525Y-37643368D01*
X47509010Y-37886589D01*
X47397068Y-38156842D01*
X47340000Y-38443740D01*
X47340000Y-38736260D01*
X47397068Y-39023158D01*
X47509010Y-39293411D01*
X47671525Y-39536632D01*
X47878368Y-39743475D01*
X48052760Y-39860000D01*
X47878368Y-39976525D01*
X47671525Y-40183368D01*
X47509010Y-40426589D01*
X47397068Y-40696842D01*
X47340000Y-40983740D01*
X47340000Y-41276260D01*
X47397068Y-41563158D01*
X47509010Y-41833411D01*
X47671525Y-42076632D01*
X47878368Y-42283475D01*
X48121589Y-42445990D01*
X48391842Y-42557932D01*
X48678740Y-42615000D01*
X48971260Y-42615000D01*
X49258158Y-42557932D01*
X49528411Y-42445990D01*
X49771632Y-42283475D01*
X49978475Y-42076632D01*
X50140990Y-41833411D01*
X50252932Y-41563158D01*
X50310000Y-41276260D01*
X50310000Y-40983740D01*
X50252932Y-40696842D01*
X50140990Y-40426589D01*
X49978475Y-40183368D01*
X49771632Y-39976525D01*
X49597240Y-39860000D01*
X49771632Y-39743475D01*
X49978475Y-39536632D01*
X50140990Y-39293411D01*
X50252932Y-39023158D01*
X50310000Y-38736260D01*
X50310000Y-38443740D01*
X50252932Y-38156842D01*
X50140990Y-37886589D01*
X49978475Y-37643368D01*
X49846620Y-37511513D01*
X49919180Y-37489502D01*
X50029494Y-37430537D01*
X50126185Y-37351185D01*
X50205537Y-37254494D01*
X50264502Y-37144180D01*
X50300812Y-37024482D01*
X50313072Y-36900000D01*
X50313072Y-35200000D01*
X50300812Y-35075518D01*
X50264502Y-34955820D01*
X50205537Y-34845506D01*
X50126185Y-34748815D01*
X50029494Y-34669463D01*
X49919180Y-34610498D01*
X49799482Y-34574188D01*
X49675000Y-34561928D01*
X47975000Y-34561928D01*
X47850518Y-34574188D01*
X47730820Y-34610498D01*
X47620506Y-34669463D01*
X47523815Y-34748815D01*
X47444463Y-34845506D01*
X47385498Y-34955820D01*
X47349188Y-35075518D01*
X47336928Y-35200000D01*
X44761311Y-35200000D01*
X44775000Y-35131184D01*
X44775000Y-34828816D01*
X44716011Y-34532257D01*
X44600299Y-34252905D01*
X44432312Y-34001495D01*
X44218505Y-33787688D01*
X44102237Y-33710000D01*
X44218505Y-33632312D01*
X44432312Y-33418505D01*
X44600299Y-33167095D01*
X44716011Y-32887743D01*
X44775000Y-32591184D01*
X44775000Y-32288816D01*
X44716011Y-31992257D01*
X44600299Y-31712905D01*
X44432312Y-31461495D01*
X44218505Y-31247688D01*
X44102237Y-31170000D01*
X44218505Y-31092312D01*
X44432312Y-30878505D01*
X44600299Y-30627095D01*
X44716011Y-30347743D01*
X44775000Y-30051184D01*
X44775000Y-29748816D01*
X44716011Y-29452257D01*
X44600299Y-29172905D01*
X44432312Y-28921495D01*
X44218505Y-28707688D01*
X44102237Y-28630000D01*
X44218505Y-28552312D01*
X44432312Y-28338505D01*
X44600299Y-28087095D01*
X44716011Y-27807743D01*
X44775000Y-27511184D01*
X44775000Y-27208816D01*
X44716011Y-26912257D01*
X44600299Y-26632905D01*
X44432312Y-26381495D01*
X44218505Y-26167688D01*
X44102237Y-26090000D01*
X44218505Y-26012312D01*
X44432312Y-25798505D01*
X44600299Y-25547095D01*
X44716011Y-25267743D01*
X44775000Y-24971184D01*
X44775000Y-24668816D01*
X44716011Y-24372257D01*
X44600299Y-24092905D01*
X44432312Y-23841495D01*
X44218505Y-23627688D01*
X44102237Y-23550000D01*
X44218505Y-23472312D01*
X44432312Y-23258505D01*
X44600299Y-23007095D01*
X44716011Y-22727743D01*
X44775000Y-22431184D01*
X44775000Y-22128816D01*
X44716011Y-21832257D01*
X44600299Y-21552905D01*
X44432312Y-21301495D01*
X44218505Y-21087688D01*
X44102237Y-21010000D01*
X44218505Y-20932312D01*
X44432312Y-20718505D01*
X44600299Y-20467095D01*
X44716011Y-20187743D01*
X44775000Y-19891184D01*
X44775000Y-19588816D01*
X44716011Y-19292257D01*
X44600299Y-19012905D01*
X44432312Y-18761495D01*
X44218505Y-18547688D01*
X44102237Y-18470000D01*
X44218505Y-18392312D01*
X44432312Y-18178505D01*
X44600299Y-17927095D01*
X44716011Y-17647743D01*
X44775000Y-17351184D01*
X44775000Y-17048816D01*
X44716011Y-16752257D01*
X44600299Y-16472905D01*
X44432312Y-16221495D01*
X44218505Y-16007688D01*
X44102237Y-15930000D01*
X44218505Y-15852312D01*
X44432312Y-15638505D01*
X44600299Y-15387095D01*
X44716011Y-15107743D01*
X44775000Y-14811184D01*
X44775000Y-14508816D01*
X44716011Y-14212257D01*
X44600299Y-13932905D01*
X44432312Y-13681495D01*
X44218505Y-13467688D01*
X44102237Y-13390000D01*
X44218505Y-13312312D01*
X44432312Y-13098505D01*
X44600299Y-12847095D01*
X44716011Y-12567743D01*
X44775000Y-12271184D01*
X44775000Y-11968816D01*
X44716011Y-11672257D01*
X44600299Y-11392905D01*
X44432312Y-11141495D01*
X44218505Y-10927688D01*
X44102237Y-10850000D01*
X44218505Y-10772312D01*
X44432312Y-10558505D01*
X44600299Y-10307095D01*
X44716011Y-10027743D01*
X44775000Y-9731184D01*
X44775000Y-9428816D01*
X44716011Y-9132257D01*
X44600299Y-8852905D01*
X44432312Y-8601495D01*
X44218505Y-8387688D01*
X44102237Y-8310000D01*
X44218505Y-8232312D01*
X44432312Y-8018505D01*
X44600299Y-7767095D01*
X44716011Y-7487743D01*
X44775000Y-7191184D01*
X44775000Y-6888816D01*
X44716011Y-6592257D01*
X44600299Y-6312905D01*
X44432312Y-6061495D01*
X44218505Y-5847688D01*
X44102237Y-5770000D01*
X44218505Y-5692312D01*
X44432312Y-5478505D01*
X44600299Y-5227095D01*
X44716011Y-4947743D01*
X44775000Y-4651184D01*
X44775000Y-4348816D01*
X44716011Y-4052257D01*
X44600299Y-3772905D01*
X44432312Y-3521495D01*
X44218505Y-3307688D01*
X43967095Y-3139701D01*
X43687743Y-3023989D01*
X43391184Y-2965000D01*
X43088816Y-2965000D01*
X42792257Y-3023989D01*
X42512905Y-3139701D01*
X42261495Y-3307688D01*
X42047688Y-3521495D01*
X41970000Y-3637763D01*
X41892312Y-3521495D01*
X41678505Y-3307688D01*
X41427095Y-3139701D01*
X41147743Y-3023989D01*
X40851184Y-2965000D01*
X40548816Y-2965000D01*
X40252257Y-3023989D01*
X39972905Y-3139701D01*
X39721495Y-3307688D01*
X39507688Y-3521495D01*
X39430000Y-3637763D01*
X39352312Y-3521495D01*
X39138505Y-3307688D01*
X38887095Y-3139701D01*
X38607743Y-3023989D01*
X38311184Y-2965000D01*
X38008816Y-2965000D01*
X37712257Y-3023989D01*
X37432905Y-3139701D01*
X37181495Y-3307688D01*
X36967688Y-3521495D01*
X36890000Y-3637763D01*
X36812312Y-3521495D01*
X36598505Y-3307688D01*
X36347095Y-3139701D01*
X36067743Y-3023989D01*
X35771184Y-2965000D01*
X35468816Y-2965000D01*
X35172257Y-3023989D01*
X34892905Y-3139701D01*
X34641495Y-3307688D01*
X34427688Y-3521495D01*
X34350000Y-3637763D01*
X34272312Y-3521495D01*
X34058505Y-3307688D01*
X33807095Y-3139701D01*
X33527743Y-3023989D01*
X33231184Y-2965000D01*
X32928816Y-2965000D01*
X32632257Y-3023989D01*
X32352905Y-3139701D01*
X32101495Y-3307688D01*
X31887688Y-3521495D01*
X31810000Y-3637763D01*
X31732312Y-3521495D01*
X31518505Y-3307688D01*
X31267095Y-3139701D01*
X30987743Y-3023989D01*
X30691184Y-2965000D01*
X30388816Y-2965000D01*
X30092257Y-3023989D01*
X29812905Y-3139701D01*
X29561495Y-3307688D01*
X29347688Y-3521495D01*
X29270000Y-3637763D01*
X29192312Y-3521495D01*
X28978505Y-3307688D01*
X28727095Y-3139701D01*
X28447743Y-3023989D01*
X28151184Y-2965000D01*
X27848816Y-2965000D01*
X27552257Y-3023989D01*
X27272905Y-3139701D01*
X27021495Y-3307688D01*
X26807688Y-3521495D01*
X26639701Y-3772905D01*
X26523989Y-4052257D01*
X26465000Y-4348816D01*
X23738072Y-4348816D01*
X23738072Y-3900000D01*
X23725812Y-3775518D01*
X23689502Y-3655820D01*
X23630537Y-3545506D01*
X23551185Y-3448815D01*
X23454494Y-3369463D01*
X23344180Y-3310498D01*
X23224482Y-3274188D01*
X23100000Y-3261928D01*
X21400000Y-3261928D01*
X21275518Y-3274188D01*
X21155820Y-3310498D01*
X21045506Y-3369463D01*
X20948815Y-3448815D01*
X20869463Y-3545506D01*
X20810498Y-3655820D01*
X20788487Y-3728380D01*
X20656632Y-3596525D01*
X20413411Y-3434010D01*
X20143158Y-3322068D01*
X19856260Y-3265000D01*
X19563740Y-3265000D01*
X19276842Y-3322068D01*
X19006589Y-3434010D01*
X18763368Y-3596525D01*
X18556525Y-3803368D01*
X18394010Y-4046589D01*
X18282068Y-4316842D01*
X18225000Y-4603740D01*
X14885000Y-4603740D01*
X14885000Y-4465852D01*
X14774131Y-3908477D01*
X14556654Y-3383440D01*
X14240926Y-2910920D01*
X14106527Y-2776521D01*
X46730979Y-2776521D01*
X46730979Y-3223479D01*
X46818176Y-3661849D01*
X46989220Y-4074785D01*
X47237536Y-4446417D01*
X47553583Y-4762464D01*
X47925215Y-5010780D01*
X48338151Y-5181824D01*
X48776521Y-5269021D01*
X49223479Y-5269021D01*
X49661849Y-5181824D01*
X50074785Y-5010780D01*
X50446417Y-4762464D01*
X50762464Y-4446417D01*
X51010780Y-4074785D01*
X51181824Y-3661849D01*
X51269021Y-3223479D01*
X51269021Y-2776521D01*
X51181824Y-2338151D01*
X51010780Y-1925215D01*
X50762464Y-1553583D01*
X50446417Y-1237536D01*
X50074785Y-989220D01*
X49661849Y-818176D01*
X49223479Y-730979D01*
X48776521Y-730979D01*
X48338151Y-818176D01*
X47925215Y-989220D01*
X47553583Y-1237536D01*
X47237536Y-1553583D01*
X46989220Y-1925215D01*
X46818176Y-2338151D01*
X46730979Y-2776521D01*
X14106527Y-2776521D01*
X13839080Y-2509074D01*
X13366560Y-2193346D01*
X12841523Y-1975869D01*
X12284148Y-1865000D01*
X11715852Y-1865000D01*
X11158477Y-1975869D01*
X10633440Y-2193346D01*
X10160920Y-2509074D01*
X9759074Y-2910920D01*
X9443346Y-3383440D01*
X9225869Y-3908477D01*
X9115000Y-4465852D01*
X9115000Y-5034148D01*
X9225869Y-5591523D01*
X9228938Y-5598932D01*
X9139080Y-5509074D01*
X8666560Y-5193346D01*
X8141523Y-4975869D01*
X7584148Y-4865000D01*
X7015852Y-4865000D01*
X6458477Y-4975869D01*
X5933440Y-5193346D01*
X5460920Y-5509074D01*
X5059074Y-5910920D01*
X4743346Y-6383440D01*
X4525869Y-6908477D01*
X4415000Y-7465852D01*
X660000Y-7465852D01*
X660000Y-3032279D01*
X685077Y-2776521D01*
X730979Y-2776521D01*
X730979Y-3223479D01*
X818176Y-3661849D01*
X989220Y-4074785D01*
X1237536Y-4446417D01*
X1553583Y-4762464D01*
X1925215Y-5010780D01*
X2338151Y-5181824D01*
X2776521Y-5269021D01*
X3223479Y-5269021D01*
X3661849Y-5181824D01*
X4074785Y-5010780D01*
X4446417Y-4762464D01*
X4762464Y-4446417D01*
X5010780Y-4074785D01*
X5181824Y-3661849D01*
X5269021Y-3223479D01*
X5269021Y-2776521D01*
X5181824Y-2338151D01*
X5010780Y-1925215D01*
X4762464Y-1553583D01*
X4446417Y-1237536D01*
X4074785Y-989220D01*
X3661849Y-818176D01*
X3223479Y-730979D01*
X2776521Y-730979D01*
X2338151Y-818176D01*
X1925215Y-989220D01*
X1553583Y-1237536D01*
X1237536Y-1553583D01*
X989220Y-1925215D01*
X818176Y-2338151D01*
X730979Y-2776521D01*
X685077Y-2776521D01*
X707670Y-2546107D01*
X839489Y-2109502D01*
X1053600Y-1706815D01*
X1341848Y-1353388D01*
X1693261Y-1062673D01*
X2094439Y-845758D01*
X2530113Y-710894D01*
X3014344Y-660000D01*
X48967721Y-660000D01*
X49453893Y-707670D01*
M02*
