G04 #@! TF.GenerationSoftware,KiCad,Pcbnew,(5.1.5)-3*
G04 #@! TF.CreationDate,2023-01-24T14:10:26+01:00*
G04 #@! TF.ProjectId,pump controller schematics,70756d70-2063-46f6-9e74-726f6c6c6572,rev?*
G04 #@! TF.SameCoordinates,Original*
G04 #@! TF.FileFunction,Legend,Bot*
G04 #@! TF.FilePolarity,Positive*
%FSLAX46Y46*%
G04 Gerber Fmt 4.6, Leading zero omitted, Abs format (unit mm)*
G04 Created by KiCad (PCBNEW (5.1.5)-3) date 2023-01-24 14:10:26*
%MOMM*%
%LPD*%
G04 APERTURE LIST*
%ADD10C,0.150000*%
%ADD11C,0.120000*%
G04 APERTURE END LIST*
D10*
X28438095Y-62700000D02*
X28533333Y-62652380D01*
X28676190Y-62652380D01*
X28819047Y-62700000D01*
X28914285Y-62795238D01*
X28961904Y-62890476D01*
X29009523Y-63080952D01*
X29009523Y-63223809D01*
X28961904Y-63414285D01*
X28914285Y-63509523D01*
X28819047Y-63604761D01*
X28676190Y-63652380D01*
X28580952Y-63652380D01*
X28438095Y-63604761D01*
X28390476Y-63557142D01*
X28390476Y-63223809D01*
X28580952Y-63223809D01*
X27685714Y-63579761D02*
X27542857Y-63627380D01*
X27304761Y-63627380D01*
X27209523Y-63579761D01*
X27161904Y-63532142D01*
X27114285Y-63436904D01*
X27114285Y-63341666D01*
X27161904Y-63246428D01*
X27209523Y-63198809D01*
X27304761Y-63151190D01*
X27495238Y-63103571D01*
X27590476Y-63055952D01*
X27638095Y-63008333D01*
X27685714Y-62913095D01*
X27685714Y-62817857D01*
X27638095Y-62722619D01*
X27590476Y-62675000D01*
X27495238Y-62627380D01*
X27257142Y-62627380D01*
X27114285Y-62675000D01*
X30136904Y-63627380D02*
X30136904Y-62627380D01*
X29898809Y-62627380D01*
X29755952Y-62675000D01*
X29660714Y-62770238D01*
X29613095Y-62865476D01*
X29565476Y-63055952D01*
X29565476Y-63198809D01*
X29613095Y-63389285D01*
X29660714Y-63484523D01*
X29755952Y-63579761D01*
X29898809Y-63627380D01*
X30136904Y-63627380D01*
X27585714Y-56279761D02*
X27442857Y-56327380D01*
X27204761Y-56327380D01*
X27109523Y-56279761D01*
X27061904Y-56232142D01*
X27014285Y-56136904D01*
X27014285Y-56041666D01*
X27061904Y-55946428D01*
X27109523Y-55898809D01*
X27204761Y-55851190D01*
X27395238Y-55803571D01*
X27490476Y-55755952D01*
X27538095Y-55708333D01*
X27585714Y-55613095D01*
X27585714Y-55517857D01*
X27538095Y-55422619D01*
X27490476Y-55375000D01*
X27395238Y-55327380D01*
X27157142Y-55327380D01*
X27014285Y-55375000D01*
X28338095Y-55400000D02*
X28433333Y-55352380D01*
X28576190Y-55352380D01*
X28719047Y-55400000D01*
X28814285Y-55495238D01*
X28861904Y-55590476D01*
X28909523Y-55780952D01*
X28909523Y-55923809D01*
X28861904Y-56114285D01*
X28814285Y-56209523D01*
X28719047Y-56304761D01*
X28576190Y-56352380D01*
X28480952Y-56352380D01*
X28338095Y-56304761D01*
X28290476Y-56257142D01*
X28290476Y-55923809D01*
X28480952Y-55923809D01*
X30036904Y-56327380D02*
X30036904Y-55327380D01*
X29798809Y-55327380D01*
X29655952Y-55375000D01*
X29560714Y-55470238D01*
X29513095Y-55565476D01*
X29465476Y-55755952D01*
X29465476Y-55898809D01*
X29513095Y-56089285D01*
X29560714Y-56184523D01*
X29655952Y-56279761D01*
X29798809Y-56327380D01*
X30036904Y-56327380D01*
D11*
X45900000Y-58800000D02*
X47400000Y-58800000D01*
X45900000Y-56300000D02*
X47400000Y-56300000D01*
X46650000Y-57050000D02*
X46650000Y-55550000D01*
X45700000Y-38700000D02*
X47200000Y-38700000D01*
X45700000Y-36200000D02*
X47200000Y-36200000D01*
X46450000Y-36950000D02*
X46450000Y-35450000D01*
D10*
X20038095Y-42900000D02*
X20133333Y-42852380D01*
X20276190Y-42852380D01*
X20419047Y-42900000D01*
X20514285Y-42995238D01*
X20561904Y-43090476D01*
X20609523Y-43280952D01*
X20609523Y-43423809D01*
X20561904Y-43614285D01*
X20514285Y-43709523D01*
X20419047Y-43804761D01*
X20276190Y-43852380D01*
X20180952Y-43852380D01*
X20038095Y-43804761D01*
X19990476Y-43757142D01*
X19990476Y-43423809D01*
X20180952Y-43423809D01*
X29720238Y-69636904D02*
X29720238Y-70208333D01*
X29758333Y-70322619D01*
X29834523Y-70398809D01*
X29948809Y-70436904D01*
X30025000Y-70436904D01*
X28958333Y-70436904D02*
X29339285Y-70436904D01*
X29339285Y-69636904D01*
X28234523Y-70360714D02*
X28272619Y-70398809D01*
X28386904Y-70436904D01*
X28463095Y-70436904D01*
X28577380Y-70398809D01*
X28653571Y-70322619D01*
X28691666Y-70246428D01*
X28729761Y-70094047D01*
X28729761Y-69979761D01*
X28691666Y-69827380D01*
X28653571Y-69751190D01*
X28577380Y-69675000D01*
X28463095Y-69636904D01*
X28386904Y-69636904D01*
X28272619Y-69675000D01*
X28234523Y-69713095D01*
X27663095Y-69636904D02*
X27663095Y-70208333D01*
X27701190Y-70322619D01*
X27777380Y-70398809D01*
X27891666Y-70436904D01*
X27967857Y-70436904D01*
X26901190Y-70436904D02*
X27282142Y-70436904D01*
X27282142Y-69636904D01*
X26177380Y-70360714D02*
X26215476Y-70398809D01*
X26329761Y-70436904D01*
X26405952Y-70436904D01*
X26520238Y-70398809D01*
X26596428Y-70322619D01*
X26634523Y-70246428D01*
X26672619Y-70094047D01*
X26672619Y-69979761D01*
X26634523Y-69827380D01*
X26596428Y-69751190D01*
X26520238Y-69675000D01*
X26405952Y-69636904D01*
X26329761Y-69636904D01*
X26215476Y-69675000D01*
X26177380Y-69713095D01*
X25605952Y-69636904D02*
X25605952Y-70208333D01*
X25644047Y-70322619D01*
X25720238Y-70398809D01*
X25834523Y-70436904D01*
X25910714Y-70436904D01*
X24844047Y-70436904D02*
X25225000Y-70436904D01*
X25225000Y-69636904D01*
X24120238Y-70360714D02*
X24158333Y-70398809D01*
X24272619Y-70436904D01*
X24348809Y-70436904D01*
X24463095Y-70398809D01*
X24539285Y-70322619D01*
X24577380Y-70246428D01*
X24615476Y-70094047D01*
X24615476Y-69979761D01*
X24577380Y-69827380D01*
X24539285Y-69751190D01*
X24463095Y-69675000D01*
X24348809Y-69636904D01*
X24272619Y-69636904D01*
X24158333Y-69675000D01*
X24120238Y-69713095D01*
X23548809Y-69636904D02*
X23548809Y-70208333D01*
X23586904Y-70322619D01*
X23663095Y-70398809D01*
X23777380Y-70436904D01*
X23853571Y-70436904D01*
X22786904Y-70436904D02*
X23167857Y-70436904D01*
X23167857Y-69636904D01*
X22063095Y-70360714D02*
X22101190Y-70398809D01*
X22215476Y-70436904D01*
X22291666Y-70436904D01*
X22405952Y-70398809D01*
X22482142Y-70322619D01*
X22520238Y-70246428D01*
X22558333Y-70094047D01*
X22558333Y-69979761D01*
X22520238Y-69827380D01*
X22482142Y-69751190D01*
X22405952Y-69675000D01*
X22291666Y-69636904D01*
X22215476Y-69636904D01*
X22101190Y-69675000D01*
X22063095Y-69713095D01*
X27685714Y-45879761D02*
X27542857Y-45927380D01*
X27304761Y-45927380D01*
X27209523Y-45879761D01*
X27161904Y-45832142D01*
X27114285Y-45736904D01*
X27114285Y-45641666D01*
X27161904Y-45546428D01*
X27209523Y-45498809D01*
X27304761Y-45451190D01*
X27495238Y-45403571D01*
X27590476Y-45355952D01*
X27638095Y-45308333D01*
X27685714Y-45213095D01*
X27685714Y-45117857D01*
X27638095Y-45022619D01*
X27590476Y-44975000D01*
X27495238Y-44927380D01*
X27257142Y-44927380D01*
X27114285Y-44975000D01*
D11*
X45700000Y-46000000D02*
X47200000Y-46000000D01*
X46450000Y-46750000D02*
X46450000Y-45250000D01*
X45700000Y-48500000D02*
X47200000Y-48500000D01*
D10*
X28438095Y-45000000D02*
X28533333Y-44952380D01*
X28676190Y-44952380D01*
X28819047Y-45000000D01*
X28914285Y-45095238D01*
X28961904Y-45190476D01*
X29009523Y-45380952D01*
X29009523Y-45523809D01*
X28961904Y-45714285D01*
X28914285Y-45809523D01*
X28819047Y-45904761D01*
X28676190Y-45952380D01*
X28580952Y-45952380D01*
X28438095Y-45904761D01*
X28390476Y-45857142D01*
X28390476Y-45523809D01*
X28580952Y-45523809D01*
X30136904Y-45927380D02*
X30136904Y-44927380D01*
X29898809Y-44927380D01*
X29755952Y-44975000D01*
X29660714Y-45070238D01*
X29613095Y-45165476D01*
X29565476Y-45355952D01*
X29565476Y-45498809D01*
X29613095Y-45689285D01*
X29660714Y-45784523D01*
X29755952Y-45879761D01*
X29898809Y-45927380D01*
X30136904Y-45927380D01*
D11*
X10550000Y-1250000D02*
X10050000Y-1250000D01*
X5800000Y-1250000D02*
X5300000Y-1250000D01*
X5550000Y-1500000D02*
X5550000Y-1000000D01*
X8700000Y-1750000D02*
X10300000Y-1750000D01*
X7240984Y-1750000D02*
X5800000Y-1750000D01*
X8359017Y-1750000D02*
G75*
G03X8359017Y-1750000I-559017J0D01*
G01*
X7300001Y-1000002D02*
G75*
G02X7300001Y-2499999I499999J-749998D01*
G01*
D10*
X17433333Y-4252380D02*
X17100000Y-5252380D01*
X16766666Y-4252380D01*
X15861904Y-5157142D02*
X15909523Y-5204761D01*
X16052380Y-5252380D01*
X16147619Y-5252380D01*
X16290476Y-5204761D01*
X16385714Y-5109523D01*
X16433333Y-5014285D01*
X16480952Y-4823809D01*
X16480952Y-4680952D01*
X16433333Y-4490476D01*
X16385714Y-4395238D01*
X16290476Y-4300000D01*
X16147619Y-4252380D01*
X16052380Y-4252380D01*
X15909523Y-4300000D01*
X15861904Y-4347619D01*
X14861904Y-5157142D02*
X14909523Y-5204761D01*
X15052380Y-5252380D01*
X15147619Y-5252380D01*
X15290476Y-5204761D01*
X15385714Y-5109523D01*
X15433333Y-5014285D01*
X15480952Y-4823809D01*
X15480952Y-4680952D01*
X15433333Y-4490476D01*
X15385714Y-4395238D01*
X15290476Y-4300000D01*
X15147619Y-4252380D01*
X15052380Y-4252380D01*
X14909523Y-4300000D01*
X14861904Y-4347619D01*
X16511904Y-12250000D02*
X16607142Y-12202380D01*
X16750000Y-12202380D01*
X16892857Y-12250000D01*
X16988095Y-12345238D01*
X17035714Y-12440476D01*
X17083333Y-12630952D01*
X17083333Y-12773809D01*
X17035714Y-12964285D01*
X16988095Y-13059523D01*
X16892857Y-13154761D01*
X16750000Y-13202380D01*
X16654761Y-13202380D01*
X16511904Y-13154761D01*
X16464285Y-13107142D01*
X16464285Y-12773809D01*
X16654761Y-12773809D01*
X16035714Y-13202380D02*
X16035714Y-12202380D01*
X15464285Y-13202380D01*
X15464285Y-12202380D01*
X14988095Y-13202380D02*
X14988095Y-12202380D01*
X14750000Y-12202380D01*
X14607142Y-12250000D01*
X14511904Y-12345238D01*
X14464285Y-12440476D01*
X14416666Y-12630952D01*
X14416666Y-12773809D01*
X14464285Y-12964285D01*
X14511904Y-13059523D01*
X14607142Y-13154761D01*
X14750000Y-13202380D01*
X14988095Y-13202380D01*
M02*
