M48
; DRILL file {KiCad (5.1.5)-3} date 01/24/23 14:10:28
; FORMAT={-:-/ absolute / metric / decimal}
; #@! TF.CreationDate,2023-01-24T14:10:28+01:00
; #@! TF.GenerationSoftware,Kicad,Pcbnew,(5.1.5)-3
; #@! TF.FileFunction,Plated,1,2,PTH
FMAT,2
METRIC
T1C0.750
T2C0.800
T3C0.900
T4C1.000
T5C1.100
T6C3.000
%
G90
G05
T1
X27.36Y-57.95
X28.63Y-57.95
X29.9Y-57.95
X27.36Y-48.15
X28.63Y-48.15
X29.9Y-48.15
X27.36Y-65.1
X28.63Y-65.1
X29.9Y-65.1
T2
X20.85Y-28.9
X20.85Y-33.9
X9.1Y-44.2
X9.1Y-51.82
X20.85Y-16.2
X20.85Y-23.82
X5.3Y-44.2
X5.3Y-51.82
X16.5Y-49.3
X24.12Y-49.3
X8.35Y-26.4
X8.35Y-28.94
X8.35Y-31.48
X8.35Y-34.02
X15.97Y-26.4
X15.97Y-28.94
X15.97Y-31.48
X15.97Y-34.02
X3.5Y-39.3
X11.12Y-39.3
X4.7Y-17.1
X7.2Y-17.1
X16.5Y-66.2
X24.12Y-66.2
X3.35Y-28.9
X3.35Y-33.9
X16.5Y-59.2
X24.12Y-59.2
T3
X30.54Y-24.82
X28.0Y-34.98
X28.0Y-32.44
X38.16Y-7.04
X33.08Y-27.36
X43.24Y-34.98
X28.0Y-9.58
X38.16Y-40.06
X28.0Y-17.2
X30.54Y-22.28
X40.7Y-19.74
X33.08Y-19.74
X38.16Y-34.98
X43.24Y-7.04
X33.08Y-40.06
X35.62Y-17.2
X30.54Y-27.36
X40.7Y-27.36
X35.62Y-27.36
X35.62Y-29.9
X35.62Y-34.98
X40.7Y-4.5
X28.0Y-37.52
X30.54Y-9.58
X38.16Y-22.28
X30.54Y-14.66
X28.0Y-22.28
X38.16Y-14.66
X40.7Y-12.12
X35.62Y-24.82
X43.24Y-27.36
X33.08Y-32.44
X30.54Y-32.44
X43.24Y-4.5
X30.54Y-37.52
X35.62Y-9.58
X30.54Y-12.12
X43.24Y-22.28
X33.08Y-22.28
X33.08Y-9.58
X35.62Y-40.06
X40.7Y-14.66
X38.16Y-24.82
X28.0Y-29.9
X35.62Y-32.44
X35.62Y-7.04
X38.16Y-32.44
X28.0Y-7.04
X35.62Y-37.52
X38.16Y-9.58
X40.7Y-40.06
X33.08Y-14.66
X38.16Y-12.12
X35.62Y-22.28
X33.08Y-17.2
X30.54Y-17.2
X40.7Y-24.82
X30.54Y-29.9
X38.16Y-27.36
X30.54Y-4.5
X38.16Y-29.9
X28.0Y-4.5
X40.7Y-32.44
X33.08Y-7.04
X43.24Y-37.52
X43.24Y-12.12
X33.08Y-12.12
X43.24Y-14.66
X38.16Y-37.52
X40.7Y-22.28
X38.16Y-19.74
X20.2Y-10.5
X22.74Y-10.5
X43.24Y-40.06
X43.24Y-9.58
X28.0Y-24.82
X43.24Y-24.82
X33.08Y-29.9
X33.08Y-4.5
X40.7Y-29.9
X35.62Y-4.5
X43.24Y-32.44
X30.54Y-7.04
X28.0Y-40.06
X28.0Y-12.12
X35.62Y-12.12
X43.24Y-17.2
X30.54Y-19.74
X40.7Y-34.98
X40.7Y-9.58
X38.16Y-17.2
X33.08Y-24.82
X28.0Y-27.36
X43.24Y-29.9
X30.54Y-34.98
X38.16Y-4.5
X33.08Y-34.98
X40.7Y-7.04
X30.54Y-40.06
X28.0Y-14.66
X40.7Y-17.2
X28.0Y-19.74
X40.7Y-37.52
X35.62Y-14.66
X33.08Y-37.52
X43.24Y-19.74
X35.62Y-19.74
T4
X19.71Y-4.75
X22.25Y-4.75
X20.3Y-55.6
X20.3Y-62.9
X6.89Y-65.3
X9.43Y-65.3
X11.97Y-65.3
X48.9Y-46.025
X48.9Y-48.565
X48.9Y-51.105
X5.3Y-55.6
X5.3Y-60.6
X10.3Y-58.1
X48.9Y-56.15
X48.9Y-58.69
X48.9Y-61.23
X20.3Y-45.6
X48.825Y-36.05
X48.825Y-38.59
X48.825Y-41.13
T5
X33.8Y-57.775
X43.96Y-57.775
X33.8Y-48.125
X43.96Y-48.125
X33.8Y-65.625
X43.96Y-65.625
T6
X7.3Y-7.75
X12.0Y-4.75
X12.0Y-10.75
T0
M30
