G04 #@! TF.GenerationSoftware,KiCad,Pcbnew,(5.1.5)-3*
G04 #@! TF.CreationDate,2023-01-24T14:10:26+01:00*
G04 #@! TF.ProjectId,pump controller schematics,70756d70-2063-46f6-9e74-726f6c6c6572,rev?*
G04 #@! TF.SameCoordinates,Original*
G04 #@! TF.FileFunction,Legend,Top*
G04 #@! TF.FilePolarity,Positive*
%FSLAX46Y46*%
G04 Gerber Fmt 4.6, Leading zero omitted, Abs format (unit mm)*
G04 Created by KiCad (PCBNEW (5.1.5)-3) date 2023-01-24 14:10:26*
%MOMM*%
%LPD*%
G04 APERTURE LIST*
%ADD10C,0.100000*%
%ADD11C,0.150000*%
%ADD12C,0.120000*%
G04 APERTURE END LIST*
D10*
X1178571Y-62476190D02*
X1178571Y-62171428D01*
X911904Y-62361904D02*
X1597619Y-62361904D01*
X1673809Y-62323809D01*
X1711904Y-62247619D01*
X1711904Y-62171428D01*
X1711904Y-61904761D02*
X1178571Y-61904761D01*
X1330952Y-61904761D02*
X1254761Y-61866666D01*
X1216666Y-61828571D01*
X1178571Y-61752380D01*
X1178571Y-61676190D01*
X1711904Y-61409523D02*
X1178571Y-61409523D01*
X911904Y-61409523D02*
X950000Y-61447619D01*
X988095Y-61409523D01*
X950000Y-61371428D01*
X911904Y-61409523D01*
X988095Y-61409523D01*
X1711904Y-61028571D02*
X1178571Y-61028571D01*
X1254761Y-61028571D02*
X1216666Y-60990476D01*
X1178571Y-60914285D01*
X1178571Y-60800000D01*
X1216666Y-60723809D01*
X1292857Y-60685714D01*
X1711904Y-60685714D01*
X1292857Y-60685714D02*
X1216666Y-60647619D01*
X1178571Y-60571428D01*
X1178571Y-60457142D01*
X1216666Y-60380952D01*
X1292857Y-60342857D01*
X1711904Y-60342857D01*
X1178571Y-59961904D02*
X1978571Y-59961904D01*
X1216666Y-59961904D02*
X1178571Y-59885714D01*
X1178571Y-59733333D01*
X1216666Y-59657142D01*
X1254761Y-59619047D01*
X1330952Y-59580952D01*
X1559523Y-59580952D01*
X1635714Y-59619047D01*
X1673809Y-59657142D01*
X1711904Y-59733333D01*
X1711904Y-59885714D01*
X1673809Y-59961904D01*
X1711904Y-59123809D02*
X1673809Y-59200000D01*
X1635714Y-59238095D01*
X1559523Y-59276190D01*
X1330952Y-59276190D01*
X1254761Y-59238095D01*
X1216666Y-59200000D01*
X1178571Y-59123809D01*
X1178571Y-59009523D01*
X1216666Y-58933333D01*
X1254761Y-58895238D01*
X1330952Y-58857142D01*
X1559523Y-58857142D01*
X1635714Y-58895238D01*
X1673809Y-58933333D01*
X1711904Y-59009523D01*
X1711904Y-59123809D01*
X1178571Y-58628571D02*
X1178571Y-58323809D01*
X911904Y-58514285D02*
X1597619Y-58514285D01*
X1673809Y-58476190D01*
X1711904Y-58400000D01*
X1711904Y-58323809D01*
X3011904Y-62247619D02*
X2211904Y-62247619D01*
X2516666Y-62247619D02*
X2478571Y-62171428D01*
X2478571Y-62019047D01*
X2516666Y-61942857D01*
X2554761Y-61904761D01*
X2630952Y-61866666D01*
X2859523Y-61866666D01*
X2935714Y-61904761D01*
X2973809Y-61942857D01*
X3011904Y-62019047D01*
X3011904Y-62171428D01*
X2973809Y-62247619D01*
X2478571Y-61600000D02*
X3011904Y-61409523D01*
X2478571Y-61219047D02*
X3011904Y-61409523D01*
X3202380Y-61485714D01*
X3240476Y-61523809D01*
X3278571Y-61600000D01*
X2478571Y-60914285D02*
X3278571Y-60914285D01*
X2516666Y-60914285D02*
X2478571Y-60838095D01*
X2478571Y-60685714D01*
X2516666Y-60609523D01*
X2554761Y-60571428D01*
X2630952Y-60533333D01*
X2859523Y-60533333D01*
X2935714Y-60571428D01*
X2973809Y-60609523D01*
X3011904Y-60685714D01*
X3011904Y-60838095D01*
X2973809Y-60914285D01*
X3011904Y-59847619D02*
X2592857Y-59847619D01*
X2516666Y-59885714D01*
X2478571Y-59961904D01*
X2478571Y-60114285D01*
X2516666Y-60190476D01*
X2973809Y-59847619D02*
X3011904Y-59923809D01*
X3011904Y-60114285D01*
X2973809Y-60190476D01*
X2897619Y-60228571D01*
X2821428Y-60228571D01*
X2745238Y-60190476D01*
X2707142Y-60114285D01*
X2707142Y-59923809D01*
X2669047Y-59847619D01*
X2973809Y-59504761D02*
X3011904Y-59428571D01*
X3011904Y-59276190D01*
X2973809Y-59200000D01*
X2897619Y-59161904D01*
X2859523Y-59161904D01*
X2783333Y-59200000D01*
X2745238Y-59276190D01*
X2745238Y-59390476D01*
X2707142Y-59466666D01*
X2630952Y-59504761D01*
X2592857Y-59504761D01*
X2516666Y-59466666D01*
X2478571Y-59390476D01*
X2478571Y-59276190D01*
X2516666Y-59200000D01*
X2973809Y-58857142D02*
X3011904Y-58780952D01*
X3011904Y-58628571D01*
X2973809Y-58552380D01*
X2897619Y-58514285D01*
X2859523Y-58514285D01*
X2783333Y-58552380D01*
X2745238Y-58628571D01*
X2745238Y-58742857D01*
X2707142Y-58819047D01*
X2630952Y-58857142D01*
X2592857Y-58857142D01*
X2516666Y-58819047D01*
X2478571Y-58742857D01*
X2478571Y-58628571D01*
X2516666Y-58552380D01*
X14704761Y-39923809D02*
X14780952Y-39961904D01*
X14933333Y-39961904D01*
X15009523Y-39923809D01*
X15047619Y-39847619D01*
X15047619Y-39809523D01*
X15009523Y-39733333D01*
X14933333Y-39695238D01*
X14819047Y-39695238D01*
X14742857Y-39657142D01*
X14704761Y-39580952D01*
X14704761Y-39542857D01*
X14742857Y-39466666D01*
X14819047Y-39428571D01*
X14933333Y-39428571D01*
X15009523Y-39466666D01*
X15504761Y-39961904D02*
X15428571Y-39923809D01*
X15390476Y-39885714D01*
X15352380Y-39809523D01*
X15352380Y-39580952D01*
X15390476Y-39504761D01*
X15428571Y-39466666D01*
X15504761Y-39428571D01*
X15619047Y-39428571D01*
X15695238Y-39466666D01*
X15733333Y-39504761D01*
X15771428Y-39580952D01*
X15771428Y-39809523D01*
X15733333Y-39885714D01*
X15695238Y-39923809D01*
X15619047Y-39961904D01*
X15504761Y-39961904D01*
X16228571Y-39961904D02*
X16152380Y-39923809D01*
X16114285Y-39847619D01*
X16114285Y-39161904D01*
X16876190Y-39961904D02*
X16876190Y-39161904D01*
X16876190Y-39923809D02*
X16800000Y-39961904D01*
X16647619Y-39961904D01*
X16571428Y-39923809D01*
X16533333Y-39885714D01*
X16495238Y-39809523D01*
X16495238Y-39580952D01*
X16533333Y-39504761D01*
X16571428Y-39466666D01*
X16647619Y-39428571D01*
X16800000Y-39428571D01*
X16876190Y-39466666D01*
X17561904Y-39923809D02*
X17485714Y-39961904D01*
X17333333Y-39961904D01*
X17257142Y-39923809D01*
X17219047Y-39847619D01*
X17219047Y-39542857D01*
X17257142Y-39466666D01*
X17333333Y-39428571D01*
X17485714Y-39428571D01*
X17561904Y-39466666D01*
X17600000Y-39542857D01*
X17600000Y-39619047D01*
X17219047Y-39695238D01*
X17942857Y-39961904D02*
X17942857Y-39428571D01*
X17942857Y-39580952D02*
X17980952Y-39504761D01*
X18019047Y-39466666D01*
X18095238Y-39428571D01*
X18171428Y-39428571D01*
X13885714Y-40728571D02*
X14190476Y-40728571D01*
X14000000Y-41261904D02*
X14000000Y-40576190D01*
X14038095Y-40500000D01*
X14114285Y-40461904D01*
X14190476Y-40461904D01*
X14571428Y-41261904D02*
X14495238Y-41223809D01*
X14457142Y-41185714D01*
X14419047Y-41109523D01*
X14419047Y-40880952D01*
X14457142Y-40804761D01*
X14495238Y-40766666D01*
X14571428Y-40728571D01*
X14685714Y-40728571D01*
X14761904Y-40766666D01*
X14800000Y-40804761D01*
X14838095Y-40880952D01*
X14838095Y-41109523D01*
X14800000Y-41185714D01*
X14761904Y-41223809D01*
X14685714Y-41261904D01*
X14571428Y-41261904D01*
X15180952Y-41261904D02*
X15180952Y-40728571D01*
X15180952Y-40880952D02*
X15219047Y-40804761D01*
X15257142Y-40766666D01*
X15333333Y-40728571D01*
X15409523Y-40728571D01*
X16666666Y-40461904D02*
X16285714Y-40461904D01*
X16247619Y-40842857D01*
X16285714Y-40804761D01*
X16361904Y-40766666D01*
X16552380Y-40766666D01*
X16628571Y-40804761D01*
X16666666Y-40842857D01*
X16704761Y-40919047D01*
X16704761Y-41109523D01*
X16666666Y-41185714D01*
X16628571Y-41223809D01*
X16552380Y-41261904D01*
X16361904Y-41261904D01*
X16285714Y-41223809D01*
X16247619Y-41185714D01*
X17428571Y-40461904D02*
X17047619Y-40461904D01*
X17009523Y-40842857D01*
X17047619Y-40804761D01*
X17123809Y-40766666D01*
X17314285Y-40766666D01*
X17390476Y-40804761D01*
X17428571Y-40842857D01*
X17466666Y-40919047D01*
X17466666Y-41109523D01*
X17428571Y-41185714D01*
X17390476Y-41223809D01*
X17314285Y-41261904D01*
X17123809Y-41261904D01*
X17047619Y-41223809D01*
X17009523Y-41185714D01*
X18190476Y-40461904D02*
X17809523Y-40461904D01*
X17771428Y-40842857D01*
X17809523Y-40804761D01*
X17885714Y-40766666D01*
X18076190Y-40766666D01*
X18152380Y-40804761D01*
X18190476Y-40842857D01*
X18228571Y-40919047D01*
X18228571Y-41109523D01*
X18190476Y-41185714D01*
X18152380Y-41223809D01*
X18076190Y-41261904D01*
X17885714Y-41261904D01*
X17809523Y-41223809D01*
X17771428Y-41185714D01*
X14819047Y-42523809D02*
X14742857Y-42561904D01*
X14590476Y-42561904D01*
X14514285Y-42523809D01*
X14476190Y-42485714D01*
X14438095Y-42409523D01*
X14438095Y-42180952D01*
X14476190Y-42104761D01*
X14514285Y-42066666D01*
X14590476Y-42028571D01*
X14742857Y-42028571D01*
X14819047Y-42066666D01*
X15276190Y-42561904D02*
X15200000Y-42523809D01*
X15161904Y-42485714D01*
X15123809Y-42409523D01*
X15123809Y-42180952D01*
X15161904Y-42104761D01*
X15200000Y-42066666D01*
X15276190Y-42028571D01*
X15390476Y-42028571D01*
X15466666Y-42066666D01*
X15504761Y-42104761D01*
X15542857Y-42180952D01*
X15542857Y-42409523D01*
X15504761Y-42485714D01*
X15466666Y-42523809D01*
X15390476Y-42561904D01*
X15276190Y-42561904D01*
X15885714Y-42028571D02*
X15885714Y-42561904D01*
X15885714Y-42104761D02*
X15923809Y-42066666D01*
X16000000Y-42028571D01*
X16114285Y-42028571D01*
X16190476Y-42066666D01*
X16228571Y-42142857D01*
X16228571Y-42561904D01*
X16495238Y-42028571D02*
X16800000Y-42028571D01*
X16609523Y-41761904D02*
X16609523Y-42447619D01*
X16647619Y-42523809D01*
X16723809Y-42561904D01*
X16800000Y-42561904D01*
X17066666Y-42561904D02*
X17066666Y-42028571D01*
X17066666Y-42180952D02*
X17104761Y-42104761D01*
X17142857Y-42066666D01*
X17219047Y-42028571D01*
X17295238Y-42028571D01*
X17676190Y-42561904D02*
X17600000Y-42523809D01*
X17561904Y-42485714D01*
X17523809Y-42409523D01*
X17523809Y-42180952D01*
X17561904Y-42104761D01*
X17600000Y-42066666D01*
X17676190Y-42028571D01*
X17790476Y-42028571D01*
X17866666Y-42066666D01*
X17904761Y-42104761D01*
X17942857Y-42180952D01*
X17942857Y-42409523D01*
X17904761Y-42485714D01*
X17866666Y-42523809D01*
X17790476Y-42561904D01*
X17676190Y-42561904D01*
X18400000Y-42561904D02*
X18323809Y-42523809D01*
X18285714Y-42447619D01*
X18285714Y-41761904D01*
D11*
X20461904Y-42900000D02*
X20366666Y-42852380D01*
X20223809Y-42852380D01*
X20080952Y-42900000D01*
X19985714Y-42995238D01*
X19938095Y-43090476D01*
X19890476Y-43280952D01*
X19890476Y-43423809D01*
X19938095Y-43614285D01*
X19985714Y-43709523D01*
X20080952Y-43804761D01*
X20223809Y-43852380D01*
X20319047Y-43852380D01*
X20461904Y-43804761D01*
X20509523Y-43757142D01*
X20509523Y-43423809D01*
X20319047Y-43423809D01*
D12*
X45900000Y-58800000D02*
X47400000Y-58800000D01*
X46650000Y-55550000D02*
X46650000Y-57050000D01*
X45900000Y-56300000D02*
X47400000Y-56300000D01*
X45700000Y-38700000D02*
X47200000Y-38700000D01*
X46450000Y-35450000D02*
X46450000Y-36950000D01*
X45700000Y-36200000D02*
X47200000Y-36200000D01*
X14300000Y-68600000D02*
X14300000Y-53775000D01*
X45500000Y-68600000D02*
X14300000Y-68600000D01*
X45500000Y-53775000D02*
X45500000Y-68600000D01*
X14300000Y-53775000D02*
X45500000Y-53775000D01*
D11*
X11614285Y-67704761D02*
X11519047Y-67752380D01*
X11328571Y-67752380D01*
X11233333Y-67704761D01*
X11185714Y-67657142D01*
X11138095Y-67561904D01*
X11138095Y-67276190D01*
X11185714Y-67180952D01*
X11233333Y-67133333D01*
X11328571Y-67085714D01*
X11519047Y-67085714D01*
X11614285Y-67133333D01*
X11947619Y-67085714D02*
X12138095Y-67752380D01*
X12328571Y-67276190D01*
X12519047Y-67752380D01*
X12709523Y-67085714D01*
X5785714Y-67704761D02*
X5690476Y-67752380D01*
X5500000Y-67752380D01*
X5404761Y-67704761D01*
X5357142Y-67657142D01*
X5309523Y-67561904D01*
X5309523Y-67276190D01*
X5357142Y-67180952D01*
X5404761Y-67133333D01*
X5500000Y-67085714D01*
X5690476Y-67085714D01*
X5785714Y-67133333D01*
X6642857Y-67704761D02*
X6547619Y-67752380D01*
X6357142Y-67752380D01*
X6261904Y-67704761D01*
X6214285Y-67657142D01*
X6166666Y-67561904D01*
X6166666Y-67276190D01*
X6214285Y-67180952D01*
X6261904Y-67133333D01*
X6357142Y-67085714D01*
X6547619Y-67085714D01*
X6642857Y-67133333D01*
X6976190Y-67085714D02*
X7166666Y-67752380D01*
X7357142Y-67276190D01*
X7547619Y-67752380D01*
X7738095Y-67085714D01*
X27089285Y-45879761D02*
X27232142Y-45927380D01*
X27470238Y-45927380D01*
X27565476Y-45879761D01*
X27613095Y-45832142D01*
X27660714Y-45736904D01*
X27660714Y-45641666D01*
X27613095Y-45546428D01*
X27565476Y-45498809D01*
X27470238Y-45451190D01*
X27279761Y-45403571D01*
X27184523Y-45355952D01*
X27136904Y-45308333D01*
X27089285Y-45213095D01*
X27089285Y-45117857D01*
X27136904Y-45022619D01*
X27184523Y-44975000D01*
X27279761Y-44927380D01*
X27517857Y-44927380D01*
X27660714Y-44975000D01*
X16433333Y-70452380D02*
X16433333Y-69452380D01*
X16814285Y-69452380D01*
X16909523Y-69500000D01*
X16957142Y-69547619D01*
X17004761Y-69642857D01*
X17004761Y-69785714D01*
X16957142Y-69880952D01*
X16909523Y-69928571D01*
X16814285Y-69976190D01*
X16433333Y-69976190D01*
X18004761Y-70357142D02*
X17957142Y-70404761D01*
X17814285Y-70452380D01*
X17719047Y-70452380D01*
X17576190Y-70404761D01*
X17480952Y-70309523D01*
X17433333Y-70214285D01*
X17385714Y-70023809D01*
X17385714Y-69880952D01*
X17433333Y-69690476D01*
X17480952Y-69595238D01*
X17576190Y-69500000D01*
X17719047Y-69452380D01*
X17814285Y-69452380D01*
X17957142Y-69500000D01*
X18004761Y-69547619D01*
X18766666Y-69928571D02*
X18909523Y-69976190D01*
X18957142Y-70023809D01*
X19004761Y-70119047D01*
X19004761Y-70261904D01*
X18957142Y-70357142D01*
X18909523Y-70404761D01*
X18814285Y-70452380D01*
X18433333Y-70452380D01*
X18433333Y-69452380D01*
X18766666Y-69452380D01*
X18861904Y-69500000D01*
X18909523Y-69547619D01*
X18957142Y-69642857D01*
X18957142Y-69738095D01*
X18909523Y-69833333D01*
X18861904Y-69880952D01*
X18766666Y-69928571D01*
X18433333Y-69928571D01*
X20195238Y-70452380D02*
X20195238Y-69452380D01*
X20195238Y-69833333D02*
X20290476Y-69785714D01*
X20480952Y-69785714D01*
X20576190Y-69833333D01*
X20623809Y-69880952D01*
X20671428Y-69976190D01*
X20671428Y-70261904D01*
X20623809Y-70357142D01*
X20576190Y-70404761D01*
X20480952Y-70452380D01*
X20290476Y-70452380D01*
X20195238Y-70404761D01*
X21004761Y-69785714D02*
X21242857Y-70452380D01*
X21480952Y-69785714D02*
X21242857Y-70452380D01*
X21147619Y-70690476D01*
X21100000Y-70738095D01*
X21004761Y-70785714D01*
X23195238Y-70357142D02*
X23147619Y-70404761D01*
X23004761Y-70452380D01*
X22909523Y-70452380D01*
X22766666Y-70404761D01*
X22671428Y-70309523D01*
X22623809Y-70214285D01*
X22576190Y-70023809D01*
X22576190Y-69880952D01*
X22623809Y-69690476D01*
X22671428Y-69595238D01*
X22766666Y-69500000D01*
X22909523Y-69452380D01*
X23004761Y-69452380D01*
X23147619Y-69500000D01*
X23195238Y-69547619D01*
X23623809Y-70452380D02*
X23623809Y-69452380D01*
X23957142Y-70166666D01*
X24290476Y-69452380D01*
X24290476Y-70452380D01*
X25433333Y-69785714D02*
X25671428Y-70452380D01*
X25909523Y-69785714D01*
X26719047Y-70452380D02*
X26719047Y-69928571D01*
X26671428Y-69833333D01*
X26576190Y-69785714D01*
X26385714Y-69785714D01*
X26290476Y-69833333D01*
X26719047Y-70404761D02*
X26623809Y-70452380D01*
X26385714Y-70452380D01*
X26290476Y-70404761D01*
X26242857Y-70309523D01*
X26242857Y-70214285D01*
X26290476Y-70119047D01*
X26385714Y-70071428D01*
X26623809Y-70071428D01*
X26719047Y-70023809D01*
X27195238Y-69785714D02*
X27195238Y-70452380D01*
X27195238Y-69880952D02*
X27242857Y-69833333D01*
X27338095Y-69785714D01*
X27480952Y-69785714D01*
X27576190Y-69833333D01*
X27623809Y-69928571D01*
X27623809Y-70452380D01*
X29433333Y-70452380D02*
X29099999Y-69976190D01*
X28861904Y-70452380D02*
X28861904Y-69452380D01*
X29242857Y-69452380D01*
X29338095Y-69500000D01*
X29385714Y-69547619D01*
X29433333Y-69642857D01*
X29433333Y-69785714D01*
X29385714Y-69880952D01*
X29338095Y-69928571D01*
X29242857Y-69976190D01*
X28861904Y-69976190D01*
X29861904Y-70452380D02*
X29861904Y-69785714D01*
X29861904Y-69452380D02*
X29814285Y-69500000D01*
X29861904Y-69547619D01*
X29909523Y-69500000D01*
X29861904Y-69452380D01*
X29861904Y-69547619D01*
X30719047Y-70404761D02*
X30623809Y-70452380D01*
X30433333Y-70452380D01*
X30338095Y-70404761D01*
X30290476Y-70309523D01*
X30290476Y-69928571D01*
X30338095Y-69833333D01*
X30433333Y-69785714D01*
X30623809Y-69785714D01*
X30719047Y-69833333D01*
X30766666Y-69928571D01*
X30766666Y-70023809D01*
X30290476Y-70119047D01*
X31052380Y-69785714D02*
X31433333Y-69785714D01*
X31195238Y-69452380D02*
X31195238Y-70309523D01*
X31242857Y-70404761D01*
X31338095Y-70452380D01*
X31433333Y-70452380D01*
X32528571Y-70071428D02*
X33290476Y-70071428D01*
X34433333Y-69785714D02*
X34671428Y-70452380D01*
X34909523Y-69785714D01*
X35814285Y-70452380D02*
X35242857Y-70452380D01*
X35528571Y-70452380D02*
X35528571Y-69452380D01*
X35433333Y-69595238D01*
X35338095Y-69690476D01*
X35242857Y-69738095D01*
D12*
X3550000Y-5850000D02*
X3550000Y-6350000D01*
X3609017Y-8600000D02*
G75*
G03X3609017Y-8600000I-559017J0D01*
G01*
X3050000Y-9159016D02*
X3050000Y-10600000D01*
X3300000Y-10850000D02*
X3800000Y-10850000D01*
X3550000Y-10600000D02*
X3550000Y-11100000D01*
X3799998Y-9099999D02*
G75*
G03X2300001Y-9099999I-749998J499999D01*
G01*
X3050000Y-7700000D02*
X3050000Y-6100000D01*
D11*
X29663095Y-45927380D02*
X29663095Y-44927380D01*
X29901190Y-44927380D01*
X30044047Y-44975000D01*
X30139285Y-45070238D01*
X30186904Y-45165476D01*
X30234523Y-45355952D01*
X30234523Y-45498809D01*
X30186904Y-45689285D01*
X30139285Y-45784523D01*
X30044047Y-45879761D01*
X29901190Y-45927380D01*
X29663095Y-45927380D01*
X28861904Y-44975000D02*
X28766666Y-44927380D01*
X28623809Y-44927380D01*
X28480952Y-44975000D01*
X28385714Y-45070238D01*
X28338095Y-45165476D01*
X28290476Y-45355952D01*
X28290476Y-45498809D01*
X28338095Y-45689285D01*
X28385714Y-45784523D01*
X28480952Y-45879761D01*
X28623809Y-45927380D01*
X28719047Y-45927380D01*
X28861904Y-45879761D01*
X28909523Y-45832142D01*
X28909523Y-45498809D01*
X28719047Y-45498809D01*
X6385714Y-26852380D02*
X5814285Y-26852380D01*
X6100000Y-26852380D02*
X6100000Y-25852380D01*
X6004761Y-25995238D01*
X5909523Y-26090476D01*
X5814285Y-26138095D01*
D12*
X45700000Y-48500000D02*
X47200000Y-48500000D01*
X45700000Y-46000000D02*
X47200000Y-46000000D01*
X46450000Y-45250000D02*
X46450000Y-46750000D01*
D11*
X14988095Y-12250000D02*
X14892857Y-12202380D01*
X14750000Y-12202380D01*
X14607142Y-12250000D01*
X14511904Y-12345238D01*
X14464285Y-12440476D01*
X14416666Y-12630952D01*
X14416666Y-12773809D01*
X14464285Y-12964285D01*
X14511904Y-13059523D01*
X14607142Y-13154761D01*
X14750000Y-13202380D01*
X14845238Y-13202380D01*
X14988095Y-13154761D01*
X15035714Y-13107142D01*
X15035714Y-12773809D01*
X14845238Y-12773809D01*
X15464285Y-13202380D02*
X15464285Y-12202380D01*
X16035714Y-13202380D01*
X16035714Y-12202380D01*
X16511904Y-13202380D02*
X16511904Y-12202380D01*
X16750000Y-12202380D01*
X16892857Y-12250000D01*
X16988095Y-12345238D01*
X17035714Y-12440476D01*
X17083333Y-12630952D01*
X17083333Y-12773809D01*
X17035714Y-12964285D01*
X16988095Y-13059523D01*
X16892857Y-13154761D01*
X16750000Y-13202380D01*
X16511904Y-13202380D01*
D12*
X4100000Y-65650000D02*
X2100000Y-65650000D01*
X4100000Y-62850000D02*
X4100000Y-65650000D01*
X2100000Y-62850000D02*
X4100000Y-62850000D01*
X2100000Y-65650000D02*
X2100000Y-62850000D01*
X9717211Y-19650000D02*
X9717211Y-18900000D01*
X10092211Y-19275000D02*
X9342211Y-19275000D01*
X2109000Y-17541000D02*
X2109000Y-16659000D01*
X2149000Y-17793000D02*
X2149000Y-16407000D01*
X2189000Y-17977000D02*
X2189000Y-16223000D01*
X2229000Y-18128000D02*
X2229000Y-16072000D01*
X2269000Y-18258000D02*
X2269000Y-15942000D01*
X2309000Y-18375000D02*
X2309000Y-15825000D01*
X2349000Y-18481000D02*
X2349000Y-15719000D01*
X2389000Y-18578000D02*
X2389000Y-15622000D01*
X2429000Y-18669000D02*
X2429000Y-15531000D01*
X2469000Y-18754000D02*
X2469000Y-15446000D01*
X2509000Y-18833000D02*
X2509000Y-15367000D01*
X2549000Y-18909000D02*
X2549000Y-15291000D01*
X2589000Y-18981000D02*
X2589000Y-15219000D01*
X2629000Y-19049000D02*
X2629000Y-15151000D01*
X2669000Y-19114000D02*
X2669000Y-15086000D01*
X2709000Y-19177000D02*
X2709000Y-15023000D01*
X2749000Y-19237000D02*
X2749000Y-14963000D01*
X2789000Y-19295000D02*
X2789000Y-14905000D01*
X2829000Y-19350000D02*
X2829000Y-14850000D01*
X2869000Y-19404000D02*
X2869000Y-14796000D01*
X2909000Y-19455000D02*
X2909000Y-14745000D01*
X2949000Y-19505000D02*
X2949000Y-14695000D01*
X2989000Y-19554000D02*
X2989000Y-14646000D01*
X3029000Y-19600000D02*
X3029000Y-14600000D01*
X3069000Y-19646000D02*
X3069000Y-14554000D01*
X3109000Y-19689000D02*
X3109000Y-14511000D01*
X3149000Y-19732000D02*
X3149000Y-14468000D01*
X3189000Y-19773000D02*
X3189000Y-14427000D01*
X3229000Y-19813000D02*
X3229000Y-14387000D01*
X3269000Y-19852000D02*
X3269000Y-14348000D01*
X3309000Y-19890000D02*
X3309000Y-14310000D01*
X3349000Y-19927000D02*
X3349000Y-14273000D01*
X3389000Y-19963000D02*
X3389000Y-14237000D01*
X3429000Y-19998000D02*
X3429000Y-14202000D01*
X3469000Y-20031000D02*
X3469000Y-14169000D01*
X3509000Y-20064000D02*
X3509000Y-14136000D01*
X3549000Y-20096000D02*
X3549000Y-14104000D01*
X3589000Y-20128000D02*
X3589000Y-14072000D01*
X3629000Y-20158000D02*
X3629000Y-14042000D01*
X3669000Y-16060000D02*
X3669000Y-14012000D01*
X3669000Y-20188000D02*
X3669000Y-18140000D01*
X3709000Y-16060000D02*
X3709000Y-13984000D01*
X3709000Y-20216000D02*
X3709000Y-18140000D01*
X3749000Y-16060000D02*
X3749000Y-13956000D01*
X3749000Y-20244000D02*
X3749000Y-18140000D01*
X3789000Y-16060000D02*
X3789000Y-13928000D01*
X3789000Y-20272000D02*
X3789000Y-18140000D01*
X3829000Y-16060000D02*
X3829000Y-13902000D01*
X3829000Y-20298000D02*
X3829000Y-18140000D01*
X3869000Y-16060000D02*
X3869000Y-13876000D01*
X3869000Y-20324000D02*
X3869000Y-18140000D01*
X3909000Y-16060000D02*
X3909000Y-13851000D01*
X3909000Y-20349000D02*
X3909000Y-18140000D01*
X3949000Y-16060000D02*
X3949000Y-13826000D01*
X3949000Y-20374000D02*
X3949000Y-18140000D01*
X3989000Y-16060000D02*
X3989000Y-13803000D01*
X3989000Y-20397000D02*
X3989000Y-18140000D01*
X4029000Y-16060000D02*
X4029000Y-13779000D01*
X4029000Y-20421000D02*
X4029000Y-18140000D01*
X4069000Y-16060000D02*
X4069000Y-13757000D01*
X4069000Y-20443000D02*
X4069000Y-18140000D01*
X4109000Y-16060000D02*
X4109000Y-13735000D01*
X4109000Y-20465000D02*
X4109000Y-18140000D01*
X4149000Y-16060000D02*
X4149000Y-13714000D01*
X4149000Y-20486000D02*
X4149000Y-18140000D01*
X4189000Y-16060000D02*
X4189000Y-13693000D01*
X4189000Y-20507000D02*
X4189000Y-18140000D01*
X4229000Y-16060000D02*
X4229000Y-13673000D01*
X4229000Y-20527000D02*
X4229000Y-18140000D01*
X4269000Y-16060000D02*
X4269000Y-13653000D01*
X4269000Y-20547000D02*
X4269000Y-18140000D01*
X4309000Y-16060000D02*
X4309000Y-13634000D01*
X4309000Y-20566000D02*
X4309000Y-18140000D01*
X4349000Y-16060000D02*
X4349000Y-13616000D01*
X4349000Y-20584000D02*
X4349000Y-18140000D01*
X4389000Y-16060000D02*
X4389000Y-13598000D01*
X4389000Y-20602000D02*
X4389000Y-18140000D01*
X4429000Y-16060000D02*
X4429000Y-13580000D01*
X4429000Y-20620000D02*
X4429000Y-18140000D01*
X4469000Y-16060000D02*
X4469000Y-13564000D01*
X4469000Y-20636000D02*
X4469000Y-18140000D01*
X4509000Y-16060000D02*
X4509000Y-13547000D01*
X4509000Y-20653000D02*
X4509000Y-18140000D01*
X4549000Y-16060000D02*
X4549000Y-13532000D01*
X4549000Y-20668000D02*
X4549000Y-18140000D01*
X4589000Y-16060000D02*
X4589000Y-13516000D01*
X4589000Y-20684000D02*
X4589000Y-18140000D01*
X4629000Y-16060000D02*
X4629000Y-13502000D01*
X4629000Y-20698000D02*
X4629000Y-18140000D01*
X4669000Y-16060000D02*
X4669000Y-13487000D01*
X4669000Y-20713000D02*
X4669000Y-18140000D01*
X4709000Y-16060000D02*
X4709000Y-13474000D01*
X4709000Y-20726000D02*
X4709000Y-18140000D01*
X4749000Y-16060000D02*
X4749000Y-13460000D01*
X4749000Y-20740000D02*
X4749000Y-18140000D01*
X4789000Y-16060000D02*
X4789000Y-13447000D01*
X4789000Y-20753000D02*
X4789000Y-18140000D01*
X4829000Y-16060000D02*
X4829000Y-13435000D01*
X4829000Y-20765000D02*
X4829000Y-18140000D01*
X4869000Y-16060000D02*
X4869000Y-13423000D01*
X4869000Y-20777000D02*
X4869000Y-18140000D01*
X4909000Y-16060000D02*
X4909000Y-13412000D01*
X4909000Y-20788000D02*
X4909000Y-18140000D01*
X4949000Y-16060000D02*
X4949000Y-13401000D01*
X4949000Y-20799000D02*
X4949000Y-18140000D01*
X4989000Y-16060000D02*
X4989000Y-13390000D01*
X4989000Y-20810000D02*
X4989000Y-18140000D01*
X5029000Y-16060000D02*
X5029000Y-13380000D01*
X5029000Y-20820000D02*
X5029000Y-18140000D01*
X5069000Y-16060000D02*
X5069000Y-13371000D01*
X5069000Y-20829000D02*
X5069000Y-18140000D01*
X5109000Y-16060000D02*
X5109000Y-13362000D01*
X5109000Y-20838000D02*
X5109000Y-18140000D01*
X5149000Y-16060000D02*
X5149000Y-13353000D01*
X5149000Y-20847000D02*
X5149000Y-18140000D01*
X5189000Y-16060000D02*
X5189000Y-13345000D01*
X5189000Y-20855000D02*
X5189000Y-18140000D01*
X5229000Y-16060000D02*
X5229000Y-13337000D01*
X5229000Y-20863000D02*
X5229000Y-18140000D01*
X5270000Y-16060000D02*
X5270000Y-13330000D01*
X5270000Y-20870000D02*
X5270000Y-18140000D01*
X5310000Y-16060000D02*
X5310000Y-13323000D01*
X5310000Y-20877000D02*
X5310000Y-18140000D01*
X5350000Y-16060000D02*
X5350000Y-13316000D01*
X5350000Y-20884000D02*
X5350000Y-18140000D01*
X5390000Y-16060000D02*
X5390000Y-13310000D01*
X5390000Y-20890000D02*
X5390000Y-18140000D01*
X5430000Y-16060000D02*
X5430000Y-13305000D01*
X5430000Y-20895000D02*
X5430000Y-18140000D01*
X5470000Y-16060000D02*
X5470000Y-13299000D01*
X5470000Y-20901000D02*
X5470000Y-18140000D01*
X5510000Y-16060000D02*
X5510000Y-13295000D01*
X5510000Y-20905000D02*
X5510000Y-18140000D01*
X5550000Y-16060000D02*
X5550000Y-13290000D01*
X5550000Y-20910000D02*
X5550000Y-18140000D01*
X5590000Y-16060000D02*
X5590000Y-13286000D01*
X5590000Y-20914000D02*
X5590000Y-18140000D01*
X5630000Y-16060000D02*
X5630000Y-13283000D01*
X5630000Y-20917000D02*
X5630000Y-18140000D01*
X5670000Y-16060000D02*
X5670000Y-13280000D01*
X5670000Y-20920000D02*
X5670000Y-18140000D01*
X5710000Y-16060000D02*
X5710000Y-13277000D01*
X5710000Y-20923000D02*
X5710000Y-18140000D01*
X5750000Y-20925000D02*
X5750000Y-13275000D01*
X5790000Y-20927000D02*
X5790000Y-13273000D01*
X5830000Y-20929000D02*
X5830000Y-13271000D01*
X5870000Y-20930000D02*
X5870000Y-13270000D01*
X5910000Y-20930000D02*
X5910000Y-13270000D01*
X5950000Y-20930000D02*
X5950000Y-13270000D01*
X9820000Y-17100000D02*
G75*
G03X9820000Y-17100000I-3870000J0D01*
G01*
X3890000Y-61310000D02*
X3890000Y-59890000D01*
X4090000Y-59890000D02*
X4090000Y-56310000D01*
X4090000Y-56310000D02*
X3890000Y-56310000D01*
X3890000Y-56310000D02*
X3890000Y-54890000D01*
X3890000Y-54890000D02*
X4090000Y-54890000D01*
X11110000Y-58610000D02*
X11110000Y-60100000D01*
X9800000Y-61410000D02*
X6260000Y-61410000D01*
X5820000Y-54790000D02*
X9800000Y-54790000D01*
X11110000Y-56100000D02*
X11110000Y-57590000D01*
X11110000Y-60100000D02*
G75*
G02X9800000Y-61410000I-1310000J0D01*
G01*
X9800000Y-54790000D02*
G75*
G02X11110000Y-56100000I0J-1310000D01*
G01*
X4090000Y-59890000D02*
X3890000Y-59890000D01*
X3890000Y-61310000D02*
X4090000Y-61310000D01*
X4090000Y-61310000D02*
X4090000Y-61410000D01*
X4090000Y-61410000D02*
X4340000Y-61410000D01*
X4090000Y-54890000D02*
X4090000Y-54790000D01*
X4090000Y-54790000D02*
X4780000Y-54790000D01*
X30430000Y-46300000D02*
X26830000Y-46300000D01*
X30468478Y-46311522D02*
G75*
G02X28630000Y-50750000I-1838478J-1838478D01*
G01*
X26791522Y-46311522D02*
G75*
G03X28630000Y-50750000I1838478J-1838478D01*
G01*
X18970000Y-44270000D02*
X20300000Y-44270000D01*
X18970000Y-45600000D02*
X18970000Y-44270000D01*
X18970000Y-46870000D02*
X21630000Y-46870000D01*
X21630000Y-46870000D02*
X21630000Y-46930000D01*
X18970000Y-46870000D02*
X18970000Y-46930000D01*
X18970000Y-46930000D02*
X21630000Y-46930000D01*
X18970000Y-61570000D02*
X20300000Y-61570000D01*
X18970000Y-62900000D02*
X18970000Y-61570000D01*
X18970000Y-64170000D02*
X21630000Y-64170000D01*
X21630000Y-64170000D02*
X21630000Y-64230000D01*
X18970000Y-64170000D02*
X18970000Y-64230000D01*
X18970000Y-64230000D02*
X21630000Y-64230000D01*
X18970000Y-54270000D02*
X20300000Y-54270000D01*
X18970000Y-55600000D02*
X18970000Y-54270000D01*
X18970000Y-56870000D02*
X21630000Y-56870000D01*
X21630000Y-56870000D02*
X21630000Y-56930000D01*
X18970000Y-56870000D02*
X18970000Y-56930000D01*
X18970000Y-56930000D02*
X21630000Y-56930000D01*
X23580000Y-67570000D02*
X23580000Y-67240000D01*
X17040000Y-67570000D02*
X23580000Y-67570000D01*
X17040000Y-67240000D02*
X17040000Y-67570000D01*
X23580000Y-64830000D02*
X23580000Y-65160000D01*
X17040000Y-64830000D02*
X23580000Y-64830000D01*
X17040000Y-65160000D02*
X17040000Y-64830000D01*
X23580000Y-60570000D02*
X23580000Y-60240000D01*
X17040000Y-60570000D02*
X23580000Y-60570000D01*
X17040000Y-60240000D02*
X17040000Y-60570000D01*
X23580000Y-57830000D02*
X23580000Y-58160000D01*
X17040000Y-57830000D02*
X23580000Y-57830000D01*
X17040000Y-58160000D02*
X17040000Y-57830000D01*
X30430000Y-63250000D02*
X26830000Y-63250000D01*
X30468478Y-63261522D02*
G75*
G02X28630000Y-67700000I-1838478J-1838478D01*
G01*
X26791522Y-63261522D02*
G75*
G03X28630000Y-67700000I1838478J-1838478D01*
G01*
X30430000Y-56100000D02*
X26830000Y-56100000D01*
X30468478Y-56111522D02*
G75*
G02X28630000Y-60550000I-1838478J-1838478D01*
G01*
X26791522Y-56111522D02*
G75*
G03X28630000Y-60550000I1838478J-1838478D01*
G01*
X47570000Y-54820000D02*
X48900000Y-54820000D01*
X47570000Y-56150000D02*
X47570000Y-54820000D01*
X47570000Y-57420000D02*
X50230000Y-57420000D01*
X50230000Y-57420000D02*
X50230000Y-62560000D01*
X47570000Y-57420000D02*
X47570000Y-62560000D01*
X47570000Y-62560000D02*
X50230000Y-62560000D01*
X47570000Y-44695000D02*
X48900000Y-44695000D01*
X47570000Y-46025000D02*
X47570000Y-44695000D01*
X47570000Y-47295000D02*
X50230000Y-47295000D01*
X50230000Y-47295000D02*
X50230000Y-52435000D01*
X47570000Y-47295000D02*
X47570000Y-52435000D01*
X47570000Y-52435000D02*
X50230000Y-52435000D01*
X36940000Y-64155000D02*
X36940000Y-67095000D01*
X37180000Y-64155000D02*
X37180000Y-67095000D01*
X37060000Y-64155000D02*
X37060000Y-67095000D01*
X42620000Y-65625000D02*
X41600000Y-65625000D01*
X35140000Y-65625000D02*
X36160000Y-65625000D01*
X41600000Y-64155000D02*
X36160000Y-64155000D01*
X41600000Y-67095000D02*
X41600000Y-64155000D01*
X36160000Y-67095000D02*
X41600000Y-67095000D01*
X36160000Y-64155000D02*
X36160000Y-67095000D01*
X36940000Y-56305000D02*
X36940000Y-59245000D01*
X37180000Y-56305000D02*
X37180000Y-59245000D01*
X37060000Y-56305000D02*
X37060000Y-59245000D01*
X42620000Y-57775000D02*
X41600000Y-57775000D01*
X35140000Y-57775000D02*
X36160000Y-57775000D01*
X41600000Y-56305000D02*
X36160000Y-56305000D01*
X41600000Y-59245000D02*
X41600000Y-56305000D01*
X36160000Y-59245000D02*
X41600000Y-59245000D01*
X36160000Y-56305000D02*
X36160000Y-59245000D01*
X15300000Y-46050000D02*
X15300000Y-43250000D01*
X15300000Y-43250000D02*
X17300000Y-43250000D01*
X17300000Y-43250000D02*
X17300000Y-46050000D01*
X17300000Y-46050000D02*
X15300000Y-46050000D01*
X41940000Y-38960000D02*
X41940000Y-40660000D01*
X41940000Y-40660000D02*
X41940000Y-41160000D01*
X41940000Y-41160000D02*
X44540000Y-41160000D01*
X44540000Y-41160000D02*
X44540000Y-38960000D01*
X44540000Y-38960000D02*
X41940000Y-38960000D01*
X39400000Y-38960000D02*
X39400000Y-40660000D01*
X39400000Y-40660000D02*
X39400000Y-41160000D01*
X39400000Y-41160000D02*
X42000000Y-41160000D01*
X42000000Y-41160000D02*
X42000000Y-38960000D01*
X42000000Y-38960000D02*
X39400000Y-38960000D01*
X36860000Y-38960000D02*
X36860000Y-40660000D01*
X36860000Y-40660000D02*
X36860000Y-41160000D01*
X36860000Y-41160000D02*
X39460000Y-41160000D01*
X39460000Y-41160000D02*
X39460000Y-38960000D01*
X39460000Y-38960000D02*
X36860000Y-38960000D01*
X34320000Y-38960000D02*
X34320000Y-40660000D01*
X34320000Y-40660000D02*
X34320000Y-41160000D01*
X34320000Y-41160000D02*
X36920000Y-41160000D01*
X36920000Y-41160000D02*
X36920000Y-38960000D01*
X36920000Y-38960000D02*
X34320000Y-38960000D01*
X31780000Y-38960000D02*
X31780000Y-40660000D01*
X31780000Y-40660000D02*
X31780000Y-41160000D01*
X31780000Y-41160000D02*
X34380000Y-41160000D01*
X34380000Y-41160000D02*
X34380000Y-38960000D01*
X34380000Y-38960000D02*
X31780000Y-38960000D01*
X29240000Y-38960000D02*
X29240000Y-40660000D01*
X29240000Y-40660000D02*
X29240000Y-41160000D01*
X29240000Y-41160000D02*
X31840000Y-41160000D01*
X31840000Y-41160000D02*
X31840000Y-38960000D01*
X31840000Y-38960000D02*
X29240000Y-38960000D01*
X26700000Y-38960000D02*
X26700000Y-40660000D01*
X26700000Y-40660000D02*
X26700000Y-41160000D01*
X26700000Y-41160000D02*
X29300000Y-41160000D01*
X29300000Y-41160000D02*
X29300000Y-38960000D01*
X29300000Y-38960000D02*
X26700000Y-38960000D01*
X41940000Y-36420000D02*
X41940000Y-38120000D01*
X41940000Y-38120000D02*
X41940000Y-38620000D01*
X41940000Y-38620000D02*
X44540000Y-38620000D01*
X44540000Y-38620000D02*
X44540000Y-36420000D01*
X44540000Y-36420000D02*
X41940000Y-36420000D01*
X39400000Y-36420000D02*
X39400000Y-38120000D01*
X39400000Y-38120000D02*
X39400000Y-38620000D01*
X39400000Y-38620000D02*
X42000000Y-38620000D01*
X42000000Y-38620000D02*
X42000000Y-36420000D01*
X42000000Y-36420000D02*
X39400000Y-36420000D01*
X36860000Y-36420000D02*
X36860000Y-38120000D01*
X36860000Y-38120000D02*
X36860000Y-38620000D01*
X36860000Y-38620000D02*
X39460000Y-38620000D01*
X39460000Y-38620000D02*
X39460000Y-36420000D01*
X39460000Y-36420000D02*
X36860000Y-36420000D01*
X34320000Y-36420000D02*
X34320000Y-38120000D01*
X34320000Y-38120000D02*
X34320000Y-38620000D01*
X34320000Y-38620000D02*
X36920000Y-38620000D01*
X36920000Y-38620000D02*
X36920000Y-36420000D01*
X36920000Y-36420000D02*
X34320000Y-36420000D01*
X31780000Y-36420000D02*
X31780000Y-38120000D01*
X31780000Y-38120000D02*
X31780000Y-38620000D01*
X31780000Y-38620000D02*
X34380000Y-38620000D01*
X34380000Y-38620000D02*
X34380000Y-36420000D01*
X34380000Y-36420000D02*
X31780000Y-36420000D01*
X29240000Y-36420000D02*
X29240000Y-38120000D01*
X29240000Y-38120000D02*
X29240000Y-38620000D01*
X29240000Y-38620000D02*
X31840000Y-38620000D01*
X31840000Y-38620000D02*
X31840000Y-36420000D01*
X31840000Y-36420000D02*
X29240000Y-36420000D01*
X26700000Y-36420000D02*
X26700000Y-38120000D01*
X26700000Y-38120000D02*
X26700000Y-38620000D01*
X26700000Y-38620000D02*
X29300000Y-38620000D01*
X29300000Y-38620000D02*
X29300000Y-36420000D01*
X29300000Y-36420000D02*
X26700000Y-36420000D01*
X41940000Y-33880000D02*
X41940000Y-35580000D01*
X41940000Y-35580000D02*
X41940000Y-36080000D01*
X41940000Y-36080000D02*
X44540000Y-36080000D01*
X44540000Y-36080000D02*
X44540000Y-33880000D01*
X44540000Y-33880000D02*
X41940000Y-33880000D01*
X39400000Y-33880000D02*
X39400000Y-35580000D01*
X39400000Y-35580000D02*
X39400000Y-36080000D01*
X39400000Y-36080000D02*
X42000000Y-36080000D01*
X42000000Y-36080000D02*
X42000000Y-33880000D01*
X42000000Y-33880000D02*
X39400000Y-33880000D01*
X36860000Y-33880000D02*
X36860000Y-35580000D01*
X36860000Y-35580000D02*
X36860000Y-36080000D01*
X36860000Y-36080000D02*
X39460000Y-36080000D01*
X39460000Y-36080000D02*
X39460000Y-33880000D01*
X39460000Y-33880000D02*
X36860000Y-33880000D01*
X34320000Y-33880000D02*
X34320000Y-35580000D01*
X34320000Y-35580000D02*
X34320000Y-36080000D01*
X34320000Y-36080000D02*
X36920000Y-36080000D01*
X36920000Y-36080000D02*
X36920000Y-33880000D01*
X36920000Y-33880000D02*
X34320000Y-33880000D01*
X31780000Y-33880000D02*
X31780000Y-35580000D01*
X31780000Y-35580000D02*
X31780000Y-36080000D01*
X31780000Y-36080000D02*
X34380000Y-36080000D01*
X34380000Y-36080000D02*
X34380000Y-33880000D01*
X34380000Y-33880000D02*
X31780000Y-33880000D01*
X29240000Y-33880000D02*
X29240000Y-35580000D01*
X29240000Y-35580000D02*
X29240000Y-36080000D01*
X29240000Y-36080000D02*
X31840000Y-36080000D01*
X31840000Y-36080000D02*
X31840000Y-33880000D01*
X31840000Y-33880000D02*
X29240000Y-33880000D01*
X26700000Y-33880000D02*
X26700000Y-35580000D01*
X26700000Y-35580000D02*
X26700000Y-36080000D01*
X26700000Y-36080000D02*
X29300000Y-36080000D01*
X29300000Y-36080000D02*
X29300000Y-33880000D01*
X29300000Y-33880000D02*
X26700000Y-33880000D01*
X41940000Y-31340000D02*
X41940000Y-33040000D01*
X41940000Y-33040000D02*
X41940000Y-33540000D01*
X41940000Y-33540000D02*
X44540000Y-33540000D01*
X44540000Y-33540000D02*
X44540000Y-31340000D01*
X44540000Y-31340000D02*
X41940000Y-31340000D01*
X39400000Y-31340000D02*
X39400000Y-33040000D01*
X39400000Y-33040000D02*
X39400000Y-33540000D01*
X39400000Y-33540000D02*
X42000000Y-33540000D01*
X42000000Y-33540000D02*
X42000000Y-31340000D01*
X42000000Y-31340000D02*
X39400000Y-31340000D01*
X36860000Y-31340000D02*
X36860000Y-33040000D01*
X36860000Y-33040000D02*
X36860000Y-33540000D01*
X36860000Y-33540000D02*
X39460000Y-33540000D01*
X39460000Y-33540000D02*
X39460000Y-31340000D01*
X39460000Y-31340000D02*
X36860000Y-31340000D01*
X34320000Y-31340000D02*
X34320000Y-33040000D01*
X34320000Y-33040000D02*
X34320000Y-33540000D01*
X34320000Y-33540000D02*
X36920000Y-33540000D01*
X36920000Y-33540000D02*
X36920000Y-31340000D01*
X36920000Y-31340000D02*
X34320000Y-31340000D01*
X31780000Y-31340000D02*
X31780000Y-33040000D01*
X31780000Y-33040000D02*
X31780000Y-33540000D01*
X31780000Y-33540000D02*
X34380000Y-33540000D01*
X34380000Y-33540000D02*
X34380000Y-31340000D01*
X34380000Y-31340000D02*
X31780000Y-31340000D01*
X29240000Y-31340000D02*
X29240000Y-33040000D01*
X29240000Y-33040000D02*
X29240000Y-33540000D01*
X29240000Y-33540000D02*
X31840000Y-33540000D01*
X31840000Y-33540000D02*
X31840000Y-31340000D01*
X31840000Y-31340000D02*
X29240000Y-31340000D01*
X26700000Y-31340000D02*
X26700000Y-33040000D01*
X26700000Y-33040000D02*
X26700000Y-33540000D01*
X26700000Y-33540000D02*
X29300000Y-33540000D01*
X29300000Y-33540000D02*
X29300000Y-31340000D01*
X29300000Y-31340000D02*
X26700000Y-31340000D01*
X41940000Y-28800000D02*
X41940000Y-30500000D01*
X41940000Y-30500000D02*
X41940000Y-31000000D01*
X41940000Y-31000000D02*
X44540000Y-31000000D01*
X44540000Y-31000000D02*
X44540000Y-28800000D01*
X44540000Y-28800000D02*
X41940000Y-28800000D01*
X39400000Y-28800000D02*
X39400000Y-30500000D01*
X39400000Y-30500000D02*
X39400000Y-31000000D01*
X39400000Y-31000000D02*
X42000000Y-31000000D01*
X42000000Y-31000000D02*
X42000000Y-28800000D01*
X42000000Y-28800000D02*
X39400000Y-28800000D01*
X36860000Y-28800000D02*
X36860000Y-30500000D01*
X36860000Y-30500000D02*
X36860000Y-31000000D01*
X36860000Y-31000000D02*
X39460000Y-31000000D01*
X39460000Y-31000000D02*
X39460000Y-28800000D01*
X39460000Y-28800000D02*
X36860000Y-28800000D01*
X34320000Y-28800000D02*
X34320000Y-30500000D01*
X34320000Y-30500000D02*
X34320000Y-31000000D01*
X34320000Y-31000000D02*
X36920000Y-31000000D01*
X36920000Y-31000000D02*
X36920000Y-28800000D01*
X36920000Y-28800000D02*
X34320000Y-28800000D01*
X31780000Y-28800000D02*
X31780000Y-30500000D01*
X31780000Y-30500000D02*
X31780000Y-31000000D01*
X31780000Y-31000000D02*
X34380000Y-31000000D01*
X34380000Y-31000000D02*
X34380000Y-28800000D01*
X34380000Y-28800000D02*
X31780000Y-28800000D01*
X29240000Y-28800000D02*
X29240000Y-30500000D01*
X29240000Y-30500000D02*
X29240000Y-31000000D01*
X29240000Y-31000000D02*
X31840000Y-31000000D01*
X31840000Y-31000000D02*
X31840000Y-28800000D01*
X31840000Y-28800000D02*
X29240000Y-28800000D01*
X26700000Y-28800000D02*
X26700000Y-30500000D01*
X26700000Y-30500000D02*
X26700000Y-31000000D01*
X26700000Y-31000000D02*
X29300000Y-31000000D01*
X29300000Y-31000000D02*
X29300000Y-28800000D01*
X29300000Y-28800000D02*
X26700000Y-28800000D01*
X41940000Y-26260000D02*
X41940000Y-27960000D01*
X41940000Y-27960000D02*
X41940000Y-28460000D01*
X41940000Y-28460000D02*
X44540000Y-28460000D01*
X44540000Y-28460000D02*
X44540000Y-26260000D01*
X44540000Y-26260000D02*
X41940000Y-26260000D01*
X39400000Y-26260000D02*
X39400000Y-27960000D01*
X39400000Y-27960000D02*
X39400000Y-28460000D01*
X39400000Y-28460000D02*
X42000000Y-28460000D01*
X42000000Y-28460000D02*
X42000000Y-26260000D01*
X42000000Y-26260000D02*
X39400000Y-26260000D01*
X36860000Y-26260000D02*
X36860000Y-27960000D01*
X36860000Y-27960000D02*
X36860000Y-28460000D01*
X36860000Y-28460000D02*
X39460000Y-28460000D01*
X39460000Y-28460000D02*
X39460000Y-26260000D01*
X39460000Y-26260000D02*
X36860000Y-26260000D01*
X34320000Y-26260000D02*
X34320000Y-27960000D01*
X34320000Y-27960000D02*
X34320000Y-28460000D01*
X34320000Y-28460000D02*
X36920000Y-28460000D01*
X36920000Y-28460000D02*
X36920000Y-26260000D01*
X36920000Y-26260000D02*
X34320000Y-26260000D01*
X31780000Y-26260000D02*
X31780000Y-27960000D01*
X31780000Y-27960000D02*
X31780000Y-28460000D01*
X31780000Y-28460000D02*
X34380000Y-28460000D01*
X34380000Y-28460000D02*
X34380000Y-26260000D01*
X34380000Y-26260000D02*
X31780000Y-26260000D01*
X29240000Y-26260000D02*
X29240000Y-27960000D01*
X29240000Y-27960000D02*
X29240000Y-28460000D01*
X29240000Y-28460000D02*
X31840000Y-28460000D01*
X31840000Y-28460000D02*
X31840000Y-26260000D01*
X31840000Y-26260000D02*
X29240000Y-26260000D01*
X26700000Y-26260000D02*
X26700000Y-27960000D01*
X26700000Y-27960000D02*
X26700000Y-28460000D01*
X26700000Y-28460000D02*
X29300000Y-28460000D01*
X29300000Y-28460000D02*
X29300000Y-26260000D01*
X29300000Y-26260000D02*
X26700000Y-26260000D01*
X41940000Y-23720000D02*
X41940000Y-25420000D01*
X41940000Y-25420000D02*
X41940000Y-25920000D01*
X41940000Y-25920000D02*
X44540000Y-25920000D01*
X44540000Y-25920000D02*
X44540000Y-23720000D01*
X44540000Y-23720000D02*
X41940000Y-23720000D01*
X39400000Y-23720000D02*
X39400000Y-25420000D01*
X39400000Y-25420000D02*
X39400000Y-25920000D01*
X39400000Y-25920000D02*
X42000000Y-25920000D01*
X42000000Y-25920000D02*
X42000000Y-23720000D01*
X42000000Y-23720000D02*
X39400000Y-23720000D01*
X36860000Y-23720000D02*
X36860000Y-25420000D01*
X36860000Y-25420000D02*
X36860000Y-25920000D01*
X36860000Y-25920000D02*
X39460000Y-25920000D01*
X39460000Y-25920000D02*
X39460000Y-23720000D01*
X39460000Y-23720000D02*
X36860000Y-23720000D01*
X34320000Y-23720000D02*
X34320000Y-25420000D01*
X34320000Y-25420000D02*
X34320000Y-25920000D01*
X34320000Y-25920000D02*
X36920000Y-25920000D01*
X36920000Y-25920000D02*
X36920000Y-23720000D01*
X36920000Y-23720000D02*
X34320000Y-23720000D01*
X31780000Y-23720000D02*
X31780000Y-25420000D01*
X31780000Y-25420000D02*
X31780000Y-25920000D01*
X31780000Y-25920000D02*
X34380000Y-25920000D01*
X34380000Y-25920000D02*
X34380000Y-23720000D01*
X34380000Y-23720000D02*
X31780000Y-23720000D01*
X29240000Y-23720000D02*
X29240000Y-25420000D01*
X29240000Y-25420000D02*
X29240000Y-25920000D01*
X29240000Y-25920000D02*
X31840000Y-25920000D01*
X31840000Y-25920000D02*
X31840000Y-23720000D01*
X31840000Y-23720000D02*
X29240000Y-23720000D01*
X26700000Y-23720000D02*
X26700000Y-25420000D01*
X26700000Y-25420000D02*
X26700000Y-25920000D01*
X26700000Y-25920000D02*
X29300000Y-25920000D01*
X29300000Y-25920000D02*
X29300000Y-23720000D01*
X29300000Y-23720000D02*
X26700000Y-23720000D01*
X41940000Y-21180000D02*
X41940000Y-22880000D01*
X41940000Y-22880000D02*
X41940000Y-23380000D01*
X41940000Y-23380000D02*
X44540000Y-23380000D01*
X44540000Y-23380000D02*
X44540000Y-21180000D01*
X44540000Y-21180000D02*
X41940000Y-21180000D01*
X39400000Y-21180000D02*
X39400000Y-22880000D01*
X39400000Y-22880000D02*
X39400000Y-23380000D01*
X39400000Y-23380000D02*
X42000000Y-23380000D01*
X42000000Y-23380000D02*
X42000000Y-21180000D01*
X42000000Y-21180000D02*
X39400000Y-21180000D01*
X36860000Y-21180000D02*
X36860000Y-22880000D01*
X36860000Y-22880000D02*
X36860000Y-23380000D01*
X36860000Y-23380000D02*
X39460000Y-23380000D01*
X39460000Y-23380000D02*
X39460000Y-21180000D01*
X39460000Y-21180000D02*
X36860000Y-21180000D01*
X34320000Y-21180000D02*
X34320000Y-22880000D01*
X34320000Y-22880000D02*
X34320000Y-23380000D01*
X34320000Y-23380000D02*
X36920000Y-23380000D01*
X36920000Y-23380000D02*
X36920000Y-21180000D01*
X36920000Y-21180000D02*
X34320000Y-21180000D01*
X31780000Y-21180000D02*
X31780000Y-22880000D01*
X31780000Y-22880000D02*
X31780000Y-23380000D01*
X31780000Y-23380000D02*
X34380000Y-23380000D01*
X34380000Y-23380000D02*
X34380000Y-21180000D01*
X34380000Y-21180000D02*
X31780000Y-21180000D01*
X29240000Y-21180000D02*
X29240000Y-22880000D01*
X29240000Y-22880000D02*
X29240000Y-23380000D01*
X29240000Y-23380000D02*
X31840000Y-23380000D01*
X31840000Y-23380000D02*
X31840000Y-21180000D01*
X31840000Y-21180000D02*
X29240000Y-21180000D01*
X26700000Y-21180000D02*
X26700000Y-22880000D01*
X26700000Y-22880000D02*
X26700000Y-23380000D01*
X26700000Y-23380000D02*
X29300000Y-23380000D01*
X29300000Y-23380000D02*
X29300000Y-21180000D01*
X29300000Y-21180000D02*
X26700000Y-21180000D01*
X41940000Y-18640000D02*
X41940000Y-20340000D01*
X41940000Y-20340000D02*
X41940000Y-20840000D01*
X41940000Y-20840000D02*
X44540000Y-20840000D01*
X44540000Y-20840000D02*
X44540000Y-18640000D01*
X44540000Y-18640000D02*
X41940000Y-18640000D01*
X39400000Y-18640000D02*
X39400000Y-20340000D01*
X39400000Y-20340000D02*
X39400000Y-20840000D01*
X39400000Y-20840000D02*
X42000000Y-20840000D01*
X42000000Y-20840000D02*
X42000000Y-18640000D01*
X42000000Y-18640000D02*
X39400000Y-18640000D01*
X36860000Y-18640000D02*
X36860000Y-20340000D01*
X36860000Y-20340000D02*
X36860000Y-20840000D01*
X36860000Y-20840000D02*
X39460000Y-20840000D01*
X39460000Y-20840000D02*
X39460000Y-18640000D01*
X39460000Y-18640000D02*
X36860000Y-18640000D01*
X34320000Y-18640000D02*
X34320000Y-20340000D01*
X34320000Y-20340000D02*
X34320000Y-20840000D01*
X34320000Y-20840000D02*
X36920000Y-20840000D01*
X36920000Y-20840000D02*
X36920000Y-18640000D01*
X36920000Y-18640000D02*
X34320000Y-18640000D01*
X31780000Y-18640000D02*
X31780000Y-20340000D01*
X31780000Y-20340000D02*
X31780000Y-20840000D01*
X31780000Y-20840000D02*
X34380000Y-20840000D01*
X34380000Y-20840000D02*
X34380000Y-18640000D01*
X34380000Y-18640000D02*
X31780000Y-18640000D01*
X29240000Y-18640000D02*
X29240000Y-20340000D01*
X29240000Y-20340000D02*
X29240000Y-20840000D01*
X29240000Y-20840000D02*
X31840000Y-20840000D01*
X31840000Y-20840000D02*
X31840000Y-18640000D01*
X31840000Y-18640000D02*
X29240000Y-18640000D01*
X26700000Y-18640000D02*
X26700000Y-20340000D01*
X26700000Y-20340000D02*
X26700000Y-20840000D01*
X26700000Y-20840000D02*
X29300000Y-20840000D01*
X29300000Y-20840000D02*
X29300000Y-18640000D01*
X29300000Y-18640000D02*
X26700000Y-18640000D01*
X41940000Y-16100000D02*
X41940000Y-17800000D01*
X41940000Y-17800000D02*
X41940000Y-18300000D01*
X41940000Y-18300000D02*
X44540000Y-18300000D01*
X44540000Y-18300000D02*
X44540000Y-16100000D01*
X44540000Y-16100000D02*
X41940000Y-16100000D01*
X39400000Y-16100000D02*
X39400000Y-17800000D01*
X39400000Y-17800000D02*
X39400000Y-18300000D01*
X39400000Y-18300000D02*
X42000000Y-18300000D01*
X42000000Y-18300000D02*
X42000000Y-16100000D01*
X42000000Y-16100000D02*
X39400000Y-16100000D01*
X36860000Y-16100000D02*
X36860000Y-17800000D01*
X36860000Y-17800000D02*
X36860000Y-18300000D01*
X36860000Y-18300000D02*
X39460000Y-18300000D01*
X39460000Y-18300000D02*
X39460000Y-16100000D01*
X39460000Y-16100000D02*
X36860000Y-16100000D01*
X34320000Y-16100000D02*
X34320000Y-17800000D01*
X34320000Y-17800000D02*
X34320000Y-18300000D01*
X34320000Y-18300000D02*
X36920000Y-18300000D01*
X36920000Y-18300000D02*
X36920000Y-16100000D01*
X36920000Y-16100000D02*
X34320000Y-16100000D01*
X31780000Y-16100000D02*
X31780000Y-17800000D01*
X31780000Y-17800000D02*
X31780000Y-18300000D01*
X31780000Y-18300000D02*
X34380000Y-18300000D01*
X34380000Y-18300000D02*
X34380000Y-16100000D01*
X34380000Y-16100000D02*
X31780000Y-16100000D01*
X29240000Y-16100000D02*
X29240000Y-17800000D01*
X29240000Y-17800000D02*
X29240000Y-18300000D01*
X29240000Y-18300000D02*
X31840000Y-18300000D01*
X31840000Y-18300000D02*
X31840000Y-16100000D01*
X31840000Y-16100000D02*
X29240000Y-16100000D01*
X26700000Y-16100000D02*
X26700000Y-17800000D01*
X26700000Y-17800000D02*
X26700000Y-18300000D01*
X26700000Y-18300000D02*
X29300000Y-18300000D01*
X29300000Y-18300000D02*
X29300000Y-16100000D01*
X29300000Y-16100000D02*
X26700000Y-16100000D01*
X41940000Y-13560000D02*
X41940000Y-15260000D01*
X41940000Y-15260000D02*
X41940000Y-15760000D01*
X41940000Y-15760000D02*
X44540000Y-15760000D01*
X44540000Y-15760000D02*
X44540000Y-13560000D01*
X44540000Y-13560000D02*
X41940000Y-13560000D01*
X39400000Y-13560000D02*
X39400000Y-15260000D01*
X39400000Y-15260000D02*
X39400000Y-15760000D01*
X39400000Y-15760000D02*
X42000000Y-15760000D01*
X42000000Y-15760000D02*
X42000000Y-13560000D01*
X42000000Y-13560000D02*
X39400000Y-13560000D01*
X36860000Y-13560000D02*
X36860000Y-15260000D01*
X36860000Y-15260000D02*
X36860000Y-15760000D01*
X36860000Y-15760000D02*
X39460000Y-15760000D01*
X39460000Y-15760000D02*
X39460000Y-13560000D01*
X39460000Y-13560000D02*
X36860000Y-13560000D01*
X34320000Y-13560000D02*
X34320000Y-15260000D01*
X34320000Y-15260000D02*
X34320000Y-15760000D01*
X34320000Y-15760000D02*
X36920000Y-15760000D01*
X36920000Y-15760000D02*
X36920000Y-13560000D01*
X36920000Y-13560000D02*
X34320000Y-13560000D01*
X31780000Y-13560000D02*
X31780000Y-15260000D01*
X31780000Y-15260000D02*
X31780000Y-15760000D01*
X31780000Y-15760000D02*
X34380000Y-15760000D01*
X34380000Y-15760000D02*
X34380000Y-13560000D01*
X34380000Y-13560000D02*
X31780000Y-13560000D01*
X29240000Y-13560000D02*
X29240000Y-15260000D01*
X29240000Y-15260000D02*
X29240000Y-15760000D01*
X29240000Y-15760000D02*
X31840000Y-15760000D01*
X31840000Y-15760000D02*
X31840000Y-13560000D01*
X31840000Y-13560000D02*
X29240000Y-13560000D01*
X26700000Y-13560000D02*
X26700000Y-15260000D01*
X26700000Y-15260000D02*
X26700000Y-15760000D01*
X26700000Y-15760000D02*
X29300000Y-15760000D01*
X29300000Y-15760000D02*
X29300000Y-13560000D01*
X29300000Y-13560000D02*
X26700000Y-13560000D01*
X41940000Y-11020000D02*
X41940000Y-12720000D01*
X41940000Y-12720000D02*
X41940000Y-13220000D01*
X41940000Y-13220000D02*
X44540000Y-13220000D01*
X44540000Y-13220000D02*
X44540000Y-11020000D01*
X44540000Y-11020000D02*
X41940000Y-11020000D01*
X39400000Y-11020000D02*
X39400000Y-12720000D01*
X39400000Y-12720000D02*
X39400000Y-13220000D01*
X39400000Y-13220000D02*
X42000000Y-13220000D01*
X42000000Y-13220000D02*
X42000000Y-11020000D01*
X42000000Y-11020000D02*
X39400000Y-11020000D01*
X36860000Y-11020000D02*
X36860000Y-12720000D01*
X36860000Y-12720000D02*
X36860000Y-13220000D01*
X36860000Y-13220000D02*
X39460000Y-13220000D01*
X39460000Y-13220000D02*
X39460000Y-11020000D01*
X39460000Y-11020000D02*
X36860000Y-11020000D01*
X34320000Y-11020000D02*
X34320000Y-12720000D01*
X34320000Y-12720000D02*
X34320000Y-13220000D01*
X34320000Y-13220000D02*
X36920000Y-13220000D01*
X36920000Y-13220000D02*
X36920000Y-11020000D01*
X36920000Y-11020000D02*
X34320000Y-11020000D01*
X31780000Y-11020000D02*
X31780000Y-12720000D01*
X31780000Y-12720000D02*
X31780000Y-13220000D01*
X31780000Y-13220000D02*
X34380000Y-13220000D01*
X34380000Y-13220000D02*
X34380000Y-11020000D01*
X34380000Y-11020000D02*
X31780000Y-11020000D01*
X29240000Y-11020000D02*
X29240000Y-12720000D01*
X29240000Y-12720000D02*
X29240000Y-13220000D01*
X29240000Y-13220000D02*
X31840000Y-13220000D01*
X31840000Y-13220000D02*
X31840000Y-11020000D01*
X31840000Y-11020000D02*
X29240000Y-11020000D01*
X26700000Y-11020000D02*
X26700000Y-12720000D01*
X26700000Y-12720000D02*
X26700000Y-13220000D01*
X26700000Y-13220000D02*
X29300000Y-13220000D01*
X29300000Y-13220000D02*
X29300000Y-11020000D01*
X29300000Y-11020000D02*
X26700000Y-11020000D01*
X41940000Y-8480000D02*
X41940000Y-10180000D01*
X41940000Y-10180000D02*
X41940000Y-10680000D01*
X41940000Y-10680000D02*
X44540000Y-10680000D01*
X44540000Y-10680000D02*
X44540000Y-8480000D01*
X44540000Y-8480000D02*
X41940000Y-8480000D01*
X39400000Y-8480000D02*
X39400000Y-10180000D01*
X39400000Y-10180000D02*
X39400000Y-10680000D01*
X39400000Y-10680000D02*
X42000000Y-10680000D01*
X42000000Y-10680000D02*
X42000000Y-8480000D01*
X42000000Y-8480000D02*
X39400000Y-8480000D01*
X36860000Y-8480000D02*
X36860000Y-10180000D01*
X36860000Y-10180000D02*
X36860000Y-10680000D01*
X36860000Y-10680000D02*
X39460000Y-10680000D01*
X39460000Y-10680000D02*
X39460000Y-8480000D01*
X39460000Y-8480000D02*
X36860000Y-8480000D01*
X34320000Y-8480000D02*
X34320000Y-10180000D01*
X34320000Y-10180000D02*
X34320000Y-10680000D01*
X34320000Y-10680000D02*
X36920000Y-10680000D01*
X36920000Y-10680000D02*
X36920000Y-8480000D01*
X36920000Y-8480000D02*
X34320000Y-8480000D01*
X31780000Y-8480000D02*
X31780000Y-10180000D01*
X31780000Y-10180000D02*
X31780000Y-10680000D01*
X31780000Y-10680000D02*
X34380000Y-10680000D01*
X34380000Y-10680000D02*
X34380000Y-8480000D01*
X34380000Y-8480000D02*
X31780000Y-8480000D01*
X29240000Y-8480000D02*
X29240000Y-10180000D01*
X29240000Y-10180000D02*
X29240000Y-10680000D01*
X29240000Y-10680000D02*
X31840000Y-10680000D01*
X31840000Y-10680000D02*
X31840000Y-8480000D01*
X31840000Y-8480000D02*
X29240000Y-8480000D01*
X26700000Y-8480000D02*
X26700000Y-10180000D01*
X26700000Y-10180000D02*
X26700000Y-10680000D01*
X26700000Y-10680000D02*
X29300000Y-10680000D01*
X29300000Y-10680000D02*
X29300000Y-8480000D01*
X29300000Y-8480000D02*
X26700000Y-8480000D01*
X41940000Y-5940000D02*
X41940000Y-7640000D01*
X41940000Y-7640000D02*
X41940000Y-8140000D01*
X41940000Y-8140000D02*
X44540000Y-8140000D01*
X44540000Y-8140000D02*
X44540000Y-5940000D01*
X44540000Y-5940000D02*
X41940000Y-5940000D01*
X39400000Y-5940000D02*
X39400000Y-7640000D01*
X39400000Y-7640000D02*
X39400000Y-8140000D01*
X39400000Y-8140000D02*
X42000000Y-8140000D01*
X42000000Y-8140000D02*
X42000000Y-5940000D01*
X42000000Y-5940000D02*
X39400000Y-5940000D01*
X36860000Y-5940000D02*
X36860000Y-7640000D01*
X36860000Y-7640000D02*
X36860000Y-8140000D01*
X36860000Y-8140000D02*
X39460000Y-8140000D01*
X39460000Y-8140000D02*
X39460000Y-5940000D01*
X39460000Y-5940000D02*
X36860000Y-5940000D01*
X34320000Y-5940000D02*
X34320000Y-7640000D01*
X34320000Y-7640000D02*
X34320000Y-8140000D01*
X34320000Y-8140000D02*
X36920000Y-8140000D01*
X36920000Y-8140000D02*
X36920000Y-5940000D01*
X36920000Y-5940000D02*
X34320000Y-5940000D01*
X31780000Y-5940000D02*
X31780000Y-7640000D01*
X31780000Y-7640000D02*
X31780000Y-8140000D01*
X31780000Y-8140000D02*
X34380000Y-8140000D01*
X34380000Y-8140000D02*
X34380000Y-5940000D01*
X34380000Y-5940000D02*
X31780000Y-5940000D01*
X29240000Y-5940000D02*
X29240000Y-7640000D01*
X29240000Y-7640000D02*
X29240000Y-8140000D01*
X29240000Y-8140000D02*
X31840000Y-8140000D01*
X31840000Y-8140000D02*
X31840000Y-5940000D01*
X31840000Y-5940000D02*
X29240000Y-5940000D01*
X26700000Y-5940000D02*
X26700000Y-7640000D01*
X26700000Y-7640000D02*
X26700000Y-8140000D01*
X26700000Y-8140000D02*
X29300000Y-8140000D01*
X29300000Y-8140000D02*
X29300000Y-5940000D01*
X29300000Y-5940000D02*
X26700000Y-5940000D01*
X41940000Y-3400000D02*
X41940000Y-5100000D01*
X41940000Y-5100000D02*
X41940000Y-5600000D01*
X41940000Y-5600000D02*
X44540000Y-5600000D01*
X44540000Y-5600000D02*
X44540000Y-3400000D01*
X44540000Y-3400000D02*
X41940000Y-3400000D01*
X39400000Y-3400000D02*
X39400000Y-5100000D01*
X39400000Y-5100000D02*
X39400000Y-5600000D01*
X39400000Y-5600000D02*
X42000000Y-5600000D01*
X42000000Y-5600000D02*
X42000000Y-3400000D01*
X42000000Y-3400000D02*
X39400000Y-3400000D01*
X36860000Y-3400000D02*
X36860000Y-5100000D01*
X36860000Y-5100000D02*
X36860000Y-5600000D01*
X36860000Y-5600000D02*
X39460000Y-5600000D01*
X39460000Y-5600000D02*
X39460000Y-3400000D01*
X39460000Y-3400000D02*
X36860000Y-3400000D01*
X34320000Y-3400000D02*
X34320000Y-5100000D01*
X34320000Y-5100000D02*
X34320000Y-5600000D01*
X34320000Y-5600000D02*
X36920000Y-5600000D01*
X36920000Y-5600000D02*
X36920000Y-3400000D01*
X36920000Y-3400000D02*
X34320000Y-3400000D01*
X31780000Y-3400000D02*
X31780000Y-5100000D01*
X31780000Y-5100000D02*
X31780000Y-5600000D01*
X31780000Y-5600000D02*
X34380000Y-5600000D01*
X34380000Y-5600000D02*
X34380000Y-3400000D01*
X34380000Y-3400000D02*
X31780000Y-3400000D01*
X29240000Y-3400000D02*
X29240000Y-5100000D01*
X29240000Y-5100000D02*
X29240000Y-5600000D01*
X29240000Y-5600000D02*
X31840000Y-5600000D01*
X31840000Y-5600000D02*
X31840000Y-3400000D01*
X31840000Y-3400000D02*
X29240000Y-3400000D01*
X29300000Y-3400000D02*
X26700000Y-3400000D01*
X29300000Y-5600000D02*
X29300000Y-3400000D01*
X26700000Y-5600000D02*
X29300000Y-5600000D01*
X26700000Y-5100000D02*
X26700000Y-5600000D01*
X26700000Y-3400000D02*
X26700000Y-5100000D01*
X4040000Y-38260000D02*
X4040000Y-37930000D01*
X4040000Y-37930000D02*
X10580000Y-37930000D01*
X10580000Y-37930000D02*
X10580000Y-38260000D01*
X4040000Y-40340000D02*
X4040000Y-40670000D01*
X4040000Y-40670000D02*
X10580000Y-40670000D01*
X10580000Y-40670000D02*
X10580000Y-40340000D01*
X15750000Y-11850000D02*
X16800000Y-11850000D01*
X16800000Y-10800000D02*
X16800000Y-11850000D01*
X7400000Y-5750000D02*
X7400000Y3050000D01*
X7400000Y3050000D02*
X16600000Y3050000D01*
X10100000Y-11650000D02*
X7400000Y-11650000D01*
X7400000Y-11650000D02*
X7400000Y-9750000D01*
X16600000Y3050000D02*
X16600000Y-11650000D01*
X16600000Y-11650000D02*
X14000000Y-11650000D01*
X18380000Y-3420000D02*
X18380000Y-6080000D01*
X20980000Y-3420000D02*
X18380000Y-3420000D01*
X20980000Y-6080000D02*
X18380000Y-6080000D01*
X20980000Y-3420000D02*
X20980000Y-6080000D01*
X22250000Y-3420000D02*
X23580000Y-3420000D01*
X23580000Y-3420000D02*
X23580000Y-4750000D01*
X19795000Y-33670000D02*
X19780000Y-33670000D01*
X21920000Y-33670000D02*
X21905000Y-33670000D01*
X19795000Y-29130000D02*
X19780000Y-29130000D01*
X21920000Y-29130000D02*
X21905000Y-29130000D01*
X19780000Y-29130000D02*
X19780000Y-33670000D01*
X21920000Y-29130000D02*
X21920000Y-33670000D01*
X2295000Y-33670000D02*
X2280000Y-33670000D01*
X4420000Y-33670000D02*
X4405000Y-33670000D01*
X2295000Y-29130000D02*
X2280000Y-29130000D01*
X4420000Y-29130000D02*
X4405000Y-29130000D01*
X2280000Y-29130000D02*
X2280000Y-33670000D01*
X4420000Y-29130000D02*
X4420000Y-33670000D01*
X13160000Y-25070000D02*
G75*
G02X11160000Y-25070000I-1000000J0D01*
G01*
X11160000Y-25070000D02*
X9910000Y-25070000D01*
X9910000Y-25070000D02*
X9910000Y-35350000D01*
X9910000Y-35350000D02*
X14410000Y-35350000D01*
X14410000Y-35350000D02*
X14410000Y-25070000D01*
X14410000Y-25070000D02*
X13160000Y-25070000D01*
X6910000Y-25010000D02*
X6910000Y-35410000D01*
X6910000Y-35410000D02*
X17410000Y-35410000D01*
X17410000Y-35410000D02*
X17410000Y-25010000D01*
X17410000Y-25010000D02*
X6910000Y-25010000D01*
X13300000Y-66630000D02*
X13300000Y-63970000D01*
X8160000Y-66630000D02*
X13300000Y-66630000D01*
X8160000Y-63970000D02*
X13300000Y-63970000D01*
X8160000Y-66630000D02*
X8160000Y-63970000D01*
X6890000Y-66630000D02*
X5560000Y-66630000D01*
X5560000Y-66630000D02*
X5560000Y-65300000D01*
X19480000Y-23280000D02*
X19810000Y-23280000D01*
X19480000Y-16740000D02*
X19480000Y-23280000D01*
X19810000Y-16740000D02*
X19480000Y-16740000D01*
X22220000Y-23280000D02*
X21890000Y-23280000D01*
X22220000Y-16740000D02*
X22220000Y-23280000D01*
X21890000Y-16740000D02*
X22220000Y-16740000D01*
X17040000Y-48260000D02*
X17040000Y-47930000D01*
X17040000Y-47930000D02*
X23580000Y-47930000D01*
X23580000Y-47930000D02*
X23580000Y-48260000D01*
X17040000Y-50340000D02*
X17040000Y-50670000D01*
X17040000Y-50670000D02*
X23580000Y-50670000D01*
X23580000Y-50670000D02*
X23580000Y-50340000D01*
X47495000Y-42460000D02*
X50155000Y-42460000D01*
X47495000Y-37320000D02*
X47495000Y-42460000D01*
X50155000Y-37320000D02*
X50155000Y-42460000D01*
X47495000Y-37320000D02*
X50155000Y-37320000D01*
X47495000Y-36050000D02*
X47495000Y-34720000D01*
X47495000Y-34720000D02*
X48825000Y-34720000D01*
X23142335Y-9421392D02*
G75*
G03X19910000Y-9264484I-1672335J-1078608D01*
G01*
X23142335Y-11578608D02*
G75*
G02X19910000Y-11735516I-1672335J1078608D01*
G01*
X22511130Y-9420163D02*
G75*
G03X20429039Y-9420000I-1041130J-1079837D01*
G01*
X22511130Y-11579837D02*
G75*
G02X20429039Y-11580000I-1041130J1079837D01*
G01*
X19910000Y-9264000D02*
X19910000Y-9420000D01*
X19910000Y-11580000D02*
X19910000Y-11736000D01*
X36160000Y-46655000D02*
X36160000Y-49595000D01*
X36160000Y-49595000D02*
X41600000Y-49595000D01*
X41600000Y-49595000D02*
X41600000Y-46655000D01*
X41600000Y-46655000D02*
X36160000Y-46655000D01*
X35140000Y-48125000D02*
X36160000Y-48125000D01*
X42620000Y-48125000D02*
X41600000Y-48125000D01*
X37060000Y-46655000D02*
X37060000Y-49595000D01*
X37180000Y-46655000D02*
X37180000Y-49595000D01*
X36940000Y-46655000D02*
X36940000Y-49595000D01*
X6420000Y-46490000D02*
X4180000Y-46490000D01*
X6420000Y-46730000D02*
X4180000Y-46730000D01*
X6420000Y-46610000D02*
X4180000Y-46610000D01*
X5300000Y-50780000D02*
X5300000Y-50130000D01*
X5300000Y-45240000D02*
X5300000Y-45890000D01*
X6420000Y-50130000D02*
X6420000Y-45890000D01*
X4180000Y-50130000D02*
X6420000Y-50130000D01*
X4180000Y-45890000D02*
X4180000Y-50130000D01*
X6420000Y-45890000D02*
X4180000Y-45890000D01*
X10220000Y-46490000D02*
X7980000Y-46490000D01*
X10220000Y-46730000D02*
X7980000Y-46730000D01*
X10220000Y-46610000D02*
X7980000Y-46610000D01*
X9100000Y-50780000D02*
X9100000Y-50130000D01*
X9100000Y-45240000D02*
X9100000Y-45890000D01*
X10220000Y-50130000D02*
X10220000Y-45890000D01*
X7980000Y-50130000D02*
X10220000Y-50130000D01*
X7980000Y-45890000D02*
X7980000Y-50130000D01*
X10220000Y-45890000D02*
X7980000Y-45890000D01*
D11*
X5783333Y-22457142D02*
X5735714Y-22504761D01*
X5592857Y-22552380D01*
X5497619Y-22552380D01*
X5354761Y-22504761D01*
X5259523Y-22409523D01*
X5211904Y-22314285D01*
X5164285Y-22123809D01*
X5164285Y-21980952D01*
X5211904Y-21790476D01*
X5259523Y-21695238D01*
X5354761Y-21600000D01*
X5497619Y-21552380D01*
X5592857Y-21552380D01*
X5735714Y-21600000D01*
X5783333Y-21647619D01*
X6735714Y-22552380D02*
X6164285Y-22552380D01*
X6450000Y-22552380D02*
X6450000Y-21552380D01*
X6354761Y-21695238D01*
X6259523Y-21790476D01*
X6164285Y-21838095D01*
X7304761Y-54452380D02*
X6971428Y-53976190D01*
X6733333Y-54452380D02*
X6733333Y-53452380D01*
X7114285Y-53452380D01*
X7209523Y-53500000D01*
X7257142Y-53547619D01*
X7304761Y-53642857D01*
X7304761Y-53785714D01*
X7257142Y-53880952D01*
X7209523Y-53928571D01*
X7114285Y-53976190D01*
X6733333Y-53976190D01*
X7590476Y-53452380D02*
X7923809Y-54452380D01*
X8257142Y-53452380D01*
X8542857Y-53547619D02*
X8590476Y-53500000D01*
X8685714Y-53452380D01*
X8923809Y-53452380D01*
X9019047Y-53500000D01*
X9066666Y-53547619D01*
X9114285Y-53642857D01*
X9114285Y-53738095D01*
X9066666Y-53880952D01*
X8495238Y-54452380D01*
X9114285Y-54452380D01*
X28534761Y-52257619D02*
X28439523Y-52210000D01*
X28344285Y-52114761D01*
X28201428Y-51971904D01*
X28106190Y-51924285D01*
X28010952Y-51924285D01*
X28058571Y-52162380D02*
X27963333Y-52114761D01*
X27868095Y-52019523D01*
X27820476Y-51829047D01*
X27820476Y-51495714D01*
X27868095Y-51305238D01*
X27963333Y-51210000D01*
X28058571Y-51162380D01*
X28249047Y-51162380D01*
X28344285Y-51210000D01*
X28439523Y-51305238D01*
X28487142Y-51495714D01*
X28487142Y-51829047D01*
X28439523Y-52019523D01*
X28344285Y-52114761D01*
X28249047Y-52162380D01*
X28058571Y-52162380D01*
X29439523Y-52162380D02*
X28868095Y-52162380D01*
X29153809Y-52162380D02*
X29153809Y-51162380D01*
X29058571Y-51305238D01*
X28963333Y-51400476D01*
X28868095Y-51448095D01*
X22166666Y-44952380D02*
X22166666Y-45666666D01*
X22119047Y-45809523D01*
X22023809Y-45904761D01*
X21880952Y-45952380D01*
X21785714Y-45952380D01*
X23166666Y-45952380D02*
X22595238Y-45952380D01*
X22880952Y-45952380D02*
X22880952Y-44952380D01*
X22785714Y-45095238D01*
X22690476Y-45190476D01*
X22595238Y-45238095D01*
X22066666Y-62352380D02*
X22066666Y-63066666D01*
X22019047Y-63209523D01*
X21923809Y-63304761D01*
X21780952Y-63352380D01*
X21685714Y-63352380D01*
X22447619Y-62352380D02*
X23066666Y-62352380D01*
X22733333Y-62733333D01*
X22876190Y-62733333D01*
X22971428Y-62780952D01*
X23019047Y-62828571D01*
X23066666Y-62923809D01*
X23066666Y-63161904D01*
X23019047Y-63257142D01*
X22971428Y-63304761D01*
X22876190Y-63352380D01*
X22590476Y-63352380D01*
X22495238Y-63304761D01*
X22447619Y-63257142D01*
X22166666Y-54952380D02*
X22166666Y-55666666D01*
X22119047Y-55809523D01*
X22023809Y-55904761D01*
X21880952Y-55952380D01*
X21785714Y-55952380D01*
X22595238Y-55047619D02*
X22642857Y-55000000D01*
X22738095Y-54952380D01*
X22976190Y-54952380D01*
X23071428Y-55000000D01*
X23119047Y-55047619D01*
X23166666Y-55142857D01*
X23166666Y-55238095D01*
X23119047Y-55380952D01*
X22547619Y-55952380D01*
X23166666Y-55952380D01*
X15433333Y-64752380D02*
X15100000Y-64276190D01*
X14861904Y-64752380D02*
X14861904Y-63752380D01*
X15242857Y-63752380D01*
X15338095Y-63800000D01*
X15385714Y-63847619D01*
X15433333Y-63942857D01*
X15433333Y-64085714D01*
X15385714Y-64180952D01*
X15338095Y-64228571D01*
X15242857Y-64276190D01*
X14861904Y-64276190D01*
X15766666Y-63752380D02*
X16385714Y-63752380D01*
X16052380Y-64133333D01*
X16195238Y-64133333D01*
X16290476Y-64180952D01*
X16338095Y-64228571D01*
X16385714Y-64323809D01*
X16385714Y-64561904D01*
X16338095Y-64657142D01*
X16290476Y-64704761D01*
X16195238Y-64752380D01*
X15909523Y-64752380D01*
X15814285Y-64704761D01*
X15766666Y-64657142D01*
X15333333Y-57652380D02*
X15000000Y-57176190D01*
X14761904Y-57652380D02*
X14761904Y-56652380D01*
X15142857Y-56652380D01*
X15238095Y-56700000D01*
X15285714Y-56747619D01*
X15333333Y-56842857D01*
X15333333Y-56985714D01*
X15285714Y-57080952D01*
X15238095Y-57128571D01*
X15142857Y-57176190D01*
X14761904Y-57176190D01*
X15714285Y-56747619D02*
X15761904Y-56700000D01*
X15857142Y-56652380D01*
X16095238Y-56652380D01*
X16190476Y-56700000D01*
X16238095Y-56747619D01*
X16285714Y-56842857D01*
X16285714Y-56938095D01*
X16238095Y-57080952D01*
X15666666Y-57652380D01*
X16285714Y-57652380D01*
X28604761Y-62672619D02*
X28509523Y-62625000D01*
X28414285Y-62529761D01*
X28271428Y-62386904D01*
X28176190Y-62339285D01*
X28080952Y-62339285D01*
X28128571Y-62577380D02*
X28033333Y-62529761D01*
X27938095Y-62434523D01*
X27890476Y-62244047D01*
X27890476Y-61910714D01*
X27938095Y-61720238D01*
X28033333Y-61625000D01*
X28128571Y-61577380D01*
X28319047Y-61577380D01*
X28414285Y-61625000D01*
X28509523Y-61720238D01*
X28557142Y-61910714D01*
X28557142Y-62244047D01*
X28509523Y-62434523D01*
X28414285Y-62529761D01*
X28319047Y-62577380D01*
X28128571Y-62577380D01*
X28890476Y-61577380D02*
X29509523Y-61577380D01*
X29176190Y-61958333D01*
X29319047Y-61958333D01*
X29414285Y-62005952D01*
X29461904Y-62053571D01*
X29509523Y-62148809D01*
X29509523Y-62386904D01*
X29461904Y-62482142D01*
X29414285Y-62529761D01*
X29319047Y-62577380D01*
X29033333Y-62577380D01*
X28938095Y-62529761D01*
X28890476Y-62482142D01*
X28429761Y-55672619D02*
X28334523Y-55625000D01*
X28239285Y-55529761D01*
X28096428Y-55386904D01*
X28001190Y-55339285D01*
X27905952Y-55339285D01*
X27953571Y-55577380D02*
X27858333Y-55529761D01*
X27763095Y-55434523D01*
X27715476Y-55244047D01*
X27715476Y-54910714D01*
X27763095Y-54720238D01*
X27858333Y-54625000D01*
X27953571Y-54577380D01*
X28144047Y-54577380D01*
X28239285Y-54625000D01*
X28334523Y-54720238D01*
X28382142Y-54910714D01*
X28382142Y-55244047D01*
X28334523Y-55434523D01*
X28239285Y-55529761D01*
X28144047Y-55577380D01*
X27953571Y-55577380D01*
X28763095Y-54672619D02*
X28810714Y-54625000D01*
X28905952Y-54577380D01*
X29144047Y-54577380D01*
X29239285Y-54625000D01*
X29286904Y-54672619D01*
X29334523Y-54767857D01*
X29334523Y-54863095D01*
X29286904Y-55005952D01*
X28715476Y-55577380D01*
X29334523Y-55577380D01*
X48090476Y-54272380D02*
X48090476Y-53272380D01*
X48423809Y-53986666D01*
X48757142Y-53272380D01*
X48757142Y-54272380D01*
X49138095Y-53272380D02*
X49757142Y-53272380D01*
X49423809Y-53653333D01*
X49566666Y-53653333D01*
X49661904Y-53700952D01*
X49709523Y-53748571D01*
X49757142Y-53843809D01*
X49757142Y-54081904D01*
X49709523Y-54177142D01*
X49661904Y-54224761D01*
X49566666Y-54272380D01*
X49280952Y-54272380D01*
X49185714Y-54224761D01*
X49138095Y-54177142D01*
X48090476Y-44147380D02*
X48090476Y-43147380D01*
X48423809Y-43861666D01*
X48757142Y-43147380D01*
X48757142Y-44147380D01*
X49185714Y-43242619D02*
X49233333Y-43195000D01*
X49328571Y-43147380D01*
X49566666Y-43147380D01*
X49661904Y-43195000D01*
X49709523Y-43242619D01*
X49757142Y-43337857D01*
X49757142Y-43433095D01*
X49709523Y-43575952D01*
X49138095Y-44147380D01*
X49757142Y-44147380D01*
X38141904Y-63607380D02*
X38141904Y-62607380D01*
X38380000Y-62607380D01*
X38522857Y-62655000D01*
X38618095Y-62750238D01*
X38665714Y-62845476D01*
X38713333Y-63035952D01*
X38713333Y-63178809D01*
X38665714Y-63369285D01*
X38618095Y-63464523D01*
X38522857Y-63559761D01*
X38380000Y-63607380D01*
X38141904Y-63607380D01*
X39046666Y-62607380D02*
X39665714Y-62607380D01*
X39332380Y-62988333D01*
X39475238Y-62988333D01*
X39570476Y-63035952D01*
X39618095Y-63083571D01*
X39665714Y-63178809D01*
X39665714Y-63416904D01*
X39618095Y-63512142D01*
X39570476Y-63559761D01*
X39475238Y-63607380D01*
X39189523Y-63607380D01*
X39094285Y-63559761D01*
X39046666Y-63512142D01*
X33538095Y-63977380D02*
X33538095Y-62977380D01*
X34109523Y-63977380D02*
X33680952Y-63405952D01*
X34109523Y-62977380D02*
X33538095Y-63548809D01*
X38141904Y-55757380D02*
X38141904Y-54757380D01*
X38380000Y-54757380D01*
X38522857Y-54805000D01*
X38618095Y-54900238D01*
X38665714Y-54995476D01*
X38713333Y-55185952D01*
X38713333Y-55328809D01*
X38665714Y-55519285D01*
X38618095Y-55614523D01*
X38522857Y-55709761D01*
X38380000Y-55757380D01*
X38141904Y-55757380D01*
X39094285Y-54852619D02*
X39141904Y-54805000D01*
X39237142Y-54757380D01*
X39475238Y-54757380D01*
X39570476Y-54805000D01*
X39618095Y-54852619D01*
X39665714Y-54947857D01*
X39665714Y-55043095D01*
X39618095Y-55185952D01*
X39046666Y-55757380D01*
X39665714Y-55757380D01*
X33538095Y-56127380D02*
X33538095Y-55127380D01*
X34109523Y-56127380D02*
X33680952Y-55555952D01*
X34109523Y-55127380D02*
X33538095Y-55698809D01*
X7143333Y-37382380D02*
X6810000Y-36906190D01*
X6571904Y-37382380D02*
X6571904Y-36382380D01*
X6952857Y-36382380D01*
X7048095Y-36430000D01*
X7095714Y-36477619D01*
X7143333Y-36572857D01*
X7143333Y-36715714D01*
X7095714Y-36810952D01*
X7048095Y-36858571D01*
X6952857Y-36906190D01*
X6571904Y-36906190D01*
X8048095Y-36382380D02*
X7571904Y-36382380D01*
X7524285Y-36858571D01*
X7571904Y-36810952D01*
X7667142Y-36763333D01*
X7905238Y-36763333D01*
X8000476Y-36810952D01*
X8048095Y-36858571D01*
X8095714Y-36953809D01*
X8095714Y-37191904D01*
X8048095Y-37287142D01*
X8000476Y-37334761D01*
X7905238Y-37382380D01*
X7667142Y-37382380D01*
X7571904Y-37334761D01*
X7524285Y-37287142D01*
X5916666Y-1752380D02*
X5916666Y-2466666D01*
X5869047Y-2609523D01*
X5773809Y-2704761D01*
X5630952Y-2752380D01*
X5535714Y-2752380D01*
X6821428Y-2085714D02*
X6821428Y-2752380D01*
X6583333Y-1704761D02*
X6345238Y-2419047D01*
X6964285Y-2419047D01*
X19666666Y-2404761D02*
X19809523Y-2452380D01*
X20047619Y-2452380D01*
X20142857Y-2404761D01*
X20190476Y-2357142D01*
X20238095Y-2261904D01*
X20238095Y-2166666D01*
X20190476Y-2071428D01*
X20142857Y-2023809D01*
X20047619Y-1976190D01*
X19857142Y-1928571D01*
X19761904Y-1880952D01*
X19714285Y-1833333D01*
X19666666Y-1738095D01*
X19666666Y-1642857D01*
X19714285Y-1547619D01*
X19761904Y-1500000D01*
X19857142Y-1452380D01*
X20095238Y-1452380D01*
X20238095Y-1500000D01*
X20571428Y-1452380D02*
X20809523Y-2452380D01*
X21000000Y-1738095D01*
X21190476Y-2452380D01*
X21428571Y-1452380D01*
X22333333Y-2452380D02*
X21761904Y-2452380D01*
X22047619Y-2452380D02*
X22047619Y-1452380D01*
X21952380Y-1595238D01*
X21857142Y-1690476D01*
X21761904Y-1738095D01*
X20683333Y-27257142D02*
X20635714Y-27304761D01*
X20492857Y-27352380D01*
X20397619Y-27352380D01*
X20254761Y-27304761D01*
X20159523Y-27209523D01*
X20111904Y-27114285D01*
X20064285Y-26923809D01*
X20064285Y-26780952D01*
X20111904Y-26590476D01*
X20159523Y-26495238D01*
X20254761Y-26400000D01*
X20397619Y-26352380D01*
X20492857Y-26352380D01*
X20635714Y-26400000D01*
X20683333Y-26447619D01*
X21016666Y-26352380D02*
X21635714Y-26352380D01*
X21302380Y-26733333D01*
X21445238Y-26733333D01*
X21540476Y-26780952D01*
X21588095Y-26828571D01*
X21635714Y-26923809D01*
X21635714Y-27161904D01*
X21588095Y-27257142D01*
X21540476Y-27304761D01*
X21445238Y-27352380D01*
X21159523Y-27352380D01*
X21064285Y-27304761D01*
X21016666Y-27257142D01*
X3183333Y-27257142D02*
X3135714Y-27304761D01*
X2992857Y-27352380D01*
X2897619Y-27352380D01*
X2754761Y-27304761D01*
X2659523Y-27209523D01*
X2611904Y-27114285D01*
X2564285Y-26923809D01*
X2564285Y-26780952D01*
X2611904Y-26590476D01*
X2659523Y-26495238D01*
X2754761Y-26400000D01*
X2897619Y-26352380D01*
X2992857Y-26352380D01*
X3135714Y-26400000D01*
X3183333Y-26447619D01*
X3564285Y-26447619D02*
X3611904Y-26400000D01*
X3707142Y-26352380D01*
X3945238Y-26352380D01*
X4040476Y-26400000D01*
X4088095Y-26447619D01*
X4135714Y-26542857D01*
X4135714Y-26638095D01*
X4088095Y-26780952D01*
X3516666Y-27352380D01*
X4135714Y-27352380D01*
X11398095Y-23522380D02*
X11398095Y-24331904D01*
X11445714Y-24427142D01*
X11493333Y-24474761D01*
X11588571Y-24522380D01*
X11779047Y-24522380D01*
X11874285Y-24474761D01*
X11921904Y-24427142D01*
X11969523Y-24331904D01*
X11969523Y-23522380D01*
X12969523Y-24522380D02*
X12398095Y-24522380D01*
X12683809Y-24522380D02*
X12683809Y-23522380D01*
X12588571Y-23665238D01*
X12493333Y-23760476D01*
X12398095Y-23808095D01*
X8804761Y-63552380D02*
X8471428Y-63076190D01*
X8233333Y-63552380D02*
X8233333Y-62552380D01*
X8614285Y-62552380D01*
X8709523Y-62600000D01*
X8757142Y-62647619D01*
X8804761Y-62742857D01*
X8804761Y-62885714D01*
X8757142Y-62980952D01*
X8709523Y-63028571D01*
X8614285Y-63076190D01*
X8233333Y-63076190D01*
X9090476Y-62552380D02*
X9423809Y-63552380D01*
X9757142Y-62552380D01*
X10614285Y-63552380D02*
X10042857Y-63552380D01*
X10328571Y-63552380D02*
X10328571Y-62552380D01*
X10233333Y-62695238D01*
X10138095Y-62790476D01*
X10042857Y-62838095D01*
X20683333Y-14652380D02*
X20350000Y-14176190D01*
X20111904Y-14652380D02*
X20111904Y-13652380D01*
X20492857Y-13652380D01*
X20588095Y-13700000D01*
X20635714Y-13747619D01*
X20683333Y-13842857D01*
X20683333Y-13985714D01*
X20635714Y-14080952D01*
X20588095Y-14128571D01*
X20492857Y-14176190D01*
X20111904Y-14176190D01*
X21540476Y-13985714D02*
X21540476Y-14652380D01*
X21302380Y-13604761D02*
X21064285Y-14319047D01*
X21683333Y-14319047D01*
X15133333Y-47652380D02*
X14800000Y-47176190D01*
X14561904Y-47652380D02*
X14561904Y-46652380D01*
X14942857Y-46652380D01*
X15038095Y-46700000D01*
X15085714Y-46747619D01*
X15133333Y-46842857D01*
X15133333Y-46985714D01*
X15085714Y-47080952D01*
X15038095Y-47128571D01*
X14942857Y-47176190D01*
X14561904Y-47176190D01*
X16085714Y-47652380D02*
X15514285Y-47652380D01*
X15800000Y-47652380D02*
X15800000Y-46652380D01*
X15704761Y-46795238D01*
X15609523Y-46890476D01*
X15514285Y-46938095D01*
X48015476Y-34172380D02*
X48015476Y-33172380D01*
X48348809Y-33886666D01*
X48682142Y-33172380D01*
X48682142Y-34172380D01*
X49682142Y-34172380D02*
X49110714Y-34172380D01*
X49396428Y-34172380D02*
X49396428Y-33172380D01*
X49301190Y-33315238D01*
X49205952Y-33410476D01*
X49110714Y-33458095D01*
X20731904Y-7992380D02*
X20731904Y-6992380D01*
X20970000Y-6992380D01*
X21112857Y-7040000D01*
X21208095Y-7135238D01*
X21255714Y-7230476D01*
X21303333Y-7420952D01*
X21303333Y-7563809D01*
X21255714Y-7754285D01*
X21208095Y-7849523D01*
X21112857Y-7944761D01*
X20970000Y-7992380D01*
X20731904Y-7992380D01*
X22160476Y-7325714D02*
X22160476Y-7992380D01*
X21922380Y-6944761D02*
X21684285Y-7659047D01*
X22303333Y-7659047D01*
X38361904Y-46077380D02*
X38361904Y-45077380D01*
X38600000Y-45077380D01*
X38742857Y-45125000D01*
X38838095Y-45220238D01*
X38885714Y-45315476D01*
X38933333Y-45505952D01*
X38933333Y-45648809D01*
X38885714Y-45839285D01*
X38838095Y-45934523D01*
X38742857Y-46029761D01*
X38600000Y-46077380D01*
X38361904Y-46077380D01*
X39885714Y-46077380D02*
X39314285Y-46077380D01*
X39600000Y-46077380D02*
X39600000Y-45077380D01*
X39504761Y-45220238D01*
X39409523Y-45315476D01*
X39314285Y-45363095D01*
X4561904Y-42902380D02*
X4561904Y-41902380D01*
X4800000Y-41902380D01*
X4942857Y-41950000D01*
X5038095Y-42045238D01*
X5085714Y-42140476D01*
X5133333Y-42330952D01*
X5133333Y-42473809D01*
X5085714Y-42664285D01*
X5038095Y-42759523D01*
X4942857Y-42854761D01*
X4800000Y-42902380D01*
X4561904Y-42902380D01*
X5990476Y-41902380D02*
X5800000Y-41902380D01*
X5704761Y-41950000D01*
X5657142Y-41997619D01*
X5561904Y-42140476D01*
X5514285Y-42330952D01*
X5514285Y-42711904D01*
X5561904Y-42807142D01*
X5609523Y-42854761D01*
X5704761Y-42902380D01*
X5895238Y-42902380D01*
X5990476Y-42854761D01*
X6038095Y-42807142D01*
X6085714Y-42711904D01*
X6085714Y-42473809D01*
X6038095Y-42378571D01*
X5990476Y-42330952D01*
X5895238Y-42283333D01*
X5704761Y-42283333D01*
X5609523Y-42330952D01*
X5561904Y-42378571D01*
X5514285Y-42473809D01*
X8361904Y-42852380D02*
X8361904Y-41852380D01*
X8600000Y-41852380D01*
X8742857Y-41900000D01*
X8838095Y-41995238D01*
X8885714Y-42090476D01*
X8933333Y-42280952D01*
X8933333Y-42423809D01*
X8885714Y-42614285D01*
X8838095Y-42709523D01*
X8742857Y-42804761D01*
X8600000Y-42852380D01*
X8361904Y-42852380D01*
X9838095Y-41852380D02*
X9361904Y-41852380D01*
X9314285Y-42328571D01*
X9361904Y-42280952D01*
X9457142Y-42233333D01*
X9695238Y-42233333D01*
X9790476Y-42280952D01*
X9838095Y-42328571D01*
X9885714Y-42423809D01*
X9885714Y-42661904D01*
X9838095Y-42757142D01*
X9790476Y-42804761D01*
X9695238Y-42852380D01*
X9457142Y-42852380D01*
X9361904Y-42804761D01*
X9314285Y-42757142D01*
M02*
